<?xml version="1.0" encoding="utf-8"?>
<!-- Generator: Adobe Illustrator 22.0.1, SVG Export Plug-In . SVG Version: 6.00 Build 0)  -->
<svg version="1.1" id="レイヤー_1" xmlns="http://www.w3.org/2000/svg" xmlns:xlink="http://www.w3.org/1999/xlink" x="0px"
	 y="0px" viewBox="0 0 18 18" style="enable-background:new 0 0 18 18;" xml:space="preserve">
<path d="M8.1,2.3H5.3v0.5h2.9v1.1c0,0.2,0.1,0.4,0.3,0.4c0.3,0,0.4-0.1,0.7-0.5V2.8h1.8c0.2,0,0.3-0.1,0.3-0.3
	c0-0.1-0.1-0.2-0.2-0.3l-0.7-0.7L9.6,2.3H9.1V1.8c0.3-0.2,0.5-0.4,0.5-0.5c0-0.2-0.2-0.3-0.7-0.4L8.1,0.7V2.3z M12.5,2.3h-1v0.5h1
	v1.1c0,0.2,0.2,0.3,0.4,0.3c0.2,0,0.4-0.1,0.7-0.5V2.8h3.2c0.3,0,0.5-0.1,0.5-0.3c0-0.1-0.1-0.3-0.3-0.5l-0.8-0.7l-0.8,1h-1.8V1.7
	C13.9,1.6,14,1.4,14,1.2c0-0.2-0.2-0.3-0.6-0.4l-0.9-0.2V2.3z M1.8,11.5v-7h2v7H1.8z M1.8,11.9h2v0.5c0,0.3,0.1,0.4,0.3,0.4
	c0.3,0,0.4-0.2,0.7-0.6V4.8c0.3-0.2,0.5-0.3,0.5-0.5C5.3,4.1,5.2,4,5,3.8L4.2,3.2L3.7,4H1.8L0.8,3.3v10.5c0,0.2,0.2,0.3,0.3,0.3
	c0.3,0,0.4-0.1,0.7-0.5V11.9z M8,6.1V5h5.7v1.1H8z M8,7.7V6.6h5.7v1.1H8z M10.7,10.3h4.6v0.5c0,1.4-0.2,3.1-0.5,3.9
	c-0.3,0.9-0.8,1.3-1.5,1.3c-0.2,0-0.3,0-0.8-0.1l-0.9-0.1v0.3c1,0.3,1.1,0.4,1.2,1.2c1.1-0.1,1.5-0.3,2.1-0.8
	c0.8-0.7,1.3-2.8,1.3-5.5v-0.3c0.4-0.2,0.6-0.4,0.6-0.6c0-0.1-0.1-0.3-0.5-0.5l-0.7-0.5l-0.6,0.7h-6l0.3-0.4l0.1,0
	c0.2,0,0.5-0.2,0.5-0.3c0-0.1-0.1-0.3-0.4-0.5L9,8.2h4.7v0.5C13.6,8.9,13.8,9,14,9c0.3,0,0.4-0.1,0.7-0.6V5.3
	c0.4-0.2,0.6-0.4,0.6-0.6c0-0.1-0.2-0.3-0.5-0.5L14,3.7l-0.5,0.7H8L6.9,3.9v4.9c0,0.2,0.1,0.3,0.4,0.3C7.6,9.2,7.7,9,8,8.6V8.2h0.9
	L8.8,8.3c-1.1,2.1-2.3,3.4-4.8,5.6L4.1,14c1.3-0.7,1.7-1,2.6-1.8v4.4c0,0.2,0.2,0.3,0.4,0.3c0.3,0,0.4-0.1,0.7-0.6v-1.2h5.9
	c0.2,0,0.4-0.1,0.4-0.3c0-0.1-0.1-0.3-0.3-0.5L13,13.8l-0.8,1H7.8v-2.2c0.3-0.1,0.5-0.3,0.5-0.5c0-0.2-0.1-0.3-0.5-0.4l-0.2-0.1
	c0.5-0.4,0.7-0.6,1.2-1.3H10.7c-0.5,1.4-1,2.1-2.4,3.8l0.2,0.2c1-0.7,1.4-1.1,2.1-1.8c0.5,0.4,0.7,0.6,1,1c0.3,0.6,0.5,0.7,0.8,0.7
	s0.5-0.2,0.5-0.5c0-0.6-0.6-1-1.9-1.6c0.1-0.2,0.2-0.3,0.4-0.5c0.4-0.1,0.6-0.2,0.6-0.4c0-0.1-0.1-0.2-0.3-0.4L10.7,10.3z"/>
</svg>
