<?xml version="1.0" encoding="utf-8"?>
<!-- Generator: Adobe Illustrator 22.0.1, SVG Export Plug-In . SVG Version: 6.00 Build 0)  -->
<svg version="1.1" id="レイヤー_1" xmlns="http://www.w3.org/2000/svg" xmlns:xlink="http://www.w3.org/1999/xlink" x="0px"
	 y="0px" viewBox="0 0 18 18" style="enable-background:new 0 0 18 18;" xml:space="preserve">
<path d="M1.2,1.1c0.8,0.5,1,0.7,1.2,1.3c0.2,0.6,0.3,0.8,0.7,0.8c0.4,0,0.7-0.3,0.7-0.6c0-0.5-0.4-1-1.1-1.3C2.3,1,2.1,0.9,1.4,0.8
	L1.2,1.1z M0.3,5.9c0.7,0.4,1,0.7,1.1,1.3c0.1,0.5,0.1,0.5,0.1,0.6C1.6,7.9,1.8,8,2,8c0.4,0,0.8-0.3,0.8-0.8c0-0.8-0.8-1.3-2.3-1.5
	L0.3,5.9z M5,2.6l-3.2,9.4c-0.2,0.5-0.4,0.7-0.8,0.7c-0.1,0-0.1,0-0.3,0l0.1,0.3c0.3,0.3,0.5,0.4,0.6,0.5c0.3,0.4,0.5,1,0.5,1.7
	c0,0.2,0,0.4,0,0.6c0,0.3-0.1,0.5-0.1,0.7c0,0.5,0.3,0.8,0.8,0.8c0.4,0,0.8-0.3,0.8-0.8c0-0.3,0-0.4-0.4-1.6
	c-0.1-0.5-0.2-0.9-0.2-1.2c0-0.3,0.3-1.6,0.6-2.9c0.6-2,0.9-3.3,1-3.7c0.2-0.7,0.4-1.6,0.6-2.8l0.3-1.2L5,2.6L5,2.6z M6.2,6.7V3h2.6
	v3.6H6.2z M6.2,10.6V7.1h2.6v3.5H6.2z M6.2,14.7v-3.6h2.6v3.6H6.2z M11.7,8.2V5.2h1.7v3.1H11.7z M11.7,11.8V8.7h1.7v3.1H11.7z
	 M11.7,15.4v-3.1h1.7v3.1H11.7z M9.6,6.7L9.6,6.7l1.2-1.3v11.4c0,0.2,0.2,0.3,0.3,0.3c0.3,0,0.5-0.2,0.5-0.6v-0.6h5.1
	c0.3,0,0.4-0.1,0.4-0.3l-0.1-0.2l-1-1.1l-0.9,1.1h-1v-3.1h2.3c0.2,0,0.4-0.1,0.4-0.3c0-0.1,0-0.1-0.1-0.3l-1-1.1l-1,1.1h-0.6V8.7
	h2.3c0.2,0,0.3-0.1,0.3-0.3c0-0.1,0-0.2-0.2-0.3l-0.8-0.8l-0.8,0.9h-0.9V5.2h2.5c0.1,0,0.3-0.1,0.3-0.2c0-0.1,0-0.1-0.2-0.3l-1-0.9
	l-0.7,0.8h-0.9c0.6-1.1,0.8-1.6,1.1-2.3C15.8,2.4,16,2.3,16,2c0-0.1-0.1-0.2-0.3-0.4l-1.4-0.6c-0.1,1.3-0.2,2-0.7,3.6h-1.7l-0.5-0.3
	c0.9-1.6,1.1-2.2,1.3-2.7c0.3-0.1,0.4-0.2,0.4-0.4c0-0.1-0.1-0.2-0.2-0.3l-1.1-0.5c-0.5,2.6-0.9,3.9-2,5.8L9.6,6.4V3.3
	c0.4-0.1,0.6-0.3,0.6-0.5c0-0.1-0.1-0.2-0.2-0.4L9.1,1.8L8.5,2.5H6.6L5.3,1.9v14.8c0,0.1,0.1,0.3,0.2,0.3c0.3,0,0.6-0.3,0.6-0.8v-1
	h2.6v1.1c0,0.1,0.2,0.3,0.3,0.3c0.3,0,0.5-0.2,0.6-0.5V6.7z"/>
</svg>
