<?xml version="1.0" encoding="utf-8"?>
<!-- Generator: Adobe Illustrator 22.0.1, SVG Export Plug-In . SVG Version: 6.00 Build 0)  -->
<svg version="1.1" id="レイヤー_1" xmlns="http://www.w3.org/2000/svg" xmlns:xlink="http://www.w3.org/1999/xlink" x="0px"
	 y="0px" viewBox="0 0 18 18" style="enable-background:new 0 0 18 18;" xml:space="preserve">
<path d="M14.2,12.2c1.1,0.8,1.6,1.5,1.8,2.6c0.1,0.6,0.1,0.8,0.2,0.9c0.1,0.1,0.3,0.2,0.5,0.2c0.4,0,0.8-0.4,0.8-1
	c0-0.7-0.5-1.5-1.3-2.1c-0.5-0.3-0.8-0.5-2-0.9V12.2z M9.9,10.4c0.7,0.5,1.1,1.1,1.4,2c0.1,0.7,0.1,0.7,0.2,0.8
	c0.1,0.2,0.3,0.3,0.5,0.3c0.4,0,0.8-0.5,0.8-1c0-0.5-0.4-1.1-1.1-1.6c-0.4-0.3-0.7-0.4-1.7-0.7L9.9,10.4z M9.1,11.9v4.3
	c0,0.8,0.6,1.1,2.2,1.1h1.3c1.6,0,2.6-0.3,2.6-0.8c0-0.2-0.1-0.3-0.5-0.6c0.1-1,0.1-1.1,0.2-2.3h-0.3c-0.5,1.9-1.1,2.6-1.9,2.5h-1.3
	h-0.5c-0.4,0-0.7-0.1-0.7-0.3c-0.1-0.2-0.1-0.2-0.1-0.6v-2.4c0.4-0.2,0.5-0.3,0.5-0.4s-0.1-0.2-0.5-0.3L9.1,11.9z M7.6,12.5
	c0,1.3-0.5,2.2-1.4,2.7c-0.3,0.2-0.4,0.4-0.4,0.6c0,0.4,0.4,0.8,0.8,0.8c0.9,0,1.5-1,1.5-2.5c0-0.5,0-0.7-0.2-1.6H7.6z M1.9,4.7
	c0,0.4,0,0.5,0,0.6c0,0.9-0.2,1.6-0.6,2c-0.6,0.7-0.6,0.7-0.6,1c0,0.3,0.3,0.6,0.7,0.6c0.7,0,1.3-0.8,1.3-1.8c0-0.8-0.1-1.2-0.5-2.4
	H1.9z M8.3,3.2H15v6.4H8.3V3.2z M7.3,4.8v5.4v0.4l0,0.2c0,0.2,0.1,0.3,0.3,0.3c0.4,0,0.7-0.3,0.7-0.6c0-0.1,0-0.2,0-0.3H15v0.2v0.2
	c0,0.2,0.1,0.4,0.3,0.4c0.3,0,0.6-0.3,0.6-0.6C16,10.1,16,10.1,16,9V3.5c0.5-0.2,0.6-0.3,0.6-0.5c0-0.1-0.1-0.2-0.5-0.4l-1-0.6
	l-0.4,0.8h-4.2c0.5-0.5,0.5-0.6,1-1c0.4-0.1,0.6-0.2,0.6-0.3c0-0.1-0.2-0.3-0.5-0.4l-1.2-0.4c-0.3,1.3-0.3,1.5-0.6,2.2H8.5L7.3,2
	v2.2L5.8,3.6c-0.4,1.2-0.7,2-1.3,2.9V1.8c0.4-0.2,0.6-0.4,0.6-0.5c0-0.1-0.2-0.3-0.4-0.3L3.5,0.7v9.2c0.1,3.2-0.9,5.8-2.9,7.4
	l0.1,0.2c2.1-1.3,3.4-3.4,3.8-6c0.6,0.6,0.9,1.5,1,2.7c0,0.5,0.2,0.8,0.6,0.8c0.4,0,0.8-0.5,0.8-1c0-0.7-0.5-1.5-1.2-2.1
	c-0.3-0.2-0.3-0.2-1.2-0.8V7.2c0,0,0.2-0.1,0.3-0.3c0.5-0.5,1.1-1,1.6-1.6c0.2-0.2,0.3-0.3,0.5-0.4L7.3,4.8z M11.7,7.2
	c0,0.1-0.1,0.1-0.2,0.2c-0.3,0.4-0.4,0.4-0.8,0.8C10.1,8.7,10,8.8,9.2,9.3l0.2,0.2c1.2-0.6,1.7-1,3-2.1c0.4,0.4,0.6,0.5,0.9,0.9
	c0.3,0.4,0.6,0.6,0.8,0.6s0.5-0.3,0.5-0.6c0-0.3-0.3-0.6-1.4-1.6c0.9-1,1-1.1,1.6-2c0.2,0,0.3-0.1,0.3-0.2c0-0.1-0.1-0.2-0.2-0.2
	L13.9,4c-0.4,1-1,1.9-1.5,2.3c-0.6-0.4-0.8-0.6-1.2-0.8c0.4-0.5,0.6-0.7,1-1.3c0.1-0.1,0.2-0.1,0.3-0.1L12.7,4l0.1-0.2
	c0-0.1-0.1-0.2-0.3-0.3l-0.9-0.3c-0.4,0.9-0.6,1.3-1,1.9c-0.8-0.4-1-0.5-2.2-0.9v0.3c1.1,0.6,1.3,0.7,1.8,1.1C9.4,6.8,9,7.3,8.4,7.8
	V8c0.8-0.5,1.6-1.1,2.3-1.9c0.4,0.3,0.6,0.5,1.1,0.9L11.7,7.2z"/>
</svg>
