<?xml version="1.0" encoding="utf-8"?>
<!-- Generator: Adobe Illustrator 22.0.1, SVG Export Plug-In . SVG Version: 6.00 Build 0)  -->
<svg version="1.1" id="レイヤー_1" xmlns="http://www.w3.org/2000/svg" xmlns:xlink="http://www.w3.org/1999/xlink" x="0px"
	 y="0px" viewBox="0 0 18 18" style="enable-background:new 0 0 18 18;" xml:space="preserve">
<path d="M11.6,2.9H9.4v0.5h2.2V5c0,0.2,0.1,0.3,0.3,0.3c0.3,0,0.5-0.2,0.7-0.6V3.4H17c0.2,0,0.4-0.1,0.4-0.3c0-0.1,0-0.1-0.2-0.3
	l-0.1-0.1l-1-0.8l-0.9,1h-2.6V2c0.3-0.2,0.4-0.3,0.4-0.5c0-0.2-0.2-0.3-0.6-0.4l-0.9-0.1V2.9z M5.2,2.9H0.6v0.5h4.6V5
	c0,0.2,0.1,0.4,0.3,0.4c0.3,0,0.4-0.2,0.7-0.6V3.4h2.1c0.3,0,0.4-0.1,0.4-0.3c0-0.1-0.1-0.3-0.4-0.5L7.7,2l-0.8,1H6.2V2
	c0.3-0.2,0.5-0.3,0.5-0.5c0-0.2-0.1-0.3-0.5-0.4l-1-0.1V2.9z M13.7,8.8v1.7H4V8.8H13.7z M13.7,6.6v1.7H4V6.6H13.7z M4.1,6.2L3,5.5v6
	c0,0.3,0.1,0.4,0.3,0.4c0.3,0,0.5-0.2,0.7-0.7v-0.2h9.7v0.2c0,0.2,0.1,0.3,0.4,0.3c0.3,0,0.5-0.2,0.7-0.7V7c0.4-0.2,0.6-0.3,0.6-0.6
	c0-0.1-0.1-0.3-0.4-0.5l-0.8-0.6l-0.6,0.8h-5l0.8-0.8C9.6,5.3,9.8,5.2,9.8,5c0-0.1-0.2-0.3-0.5-0.4l-1-0.2C8.2,5.3,8.1,5.5,7.8,6.2
	H4.1z M8.5,16.6H0.6v0.5H17c0.2,0,0.4-0.1,0.4-0.2c0-0.1,0-0.1-0.2-0.4l-1-1L15,16.6H9.5v-1.7h5.6c0.2,0,0.5-0.2,0.5-0.3
	c0-0.1,0-0.1-0.3-0.4l-0.9-0.8l-1,1.1H9.5v-1.5h6.6c0.2,0,0.4-0.1,0.4-0.3s-0.1-0.2-0.3-0.4l-0.9-0.8l-1,1H1.6v0.5h6.8v1.5h-6v0.5h6
	V16.6z"/>
</svg>
