<?xml version="1.0" encoding="utf-8"?>
<!-- Generator: Adobe Illustrator 22.0.1, SVG Export Plug-In . SVG Version: 6.00 Build 0)  -->
<svg version="1.1" id="レイヤー_1" xmlns="http://www.w3.org/2000/svg" xmlns:xlink="http://www.w3.org/1999/xlink" x="0px"
	 y="0px" viewBox="0 0 18 18" style="enable-background:new 0 0 18 18;" xml:space="preserve">
<path d="M6,3.1L5,4H0.6v0.5h6.1c0.2,0,0.3-0.1,0.3-0.3c0-0.1-0.1-0.2-0.3-0.5L6,3.1z M5,11.6v3.7H2.4v-3.7H5z M1.4,10.4v6.5
	c0,0.2,0.2,0.4,0.4,0.4c0.2,0,0.4-0.1,0.7-0.6v-0.8H5v0.4c0,0.2,0.1,0.4,0.3,0.4c0.3,0,0.4-0.1,0.7-0.5v-4.2
	c0.3-0.1,0.5-0.3,0.5-0.5c0-0.1-0.1-0.3-0.3-0.4l-0.8-0.6l-0.6,0.7H2.6L1.4,10.4z M5.2,0.7l-0.8,1h-3v0.5h4.5c0.2,0,0.4-0.1,0.4-0.3
	c0-0.1-0.1-0.2-0.3-0.4L5.2,0.7z M5.4,5.5L4.5,6.4H1.4v0.5H6c0.3,0,0.4-0.1,0.4-0.2c0-0.1-0.1-0.3-0.3-0.5L5.4,5.5z M5.4,7.9
	L4.5,8.8H1.4v0.5H6c0.2,0,0.4-0.1,0.4-0.3c0-0.1,0-0.2-0.3-0.4L5.4,7.9z M12.2,2.4V1.7c0.4-0.2,0.5-0.3,0.5-0.5
	c0-0.2-0.2-0.4-0.7-0.5l-0.8-0.1v1.8H7.8v0.5h3.4v1.9H6.7v0.5H17c0.2,0,0.4-0.1,0.4-0.3c0-0.1-0.1-0.3-0.4-0.5l-0.8-0.7l-0.9,1h-3.1
	V2.9H16c0.2,0,0.4-0.1,0.4-0.3c0-0.1-0.1-0.2-0.3-0.4l-0.9-0.8l-1,1H12.2z M14.7,7.5V6.6c0.4-0.2,0.5-0.3,0.5-0.5
	c0-0.2-0.2-0.4-0.7-0.4l-0.8-0.1v2h-1.8V8h1.8v2h-2.7v0.5H17c0.3,0,0.4-0.1,0.4-0.2c0-0.1-0.1-0.2-0.3-0.5l-0.7-0.6L15.6,10h-0.8V8
	h1.8C16.9,8,17,7.9,17,7.7c0-0.1-0.1-0.2-0.3-0.5l-0.6-0.5l-0.7,0.8H14.7z M13.4,12.5H17c0.2,0,0.4-0.1,0.4-0.3c0-0.1,0-0.2-0.3-0.6
	L16.3,11l-1,1H6.7v0.5H10c-0.2,2.5-1.2,3.5-4.4,4.7v0.2c1.4-0.3,2-0.5,2.9-1c1.7-0.9,2.1-1.6,2.5-3.9h1.3v3.3c0,0.9,0.4,1.1,2,1.1h1
	c1.3,0,1.9-0.2,1.9-0.6c0-0.1-0.1-0.2-0.2-0.3c-0.3-0.2-0.3-0.2-0.3-0.4c0-0.1,0-0.3,0-0.4l0.2-1.4h-0.2l-0.4,1.3
	c-0.3,0.8-0.3,0.8-1.3,0.9l-1,0c-0.3,0-0.4,0-0.5-0.1c-0.2-0.1-0.3-0.2-0.3-0.6V12.5z M9.3,8h1.8c0.2,0,0.4-0.1,0.4-0.3
	c0-0.1,0-0.1-0.3-0.4l-0.6-0.5L10,7.5H9.3v-1C9.6,6.4,9.7,6.2,9.7,6c0-0.2-0.2-0.3-0.6-0.4L8.3,5.6v1.9H6.7V8h1.6v2
	c-0.7,0.1-1.2,0.2-2,0.3l0.4,0.9c0.1,0.3,0.2,0.4,0.4,0.4c0.2,0,0.3-0.1,0.4-0.5l3.9-1.6V9.2c-1.2,0.3-1.3,0.4-2.1,0.5V8z"/>
</svg>
