<?xml version="1.0" encoding="utf-8"?>
<!-- Generator: Adobe Illustrator 22.0.1, SVG Export Plug-In . SVG Version: 6.00 Build 0)  -->
<svg version="1.1" id="レイヤー_1" xmlns="http://www.w3.org/2000/svg" xmlns:xlink="http://www.w3.org/1999/xlink" x="0px"
	 y="0px" viewBox="0 0 9 18" style="enable-background:new 0 0 9 18;" xml:space="preserve">
<path d="M5.9,1.1C5,1.3,4.7,1.4,4.4,1.7C3.5,2.4,3,3.4,3,4.2c0,0.4,0.2,0.9,0.4,1.2C3.8,5.7,4.3,6,4.6,6c0.5,0,1.1-0.6,1.1-1.1
	c0-0.3-0.2-0.6-0.4-0.8C5,3.9,4.6,3.8,4.4,3.8c-0.1,0-0.2,0-0.3,0.1L3.9,3.6c0,0,0-0.1,0.2-0.5c0.2-0.5,0.2-0.5,0.6-0.9
	C5,1.9,5.2,1.7,6,1.3L5.9,1.1z"/>
</svg>
