<?xml version="1.0" encoding="utf-8"?>
<!-- Generator: Adobe Illustrator 22.0.1, SVG Export Plug-In . SVG Version: 6.00 Build 0)  -->
<svg version="1.1" id="レイヤー_1" xmlns="http://www.w3.org/2000/svg" xmlns:xlink="http://www.w3.org/1999/xlink" x="0px"
	 y="0px" viewBox="0 0 9 18" style="enable-background:new 0 0 9 18;" xml:space="preserve">
<polygon points="1.3,6.7 1.3,7.2 2,7.2 2.3,7.6 2.3,13.3 2,13.7 1.3,13.7 1.3,14.2 4.7,14.2 4.6,13.9 4.4,13.8 4.4,13.7 4.2,13.7 
	4.1,13.7 3.9,13.7 3.6,13.7 3.5,13.2 3.4,12.7 3.4,11.3 3.4,10.6 3.8,10.6 4.2,10.5 4.7,10.6 5.1,10.7 5.3,10.8 5.4,10.9 5.5,11 
	5.5,11.1 5.5,11.3 5.5,11.6 6.1,11.6 6.1,9 5.5,9 5.5,9.5 5.4,9.6 5,9.9 4.7,10 4.4,10.1 4.1,10.1 3.4,10.1 3.4,7.5 3.8,7.3 
	4.1,7.2 4.6,7.1 5.2,7.2 5.8,7.4 6.3,7.7 6.7,8 7,8.2 7,8.6 7.7,8.6 7.1,6.7 "/>
</svg>
