<?xml version="1.0" encoding="utf-8"?>
<!-- Generator: Adobe Illustrator 22.0.1, SVG Export Plug-In . SVG Version: 6.00 Build 0)  -->
<svg version="1.1" id="レイヤー_1" xmlns="http://www.w3.org/2000/svg" xmlns:xlink="http://www.w3.org/1999/xlink" x="0px"
	 y="0px" viewBox="0 0 9 18" style="enable-background:new 0 0 9 18;" xml:space="preserve">
<path d="M2,9.1l0-0.2C2.1,8,2.3,7.5,2.7,7c0.5-0.6,1.1-0.9,1.8-0.9C5.9,6.2,7,7.4,7,8.8s-1.1,2.6-2.5,2.6c-1.2,0-2.2-0.9-2.5-2.1
	L2,9.1z M1.3,9.2l0,0.2c0.2,1.5,1.6,2.8,3.1,2.8c0.7,0,1.8-0.5,2.4-1.2c0.5-0.6,0.8-1.4,0.8-2.2c0-0.8-0.3-1.6-0.8-2.1
	c-0.7-0.7-1.4-1-2.6-1.1H4.1l-0.1,0L4,5.6C2.5,5.7,1.3,7.2,1.3,9L1.3,9.2z"/>
</svg>
