<?xml version="1.0" encoding="utf-8"?>
<!-- Generator: Adobe Illustrator 22.0.1, SVG Export Plug-In . SVG Version: 6.00 Build 0)  -->
<svg version="1.1" id="レイヤー_1" xmlns="http://www.w3.org/2000/svg" xmlns:xlink="http://www.w3.org/1999/xlink" x="0px"
	 y="0px" viewBox="0 0 9 18" style="enable-background:new 0 0 9 18;" xml:space="preserve">
<path d="M1.1,1.9L0.9,2.2l0.2,0.2l0.1,0.2l0.1,0.2l0.1,0.4l0.1,0.5l0.1,1.9v1.2l0,0.2L1.5,7.2L1.2,7.6l0.4,0.5l0.1,0.1l0.2,0.1
	L2,8.4l0.1,0l0.2,0l0.1-0.1l0.7-0.4l1.1-0.8l3.3-2.6L8,3.9V3.4L7.7,3.6v0L5.4,5.5C4.3,6.4,3.6,6.8,2.5,7.1L2.3,7.2l0-0.4V4l0-0.5
	l0.3-0.7V2.5L1.1,1.9z"/>
</svg>
