<?xml version="1.0" encoding="utf-8"?>
<!-- Generator: Adobe Illustrator 22.0.1, SVG Export Plug-In . SVG Version: 6.00 Build 0)  -->
<svg version="1.1" id="レイヤー_1" xmlns="http://www.w3.org/2000/svg" xmlns:xlink="http://www.w3.org/1999/xlink" x="0px"
	 y="0px" viewBox="0 0 18 18" style="enable-background:new 0 0 18 18;" xml:space="preserve">
<polygon points="5.6,3.5 5.7,3.7 5.8,4 5.9,4.2 6.1,4.4 9,6.3 8.8,6.4 8.3,6.8 7.6,7.7 7.3,8.2 7.1,8.6 6.9,9 6.9,9.3 6.9,9.6 
	7,9.8 7.1,10.1 7.3,10.3 9.3,12.2 5.1,14.4 5.1,14.5 5.4,14.5 5.6,14.5 9.9,13.2 10,13.1 10.2,13.1 10.4,13.2 12.1,13.9 12.3,13.8 
	12.6,13.6 12.5,13.3 12.1,12.7 11.8,12.1 11.5,11.9 11.3,11.8 7.8,10 7.4,9.6 7.4,8.8 7.6,8.4 7.9,8.2 8.4,7.7 9.1,7.3 9.5,7.1 
	10,6.9 10.3,6.9 11,7 11.5,7 10.8,5.4 10.6,5.4 10.5,5.4 8.5,5 8.2,4.9 6,3.5 "/>
</svg>
