<?xml version="1.0" encoding="utf-8"?>
<!-- Generator: Adobe Illustrator 22.0.1, SVG Export Plug-In . SVG Version: 6.00 Build 0)  -->
<svg version="1.1" id="レイヤー_1" xmlns="http://www.w3.org/2000/svg" xmlns:xlink="http://www.w3.org/1999/xlink" x="0px"
	 y="0px" viewBox="0 0 18 18" style="enable-background:new 0 0 18 18;" xml:space="preserve">
<path d="M11.4,4.1l2.7,0l-0.8,1.5l-0.9,1l-0.3,0.2l-0.7,0.1V4.1z M10.4,0.7l0.1,2.4l-0.1,0.4l0,0.1l-0.1,0.1l-0.2,0.1L7.3,3.6v0.5
	h3.1l0.1,2.5l0,0.2l-0.1,0.1L10,6.9L6.4,6.8v0.5h5.5l0,0.1L9.7,9.6L9.5,9.7L9,9.8L7.6,9.6v0.6h1.6l-3.4,2.4l0.5,0.2l4.1-2.6l1.6,0
	V16L11.7,16l-0.3,0.1l-2.3-0.6l-0.4,0l0.3,0.6l0.2-0.1h0.1l1.3,0.4l0.3,0.2l0,0.1l0.3,0.6l0.7-0.1l0.6-0.2l0.2-0.1l0.1-0.1l0.1-0.3
	l0-6.3h4.6l-0.1-0.3l-0.6-1l-0.2-0.2l-0.1,0h-0.2l-1.2,1l-0.2,0L11,9.7l0-0.1l2.3-2.4l0.1,0l4,0.1l-0.3-0.7l-0.3-0.3l-0.4-0.4
	l-0.1-0.1l-0.2,0l-0.1,0l-1,0.9l-0.2,0l-1.1-0.1l2.4-3.6l0.3-0.3l0.2-0.1l0.2-0.1l0.6,0l-0.2-0.4l-0.2-0.2l-0.1-0.1l-1-0.3h-0.3
	l-1.2,2l-1.3-0.8l-0.8,0.9l-0.1,0.1l-0.1,0.1h-0.3l-0.4-0.1l-0.1-1.3l0.1-0.2L11.6,2l0.6-0.5l0.1-0.1V1.1l0-0.1l-0.1-0.1L12,0.9
	L10.4,0.7z M3.4,0.7l0.1,4L3.4,5.1L3.3,5.2L3.1,5.3L0.5,5.2v0.5h2.9L3,7.5l-1.3,3.6l-1.2,2.4l0.1,0.1l1-1l1.8-3.1v7.5l0,0.1l0.1,0.1
	l0.1,0.1l0.2,0l0.2,0l0.2-0.1l0.1-0.1L4.3,17l0.1-0.2l0-8.1l0.1,0.1l1.4,1.7l0.2,0.1l0.1,0l0.3-0.1l0.1-0.1l0.1-0.2l0.1-0.3L6.7,9.7
	L6.6,9.5L6,9L4.4,8.2L4.3,6l0.1-0.3l0-0.1l0.1,0l0.2-0.1l2.6,0.1L7,5L6.7,4.7L6.1,4.2L5.7,4.8L5.3,5.1L5.1,5.1l-0.7,0L4.3,2l0-0.1
	l0.1-0.1l0.7-0.4L5.1,0.9L3.4,0.7z"/>
</svg>
