<?xml version="1.0" encoding="utf-8"?>
<!-- Generator: Adobe Illustrator 22.0.1, SVG Export Plug-In . SVG Version: 6.00 Build 0)  -->
<svg version="1.1" id="レイヤー_1" xmlns="http://www.w3.org/2000/svg" xmlns:xlink="http://www.w3.org/1999/xlink" x="0px"
	 y="0px" viewBox="0 0 18 18" style="enable-background:new 0 0 18 18;" xml:space="preserve">
<path d="M5.2,16.7c-2.7,0-3.9-1.3-3.8-4.1V4.5c0.1-2,1.6-3.4,3.8-3.3h7.7c1.4,0,1.9,0.2,2.7,0.9C16.4,3,16.7,3.9,16.7,5v7.6
	c0,2.7-1.3,4.1-3.8,4.1H5.2z M0.3,0.3v17.4h17.5V0.3H0.3z M14.9,3.6H3.5v1.6h11.4V3.6z M13.2,7.8H4.8v1.6h8.4V7.8z M2.6,14.1h13
	v-1.6h-13V14.1z"/>
</svg>
