<?xml version="1.0" encoding="utf-8"?>
<!-- Generator: Adobe Illustrator 22.0.1, SVG Export Plug-In . SVG Version: 6.00 Build 0)  -->
<svg version="1.1" id="レイヤー_1" xmlns="http://www.w3.org/2000/svg" xmlns:xlink="http://www.w3.org/1999/xlink" x="0px"
	 y="0px" viewBox="0 0 18 18" style="enable-background:new 0 0 18 18;" xml:space="preserve">
<path d="M6.8,11.6h4.4v2.7H6.8V11.6z M5.7,10.5l0.2-0.1l0.8-0.7l0.6-0.9l0.4-1l0.1-1.6h2.1L9.9,9.1L10,9.4L10,9.5l0.2,0.1l0.2,0.1
	l0.7,0.2l3.1-0.1l0.3-0.1l0.1-0.1l0.1-0.2V9.3l-0.3-0.2L14.3,9l-0.1-0.2l-0.1-0.4l0-1.1h-0.4l-0.1,0.9l-0.2,0.4l-0.2,0.2L13,9
	l-0.4,0.2l-0.5,0.1l-0.4-0.1L11.3,9l-0.1-0.1l-0.1-0.1l-0.1-0.2l0-2.3h3.8v9.4l-0.2,0.1l-0.4,0.1h-1.9l0.1,0.3l1.4,0.5l0,0.3
	l0.1,0.2l0.6-0.1l0.4-0.1l0.3-0.2l0.2-0.2l0.1-0.2l0.2-0.7L16,6.7l0.1,0l0.1,0l0.1-0.1l0-0.2l0-0.2l-0.3-0.5l-0.4-0.3l-0.4-0.2
	l-0.2,0l-0.1,0l-0.5,0.4H3.3L1.9,5.1v11.9l0.4,0.1l0.3,0L2.7,17l0.1-0.1L3,16.7l0-0.1L3,6.2h3.6L6.5,7.6L6.2,8.7l-0.7,1l-0.8,0.7
	L3.5,11v0.1h0.3c0.6,0,1.3-0.2,1.8-0.5V16L6,16.1l0.2,0L6.4,16l0.1-0.1l0.2-0.3l0-0.2v-0.6h4.4v0.8l0.2,0.1l0.4,0l0.2-0.1l0.2-0.2
	l0.2-0.2l0-3l0.4-0.6l-0.9-1l-0.2-0.1l-0.1,0l-0.5,0.5L6.6,11L5.7,10.5z M6.1,0.9v2H0.8v0.5h5.2v2.1l0.6-0.2L6.9,5l0.3-0.4l0.1-0.3
	l0-0.5L7.2,3.3h3.4v2l0.3,0l0.3,0l0.2-0.1L11.5,5l0.1-0.2l0.1-0.3l-0.1-1.2h5.6l-0.3-0.6l-0.4-0.4l-0.9-0.6l-0.7,0.9l-0.2,0.1
	l-0.4,0.1l-2.6,0V1.7L12,1.2L12,0.9l-1.5,0v1.9H7.2l0-0.2l0.2-1.4l0.3-0.3H6.1z"/>
</svg>
