<?xml version="1.0" encoding="utf-8"?>
<!-- Generator: Adobe Illustrator 22.0.1, SVG Export Plug-In . SVG Version: 6.00 Build 0)  -->
<svg version="1.1" id="レイヤー_1" xmlns="http://www.w3.org/2000/svg" xmlns:xlink="http://www.w3.org/1999/xlink" x="0px"
	 y="0px" viewBox="0 0 18 18" style="enable-background:new 0 0 18 18;" xml:space="preserve">
<path d="M8.7,2.6h7.1c0.2,0,0.4-0.1,0.4-0.3c0-0.1-0.1-0.2-0.2-0.3l-1.1-1l-1,1H8.7V2.6z M2.9,3.7h2.9v4.6C5.1,8.4,4.9,8.4,4.4,8.4
	c-0.4,0-0.5,0-1.5,0.1V3.7z M4.8,9l1-0.2v6.6c0,0.3-0.3,0.6-0.7,0.6c-0.3,0-0.5-0.1-1.4-0.3v0.3c1.1,0.5,1.3,0.7,1.4,1.3
	c1.2-0.3,1.6-0.6,1.7-1.6V8.7l1.1-0.3l0.2-0.3L6.8,8.2V4c0.4-0.2,0.6-0.3,0.6-0.6c0-0.1-0.1-0.2-0.3-0.3L6.2,2.6L5.7,3.2H4.1
	l0.7-1.5c0.4-0.1,0.6-0.2,0.6-0.4c0-0.2-0.1-0.3-0.4-0.4l-1-0.3l0,0.3C3.7,2.4,3.7,2.6,3.6,3.2H3.1L1.9,2.6v6L0.5,8.7L0.9,10
	c0,0.1,0.1,0.2,0.3,0.2c0.2,0,0.3-0.2,0.4-0.6l0.4-0.1v1c0,2.5-0.4,4.4-1.3,6.2l0.2,0.1c1.5-1.7,2.1-3.7,2.1-6.8V9.4l1-0.2v4.7
	c0,0.1,0.1,0.2,0.3,0.2c0.2,0,0.4-0.1,0.6-0.4V9z M3.3,4.7C3.8,5.6,3.9,5.8,4,6.4c0.1,0.8,0.3,1,0.6,1c0.3,0,0.5-0.3,0.5-0.6
	c0-0.4-0.3-1-0.7-1.5C4.1,5.1,4,4.9,3.3,4.5V4.7z M10.2,7.3c0,6-0.6,7.8-3.3,9.9l0.2,0.2c1.3-0.8,1.7-1.1,2.3-1.8
	c1.3-1.6,1.8-3.7,1.8-7.7c0-0.1,0-0.3,0-0.6h2v8.5c0,0.9,0.3,1.2,1.2,1.2h1.5c0.9,0,1.5-0.3,1.5-0.7c0-0.1-0.1-0.3-0.3-0.4
	c-0.3-0.2-0.3-0.3-0.3-0.4c0-0.1,0-0.1,0-0.3l0.2-1.8h-0.2l-0.5,1.9C16.2,15.8,16,16,15.6,16c-1.1,0-1.3-0.1-1.4-0.5V7.3H17
	c0.2,0,0.4-0.1,0.4-0.2c0-0.1-0.1-0.3-0.4-0.5l-1-0.8l-1,1H7.8v0.5H10.2z"/>
</svg>
