<?xml version="1.0" encoding="utf-8"?>
<!-- Generator: Adobe Illustrator 22.0.1, SVG Export Plug-In . SVG Version: 6.00 Build 0)  -->
<svg version="1.1" id="レイヤー_1" xmlns="http://www.w3.org/2000/svg" xmlns:xlink="http://www.w3.org/1999/xlink" x="0px"
	 y="0px" viewBox="0 0 18 18" style="enable-background:new 0 0 18 18;" xml:space="preserve">
<path d="M10.8,6.8l3.8,0v2.9h-4.1L10.8,6.8z M13,13.7l0.4-0.6l0-0.1l0-0.4l-0.3-0.8l-0.3-0.4L12.3,11l-1-0.4l-0.1,0.1l1.2,2.6
	l0.4,0.3l0,0.2h-2.7l0.3-3.5l4,0l-0.4,3.4H13z M10,5.4L9.8,6.1L9.5,9.8L8,9.7L8,10l0,0.1l1.4,0.1L9,15.6l0.3,0.1l0.3,0l0.2-0.1
	l0.2-0.1l0.1-0.2l0.1-0.3l0-0.3l0-0.4h3.9l-0.3,0.7l-0.2,0.3l-0.1,0.1L13,15.3l-1.6-0.2v0.5l0.6,0.1l0.2,0.1l0.2,0.1l0.7,0.9l0.1,0
	l0.4,0l0.3-0.1l0.2-0.1l0.3-0.3l0.6-1.8l0.1-0.1l0.1-0.1l0.2,0l1.7,0l-0.2-0.6l-0.3-0.4L16,12.9l-0.3,0.5l-0.2,0.2l-0.1,0l-0.2,0
	l0.4-3.5l1.7,0.1l-0.2-0.7l-0.3-0.4l-0.1-0.1l-0.1-0.1l-0.2,0l-0.2,0l-0.1,0.1l-0.3,0.2l-0.3,0.4V7l0.7-0.3l-0.7-1l-0.2-0.2l-0.1,0
	l-0.2,0l-0.1,0l-0.3,0.1l-0.6,0.6l-2.8,0.1h0l-0.9-1L10,5.4z M11.1,7l0.6,0.9l0.6,1.7l0.2,0.1l0.3,0.1l0.2,0l0.1-0.1l0.1-0.1
	l0.1-0.1l0.1-0.1l0-0.5L13,8l-0.3-0.4l-0.4-0.3l-0.5-0.2L11.1,7z M10.6,0.8l0,0.5L9.4,4.7L8.1,6.9v0.4L8.5,7l1.3-1.6l1-1.6h6
	l-0.1-0.2l-0.4-0.8l-0.3-0.3l-0.1-0.1l-0.1,0l-0.1,0l-1,0.8l-0.2,0.1L11,3.3l0.4-1.1L12.1,2l0-0.3l0-0.2L12,1.4L11.3,1L10.6,0.8z
	 M4.7,7.7l1.2,0v2.5H4.7V7.7z M2.5,7.7l1.2,0v2.5l-1.2,0V7.7z M3.1,3.4h2v1.7h-2V3.4z M2,0.8l0.1,2l0,0.1l0,0l0,0l-1.3,0v0.5h1.4
	L2,5.8L2,6l0.1,0.1l0.1,0.1l0.1,0.1l0.1,0l0.1,0l0.1,0l0.1-0.1l0.1-0.1l0.1-0.2L3,5.6h0.6v1.6h-1L1.8,6.7L1.4,6.6v5.3L1.8,12L2,12
	l0.1-0.1l0.1-0.1l0.1-0.1l0.1-0.2l0-0.2l0-0.6h1.2l-0.1,2.3l-0.1,0.1l-0.2,0.1L1,13.2v0.5h2.7l0.1,3.6l0.5,0l0.1,0L4.6,17l0.1-0.1
	l0.1-0.5l0-2.7H8L8,13.5l0-0.1l-0.1-0.2l-0.2-0.3l-0.4-0.4l-0.3,0l-0.7,0.7L6,13.2l-0.3,0l-1-0.1v-2.3h1.2l0,0.9l0.4,0l0.2-0.1
	l0.1-0.1l0.1-0.2l0.1-0.2l0.1-2.7L7.6,8L7.4,7.4L7,6.9L6.4,6.6L5.8,7.1L5.4,7.2H4.7V5.6H5l0.1,0.6l0.4-0.1L5.7,6l0.1-0.1L6,5.7
	l0.1-0.4l0-1.9h2.3L8.3,3.1L8.1,2.9L7.3,1.9l-1,1L6,3V1.8h0.4V1.2l0-0.1L6.4,1L6.2,0.9L6.1,0.9l-0.3,0L5.1,0.8L5,0.9l0,2.1h-2L3,2.5
	l0-0.4l0-0.1l0.7-0.6L3.6,1.2L3.5,1L2.4,0.8L2,0.8z"/>
</svg>
