<?xml version="1.0" encoding="utf-8"?>
<!-- Generator: Adobe Illustrator 22.0.1, SVG Export Plug-In . SVG Version: 6.00 Build 0)  -->
<svg version="1.1" id="レイヤー_1" xmlns="http://www.w3.org/2000/svg" xmlns:xlink="http://www.w3.org/1999/xlink" x="0px"
	 y="0px" viewBox="0 0 18 18" style="enable-background:new 0 0 18 18;" xml:space="preserve">
<path d="M9.1,11.1h1.5l0,1H9.1V11.1z M6.9,11.1h1.4v1H6.9V11.1z M7.8,8.3h2l0,1h-2V8.3z M11.4,12.9l-0.7,0.7l0,0l-0.1,0h-0.2
	l-1.1-0.1v-0.8l1.1-0.1l0.2,0l0.5,0.3l0.1,0l0.1,0L11.4,12.9z M13.6,9.7h1.7v1.7h-1.7V9.7z M13.6,7.4h1.7v1.8h-1.7V7.4z M12.7,8.3
	l-0.1,5l-0.2,0.9l-0.7,1.3l-0.9,1l-0.6,0.4L10,16.9l0,0.1l0.3,0l0.8-0.3l0.7-0.4l0.7-0.7l0.5-0.8l0.3-0.7l0.3-2.1l0.1-0.1l0.2-0.1
	l1.4,0v3.6l-2.4,0.1v0.1l1.8,0.5l0.3,0.7l1.1-0.3l0.1-0.1l0.1-0.4l0-8l0.7-0.5l-0.5-0.7l-0.3-0.2L16,6.6l-0.1,0L15,7L14.5,7L14.2,7
	L13,6.4l-0.3-0.1l0,1.8l-0.1-0.3l-0.3-0.3l-0.5-0.4l-0.2,0.2l-0.4,0.5L11,7.8l-0.2,0l-0.3,0l0-0.2l0-0.1l0.1-0.1l0.1-0.1L11,7.4V7
	L9.7,6.7l0.1,0.5l0,0.3l0,0.1l0,0.1L9.6,7.8L9.4,7.9L7.8,7.8V7.5l0.4-0.2l0.1-0.4L6.8,6.7l0,0.9l0,0.1l0,0.1l-0.1,0l-1.5,0v0.5h1.6
	l0,1.8L7,10.3l0.1,0.1l0.1,0.1l0.1,0l0.1,0l0.1-0.1l0.1-0.1l0.1-0.1l0-0.2l0-0.3l0.5,0v0.9l-1,0.1l-0.1,0l-0.1,0l-0.8-0.6L6,10
	l0,2.4l0.1,0.6l1-0.4l0.5-0.1l0.6,0v0.9h-3V14h3l-0.1,2.6l0.1,0.3L8.3,17L8.4,17l0.1,0l0.1,0l0.2,0L8.9,17l0.2-0.1V14h3.3v-0.4
	l-0.7-0.8h-0.1l-0.1-0.8l0-0.2l0.2-0.4l0.1-0.1l0.2-0.1l-1-1.1l-0.4,0.4l-0.2,0.1l-0.2,0.1l-1.1,0v-1h0.6L9.8,10l0,0.1l0.1,0.1
	l0.1,0.1l0.2,0l0.1,0l0.1-0.1l0.1-0.1l0.1-0.3l0-1.6H12.7z M10.4,3.8h1.8v1.1h-1.8V3.8z M10.4,2.4h1.8l0,1h-1.8V2.4z M15.7,0.8
	l-0.9,1.1H5.2v0.5h4.3v0.9L7.9,3.4l-0.2,0L6.9,3L6.6,2.9l-0.1,3l0.1,0.5l0.1,0.1l0.1,0.1l0.1,0.1l0.2,0l0.3-0.1l0.3-0.2l0.1-2.6
	l0.1,0l0.1-0.1l1.7,0.1l0.2,2.5h0.5l0.2-0.9l1.8,0l0,0.4L12.4,6l0.1,0.1l0.1,0.1l0.1,0l0.2-0.1L13,6l0.1-0.3l0-1.9l1.6,0L15,3.8
	l0.1,0.1l0,0.1l0,2.3l0.2,0.1l0.2,0l0.3-0.1l0.3-0.2l0-1.9L16.8,4l-0.6-0.8L16,3l-0.3-0.2l-0.2-0.1l-0.6,0.4l-0.3,0.1l-1.4,0V2.6
	l0.1-0.2l0-0.1l0.1,0l0.2-0.1l3.8,0.1l-0.5-0.8l-0.4-0.4l-0.3-0.2l-0.2-0.1L15.7,0.8z M3,0.8v4.7H0.7l0.1,0.3L0.8,6L0.9,6L1,6L3,6
	l-0.3,2L2,10.5l-1.5,2.8v0.4l1.6-1.5L2.8,11L3,10.1v6.8L3.2,17l0.1,0l0.7-0.2V8.7l0.3,0.4l0.5,1.6L5,11l0.3,0l0.1,0l0.1-0.1l0.1-0.1
	l0.1-0.1l0.1-0.2l0-0.3L5.6,9.6L5.4,9.4L4.9,8.9L4.1,8.4V6h2.5L6.4,5.6l-1-1.1L5,5.1L4.5,5.5l-0.2,0l-0.3,0L4,2.1L4,2l0-0.1l0.1-0.1
	l0.7-0.4V1L3,0.8z"/>
</svg>
