<?xml version="1.0" encoding="utf-8"?>
<!-- Generator: Adobe Illustrator 22.0.1, SVG Export Plug-In . SVG Version: 6.00 Build 0)  -->
<svg version="1.1" id="レイヤー_1" xmlns="http://www.w3.org/2000/svg" xmlns:xlink="http://www.w3.org/1999/xlink" x="0px"
	 y="0px" viewBox="0 0 18 18" style="enable-background:new 0 0 18 18;" xml:space="preserve">
<path d="M14,13.9l1.1,1.1l1.3,2.1l0.2,0.2l0.2,0.1l0.2,0l0.1,0l0.1-0.1l0.1-0.1l0.1-0.1l0.1-0.2l0-0.2l-0.1-0.5l-0.2-0.3L17,15.6
	l-1.6-1.2L14,13.9L14,13.9z M13.1,14.6l0-0.2l0-0.1l-0.1-0.2L12,13.6l-0.1,0l-0.1,0L11.3,14l-0.1,0.1l-4.1,3.1v0.1h0.6l4.7-2.6
	L13.1,14.6z M7.5,11.7l0.8,1.9l0.3,1.4L9,15.3l0.2,0l0.1-0.1l0.1-0.1L9.5,15l0.1-0.2l0-0.6l-0.1-0.4L8,12l-0.2-0.1L7.5,11.7z
	 M2.2,11.8L2,12l-0.2,1.1l-1.2,2.1l-0.1,0.6L0.9,16l0.2,0L1.3,16l0.2-0.1l0.2-0.2L2,15.4l0.4-1.9l-0.1-1.4L2.2,11.8z M3,10.5v5.7
	l0.8,0.4l0.4,0.1l2.4,0l0.9-0.2l0.3-0.1v-0.8H7.5l-0.1,0l0-0.1L7,13.4l-0.3,0.3l-0.3,1.1l-0.2,0.4L6,15.5l-0.2,0.1l-0.4,0.1L5,15.8
	l-0.4-0.1L4,15.6l-0.1-3.9l0-0.1l0.6-0.4l0.1-0.4L3,10.5z M4.2,9.8l0.6,0.8l0.7,1.8L5.9,13L6.3,13l0.1-0.1l0.2-0.2l0-0.1l0.1-0.3
	l-0.1-0.3l-0.1-0.2L5,10L4.7,9.9L4.2,9.8z M10.9,10.5h4.4v2.2h-4.4V10.5z M10.9,7.8h4.4V10h-4.4V7.8z M10.9,5.1h4.4v2.2h-4.4V5.1z
	 M17.5,2.2L17.4,2L17,1.3l-0.6-0.6l-0.2-0.1l-0.1,0l-0.2,0.2l-0.7,0.9H8.8v0.5h3.8l-0.7,2.4l-0.6,0.1l-0.1,0l-1.4-1v10l0.2,0.1
	l0.1,0.1l0.3,0l0.4-0.2v-0.5h4.4l0,0.2l0,0.1l0.1,0.1l0.1,0.1l0.3,0l0.5-0.2V5.8l0.8-0.6l-0.8-1L16.1,4l-0.1,0l-0.1,0l-0.1,0l-1,0.6
	l-0.4,0.1l-2,0l1.1-1.9l0.4-0.4l0.3-0.1L17.5,2.2z M2.5,3.7h5.3v5.3H2.5V3.7z M4.6,0.7L3.9,3.2L3.2,3.2l-0.4,0L2.7,3.1L1.8,2.5
	L1.5,2.3v7.5l0.3,0.2l0.1,0l0.2,0l0.1-0.1l0.3-0.2l0-0.3h5.3l0,0.2l0.1,0.2l0.1,0.1L8,10l0.1,0l0.2,0l0.5-0.3V4l0.8-0.5L9,2.8
	L8.7,2.6L8.6,2.5l-0.2,0l-0.2,0L7.5,3.2L7.4,3.2L7.1,3.3L4.3,3.2l0.3-0.5l0.9-1.2l0.1,0l0.4-0.1l0.1-0.3L4.6,0.7z M4.6,5.5l1.3,0
	L5.4,6.2l-1-0.3L4.6,5.5z M4.8,3.9L2.7,6.8l0.1,0.1L4,6L5,6.8L3.1,8.4l0.3,0.1l2.1-1.4l0.9,0.8l0.4,0.2l0.1-0.8l0-0.2L6.7,7L6.5,6.8
	L6.1,6.6l0.8-1l0.6,0L7.3,5.1L6.7,4.4L6,4.9L5.9,5h-1l0-0.1l0.2-0.3l0.1,0l0.2-0.1l0.4,0V4.1L4.8,3.9z"/>
</svg>
