<?xml version="1.0" encoding="utf-8"?>
<!-- Generator: Adobe Illustrator 22.0.1, SVG Export Plug-In . SVG Version: 6.00 Build 0)  -->
<svg version="1.1" id="レイヤー_1" xmlns="http://www.w3.org/2000/svg" xmlns:xlink="http://www.w3.org/1999/xlink" x="0px"
	 y="0px" viewBox="0 0 18 18" style="enable-background:new 0 0 18 18;" xml:space="preserve">
<path d="M11.9,0.7v14.9l0,0.2l0.2,0.2l0.3,0.2l0.4,0.2l1.4,0.2l3.3-0.3l-0.1-0.5l-0.2-0.4l-0.3-2.7l-0.3,0.3l-0.2,1.4L16.1,15
	l-0.2,0.2l-0.2,0.1l-0.2,0.1l-2,0.1l-0.4-0.1l-0.1-0.1L13,15.2L13,15.1V7.9l2.5-0.6l2-1l-0.1-0.4l-1.1-0.8L13,7.6V1.8l0.7-0.4V0.9
	L11.9,0.7z M7.6,0.7v14.4l-1.4,0.3L7,17.4l0.2-0.2L7.6,17L8,16.5l3.8-1.6v-0.1l-1.2,0l-1.9,0.4V7.7h3.1L11.4,7l-0.8-0.9L9.7,7
	L9.5,7.1L9.1,7.2l-0.4,0V1.8l0.7-0.4V0.9L7.6,0.7z M2.7,0.5l0.1,3L2.7,3.8L2.6,3.9L2.4,4L0.6,4v0.5h4L2.9,7.4l-2.4,3.1l0.1,0.1
	l1.2-0.5l0.4-0.3l0.3-0.4L2.7,9v7.8l0.2,0.1L3,17l0.7-0.2v-8L4.1,9l1.7,2.1l0.5,0L6.4,11l0.1-0.1l0.1-0.1l0.1-0.3l0-0.2l0-0.2
	L6.6,9.9L6.4,9.7L6.2,9.4L5.7,9.1l-1-0.3L4.7,8.7l2.5-1.5L6.9,6.7L6.1,6.1L4.2,8.4l-0.1,0L4,8.5l-0.3,0l0.1-0.7l1.5-2.3L5.7,5
	l0.1-0.1l0.8-0.2L6.3,4.2l-0.9-1L4.7,3.9l-0.1,0L4.5,4l-0.7,0V1.7l0.7-0.6V0.8L2.7,0.5z"/>
</svg>
