<?xml version="1.0" encoding="utf-8"?>
<!-- Generator: Adobe Illustrator 22.0.1, SVG Export Plug-In . SVG Version: 6.00 Build 0)  -->
<svg version="1.1" id="レイヤー_1" xmlns="http://www.w3.org/2000/svg" xmlns:xlink="http://www.w3.org/1999/xlink" x="0px"
	 y="0px" viewBox="0 0 18 18" style="enable-background:new 0 0 18 18;" xml:space="preserve">
<path d="M9.9,10.5H7.6V11H10c-0.8,1.7-1.4,2.6-2.9,3.8L7.3,15c1.8-1.1,2.8-2,3.7-3.6c0.4-0.2,0.6-0.3,0.6-0.5c0-0.1-0.1-0.3-0.4-0.6
	l-0.6-0.5L9.9,10.5z M9.6,5.6V3.8h5.1v1.8H9.6z M9.6,7.8V6.1h5.1v1.7H9.6z M9.6,8.3h2v5.5c0,0.3-0.2,0.4-0.5,0.4h-0.3l-1.1-0.1v0.3
	c1.1,0.2,1.4,0.5,1.6,1.2c1-0.2,1.3-0.5,1.3-1.4v-2.9c0.7,1.7,1.3,2.6,2.6,3.6c0.2-0.5,0.4-0.6,1-0.8v-0.2c-1.1-0.5-2.3-1.4-2.9-2.3
	l1.8-1c0.5,0,0.9-0.1,0.9-0.3c0-0.1-0.1-0.2-0.4-0.4L15,9.3c-0.6,0.7-1,1.2-1.9,1.8l-0.5-0.9v-1c0.4-0.2,0.5-0.3,0.5-0.5
	c0-0.2-0.2-0.3-0.5-0.5l-0.1,0h2.3v0.2c0,0.2,0.1,0.3,0.3,0.3c0.2,0,0.4-0.1,0.7-0.5v-4c0.5-0.3,0.6-0.4,0.6-0.6
	c0-0.2-0.1-0.3-0.4-0.6l-0.9-0.6l-0.4,0.7h-3.1l0.8-1.5c0.4-0.1,0.5-0.3,0.5-0.4c0-0.1-0.1-0.3-0.5-0.4l-1-0.3
	c-0.2,1.5-0.2,1.8-0.5,2.7h-1L8.6,2.6v6.3c0,0.2,0.2,0.4,0.4,0.4c0.2,0,0.4-0.1,0.7-0.4V8.3z M6.2,6.1l-0.6,8.7
	c-1.5,0.4-2.1,0.5-3.2,0.7l1-9.3H6.2z M6,5.6H3.4l0.3-3.3h4.4c0.2,0,0.4-0.1,0.4-0.3c0-0.1-0.1-0.3-0.4-0.6l-1-0.8l-1,1.2H0.5v0.5
	h2.3L1.4,15.6l-1,0.1l0.4,1.1c0.1,0.3,0.3,0.5,0.4,0.5c0.2,0,0.4-0.2,0.6-0.6l3.6-1.4v0.1c0,0.1,0,0.2,0,0.3c0,0.7,0.2,1.2,0.7,1.4
	c0.5,0.2,1.1,0.3,2.7,0.3h4.7c2.8,0,3.7-0.2,3.7-0.8c0-0.3-0.1-0.4-0.6-0.6l0.1-2.4h-0.2l-0.4,1.8c-0.3,1.1-0.4,1.1-5.5,1.1H8.9
	c-2,0-2.4-0.1-2.4-0.9c0-0.1,0-0.3,0-0.5l0.5-8.1C7.8,6.4,8,6.2,8,6c0-0.2-0.1-0.3-0.5-0.6L6.6,4.8L6,5.6z M3.1,8.9
	C3.8,9.4,4,9.8,4.2,10.6c0.1,0.7,0.1,0.7,0.3,0.9c0.1,0.1,0.3,0.2,0.4,0.2c0.3,0,0.6-0.3,0.6-0.6c0-0.8-0.6-1.6-1.6-2.1
	C3.7,8.8,3.6,8.8,3.2,8.6L3.1,8.9z"/>
</svg>
