<?xml version="1.0" encoding="utf-8"?>
<!-- Generator: Adobe Illustrator 22.0.1, SVG Export Plug-In . SVG Version: 6.00 Build 0)  -->
<svg version="1.1" id="レイヤー_1" xmlns="http://www.w3.org/2000/svg" xmlns:xlink="http://www.w3.org/1999/xlink" x="0px"
	 y="0px" viewBox="0 0 18 18" style="enable-background:new 0 0 18 18;" xml:space="preserve">
<polygon points="8.5,0.4 8.5,3.4 4.5,4 1.5,4 0.9,4.3 0.9,4.4 5.6,4.5 8.5,4.3 8.5,7.2 1.9,7.2 1.9,7.7 8.5,7.7 8.5,11.5 0.3,11.5 
	0.3,12 8.5,12 8.6,17.3 8.6,17.5 8.8,17.6 8.9,17.6 9.1,17.6 9.3,17.5 9.4,17.4 9.5,17.3 9.6,16.5 9.5,12 17.7,12 17.2,11.1 
	16.8,10.7 16.6,10.6 16.3,10.6 16.1,10.6 15.9,10.7 15.2,11.5 9.5,11.5 9.5,7.7 17.1,7.7 16.6,6.9 16.2,6.5 16,6.3 15.7,6.3 
	15.5,6.3 15.3,6.4 15.1,6.6 14.6,7.2 9.5,7.2 9.5,4.3 15.4,3.1 16,3.1 16,2.7 14.8,2 14.4,1.9 14.3,1.9 10,3.1 9.6,3.1 9.5,2.1 
	9.6,1.9 9.7,1.8 10.3,1.4 10.2,1 10.1,0.9 10,0.8 9.5,0.6 "/>
</svg>
