<?xml version="1.0" encoding="utf-8"?>
<!-- Generator: Adobe Illustrator 22.0.1, SVG Export Plug-In . SVG Version: 6.00 Build 0)  -->
<svg version="1.1" id="レイヤー_1" xmlns="http://www.w3.org/2000/svg" xmlns:xlink="http://www.w3.org/1999/xlink" x="0px"
	 y="0px" viewBox="0 0 18 18" style="enable-background:new 0 0 18 18;" xml:space="preserve">
<path d="M12.9,13.8l2,2l0.3,0.1l0.2,0l0.1,0l0.1-0.1l0.1-0.1l0.1-0.1l0-0.1l0-0.1l0-0.2l-0.2-0.4l-0.3-0.3l-1.7-0.8l-0.3-0.1
	L12.9,13.8z M10.8,13.8l-2.4,2l0.2,0.1l0.2,0.1l0.1,0l2.6-1.1l0.5-0.1l0-0.3l0-0.1l-0.1-0.1l-0.8-0.4H10.8z M4.5,10.5l0.7,3.1
	l0.1,0.1L5.5,14l0.3,0.1l0.1,0l0.2,0L6.2,14l0.1-0.1l0.1-0.1l0.1-0.1v-0.1l-0.1-0.5l-0.8-1.7L4.5,10.5L4.5,10.5z M1.2,10.4l-0.7,5
	h0.1l0.8-1.3l0.8-2.9h0.5l0-0.3l0-0.2l-0.1-0.1l-0.1,0L1.2,10.4z M10.1,11.9h4.4v1h-4.4V11.9z M10.1,10.5h4.4v1h-4.4V10.5z
	 M10.1,9.1h4.4v1h-4.4V9.1z M9.2,8.1v5.7L9.3,14l0.1,0.1l0.1,0.1l0.1,0.1l0.1,0l0.1,0l0.1-0.1l0.1-0.1l0.1-0.1l0-0.6h4.4l0,0.3
	l0.1,0.2l0.2,0.1l0.1,0.1l0.1,0l0.1-0.1l0.1-0.1l0.1-0.1l0-0.1V9.4L16,9.1l-0.6-0.8l-0.3-0.2l-0.1,0l-0.1,0l-0.7,0.4l-0.1,0
	l-3.7-0.1L9.2,8.1z M4.8,3.4L1.9,8.6L0.4,8.5L1,10.2l0.6-0.6l0.4-0.2l0.9-0.2v7.6L3,17l0.1,0.1l0.1,0.1l0.2,0l0.2,0l0.1-0.1l0.1-0.1
	l0.1-0.1L4,16.6l0-7.4l0-0.1l0.5-0.3l0.8-0.1L5.3,9l0.1,0.3l0.2,0.3l0.2,0.2l0.2,0l0.2-0.1l0.1-0.2l0-0.1l0-0.1l0-0.5L6.2,8.4
	L5.8,7.9L5,7.1L4.7,7l-0.3,0L5,8.2L2.5,8.4l2.3-3l0.6-0.6l0.1-0.1l0.3-0.1H6l0.2-0.1V4.1L5.5,3.5L5.1,3.4H4.8z M3.2,0.9L1.9,4.7
	L0.6,4.1L0.5,4.2l1.7,2.5l0.1,0.1l0.2,0l0.1-0.1l0.1-0.1l0.1-0.1l0.1-0.2L2.6,5.7L2.2,5l1.9-3l0.1-0.1l0.1-0.1l0.5-0.1L4.7,1.4
	L4.6,1.3L4.5,1.3L3.4,0.9L3.2,0.9z M12.8,4.4h1.7v1.3h-1.7V4.4z M10.1,4.4h1.7v1.3h-1.7V4.4z M16.1,0.7l-0.9,1.1H8l-0.1,0L7.7,1.6
	L7.3,1.1L7.1,1l-0.3,0v16.1l0.3,0.1l0.1,0l0.1,0l0.1,0l0.1-0.1l0.1-0.3l0.1-0.3h9.6l-0.1-0.3l-0.5-0.8l-0.2-0.2l-0.3,0l-0.2,0
	L16,15.4l-0.5,0.7H7.9V7.6h9.7l-0.4-0.7l-0.2-0.2l-0.7-0.5L15.4,7L15,7.2l-2.2-0.1V6.2h1.3l0.8,0.3l0.3,0l0.2-1.8l0.3-0.2l0.2-0.3
	L15.7,4l-0.2-0.2l-0.6-0.3l-0.6,0.5l-0.1,0l-1.3-0.1V3.5l0.1-0.1l0.6-0.1l0.1-0.2l0-0.2l0-0.2l-0.7-0.3l-1.1,0v1.4l-1.2,0l-1-0.5
	L9.3,3.3L9.2,6.2l0.1,0.3l0.1,0.1l0.1,0.1l0.1,0.1l0.1,0l0.1,0l0.1-0.1L10,6.6l0.1-0.1l0-0.2V6.2l1.6,0.1v0.9H7.9V2.3h9.6L17.4,2
	l-0.9-1.1l-0.2-0.1L16.1,0.7z"/>
</svg>
