<?xml version="1.0" encoding="utf-8"?>
<!-- Generator: Adobe Illustrator 22.0.1, SVG Export Plug-In . SVG Version: 6.00 Build 0)  -->
<svg version="1.1" id="レイヤー_1" xmlns="http://www.w3.org/2000/svg" xmlns:xlink="http://www.w3.org/1999/xlink" x="0px"
	 y="0px" viewBox="0 0 18 18" style="enable-background:new 0 0 18 18;" xml:space="preserve">
<path d="M0.6,4l0.8,2.9l0.2,0.2l0.1,0l0.2,0l0.1,0l0.1-0.1L2.2,7l0.1-0.3l0-0.4l-0.2-1L1.6,4.7L1.3,4.4L0.6,4z M6.7,6.3h7.2v1.3H6.7
	V6.3z M6.7,4.5h7.2v1.3H6.7V4.5z M5.7,3.3L5.5,7.8l0.1,0.6l0.1,0.1l0.1,0.1l0.4,0.1l0.5-0.4l0.1-0.1l0.1,0l0.4,0L6.9,8.9l-3.3,3.8
	l0.1,0.1l1.7-1.1l-0.1,3.5l0.1,0.4l0.1,0.1l0.1,0.1l0.1,0.1l0.1,0l0.2,0l0.2-0.1l0.2-0.2l0.1-0.1l0-0.2v-0.2H15l-0.3-0.7l-0.3-0.3
	l-0.2-0.2l-0.3-0.1l-0.2,0L13.5,14L13,14.6H6.4v-2.9l0.7-0.4l-0.3-0.5l-0.2,0l-0.1,0l0.2-0.3l0.1-0.1l0.6-0.2l2.2-0.1l-0.8,1.5
	L7,13.8l-0.2,0.3l0.1,0.1l1-0.4l2-1.7l0.2-0.1l2.2,2.1l0.3,0.1l0.3,0l0.1-0.1l0.1-0.1l0.1-0.1l0.1-0.3l0-0.2l-0.1-0.2l-0.2-0.3
	l-0.2-0.3l-0.5-0.3l-1.9-0.7l-0.2-0.1l0.5-0.6l0.4,0v-0.4l-0.7-0.2v-0.1h5.4l-0.5,4.5l-0.6,1.4l-0.6,0l-1.4-0.4l-0.6,0l-0.3,0.1
	l0.2,0.3l0.1,0.1l1.7,0.5v0.6l1.1-0.4l0.5-0.3l0.2-0.2l0.2-0.3l0.7-2.5l0.2-2.5l0.1-0.3l0,0l0.7-0.7l-0.6-0.8L16.6,9l-0.2,0h-0.1
	l-0.3,0.2l-0.6,0.6H7.6l0.2-0.4l0.2-0.2l0.2-0.1L8.5,9l0.6,0L9.1,8.6L9,8.5L8.1,8.1h5.7l0.3,0.3l0.1,0l0.1,0l0.3-0.1l0.1-0.1
	l0.1-0.2l0.1-0.3l0-3l0.5-0.2l0-0.2l0-0.2L15.3,4l-0.1-0.2l-0.2-0.2l-0.3-0.1l-0.3-0.1l-0.2,0l-0.1,0.1l-0.2,0.2l-0.2,0.4H6.9L6.8,4
	L6.1,3.4L6,3.3l-0.1,0H5.7z M8.9,0.6l0,1.8l-5.1,0l-0.1,0L3.5,2.2L3.1,1.7L2.9,1.7l-0.3,0v7.4L0.5,10l0.1,0.2l0.1,0.6l0.4,0.6
	l1.5-1.7l-0.3,2.5l-0.8,2.5l-1,1.9l0.4-0.1l0.3-0.2L1.6,16l0.9-1.5l1.2-4.3l0.1-7.3h13.8l-0.1-0.3l-0.6-0.9l-0.2-0.2l-0.1,0l-0.1,0
	l-0.2,0l-0.2,0.1l-0.7,0.8H9.9L10,2.1L10,2l0.1-0.1l0.6-0.5l0.1-0.1l0-0.1l0-0.1l-0.1-0.1L8.9,0.6z"/>
</svg>
