<?xml version="1.0" encoding="utf-8"?>
<!-- Generator: Adobe Illustrator 22.0.1, SVG Export Plug-In . SVG Version: 6.00 Build 0)  -->
<svg version="1.1" id="レイヤー_1" xmlns="http://www.w3.org/2000/svg" xmlns:xlink="http://www.w3.org/1999/xlink" x="0px"
	 y="0px" viewBox="0 0 18 18" style="enable-background:new 0 0 18 18;" xml:space="preserve">
<path d="M5.6,5.7l0,3.6H0.5v0.5h5.1l0,0.4c-0.1,1.4-0.4,2.5-1,3.8l-0.6,1l-0.6,0.6l-1.9,1.4l-0.3,0.3l0.3,0.1L2,17.2l1-0.6l1.4-1.1
	l1.3-1.6c0.5-1.1,0.7-1.9,0.9-3.6l0-0.4h4.7v7.4l0.2,0.1l0.2,0l0.7-0.2V9.8h5.2l-0.5-0.9l-0.8-0.7l-0.9,1l-0.1,0.1l-0.2,0h-2.6
	l-0.1-2.3l0-0.1l0-0.1l0.1-0.1l0.7-0.4V6l-1.8-0.3v3.6H6.6L6.6,7l0.1-0.2l0.1-0.1l0.7-0.4V5.9L5.6,5.7z M5.9,0.7v2H0.5v0.5h5.4
	L5.8,4.5l0.1,0.3L6,4.8l0.1,0.1L6.3,5l0.1,0l0.1-0.1l0.3-0.2L6.8,3.2H11v1.6l0.2,0.1l0.1,0l0.3,0l0.2-0.1L12,4.7l-0.1-1.5h5.5
	l-0.1-0.3l-0.3-0.4l-0.5-0.6l-0.3-0.2l-1.1,1H12l-0.1-0.4L12,1.9L12,1.8l0.1-0.2l0.1-0.1l0.5-0.2V1L11,0.7v2h-4L6.9,2.3l0.1-0.3
	L7,1.8l0.1-0.2l0.1-0.1l0.5-0.2V0.9L5.9,0.7z"/>
</svg>
