<?xml version="1.0" encoding="utf-8"?>
<!-- Generator: Adobe Illustrator 22.0.1, SVG Export Plug-In . SVG Version: 6.00 Build 0)  -->
<svg version="1.1" id="レイヤー_1" xmlns="http://www.w3.org/2000/svg" xmlns:xlink="http://www.w3.org/1999/xlink" x="0px"
	 y="0px" viewBox="0 0 18 18" style="enable-background:new 0 0 18 18;" xml:space="preserve">
<path d="M9.3,13.8H15V16H9.3V13.8z M9.3,11.1H15v2.2H9.3V11.1z M9.3,8.6H15v2H9.3V8.6z M8.3,7.3V17l0.2,0.1l0.1,0.1l0.3,0l0.4-0.2
	v-0.5H15v0.5l0.1,0.2l0.1,0.1l0.1,0.1l0.2,0l0.5-0.3V9.1l0.8-0.5l-0.3-0.5L16,7.5l-0.2-0.1l-0.2,0l-0.2,0.1l-0.1,0.1l-0.5,0.5H9.6
	L8.3,7.3z M14.7,5L14,5.9H8.9v0.5h6.6l-0.1-0.5l-0.1-0.2L14.7,5z M14.7,2.7L14,3.6H8.9v0.5h6.6l-0.1-0.5l-0.1-0.2L14.7,2.7z
	 M7.7,0.7V7l0.2,0.1l0.2,0l0.2,0l0.5-0.2l0-5.1h6.9l-0.1,4.6l0.1,0.3l0.1,0.1l0.1,0.1l0.1,0.1l0.3,0l0.4-0.2l0-4.4l0.8-0.5l-0.1-0.3
	l-0.1-0.1l-1.1-0.6l-0.2,0l-0.1,0l-0.6,0.5H8.9L7.7,0.7z M3.5,0.7v4.2H0.7l0,0.3l0.1,0.1l2.8,0.1L3.3,6.7l-2.8,6.9l0.3-0.1l0.1,0
	L1,13.4l0.2-0.2c1.1-1.3,1.6-2.3,2.3-3.7l0.1-0.1v7.8l0.2,0.1l0.1,0l0.7-0.2V8.6L5.1,9l1.2,1.6l0.2,0.1l0.4-0.1L7,10.5l0.1-0.1
	l0.1-0.2l0-0.2L7,9.6L6.8,9.3L6.5,9L5.8,8.6L4.6,8.2L4.5,5.8l0.1-0.3l0.1-0.1l0.1,0l0.2-0.1l2.8,0.1L7.2,4.6L6.3,3.7L5.8,4.3
	L5.3,4.7L5,4.9l-0.2,0l-0.3,0L4.5,2.1l0-0.2l0-0.1l0.1-0.1l0.7-0.4V0.9L3.5,0.7z"/>
</svg>
