<?xml version="1.0" encoding="utf-8"?>
<!-- Generator: Adobe Illustrator 22.0.1, SVG Export Plug-In . SVG Version: 6.00 Build 0)  -->
<svg version="1.1" id="レイヤー_1" xmlns="http://www.w3.org/2000/svg" xmlns:xlink="http://www.w3.org/1999/xlink" x="0px"
	 y="0px" viewBox="0 0 18 18" style="enable-background:new 0 0 18 18;" xml:space="preserve">
<path d="M0.9,10.6l0.7,2l0.3,1.4l0.1,0.1l0.1,0.1l0.1,0.1l0.2,0l0.1,0l0.1-0.1l0.2-0.2L2.9,14l0-0.2l-0.1-0.6l-0.2-0.8l-0.4-0.7
	L0.9,10.6L0.9,10.6z M5.7,10.4l-1.2,3.7l0.1,0.1l1.6-2.4L7,11.1v-0.2L5.7,10.4z M8.8,9.4L8.3,9.9L8.1,10l-0.2,0.1L6.5,10v0.5h1.8
	l0.1,3.8l-0.1,0.5l-0.1,0.2L8,15.3l-0.6,0.3l-1.1,0.3l0.2,0.6l0.4,0.7l0.4,0.1l0.1-0.7L8.9,15l1.1,1l1.7,0.9l0.2,0.1h4.7v-0.2l0-0.1
	l0.1-0.2l0.1-0.1l0.4-0.2v-0.5l-3.3,0.2l-3.3-0.3l-1-0.4l-0.5-0.4l-0.1-0.2l-0.1-0.4l0-3.3l0.3-0.1l0.3-0.1l0.1-0.2l0-0.2L9.8,10
	L9.6,9.7L9.3,9.5L8.8,9.4z M6.6,5.6l0.9,1L8.4,8l0.4-0.1l0.1-0.1l0.1-0.1L9,7.4l0.1-0.3L9,6.7L8.7,6.3l-1-0.6L7.2,5.6L6.6,5.6z
	 M7,1.7l1.1,1L8.8,4L9,4.1l0.1,0.1l0.2,0l0.1-0.1L9.5,4l0.1-0.1l0.1-0.2l0-0.2l0-0.2L9.6,3.1L9.3,2.6L8.8,2.1L8.3,1.8L7.8,1.7L7,1.7
	z M13.9,8.1h1.8v2.4h-1.8V8.1z M11.2,8.1H13v2.4h-1.8V8.1z M13.9,5.2h1.8v2.4h-1.8V5.2z M11.2,5.2H13v2.4h-1.8V5.2z M15.8,0.7
	l-0.4,0.6h-4.9v0.5h4.6l-1.5,1.5l-1.4-0.8l-0.7-0.2l0,0.1l1.8,2.3l-1.6,0l-1-0.6l-0.4-0.1v10.3l0,0.2l0.1,0.1l0.1,0.1l0.1,0l0.2,0
	l0.1-0.1l0.1-0.1l0.1-0.1l0-0.1l0-3.5H13L13,13.3l0.1,1.1l0,0.1l0.2,0.2l0.2,0l0.1-0.1l0.2-0.1l0.1-0.2l0.1-0.3l-0.1-3.1h1.8v2.6
	l-1.5,0.1v0.1l1,0.5l0.4,0.4l0.1,0.1l0.1,0l0.4-0.1l0.4-0.2l0.1-0.1V5.6l0.8-0.3l-1-1.1l-0.1,0l-0.1,0l-0.1,0l-0.6,0.5l-0.2,0.1
	l-1.4-0.1L14,4.5l0-0.2L14,4l-0.3-0.4l1.6-1.1L17.1,2L17,1.8L16.4,1l-0.2-0.2L16,0.8l-0.1,0H15.8z M3.2,0.7L3.2,1.1L2.1,3.8L0.4,7.2
	l0.1,0.1l0.4-0.1l0.8-0.8l0,0l0.4,0l1.1,0.1l0,2L3.1,8.8L3.1,8.8l0,0L2.9,8.9L0.6,8.8v0.5h2.5v5.4l-2,0.2l-0.3,0.1l-0.1,0.2L1,16.9
	l0.5-0.1l0.1-0.1l0.1-0.1l0-0.2v-0.2l4.8-1.5l0.3-0.5l-2.7,0.3V9.3h2.7L6.5,8.7L5.7,7.9L4.8,8.8L4.5,8.8H4.1L4,6.7l0.1-0.4l0.1-0.1
	l0.1,0l2,0L5.9,5.6L5.6,5.3L5.1,4.8L4.1,5.8L3.9,5.8L2,5.8L4,2.2l1,1l1.3,2l0.2,0.1l0.1,0l0.1-0.1l0.1-0.1L7,4.8l0-0.4L6.5,3.5
	L6.2,3.1L5.5,2.6L4.4,2.1L4.2,1.8l0.6-0.2l0-0.4L3.2,0.7z"/>
</svg>
