<?xml version="1.0" encoding="utf-8"?>
<!-- Generator: Adobe Illustrator 22.0.1, SVG Export Plug-In . SVG Version: 6.00 Build 0)  -->
<svg version="1.1" id="レイヤー_1" xmlns="http://www.w3.org/2000/svg" xmlns:xlink="http://www.w3.org/1999/xlink" x="0px"
	 y="0px" viewBox="0 0 18 18" style="enable-background:new 0 0 18 18;" xml:space="preserve">
<path d="M11.1,11.4l0,2.1l-0.1,0.4l0,0.1l-0.1,0L10.8,14l-2.5-0.1v0.5l2.9,0v2.4H6.2v0.5h11.1l-0.4-0.7l-0.8-0.9L15,16.9l-0.1,0
	l-3-0.1l-0.1-2l0.1-0.4l0,0l0,0l0.2-0.1l2.6,0.1l-0.1-0.3l-0.3-0.5l-0.7-0.6l-0.6,0.8l-0.2,0.2L12.7,14h-0.3L12,13.9l-0.1-0.4
	l0.1-0.6l0.1-0.2l0.5-0.4l-0.1-0.6L11.1,11.4z M10.2,8.6h2.1v1.8h-2.1V8.6z M10.2,6.3h2.1v1.8h-2.1V6.3z M9.2,4v1.8H7.1l0,0.3
	l0.1,0.2l0.1,0.1l2-0.1v1.8H6.9v0.5h2.2l0,1.5l-0.1,0.3l0,0.1L9,10.5l-0.2,0.1l-3.1-0.1V11H9l-0.9,1.7l-2.5,3L5.4,16l0.4-0.1
	c0.7-0.3,1.2-0.7,2.2-2l2.2-2.7L10.1,11h2.8l1.6,2.3l1.1,0.8l1,0.4l0.5-0.6l0.1,0l0.4,0v-0.4l-2.7-1l-0.8-0.6L13.6,11l0,0h3.9
	l-0.3-0.7L16.8,10l-0.5-0.4l-0.9,0.8l-0.1,0l-0.8,0.2l-1.2-0.2V8.6h2.8l-0.4-0.8l-0.9-0.8l-0.9,1l-0.1,0.1l-0.1,0.1h-0.3V6.3h2.6
	l-0.3-0.6l-0.5-0.5L14.9,5l-0.4-0.1l-0.6,0.8l-0.1,0.1l-0.1,0.1l-0.3,0l0-0.8l0.1,0l0.2,0L13.7,5l0.1-0.1l0.1-0.2V4.6l0-0.1
	l-0.1-0.1l-0.1-0.1l-1-0.3l-0.2,0l-0.1,0l-0.1,0.1l-0.1,0.2l0,1.4h-2.1V5.2l0.1,0l0.1,0l0.1,0l0.1-0.1l0.1-0.1l0.1-0.2l0-0.2
	l-0.1-0.1l-0.2-0.1L9.9,4.1L9.4,4L9.2,4z M2.9,2.4L3,6.3L2.9,7l0,0.1l0,0L2.6,7.2L0.4,7.1v0.5h2.5v5.8l-2.4,1l0.1,0.6l0.1,0.3
	l0.1,0.2l0.2,0.1l0.1,0.1l0.2,0l0.1,0l0.6-0.6l4.9-3l-0.3-0.1l-0.1,0l-2.8,1.2V7.6h2.6L6.3,7L5.8,6.5L5.2,6.2L4.4,7L4.3,7.1L4.2,7.1
	l-0.3,0V3.8l0.7-0.4L4.6,3.1L4.5,3L4.4,2.9L2.9,2.4z M10.8,0.6v2.2H7L6.6,2H6.5L6.5,2.4L5.4,5.3l0.1,0.2v0.3l0.6,0l0.2-0.1l0.2-0.1
	l0.2-0.2L6.8,5L7,4.5l0-1.3h8.4l-0.3,1.9l0.1,0l1.1-1l0.1-0.1l1-0.4l-0.3-0.8l-0.3-0.4l-0.4-0.3L16,2l-0.4,0l-0.1,0.3l-0.1,0.2
	l-0.2,0.1l-0.4,0.1l-3.1-0.1V1.7l0.1,0l0.1,0l0.1-0.1l0.1-0.2V1.3l0-0.2l-0.1-0.3L10.8,0.6z"/>
</svg>
