<?xml version="1.0" encoding="utf-8"?>
<!-- Generator: Adobe Illustrator 22.0.1, SVG Export Plug-In . SVG Version: 6.00 Build 0)  -->
<svg version="1.1" id="レイヤー_1" xmlns="http://www.w3.org/2000/svg" xmlns:xlink="http://www.w3.org/1999/xlink" x="0px"
	 y="0px" viewBox="0 0 18 18" style="enable-background:new 0 0 18 18;" xml:space="preserve">
<path d="M12.5,8.4L12,9H4.2v0.5h7.6l-2.1,1.5H9.5l-0.6-0.2l-0.4,0v1.4H0.6v0.5h7.9l0.1,3L8.5,16L8.4,16l-0.2,0.1l-0.3,0l-1.9-0.4
	l-0.4,0L6,16.2l1.9,0.6v0.5h0.3l0.5-0.1L9,17l0.2-0.2l0.1-0.3l0.2-0.7l0.1-0.9l-0.1-2.3h8l-0.1-0.3l-0.6-0.9l-0.3-0.2l-0.1,0l-0.2,0
	l-0.2,0l-0.2,0.1l-0.7,0.8H9.5v-0.3l0.8-0.3v-0.4L10,11.1l2.8-1.2l0.3-0.1l0.1,0l0.6-0.1l-0.3-0.6l-0.3-0.3l-0.5-0.3l-0.3-0.1
	L12.5,8.4z M7.7,6.1l0.6,1.2l0.4,1.5L9,8.9l0.2,0l0.2,0l0.1-0.1l0.1-0.1l0.1-0.1l0.1-0.2L9.6,7.7l-0.7-1L8.4,6.3L8.1,6.1L7.7,6.1z
	 M12.7,5.8l3.1,3.4l0.1,0l0.2,0.1l0.2,0l0.3-0.2L16.5,9l0.1-0.2l0-0.2l-0.3-0.6l-0.5-0.6L15,6.7l-0.9-0.5L12.7,5.8L12.7,5.8z
	 M13.7,5.2L13.7,5L13,4.1L12.8,4l-0.1,0l-0.1,0l-0.5,0.2l-7,1.4L3.7,5.1v0.2L1.6,8.8L1.2,9.1l0.1,0.1l1-0.6l2.5-2.5l0.1,0l0.3-0.1
	l1.9,0l5.7-0.8L13.7,5.2z M11,0.7L11,1L8.9,4.3L8.6,4.5l0,0.1L9,4.5L11.2,3l0.5-0.2l0.3,0l0.5,0.1l0.4,0.2l0.6,0.6L14,4.9L14.3,5
	l0.5-0.1l0.1-0.1l0-0.2l0-0.4l-0.2-0.4l-0.2-0.3l-0.3-0.2l-0.3-0.2L13.6,3h-0.2V3l4.1,0l-0.4-0.8l-0.4-0.4l-0.1-0.1l-0.3-0.1h-0.2
	l-1.2,1l-0.1,0l-0.3,0.1l-3.3-0.1l0-0.1l0.1-0.2L12,1.9l0.9-0.2l-0.2-0.4l-0.1-0.1l-0.1-0.1l-1.1-0.4L11,0.7z M3.4,0.7L3.1,1.3
	L0.5,5.2l0.1,0.1l0.4-0.2l2.7-2.2L4,2.8l0.2,0L4.5,3l1,1.9L5.7,5L6.2,5l0.1-0.1l0-0.1l0-0.2L6.3,4.2L6,3.6L5.7,3.3L5.2,3h4L8.8,2.3
	L8,1.6L7.2,2.4L7.1,2.4L6.7,2.5l-3,0l0-0.1l0.3-0.3l0.3-0.2l0.3-0.1l0.4-0.1L4.8,1.2L4.8,1.1L4.6,1.1L3.6,0.7L3.4,0.7z"/>
</svg>
