<?xml version="1.0" encoding="utf-8"?>
<!-- Generator: Adobe Illustrator 22.0.1, SVG Export Plug-In . SVG Version: 6.00 Build 0)  -->
<svg version="1.1" id="レイヤー_1" xmlns="http://www.w3.org/2000/svg" xmlns:xlink="http://www.w3.org/1999/xlink" x="0px"
	 y="0px" viewBox="0 0 18 18" style="enable-background:new 0 0 18 18;" xml:space="preserve">
<path d="M9,12.7l-0.6,1.5l-0.7,1.3l0,0.1l0,0.3l0,0.1l0.1,0.1L8,16.2l0.1,0.1l0.1,0l0.2-0.1l0.2-0.1l0.3-0.3L9,15.6l0.2-0.8l0-2.1H9
	z M10.3,12.3l-0.1,0.4l0.1,0.4l-0.4,2v0.2l0.1,0.2l0.1,0.1l0.1,0.1l0.1,0l0.2,0l0.2-0.1l0.2-0.1l0.1-0.1l0.1-0.4v-0.2l-0.5-2.3H10.3
	z M11.5,11.9l0.2,0.4l0.1,1.3l-0.1,0.9l0.4,0.4l0.1,0.1l0.1,0l0.1,0l0.1-0.1l0.1-0.1l0.1-0.1l0.1-0.2l0-0.1L12.9,14l-0.4-1.3
	L12,12.1L11.9,12L11.5,11.9z M12.7,11.7l0.2,0.3l0.6,1.7l0.2,0.3l0.1,0.1l0.2,0.1l0.1,0l0.1-0.1l0.1-0.1l0.1-0.1l0-0.1l-0.1-0.3
	l-0.3-0.8l-0.4-0.6l-0.4-0.3l-0.4-0.1L12.7,11.7L12.7,11.7z M10.5,5.1h4.1v1.5h-4.1V5.1z M10.5,3.1h4.1v1.5h-4.1V3.1z M12,0.7
	l-0.4,2l-0.3,0.1l-0.1,0l-0.4-0.2L9.5,1.7v9.8l0.3,0.1l0.1,0l0.1,0l0.1,0l0.1-0.1l0.1-0.3l0.1-0.3h5.1l-0.2,3
	c-0.1,0.6-0.1,0.7-0.3,1.3l-0.1,0.2l-0.3,0.3l-0.3,0.1L14,16l-1.9-0.3l-0.3,0.1l0.2,0.3l1.7,0.6v0.7l0.4-0.1l0.7-0.3l0.5-0.3
	l0.6-0.7l0.2-0.6l0.6-3.8l0-0.1l0.7-0.6L17,10.4L16.5,10l-0.2-0.1l-0.2,0l-0.1,0l-0.1,0.1l-0.2,0.2l-0.2,0.4h-4.9V9h6.9l-0.1-0.3
	l-0.5-0.8l-0.2-0.2l-0.3,0l-0.2,0L16,7.9l-0.5,0.7h-4.9V7.1l3.9-0.2l0.1,0l0,0l0.2,0.5l0.1,0.1l0.1,0.1l0.2,0l0.2-0.1l0.1-0.1
	l0.1-0.1l0-0.1l0-3.5l0.1-0.1l0.7-0.4l-0.4-0.7L15,1.9l-0.6,0.8l-2.3-0.1l0.6-0.8l0.1-0.1l0.1,0h0.5l-0.1-0.4l-0.1-0.1L13.1,1
	l-0.5-0.2l-0.5-0.1H12z M2.4,0.6L0.6,7.4l0.1,0l0.1-0.2l0.4-0.4l1.2-2l0.1-0.2h1.3l0.1,2.9L3.8,8.1l0,0.1l-0.1,0L3.5,8.3l-3-0.1v0.5
	h3.3l0,0.2L3.5,11l-0.8,2.5l-2.2,2.9l0.1,0.1l0.3-0.1c1-0.5,1.8-1.2,2.5-2.2L4,13l0.4-1.5l0.2,0.1l2.2,2.6l0.4,0.2l0.2,0l0.2,0
	l0.3-0.1L8,14v-0.2l0-0.1l-0.3-0.6l-0.3-0.4l-2.7-1.6l-0.2,0l0.3-2.4l0.1-0.1l0.3-0.1l3.3,0.1L8.2,8L8,7.8L7.5,7.4L7.2,7.3L6.4,8
	L6.2,8.1L6,8.2L4.8,8.1l-0.1-3l0.1-0.3l0-0.1l0.1-0.1l0.2-0.1l2.7,0.1l0.1-0.2l-0.8-1L6.8,3.4l-0.2,0l-0.1,0L5.4,4.2L5.1,4.3
	L2.6,4.2l0.8-2.6l0.1-0.1l0.4-0.1V1L2.4,0.6z"/>
</svg>
