<?xml version="1.0" encoding="utf-8"?>
<!-- Generator: Adobe Illustrator 22.0.1, SVG Export Plug-In . SVG Version: 6.00 Build 0)  -->
<svg version="1.1" id="レイヤー_1" xmlns="http://www.w3.org/2000/svg" xmlns:xlink="http://www.w3.org/1999/xlink" x="0px"
	 y="0px" viewBox="0 0 18 18" style="enable-background:new 0 0 18 18;" xml:space="preserve">
<path d="M5.1,14.4c0.3,0.8,0.4,1.1,0.5,1.6c0.1,0.6,0.1,0.7,0.2,0.9C5.9,16.9,6.1,17,6.3,17c0.3,0,0.6-0.3,0.6-0.6
	c0-0.3-0.3-0.9-0.6-1.3c-0.3-0.3-0.4-0.5-1-0.8L5.1,14.4z M2.2,14.4c-0.2,0.8-0.5,1.3-0.8,1.5c-0.8,0.5-0.8,0.5-0.8,0.8
	s0.2,0.5,0.5,0.5c0.3,0,0.7-0.4,1-0.8c0.3-0.6,0.4-1,0.4-1.8v-0.1H2.2z M8.5,14.3c0.4,0.4,0.5,0.6,0.8,1.4c0.2,0.5,0.4,0.8,0.6,0.8
	c0.3,0,0.5-0.3,0.5-0.5c0-0.5-0.4-1.2-0.8-1.5c-0.3-0.2-0.4-0.2-1-0.4L8.5,14.3z M11.6,14.2c0.5,0.5,0.8,0.8,0.9,1.2
	c0.2,0.4,0.4,0.6,0.6,0.6c0.3,0,0.5-0.3,0.5-0.6c0-0.3-0.4-0.8-1-1c-0.3-0.1-0.4-0.2-1-0.3L11.6,14.2z M3.7,12.3h4.7v1H3.7V12.3z
	 M3.7,10.9h4.7v1H3.7V10.9z M3.7,9.5h4.7v1H3.7V9.5z M13.6,9H3.8C3.3,8.6,3.2,8.6,2.7,8.3v5.2c0,0.5,0,0.5,0,0.5
	c0.1,0.1,0.2,0.1,0.3,0.1c0.2,0,0.3,0,0.7-0.2v-0.2h12c-0.1,1.8-0.6,2.5-1.7,2.5c-0.2,0-0.3,0-1.2-0.1l-0.3,0l0,0.2
	c0.8,0.1,1.3,0.3,1.4,0.6c0.1,0.4,0.1,0.4,0.3,0.4c0.4,0,1-0.3,1.4-0.7c0.6-0.6,0.8-1.1,1-2.6c0.4-0.2,0.6-0.4,0.6-0.5
	c0-0.3-0.8-1-1.1-1c-0.2,0-0.3,0.1-0.8,0.6h-6v-1h5.4c0.2,0,0.3-0.1,0.3-0.2c0-0.2-0.2-0.4-0.6-0.8c-0.1-0.1-0.2-0.2-0.3-0.3
	l-0.8,0.8H9.4v-1h5.3c0.2,0,0.4-0.1,0.4-0.2s-0.2-0.4-0.6-0.7l-0.2-0.2l-0.1-0.1l-0.7,0.7H9.4v-1h5.8c0.2,0,0.4-0.1,0.4-0.2
	c0-0.2-0.2-0.4-1.1-1.2L13.6,9z M11.3,3.1H9.2v0.5h2.1c-0.1,0.7-0.1,0.8-0.2,1.5C10.9,5,10.8,5,10.8,5c-0.2-0.1-0.3-0.1-0.5-0.2
	C10.1,4.8,10,4.7,9.6,4.6l0,0.2L10,5.1c0.5,0.4,0.6,0.4,0.9,0.8C10.5,6.6,10.1,7.2,9,8.4L8.7,8.7l0.2,0.2c1.5-1,2.1-1.6,2.7-2.4
	c0.2,0.2,0.3,0.2,0.3,0.3c0.5,0.6,0.5,0.6,0.8,0.6c0.3,0,0.5-0.2,0.5-0.4c0-0.4-0.5-1-1.3-1.6c0.2-0.8,0.2-0.9,0.4-1.8h2
	c0,1.8,0.2,3,0.5,3.9c0.3,0.9,1.3,1.7,2,1.7c0.3,0,0.6-0.2,0.6-0.5l0-0.1C17.1,8,17.1,8,17.1,7.8c0-0.1,0-0.3,0.1-0.4
	c0.2-0.7,0.2-1,0.3-1.6l-0.2-0.1C17.1,6,17.1,6.1,17,6.3c-0.5,1.2-0.5,1.3-0.7,1.3c-0.2,0-0.5-0.4-0.6-0.8c-0.2-0.7-0.3-1.2-0.3-2.9
	c0.4-0.2,0.5-0.3,0.5-0.5c0-0.3-0.8-0.9-1.1-0.9c-0.1,0-0.2,0.1-0.7,0.6h-1.8l0-1.3c0.3-0.1,0.5-0.2,0.5-0.4c0-0.3-0.4-0.4-1.5-0.4
	V3.1z M6.4,3.9C6.1,4.7,6,4.9,5.8,5.4h-2l0.1-0.2c0-0.1-0.1-0.5-0.3-0.6C3.4,4.3,3.3,4.2,2.8,3.9H6.4z M4.5,1.8H1.2v0.5h3.3v1.1H0.6
	v0.5h1.6c0.4,0.4,0.5,0.8,0.8,1.5h-2v0.5h3.6V7H1v0.5h3.4v0.8c0,0.4,0,0.4,0.1,0.5c0.1,0.1,0.2,0.1,0.3,0.1c0.2,0,0.4-0.1,0.7-0.4
	v-1h3c0.2,0,0.3,0,0.3-0.2c0-0.2-0.2-0.4-1-1.1L7,7H5.5V5.9h3c0.2,0,0.4-0.1,0.4-0.2c0-0.2-0.3-0.5-1-1L7.1,5.4H6.4
	C6.7,5,6.7,4.9,7,4.6c0.3,0,0.4-0.1,0.4-0.2c0-0.1-0.1-0.2-0.5-0.4h1.9c0.3,0,0.3,0,0.3-0.2c0-0.2-0.3-0.5-1-1.1L7.4,3.4H5.5V2.3
	h2.7c0.2,0,0.3-0.1,0.3-0.2c0-0.2-0.3-0.5-1-1L6.8,1.8H5.5V1.5c0.2-0.1,0.3-0.2,0.3-0.3C5.8,1.1,5.6,1,5,1c-0.1,0-0.3,0-0.5-0.1V1.8
	z"/>
</svg>
