<?xml version="1.0" encoding="utf-8"?>
<!-- Generator: Adobe Illustrator 22.0.1, SVG Export Plug-In . SVG Version: 6.00 Build 0)  -->
<svg version="1.1" id="レイヤー_1" xmlns="http://www.w3.org/2000/svg" xmlns:xlink="http://www.w3.org/1999/xlink" x="0px"
	 y="0px" viewBox="0 0 18 18" style="enable-background:new 0 0 18 18;" xml:space="preserve">
<path d="M4.6,10.3l0.3,0.4l0.8,2.1l0.3,0.5l0.3,0.3l0.3,0l0.1,0l0.1-0.1l0.1-0.2l0.1-0.2l0-0.2l0-0.3l-0.3-0.6l-0.6-0.9l-0.3-0.3
	L4.6,10.3L4.6,10.3z M1.4,10.4l-0.7,4.6L0.7,15L1,14.8l1.1-3.4l0.3-0.1l0.1-0.1L2.8,11l-0.2-0.3l-0.1-0.1l-0.1-0.1L1.4,10.4z
	 M13.7,4.9h2.1v8.8h-2.1V4.9z M12.6,3.5v12.7l0.1,0.1l0.2,0l0.2,0l0.2-0.1l0.1-0.1l0.1-0.1l0.1-0.2l0.2-1.6l0-0.1l0.2-0.1l1.8,0.1
	l0,0.5l0.1,0.1l0.1,0.1l0.1,0l0.1,0l0.1,0l0.2-0.1l0.1-0.1l0.1-0.2l0.1-0.2l0-9.1L17.4,5l-0.6-0.9L16.7,4l-0.2-0.1l-0.1,0l-0.1,0
	l-1.1,0.7l-0.4,0.1l-0.5-0.1l-0.4-0.2L12.6,3.5z M5.1,3.6L3.4,6.7L2.3,8.2l-0.1,0L0.6,8.7L1.1,10l0.5-0.4l0.6-0.3l1.2-0.1v7.7
	L3.5,17l0.3,0.1l0.2,0L4.1,17l0.1-0.1l0.1-0.3l0-7.7l1.1-0.2h0l0.1,0.1l0.1,0.1l0,0.1l0.1,0.6l0.1,0.1l0.4,0.2l0.2,0.1l0.2,0
	l0.1-0.1l0.1-0.1l0.1-0.2l-0.1-1L6.5,7.9L6.1,7.5L5.7,7.2L5.4,7L5,6.9l0.5,1.2L2.9,8.4l3.2-3.7l0.6-0.4L6.5,4L5.1,3.6z M9,5.3l1.5,0
	l-0.7,5.5l-0.1,0.3l-0.1,0.1l-0.1,0.1l-0.1,0.1H9.3l-0.2,0l-0.6-0.2l-0.6-0.4L9,5.3z M8.8,0.8l-0.7,4H6.8L6.8,5.1l0.1,0.2l0.1,0.1
	l1.1,0l-1.2,6.1v0.3L7,11.9l0.1,0l0.1,0l0.1,0l0.1-0.1l0.2-0.1l0.2-0.5l1,0.6l0.1,0.1l0.3,0.4l-0.9,1.9l-1.9,2.3l-0.1,0.1l-0.1,0.3
	l0,0.3l2.5-2.3L9.8,13l1.1,1l0.2,0.1l0.3,0l0.2-0.2l0.1-0.1l0-0.2l0-0.2l-0.1-0.2l-1.2-1.5L11,10l0.7-4.3l0.2-0.1l0.1-0.1l0.2-0.3
	l-0.5-0.7L10.9,4l-0.4,0.6l-0.2,0.1l-0.2,0.1l-0.3,0L9.1,4.7L9.7,2l0.8-0.3l0-0.2l-0.1-0.1l-0.1-0.1L8.8,0.8z M3.9,0.8L2.3,4.6
	L0.9,4L0.9,4.1l0.3,0.3l1.4,2.2l0.2,0.1l0.1,0.1l0.2,0l0.3-0.1l0.2-0.2l0-0.2L3.4,5.9l-0.7-1l1.9-2.7L4.8,2l0.6-0.2L5.3,1.4L5.2,1.3
	L5.1,1.2L4.2,0.9L3.9,0.8z"/>
</svg>
