<?xml version="1.0" encoding="utf-8"?>
<!-- Generator: Adobe Illustrator 22.0.1, SVG Export Plug-In . SVG Version: 6.00 Build 0)  -->
<svg version="1.1" id="レイヤー_1" xmlns="http://www.w3.org/2000/svg" xmlns:xlink="http://www.w3.org/1999/xlink" x="0px"
	 y="0px" viewBox="0 0 18 18" style="enable-background:new 0 0 18 18;" xml:space="preserve">
<path d="M0.5,10.5l0.8,1.6l0.4,1.6l0.1,0.1L2,13.9l0.2,0l0.2,0l0.1-0.1l0.2-0.2l0.1-0.2L2.7,13l-0.1-0.1l-1.3-1.9l-0.4-0.3L0.5,10.5
	z M10.7,12.6h2.7l-0.1,0.2l-0.7,1.3l-0.5,0.4l-0.4,0.1l-0.4,0l-1.8-0.3L10.7,12.6z M11,10.3l-1.1,1.4L9.6,12l-0.4,0.2l-0.8,0.1
	L6.6,12l0.1,0.4l0.1,0.1l0.1,0.1l0.3,0.1l2.3-0.1l-1.5,2.3l0,0.1L8,15.2l0.1,0.1l0.1,0L9.6,15h0.7l0.9,0.2l0.1,0.2l-2.1,0.9
	l-2.7,0.6l0.2,0.4l2-0.2l3.6-1.2l0.3,0l0.5,0.1l2.7,1.4l0.2,0l0.1,0l0.2-0.1l0.1-0.1l0.1-0.2l0-0.1l-0.1-0.3l-0.1-0.2l-1.5-0.8
	L13,15l1-1.4l0.4-0.3l0,0l0.4-0.1l0-0.3l0-0.1l-0.2-0.1l-0.2,0l-0.3,0v-0.1l3.5-0.1l-0.1-0.2L17,11.6l-0.3-0.3l-0.1-0.1l-0.2,0
	l-0.1,0l-0.1,0l-0.2,0.1l-0.5,0.7H11l0-0.1l0.2-0.3l0.2-0.2l0.2-0.1l0.1-0.1l0.7,0l-0.1-0.5l-0.1-0.1l-0.1-0.1l-0.6-0.3L11,10.3z
	 M5.5,10.1l-1,3.7l0.3-0.1l1.6-2.6l0.1,0l0.1,0l0.4,0l-0.1-0.4l-0.1-0.1l-0.1-0.1l-0.4-0.2L5.5,10.1z M15,7.9l1.9,2.2l0.2,0h0.1
	l0.1-0.1l0.1-0.1l0.1-0.1l0-0.1V9.7l-0.3-0.5l-0.9-1l-0.4-0.2l-0.4-0.1h-0.2L15,7.9z M14.5,8.7l0-0.3L14.2,8l-0.4-0.2l-0.2,0l-0.1,0
	l-2.2,2.2l0.1,0.1l2.6-1.4L14.5,8.7z M9.9,7.8l0.7,1.3l0.1,0.1l0.2,0.1l0.1,0h0.1l0.1,0l0.1-0.1l0.1-0.1l0.1-0.1l0-0.1l0-0.1
	l-0.1-0.2l-0.1-0.2l-0.1-0.1L11,8.2L9.9,7.8L9.9,7.8z M8.5,7.8L6.6,10l0,0.1L7,10l1.9-1.1l0.7-0.2l0-0.3L9.3,8.1L9,7.9L8.7,7.8H8.5z
	 M3.2,0.8L2.5,2.9l-2,4L0.5,7l1-0.7l0.1,0l0.1,0l1.5,0.1l0,1.9L3.1,9l0,0.1L3,9.1L2.9,9.2L0.6,9.1v0.5h2.5v5l-2.5,0.3v0.3l0.2,1
	l0.1,0.2l0.2,0.2l0.1,0.1l0.1,0l0.2-0.1l0.1-0.1l0.1-0.1l0-0.1l0-0.1l5-1.4l0.3-0.5l-2.9,0.4V9.5h2.7L6.6,9L6.4,8.8L6.2,8.6L5.6,8.3
	L5.2,8.8L5,9L4.8,9H4.1V6.3h2.3L6.1,5.7L5.7,5.2L5.6,5.1l-0.1,0l-0.1,0L5.3,5.2L4.4,5.9L4.1,5.9L1.8,5.8l2.1-3.5l0.8,0.5l1.5,1.8
	l0.1,0l0.1,0l0.1,0l0.1-0.1l0.1-0.1L7,4.3V4.1L7,4L6.9,3.8L6.4,3.2l-2-1.3l0.3,0l0.1,0l0.1-0.1l0-0.1L4.8,1.4L4.7,1.2L3.5,0.8H3.2z
	 M13.5,5.4h2.1l0,1.3h-2.1V5.4z M13.5,3.6h2.1l0,1.3h-2.1V3.6z M13.5,1.8h2.1l0,1.3h-2.1V1.8z M12.6,0.4v7.1l0.3,0.2l0.2,0.1h0.1
	l0.1-0.1l0.2-0.6l0,0l0.1,0l1,0.1l0.8-0.1l0.2,0l0,0l0.3,0.4l0.1,0.1L16,7.6l0.1,0l0.1,0l0.1-0.1l0.1-0.1l0.1-0.1l0.1-0.3L16.4,2
	l0.6-0.3L16.7,1l-0.3-0.3l-0.2,0l-0.1,0l-0.9,0.6l-0.4,0.1l-0.2,0l-0.5-0.1l-0.4-0.2L12.6,0.4z M8.5,5.4h2l0,1.3H8.5V5.4z M8.5,3.6
	h2l0,1.3H8.5V3.6z M8.5,1.8h2v1.3h-2V1.8z M7.7,0.5v7.1l0.3,0.2l0.2,0.1h0.1l0.1-0.1l0.2-0.6l0.1,0l1,0.1l0.7-0.1l0.2,0l0.3,0.4
	l0.1,0.1l0.1,0.1l0.1,0l0.1,0l0.1-0.1l0.1-0.1l0.1-0.1l0.1-0.3L11.4,2l0.8-0.4l-1.1-1l-0.9,0.8l-0.1,0l-1-0.1L8.8,1.2L8,0.6L7.7,0.5
	z"/>
</svg>
