<?xml version="1.0" encoding="utf-8"?>
<!-- Generator: Adobe Illustrator 22.0.1, SVG Export Plug-In . SVG Version: 6.00 Build 0)  -->
<svg version="1.1" id="レイヤー_1" xmlns="http://www.w3.org/2000/svg" xmlns:xlink="http://www.w3.org/1999/xlink" x="0px"
	 y="0px" viewBox="0 0 18 18" style="enable-background:new 0 0 18 18;" xml:space="preserve">
<path d="M4.4,11.7h9.1l0,1.7l-9.1,0V11.7z M4.4,9.5h9.1l0,1.7l-9.1,0V9.5z M3.4,8.3l0,8.8l0.1,0.2l0.2,0.1h0.2l0.4-0.1l0.1-0.3
	l0-3.1l9.1,0l0,1.9l-0.1,0l-0.3,0.1l-2.7-0.1v0.1l1.4,0.4l0.4,0.2l0.2,0.3l0.1,0.3l0.1,0.2l0.4,0l0.5-0.1l0.9-0.5l0.1-0.3v-6.4
	l0.3-0.2l0.3-0.4l0-0.4l-0.3-0.3l-0.4-0.3L14,8.4h-0.3l-0.3,0.3L13.3,9H5.2L4.6,8.7L3.4,8.3z M8.4,0.6V3H4.1l0.6-0.7l0.6-0.1
	L5.2,1.7L3.7,1L3.4,1.9L0.7,6.4l0.1,0.1L2,5.6l1.8-2.1l4.6,0v1.7H3.1v0.5h5.4v1.7H0.5v0.5h16.7l0.2-0.1l0-0.2l-0.5-0.6l-1-0.7
	l-1.1,1.1H9.4l0-1.7l5.8,0l0.2-0.1V5.3L15.3,5l-0.4-0.4l-0.5-0.3L14,4.2l-0.9,0.9H9.4l0-1.7l6.7,0l0.2-0.1l0-0.2L16,2.7l-0.8-0.6
	l-0.5-0.2L13.7,3H9.4l0-1.1l0.6-0.4l0.1-0.3l-0.1-0.2L8.4,0.6z"/>
</svg>
