<?xml version="1.0" encoding="utf-8"?>
<!-- Generator: Adobe Illustrator 22.0.1, SVG Export Plug-In . SVG Version: 6.00 Build 0)  -->
<svg version="1.1" id="レイヤー_1" xmlns="http://www.w3.org/2000/svg" xmlns:xlink="http://www.w3.org/1999/xlink" x="0px"
	 y="0px" viewBox="0 0 18 18" style="enable-background:new 0 0 18 18;" xml:space="preserve">
<path d="M11,8.4v2.3h-4l0,0.3l0.1,0.2l0.1,0.1l0.1,0l3.2-0.1l-2.7,3.1L6,15.6l-0.1,0.2l0,0.1l0,0.1l-0.2,0.2l0.1,0.1l4-2.7l1.3-1.4
	l-0.1,4.6l0.1,0.4l0.1,0.1l0.3,0.1l0.3,0l0.3-0.1v-5.6L13,13l1.1,1.3l1.1,1l1.5,0.8l0.3-0.8h0.3v-0.4l-2.6-1.2l-1.6-1.3l-0.8-1.1
	h4.1l-0.2-0.3l-0.6-0.7l-0.4-0.3l-0.8,0.8l-0.3,0.1h-2.2V9.3L12.7,9V8.6L11,8.4z M7.9,7L7.6,7.2L7.5,8.1L6.8,9.4L6.7,9.8L7,10l0.1,0
	l0.3,0l0.2-0.1l0.2-0.2L8,9.4l0.1-0.3l0.1-0.4l0-0.6h7.4l-0.5,1.4l0.1,0.1l1.3-1l0.9-0.1l-0.6-0.9l-0.3-0.2l-0.3-0.1l-0.1-0.1
	l-0.3,0.2l-0.3,0.3H8.2L7.9,7z M13,2L13,2.3l-0.8,1.6L12.3,4l0.1,0.1l0.1,0.1l0.1,0h0.1l0.2,0L13,4.1l0.2-0.2l0.1-0.2l0.1-0.3l0-0.3
	l0-0.2L13,2L13,2z M16.2,1.8l-1.3,1.7l0,0.1l0.4-0.1l1.1-0.8l0.1,0L17,2.6V2.2L16.2,1.8z M12.4,2.5l0-0.3l0-0.1L12.2,2L12,1.9
	l-0.5-0.1l-0.1,0.3l-1.1,1.4l0.1,0.1l0.4-0.1L12,2.6L12.4,2.5z M8.6,1.8L8.4,2.1L8,3.2L7.6,3.7l0,0.1V4l0,0.1l0.1,0.2l0.1,0.1l0.1,0
	l0.1,0l0.1-0.1l0.4-0.4l0.1-0.3l0-0.3L8.6,1.8L8.6,1.8z M13.8,0.7l0,2.8l-0.4,1.4l-1.5,2L12,7l1.2-0.8l0.7-0.6l0.4-0.5l0.4-1.1
	l2,2.6L17,6.3l0.1-0.2V5.9l0-0.1l-0.4-0.6l-0.8-0.7l-1.1-0.6l0.1-2.4L15.1,1L13.8,0.7z M9.5,0.7l0,2.6l-0.3,1L8.5,5.6L8.1,6L7.7,6.3
	L7.4,6.4l0,0.1l0.3,0l0.5-0.2L8.8,6l0.3-0.3l1-1.5l0.8,0.8l0.8,1.2l0.1,0.1L12,6.2l0.1,0l0.1-0.1l0.1-0.1L12.4,6l0.1-0.2l0-0.2
	l-0.1-0.2L12,4.9l-1.7-1.1l0.2-2.5l0.2,0L10.7,1L9.5,0.7z M4.3,8.4h1.2v2.2H4.3V8.4z M2,8.4l1.2,0v2.2l-1.2,0V8.4z M4.3,5.9l1.2,0v2
	H4.3V5.9z M2,5.9l1.2,0v2L2,7.9V5.9z M3.3,0.7v2.2H0.6l0,0.3l0,0.2l0,0.1l0.1,0.1l0.1,0l2.4-0.1v2h-1L1.4,4.9L1,4.8v6.9l0.3,0.1
	l0.2,0l0.1,0l0.1,0L2,11.5v-0.5h1.2l0,1.9l-0.1,0.3l0,0.1l-0.1,0L3,13.4l-2.5-0.1v0.5L3,13.7l0.2,0.1l0.1,0.1l0.1,0.3l-0.1,3
	l0.2,0.1l0.1,0l0.2,0l0.5-0.2v-3.4h3.2l-0.2-0.6l-0.4-0.5l-0.3-0.1l-0.2-0.1l-0.2,0l-0.2,0.1l-0.9,0.8l-0.1,0l-0.1,0H4.8l-0.5-0.1
	v-2.2h1.2l0,0.2l0,0.2l0.1,0.1l0.1,0.1l0.1,0l0.3,0l0.5-0.2L6.4,6.8l0.1-0.4l0.1-0.1l0.1,0l0.2,0l0.4,0.1L6.8,5.5L6,4.9L5.4,5.3
	l-0.1,0L5,5.4L4.3,5.4l0-1.6l0.1-0.3l0-0.1l0.1-0.1l0.2-0.1l2.8,0.1L7.1,2.8L6.7,2.4L6,1.9L5.4,2.7L5.2,2.8L5.1,2.9l-0.3,0L4.3,2.9
	V1.6l0.6-0.3V0.9L3.3,0.7z"/>
</svg>
