<?xml version="1.0" encoding="utf-8"?>
<!-- Generator: Adobe Illustrator 22.0.1, SVG Export Plug-In . SVG Version: 6.00 Build 0)  -->
<svg version="1.1" id="レイヤー_1" xmlns="http://www.w3.org/2000/svg" xmlns:xlink="http://www.w3.org/1999/xlink" x="0px"
	 y="0px" viewBox="0 0 18 18" style="enable-background:new 0 0 18 18;" xml:space="preserve">
<polygon points="0.2,9.7 0.5,9.7 0.6,9.7 0.7,9.6 1,9.5 1.8,9 2.5,8.5 2.7,8.3 2.8,8.3 3.1,8.4 5.9,9.6 6,9.6 6.2,9.7 6.3,9.7 
	6.4,9.6 7.1,9.3 7.8,8.7 8,8.5 8.3,8.3 8.4,8.2 9,8.4 11.6,9.6 11.8,9.6 12,9.7 12.1,9.7 12.3,9.6 14,8.6 14.1,8.5 14.5,8.4 
	14.7,8.4 15,8.4 15.2,8.5 15.5,8.6 15.8,8.7 17.1,9.7 17.6,9.7 17.6,9.1 17.1,9.1 16.8,8.8 16.3,8.4 15.7,8.1 15.2,7.9 14.7,7.8 
	14.5,7.9 14.3,7.9 14.1,8 13,8.7 12.7,8.9 12.4,9 12.1,9.1 11.8,9.1 11.7,9.1 11.5,9.1 11.5,9 9.5,8 9.3,7.9 8.9,7.8 8.3,7.8 
	6.4,9.1 5.7,9 3.4,7.9 3.1,7.8 2.4,8 0.7,9.1 0.2,9.2 "/>
</svg>
