<?xml version="1.0" encoding="utf-8"?>
<!-- Generator: Adobe Illustrator 22.0.1, SVG Export Plug-In . SVG Version: 6.00 Build 0)  -->
<svg version="1.1" id="レイヤー_1" xmlns="http://www.w3.org/2000/svg" xmlns:xlink="http://www.w3.org/1999/xlink" x="0px"
	 y="0px" viewBox="0 0 18 18" style="enable-background:new 0 0 18 18;" xml:space="preserve">
<path d="M12.6,13.3h2.2l0,1.2l-2.3,0.3L12.6,13.3z M6.7,13.3h2.1v1.2l-2.1,0.3V13.3z M12.6,11.5h2.2l0,1.3h-2.2L12.6,11.5z
	 M6.7,11.5h2.1l0,1.3H6.7V11.5z M12.5,9.7h2.3l0,1.3h-2.2V9.7z M6.7,9.7h2.1l0,1.3H6.7V9.7z M9.7,8.3L9.1,9.1L8.9,9.2L8.4,9.3
	L4.5,9.2v0.5l1.3,0v5L4.5,15l0.3,0.7l0,0.1l-0.1,0.6l0.5-0.2l0.5-0.4l3.1-1l-0.1,1.8l0.1,0.3l0.1,0.1L9,17.2l0.1,0.1l0.2,0l0.1,0
	l0.1,0l0.2-0.1V9.7h2v5L10.2,15v0.4l4.6-0.2v1.5l0.1,0.4l0.1,0.1l0.2,0.1h0.1l0.1,0l0.1-0.1l0.1-0.1l0.1-0.1l0.1-0.1l0-1.9l1.8-0.1
	l-0.2-0.6l-0.2-0.3l-0.5-0.4l-0.8,0.9l-0.1,0l-0.1-4.4l0.1-0.3l0-0.1l0.1,0l0.2-0.1l1.5,0l-0.1-0.3l-0.1-0.2l-0.7-0.8l-0.3,0
	l-0.7,0.9l-2.2-0.1l-2.2,0.2l-0.1,0l-1-0.9L9.7,8.3z M2.7,0.8l0.1,4.5L2.7,5.7l0,0.1l-0.1,0L2.4,5.9l-1.8,0v0.5h2.1v6.1l-2.2,0.2
	l0.6,1.7h0.5l0.1-0.2l0.1-0.3L2,13.7l0.1-0.1l2.9-1.2h0.4L5.6,12L5.2,12l-1.4,0.2l-0.1,0.1V6.3h2.5L5.9,5.6L5.6,5.3L5,4.9L4.3,5.7
	L4,5.9l-0.3,0L3.7,2.2l0-0.2l0-0.1l0.1-0.1l0.7-0.4V1L2.7,0.8z M8.5,5.6h4.7v1.2L8.5,7V5.6z M8.5,3.8h4.7v1.3H8.5V3.8z M8.5,2h4.7
	v1.3H8.5V2z M15.8,0.4l-0.9,1.1H5.1V2h2.4l0.1,4.3L7.5,7l0,0l-0.1,0L7.2,7.2L4.8,7.1v0.5l3.4,0l5-0.4v1.6l0.1,0.3l0.9-0.3l0-1.3
	l0-0.2l0-0.1l0.1-0.1L14.8,7l2.7,0V6.7L16.9,6l-0.3-0.2l-0.5-0.1l-0.7,0.9l-0.2,0.2L15,6.7h-0.8l-0.1-3.9l0.1-0.7L14.3,2l0.2-0.1
	L17.3,2l-0.2-0.3l-0.8-1.1L16,0.5L15.8,0.4z"/>
</svg>
