<?xml version="1.0" encoding="utf-8"?>
<!-- Generator: Adobe Illustrator 22.0.1, SVG Export Plug-In . SVG Version: 6.00 Build 0)  -->
<svg version="1.1" id="レイヤー_1" xmlns="http://www.w3.org/2000/svg" xmlns:xlink="http://www.w3.org/1999/xlink" x="0px"
	 y="0px" viewBox="0 0 18 18" style="enable-background:new 0 0 18 18;" xml:space="preserve">
<path d="M9.8,3.2l1,0.6l-0.3,0.4L9.3,5.8L7.8,7.5L6.1,9.3L5.6,9.7l-1.2,0.9l-0.3,0.2l0,0l-0.2,0.3l0.3,0.1l0.1,0l0.1,0l0.3-0.2
	l0.4-0.3l2.1-1.7l1.6-1.4l0.5-0.5h0.1l-0.1,6.9l0.4,0.5h0.4l0.2-0.2V7.4L9.7,6.7L11.2,5l0.3-0.4l0.1-0.1l0.1-0.1l0.1,0l0.1,0l0.3,0
	V3.8L12,3.5l-0.3-0.2l-0.4-0.2L10.9,3l-0.4,0l-0.3,0l-0.1,0L9.8,3.2z M14.7,1.4l0.1,0.4L16,5.1l0.1,0.3l0.1,1.1l0.1,1.3l0,1
	c0,1.8-0.2,3-0.9,5.1l-0.1,0.3L15.1,15L15,15.2l-0.3,0.3l0,0.1l0,0.1v0.2l0.1,0.2H15l0.3-0.5l0.9-1.7l0.6-1.7l0.3-1.7l0.1-1.7
	l-0.1-1.7l-0.3-1.7l-0.6-1.7L15.5,2l-0.1-0.2l-0.2-0.4H14.7z M2.8,1.4L2.7,1.6L1.9,2.9L1.3,4.7L0.9,6.7L0.8,8.9l0,0.7l0,0.7L1,11.5
	l0.3,1.1l0.6,1.6l0.8,1.4L2.9,16h0.4l-0.1-0.3v0L2.5,14c-0.4-1-0.7-2.2-0.8-3.7L1.6,9.2V8.2l0.1-1.7l0.1-0.6L3,1.8l0,0l0.1-0.4H2.8z
	"/>
</svg>
