<?xml version="1.0" encoding="utf-8"?>
<!-- Generator: Adobe Illustrator 22.0.1, SVG Export Plug-In . SVG Version: 6.00 Build 0)  -->
<svg version="1.1" id="レイヤー_1" xmlns="http://www.w3.org/2000/svg" xmlns:xlink="http://www.w3.org/1999/xlink" x="0px"
	 y="0px" viewBox="0 0 18 18" style="enable-background:new 0 0 18 18;" xml:space="preserve">
<path d="M12.3,13h2.9v3.1h-2.9V13z M8.2,13h3v3.1h-3V13z M12.3,9.6h2.9v2.9h-2.9V9.6z M8.2,9.6h3v2.9h-3V9.6z M7.2,8.4v8.7l0.2,0.1
	l0.1,0.1l0.3,0l0.4-0.2v-0.5h6.9l0,0.2l0,0.1l0.1,0.1l0.1,0.1l0.3,0l0.5-0.2v-6.6L17,9.8l-1.1-1.3l-0.1-0.1l-0.1,0l-0.1,0l-0.2,0.1
	L15,9.1H8.5l-0.1,0L7.6,8.5L7.5,8.4l-0.1,0H7.2z M1.8,3.3h2.7v8.1H1.8V3.3z M4.9,2.1L4.4,2.7L3.5,2.9L2,2.8L1.2,2.3L0.8,2.2v12.1
	l0.1,0.1l0.2,0.1l0.2,0l0.2-0.1l0.3-0.2l0-2.3h2.7l-0.1,0.4l0,0.2l0,0.2l0.2,0.2l0.1,0l0.1,0l0.2,0l0.5-0.3V4l0.8-0.5L5.5,2.3
	L5.2,2.1L4.9,2.1z M16,1.2l-0.4,0.6l-0.1,0.1L15,2l-3.9-0.1v0.5l1.5,0L12.5,4l-0.4,1.1l-0.6,1.2L9.2,8.4l0.4,0.1L10,8.4L10.6,8
	l2-1.9l0.7-1.6l0.3-1.9l0.2-0.2l0.2,0l1.6,0l-0.1,1.4l-0.6,2.6v0.1l-0.1,0.3l-2.4,0.1V7l1.5,0.7L14,7.7L14,7.8l0,0.1l0,0.3l0.6-0.1
	L15,7.9l0.4-0.3l0.3-0.4L16,6.7L16.2,6l0.2-2.4l0.1-0.4l0.1-0.1L16.7,3l0.6-0.3l-0.9-1.3l-0.2-0.2L16,1.2z M11.4,1.6l0-0.2l-0.1-0.2
	l-0.1-0.1L11.1,1l-0.5-0.3h-0.1h-0.1l-0.1,0L9.4,1.3L8,1.9L6.9,1.2L6.6,1.2l0.1,5.1l0,0l-0.1,0l-0.7,0l0.7,1.6H7l0.2-0.6L10,5.7
	l0.3,1l0.4,0.1l0.2-0.1L11,6.6l0-0.2l0-0.4l-0.1-0.4l-0.2-0.4l-0.3-0.4L10,4.5L9.6,4.3L9,4.2l0.8,1.2L9.6,5.5L9,5.7L7.6,5.9V2.3
	L11.4,1.6z"/>
</svg>
