<?xml version="1.0" encoding="utf-8"?>
<!-- Generator: Adobe Illustrator 22.0.1, SVG Export Plug-In . SVG Version: 6.00 Build 0)  -->
<svg version="1.1" id="レイヤー_1" xmlns="http://www.w3.org/2000/svg" xmlns:xlink="http://www.w3.org/1999/xlink" x="0px"
	 y="0px" viewBox="0 0 18 18" style="enable-background:new 0 0 18 18;" xml:space="preserve">
<path d="M9.5,11.7h5.1v1.5H9.5V11.7z M3.4,11.7h5.1v1.5H3.4V11.7z M8.5,9.4l0,1.8l-5,0l-0.1,0l-0.7-0.7l-0.1-0.1H2.3l0,3.2l0.1,0.4
	l0.1,0.1l0.1,0.1l0.1,0.1l0.1,0l0.2,0l0.1-0.1l0.2-0.2l0.1-0.3h5.1v1.6l-7.9,0.2v0.3L0.9,17L1,17.1l0.1,0L1.2,17l0.3-0.3l13.8-1.3
	l0.1,0.1l1.2,1.5l0.2,0.1l0.1,0l0.1,0l0.1-0.1l0.1-0.1l0.1-0.1l0.1-0.1l0-0.1l0-0.1l0-0.1l-0.3-0.5l-1-0.9c-0.7-0.5-1.4-0.8-2.2-0.7
	l-0.2,0v0.1l1,0.7l-5.1,0.3v-1.5h5l0.2,0.3l0.3,0.1l0.1,0l0.1,0l0.1-0.1l0.1-0.1l0.1-0.1l0.1-0.2l0-1.5l0.7-0.3l-0.6-0.9l-0.3-0.2
	l-0.2-0.1l-0.2,0l-0.2,0.1l-0.5,0.6H9.4l0.1-0.3l0.1-0.2l0.1-0.1l0.6-0.5l0.1-0.1l0-0.1l-0.1-0.1l-0.1-0.1L8.5,9.4z M2.8,8.2l3.5,0
	v1.1H2.8V8.2z M1.8,6.9L1.7,9.6l0.1,0.5l0.1,0.1L2,10.3l0.1,0h0.1l0.1-0.1l0.6-0.4l0.1,0l0.4-0.1l2.5,0l0.3,0.1l0.5,0.3l0.1,0
	L6.9,10L7,9.9l0.1-0.4l0.1-1.1L7.9,8L7.6,7.5L7.4,7.3L6.7,6.9L6.1,7.6l-2,0.1C3.6,7.7,3.5,7.6,3,7.5L1.8,6.9z M6.5,5.3L5.9,6.1H1.7
	v0.5h6L7.5,5.9L7.2,5.6L6.9,5.4L6.7,5.3L6.5,5.3z M10.2,5.1l1.3,2.1l0.3,0.3L12,7.6l0.2,0l0.1,0l0.1-0.1l0.1-0.1l0.1-0.2l0-0.3
	l-0.1-0.4l-0.6-0.9l-0.3-0.3L10.2,5.1L10.2,5.1z M6.5,3.7L5.9,4.4H1.7v0.5h6L7.5,4.3L7.2,4L6.9,3.8L6.7,3.7L6.5,3.7z M7.5,2.1L7,2.8
	H0.5v0.5h8.3L8.5,2.7L8.3,2.4L8,2.2L7.7,2.1L7.5,2.1z M14.3,0.5v3.1H9.2V4h5.1l0.1,4.6l-0.2,0.6L11.9,9v0.1l0.2,0.1l1.5,0.5l0,0.5
	H14l0.5-0.1l0.3-0.2l0.3-0.3l0.2-0.3l0-5.3h2.2l-0.3-0.8l-0.4-0.5l-0.1-0.1l-0.1,0l-0.1,0l-0.1,0l-0.3,0.2l-0.6,0.7l-0.1,0l-0.1-0.2
	l-0.1-0.8l0.1-0.6l0.1-0.1l0.8-0.7l-0.1-0.2l-0.1-0.1L16,0.7l-0.1-0.1L14.3,0.5z M6.1,0.5L5.5,1.2H2.2v0.5h5.1L7,1.1L6.5,0.6
	L6.2,0.5L6.1,0.5z"/>
</svg>
