<?xml version="1.0" encoding="utf-8"?>
<!-- Generator: Adobe Illustrator 22.0.1, SVG Export Plug-In . SVG Version: 6.00 Build 0)  -->
<svg version="1.1" id="レイヤー_1" xmlns="http://www.w3.org/2000/svg" xmlns:xlink="http://www.w3.org/1999/xlink" x="0px"
	 y="0px" viewBox="0 0 18 18" style="enable-background:new 0 0 18 18;" xml:space="preserve">
<path d="M8.3,10.4l0.6-1.9l0.3-0.8l0.4-1.1c0.2-0.4,0.6-1.1,0.8-1.3l0.2-0.2l0.2-0.2c0.2-0.2,0.5-0.3,0.6-0.3l0.1,0
	c0.1-0.1,0.2-0.1,0.4-0.1l0.2,0l0.2,0.1l0.1,0l0.3,0.2l0.1,0.1l0.1,0.1C13,5.2,13,5.3,13.1,5.6v0.1l0,0.1v0v0V6l0,0.1l0,0.1l0,0.1
	c-0.2,0.8-0.4,1.4-0.9,2l-0.4,0.5C11.6,9,11.6,9,11.4,9.1l-0.3,0.3L11,9.5l-0.2,0.1l-0.2,0.1l-0.2,0.1L10.1,10l-0.4,0.2
	c-0.3,0.1-0.5,0.2-0.7,0.2l-0.1,0l-0.1,0L8.3,10.4z M9.7,3.2L8.5,3.3c-1.8,0.2-3.3,1.3-4,2.9L4.4,6.4L4.3,6.7
	c-0.1,0.5-0.2,0.7-0.2,1l0,0.5l0,0.3l0,0.3L4.2,9l0.1,0.3c0,0.1,0.1,0.1,0.1,0.2l0.1,0.2l0.1,0.2l0.2,0.2l0.4,0.3
	c0.1,0.1,0.1,0.1,0.2,0.2l0.2,0.1l0.1,0.1l0.1,0L6,10.9l0.1,0L6.2,11l0.1,0L6.4,11l0.1,0l0.1,0l0.1,0.1L7,11.3l-0.2,0.7l-0.1,0.1
	l0,0.1l-0.5,1l-0.1,0.2l-0.1,0.2v0.1l0.1,0.1l0.1,0.1v0l0.1,0.1l0.1,0.1l0.1,0l0.1,0l0.1,0l0.1,0h0.2l0.3,0l0.1-0.1l0.1-0.1
	c0.1-0.1,0.2-0.1,0.2-0.2l0-0.1l0-0.1l0-0.1v-0.1l0-0.3l0.1-0.7l0.2-1.2l0.6,0l0.3,0c0.9-0.1,1.9-0.5,2.7-1.1l0.5-0.4
	c0.3-0.3,0.7-0.8,0.8-1l0.1-0.1l0.1-0.2c0.1-0.1,0.1-0.2,0.2-0.3l0.1-0.2c0-0.1,0.1-0.2,0.1-0.3c0,0,0.1-0.1,0.1-0.3l0.2-0.6L14,5.9
	V5.4V5.3l-0.1-0.3c0-0.2,0-0.2-0.1-0.3l-0.1-0.3l-0.1-0.1L13.5,4l-0.1-0.1l-0.1-0.1l-0.2-0.2l0-0.1l-0.1,0C13,3.5,13,3.5,12.9,3.4
	l-0.1-0.1l-0.1,0l-0.1,0l-0.1,0l-0.3-0.1l-0.2,0h-0.4c-0.3,0-0.3,0-0.6,0.1c-0.1,0-0.2,0-0.2,0.1l-0.1,0.1l-0.3,0.2
	c-0.4,0.2-1,0.9-1.2,1.3L9.2,5.1L9.1,5.3L8.9,5.7L8.7,6.2L8.3,7.6L7.7,9.3l-0.3,1.1c-0.1-0.1-0.2-0.1-0.3-0.1l-0.3-0.1l-0.3-0.1
	L6.4,10L6.3,9.9C5.9,9.6,5.7,9.1,5.6,8.5l0-0.2V8.1l0-0.4l0-0.2l0-0.2l0.1-0.2l0.1-0.2l0.1-0.2l0.1-0.2l0-0.1L6,6.3l0.1-0.3l0.1-0.3
	l0.4-0.5l0.2-0.2c0.2-0.3,0.5-0.5,0.7-0.6L8,4.2C8.3,4.1,8.5,4,8.8,3.9L9,3.8l0.2,0l0.6-0.1V3.2z"/>
</svg>
