<?xml version="1.0" encoding="utf-8"?>
<!-- Generator: Adobe Illustrator 22.0.1, SVG Export Plug-In . SVG Version: 6.00 Build 0)  -->
<svg version="1.1" id="レイヤー_1" xmlns="http://www.w3.org/2000/svg" xmlns:xlink="http://www.w3.org/1999/xlink" x="0px"
	 y="0px" viewBox="0 0 18 18" style="enable-background:new 0 0 18 18;" xml:space="preserve">
<path d="M8.4,10.8v1.6H0.5v0.5h7.3l-1.1,0.8l-4.9,2.7l-0.3,0.1H1.2l-0.1,0l-0.3,0.3l-0.3,0.1v0.1h0.3L4,16l4.4-2.2l-0.1,3l0.1,0.2
	l0.1,0.1l0.1,0.1l0.3,0.1l0.1,0l0.3-0.1l0.2-0.1l0-4.1l2.4,1.9l0.9,0.5l3.9,1.4l0.7-1.3l-2.1-0.3l-4-1.5c-0.6-0.3-0.7-0.4-1.2-0.8
	l-0.1-0.1h7.5l-0.6-1l-0.4-0.4l-0.1-0.1l-0.2,0l-0.1,0l-0.2,0.1l-0.8,0.9H9.4l0-0.5l0.8-0.4l0.1-0.4L8.4,10.8z M11.4,5l-0.1,4.6
	l0.1,0.2l0.1,0.1l0.2,0.1l0.3,0l0.5-0.2l0-3.8l0.7-0.4l0.1-0.4L11.4,5z M14.9,4.7v5.6l-0.2,0l-1.6-0.1l-0.3,0.1l0.3,0.3l1,0.4
	l0.6,0.5l0.2,0.1l0.1,0l0.2,0l0.1-0.1l0.5-0.5l0.2-0.3l0-5l0.7-0.4l0-0.1l0-0.3L14.9,4.7z M8.3,5.5L8.2,5.2L7.3,4.3L7.2,4.3L2.1,5.7
	v0.1l1.8,0l0.4-0.1l0.3,0v1.5H1v0.5h3.3l-2.5,2.8l-0.9,0.7l-0.3,0.1l0.1,0.4L4.6,9v2.7l0.1,0.1l0.1,0.1L5,12l0.2,0l0.2-0.1l0.2-0.1
	l0.1-0.1l0.1-0.3L5.6,8.6l3.1,2.1l0.2-0.5l0-0.4L8.8,9.5L8.6,9.2L8.4,9L7.6,8.6L5.7,8.3V7.8l0.1-0.2l0.1,0L6,7.5l3.5,0.2l0-0.5
	l-1.3-1L7.6,6.9L7.4,7.1L7.1,7.2l-1.4,0l0-1l0.1-0.4l0.1-0.1l0.1-0.1l0.3-0.1L8.3,5.5z M5.7,0.7v1.8H0.5V3h5.2v0.9l0,0.1l0.1,0.1
	l0.1,0.1L6,4.3l0.2,0l0.3-0.1L6.7,4l0-1h4.6l-0.1,1.1l0,0.2l0.1,0.1l0.1,0.1l0.1,0.1l0.3,0l0.5-0.2l0-1.4h5.3l-0.3-0.6l-0.6-0.7
	l-0.2-0.2L16,1.4l-0.8,1L15,2.5l-0.1,0h-2.7v-1l0.2,0l0.2,0l0.1-0.1l0.1-0.1l0-0.3l-1.6-0.3v1.8H6.7L6.7,1.9l0-0.1l0.8-0.5l0.1-0.4
	L5.7,0.7z"/>
</svg>
