<?xml version="1.0" encoding="utf-8"?>
<!-- Generator: Adobe Illustrator 22.0.1, SVG Export Plug-In . SVG Version: 6.00 Build 0)  -->
<svg version="1.1" id="レイヤー_1" xmlns="http://www.w3.org/2000/svg" xmlns:xlink="http://www.w3.org/1999/xlink" x="0px"
	 y="0px" viewBox="0 0 18 18" style="enable-background:new 0 0 18 18;" xml:space="preserve">
<path d="M0.8,2l0.9,1.9L2,5.5l0.4,0.2l0.2,0l0.1,0L3,5.6l0.1-0.2l0.1-0.2l0-0.6L3,4.1L2.6,3.4L1.5,2.2L1.2,2L1.1,2H0.8z M6.8,1.8
	l-0.5,2L5.3,5.7l0.1,0.1l0.6-0.3l1.8-2.1l0.1-0.1L8.4,3V2.6L8.1,2.3L6.8,1.8z M11.7,0.6l0,3.3L7.6,4.8v0.1l4.2-0.1v6.6H9.2L9.1,7.5
	l0-0.1l0.1-0.1L9.9,7l0.1-0.1l0-0.3L8.2,6.3v6.5l0.2,0.1l0.3,0l0.3,0l0.3-0.2l0-0.8h2.6v3.7l0.2,0.7l0.1,0.1l0.2,0.2l0.3,0.2
	l1.1,0.2l3.4-0.1l0.3-0.1l0.1-0.1l0-0.1l-0.4-3.2l-0.3-0.2l-0.9,2.7l-2.5,0.2l-0.1,0l-0.2-0.1l-0.1-0.1l-0.1-0.4l0.1-3.3h2.5l0,0.5
	l0,0.1l0.1,0.1l0.1,0.1l0.2,0l0.5-0.3l0-4.9l0.6-0.3L17.1,7l0.1-0.3l-1.8-0.3v5h-2.6V4.6L15,4.3l2.5-0.2l-0.1-0.4l-0.1-0.1l-0.2-0.2
	l-0.9-0.5l-3.5,0.8l-0.1-1.9l0,0l0-0.1l0.8-0.5l0.1-0.4L11.7,0.6z M3.7,0.6v6.3H0.6l0.1,0.3l0.1,0.1l0.1,0.1l0.1,0.1l0.1,0l2.7-0.1
	v0.2l-3.2,6.9l0.1,0.1l0.3-0.2l0.4-0.4l1.6-2.2l0.7-1.3l0-0.1V17l0.2,0.1l0.1,0L4.7,17V9.5L5,9.7l1.6,1.8l0.2,0.1l0.1,0l0.2,0l0.2,0
	l0.2-0.1l0.1-0.1l0.1-0.1l0.1-0.2l0-0.1l-0.1-0.5l-0.3-0.4L7,10L6.2,9.6L4.7,9.2l0.1-1.8l0-0.1l0.1,0L5,7.2l2.8,0.1L7.6,7L6.5,5.7
	L5.7,6.5L5.3,6.8L5,6.9l-0.3,0l-0.1-5l0-0.1l0-0.1l0.1-0.1l0.7-0.4l0.1-0.1l0-0.1l0-0.3L3.7,0.6z"/>
</svg>
