<?xml version="1.0" encoding="utf-8"?>
<!-- Generator: Adobe Illustrator 22.0.1, SVG Export Plug-In . SVG Version: 6.00 Build 0)  -->
<svg version="1.1" id="レイヤー_1" xmlns="http://www.w3.org/2000/svg" xmlns:xlink="http://www.w3.org/1999/xlink" x="0px"
	 y="0px" viewBox="0 0 18 18" style="enable-background:new 0 0 18 18;" xml:space="preserve">
<path d="M0.9,10.7l0.7,1.5l0.5,2l0.1,0.1l0.1,0.1l0.1,0l0.1,0l0.1,0l0.2-0.1l0.1-0.1L2.9,14L3,13.8l0-0.2l0-0.3l-0.2-0.6L1.6,11
	l-0.3-0.2l-0.1-0.1H1.1L0.9,10.7z M6,10.1l-0.1,0.3v0.1l-1.2,3.6L5,14l1.8-2.5L7,11.3l0.6-0.2v-0.4L6,10.1z M9.4,8.7h3.8v7.4H9.4
	V8.7z M14.5,0.8L14.3,1l-4.2,2.2L9.6,3.4H9.6l-0.2,0L8.7,2.8l-0.4,0v13.3l-2-0.1L6.1,16l-0.1,0.1L6,16.2l0,0.1l0,0.3h11.5l-0.1-0.2
	l-0.3-0.6l-0.3-0.3l-0.7-0.5l-0.7,0.9L15.2,16L15,16l-0.9,0.1V8.7h2.9l-0.4-0.9l-0.3-0.4l-0.2-0.2l-0.1-0.1h-0.1l-0.2,0l-0.2,0.2
	l-0.8,0.8H9.4V3.9l5.4-1.5l1-0.2l0.2-0.1L14.5,0.8z M3.6,0.9l-0.8,2L0.5,7.1L0.9,7l0.8-0.6l0.3-0.1l1.4,0.1l0,2.3L3.4,9l0,0.1
	l-0.1,0L3.1,9.2L0.7,9.1v0.5h2.7v5.3l-2.8,0.4l0.5,1.6l0.3,0.1l0.2,0l0.1-0.1l0.1-0.1l0-0.2l0-0.2l5.2-1.4l0.2-0.4L7,14.4l-2.6,0.4
	V9.6h3.4L7.7,9.4L7.3,8.7L6.8,8.3L6.4,8.1L5.7,9L5.6,9L5.5,9.1l-1,0l0-2.7l0-0.1l0.1,0l0.1,0l2.4,0.1L6.8,5.7L6.3,5.3L5.6,4.9
	L4.9,5.8L4.8,5.8L4.6,5.9L2.1,5.8l1.6-2.3l0.6-1.3l1.2,1.1l1.4,2.2L7,5.6l0.1,0l0.1,0l0.2-0.1l0.2-0.2l0.1-0.3V4.6L7.5,4.1L7.3,3.8
	L5.5,2.5L4.7,2.2l-0.1,0l0.1-0.2l0,0l0.7-0.1L5.1,1.3L5.1,1.3L5,1.2L3.9,0.8L3.6,0.9z"/>
</svg>
