<?xml version="1.0" encoding="utf-8"?>
<!-- Generator: Adobe Illustrator 22.0.1, SVG Export Plug-In . SVG Version: 6.00 Build 0)  -->
<svg version="1.1" id="レイヤー_1" xmlns="http://www.w3.org/2000/svg" xmlns:xlink="http://www.w3.org/1999/xlink" x="0px"
	 y="0px" viewBox="0 0 18 18" style="enable-background:new 0 0 18 18;" xml:space="preserve">
<path d="M0.7,13.3l0.4,0.5l0.2-0.1L2,13.3l1.7-0.9v2.1L2.6,14l-0.2,0.3l0.1,0.2v0l0,0l0,0.1l0.1,0.1l0.2,0.4l0.1,0.2l0.1,0.1L3,15.5
	l0.1,0.1l0.3,0.2V16v0.1c0,0.2,0,0.2,0.1,0.3l0.1,0.2l0.1,0.2l0.1,0.1l0.1,0.1L3.8,17l0.3,0.4l0.1,0l0,0l0.1,0l0.1-0.1l0.2-0.1
	c0.2-0.3,0.5-0.8,0.6-1.2l0.1-0.2l0.1-0.5c0-0.2,0-0.2,0-0.4l0-0.3l-0.1-0.7l0-0.3l0-0.3l0-0.5l0-0.4l0-0.4l0.1-0.6l0.1-0.9h0l0,0v0
	v0L8,6.7l1.6-2.5l0.1-0.1C9.8,4,9.9,4,10,4l1-0.5c0.6-0.3,0.8-0.4,1.1-0.6l0.8-0.7l0.1,0v0.8l-0.2,0.2l-1.5,1.5
	c-0.1,0.1-0.1,0.1-0.3,0.3L10.7,5v0.8l0.1,0.1l0,0l0.1,0c0.1,0.1,0.1,0.1,0.4,0.1h0.1c0.1,0,0.2,0,0.2,0h0.1l0.3-0.1
	c0.1,0,0.2,0,0.2,0l0.2,0l0.1,0H13H13l0.1,0l0.1,0l0.1,0L13.4,6c0.1,0.2,0.2,0.3,0.2,0.5v0.3c-0.1,0.6-0.4,1-0.7,1.1l-0.2,0h-0.1
	h-0.1l-0.2-0.1c-0.3-0.2-0.5-0.3-0.8-0.6l-0.2-0.2l-0.1,0h-0.1c-0.6,0.1-1,0.4-1.1,0.8v0l0,0v0.2l0.1,0.2c0.1,0.2,0.2,0.4,0.2,0.4
	c0,0.1,0.1,0.2,0.2,0.4l-0.1,0.1l-0.3,0.9l-0.2,0.5L10,11.1c-0.2,0.3-0.3,0.5-0.9,1.1l-1-0.5l-0.6,0.7v0.2l1.3,1.1l-0.3,0.8
	l-0.2,0.4c-0.3,0.6-0.4,0.9-0.4,1.1c0,0.2,0,0.2-0.1,0.2l0,0.1l0,0l0,0.2l0.1,0.1l0.1,0l0,0l0,0l0.1,0l0.1,0
	c0.1,0.1,0.1,0.1,0.2,0.1l0.1,0l0,0h0h0.1l0.1,0l0.1,0l0.1-0.1l0,0l0,0l0,0l0.9-1.2l1.7-1.2l1.1-0.8l1.1-0.7l0.1-0.1l0,0l0.2,0
	l0.1,0.2l0,0.1l0.1,0.2l0,0.3c0,0.1,0,0.2,0,0.3V14l-0.1,0.1l0,0.2L14,14.5l-0.1,0.2c0,0-0.1,0.1-0.1,0.2l-0.5,1
	c-0.1,0.1-0.1,0.1-0.1,0.3v0.3l0.2,0.3l0.2-0.1l2.5-0.4c0.3,0,0.5-0.1,0.8-0.3l0.2-0.2v-1.1l-1.6,0.5L15.6,15l0-0.1l0-0.1
	c-0.1-0.3-0.2-0.4-0.2-0.6v-0.1l0.3-1.5v-0.1l0-0.1l0-0.3L15.6,12l-0.1-0.1l0-0.1l0-0.1l0,0l-0.1-0.1l-0.2-0.2
	c-0.2-0.2-0.3-0.2-0.4-0.3l-0.2,0c-0.5,0-0.6,0.1-1.1,0.4L12.5,12l-0.8,0.5c-0.1,0.1-0.2,0.1-0.3,0.1l-0.1,0.1l-0.3,0l0-0.4l0.7-2.4
	l0-0.1v0l0.1-0.2h0.4l0.3,0c1.2-0.1,2.3-1.4,2.5-2.8V6.5l0-0.1c0,0,0,0,0-0.3l0-0.2l-0.1-0.2l-0.1-0.3l-0.1-0.2L14.6,5l-0.1-0.2
	l-0.1-0.1l-0.1-0.1l-0.2-0.2l0-0.1c0.3-1.1,0.4-1.8,0.4-2.3c0-0.4-0.1-1-0.3-1.3l-0.1-0.3L14,0.5l0,0l0,0v0l0,0l0,0v0h0l0,0
	l-1.5,0.9C11.6,1.9,11.3,2,10.6,2h-0.1L9,1.5h0L8.8,1.5L8.5,2.9L8.6,3l0,0.1l0,0l0,0c0.1,0.1,0.1,0.1,0.2,0.4l0,0.3v0.2
	C8.8,4.3,8.5,5,7.7,6.1L7,7L6.4,7.9C6.1,8.1,6.1,8.1,5.9,8.4L5.7,8.5L5.5,8.3v-2l0.4-0.3c0.2-0.1,0.3-0.2,0.4-0.2
	c0.1-0.1,0.3-0.1,0.4-0.2C6.8,5.6,6.8,5.6,7,5.6l0.1,0h0.2l0.4-1L7.1,4L5.7,4.6V4.2l0-0.4V3.7c0-0.5,0-0.7-0.1-0.9L5.5,2.2l0-0.1v0
	L5.5,1.7L5.3,1.6C4.8,1.4,4.8,1.3,4.4,1.3H4.3L4,1.4l-0.1,0l-0.1,0L3.8,1.5L3.5,1.7L3.6,2C4,3.1,4.2,3.6,4.2,4.2v0.1
	C4.2,4.5,4,5,3.8,5.2c-0.4,0.4-1.2,0.6-2,0.6h0H1.7l-0.5,0L1.1,6L1,6.1L0.9,6.4L0.8,6.7l0,0.1l0,0.3h0.4h0.1h0.1l0.2,0h0.1l1.3-0.3
	l0.4-0.1l0.1,0l0,0l0,0l0,0.6c0,0.4-0.1,0.7-0.2,1l-1.8,3.4c-0.4,0.8-0.4,0.8-0.5,1c-0.1,0.1-0.1,0.2-0.1,0.4L0.7,13.3z"/>
</svg>
