<?xml version="1.0" encoding="utf-8"?>
<!-- Generator: Adobe Illustrator 22.0.1, SVG Export Plug-In . SVG Version: 6.00 Build 0)  -->
<svg version="1.1" id="レイヤー_1" xmlns="http://www.w3.org/2000/svg" xmlns:xlink="http://www.w3.org/1999/xlink" x="0px"
	 y="0px" viewBox="0 0 18 18" style="enable-background:new 0 0 18 18;" xml:space="preserve">
<path d="M14.3,8.8L14,9.3l-0.2,0.2c-0.5,0.4-0.5,0.4-0.6,0.6l0,0.1v0.1v0.2l0.1,0.2c0.2,0.4,0.7,0.7,1.2,0.7h0.1
	c0.3,0,0.8-0.2,1-0.5l0-0.1l0-0.1l0.1-0.2l-0.1-0.5l-0.1-0.4l-0.1-0.1c-0.2-0.3-0.6-0.6-0.9-0.7l0,0L14.3,8.8z M12.5,6L12.5,6
	l0.2,0.1l0.1,0.1c0.1,0.1,0.2,0.1,0.3,0.2l0.3,0.1l0.1,0c0.2,0.1,0.2,0.1,0.3,0.1l0.1,0H14c0.1,0,0.2,0,0.3-0.1L15,6.3l0.2-0.1
	l0-0.2l0-0.1V5.7l0,0v0l0-0.1l0-0.1l0-0.1l0-0.1l0-0.1l0,0l-0.7-0.7L14,4H14l-0.1,0h0c-0.4,0.2-0.8,0.6-1.2,1.3l-0.1,0.3l0,0.1l0,0
	v0v0L12.5,6z M2.4,9L2.6,9c0.9,0.4,1.5,0.5,2.1,0.5h0.1c0.1,0,0.3-0.1,0.4-0.1L6.2,9h0.1l0.1-0.1v0.6L6,9.9l-0.1,0.9l0,0.6v0.1
	c0,0.3,0.1,0.7,0.1,0.9l0,0.1c0.2,0.5,0.6,0.9,1,0.9h0.2c0.3,0,0.7-0.5,0.9-1l0-0.1l0,0l0-0.1l0-0.1v-0.2l0-0.3c0,0,0-0.1-0.1-0.2
	l0-0.1L8,10.9c-0.1-0.3-0.2-0.8-0.2-1.1c0-1,0.4-1.6,1.3-1.7l0.1,0l0.1,0h0h0l0.2,0c0.3,0,0.7,0.3,0.8,0.6c0.1,0.2,0.2,0.5,0.2,0.7
	v0.2l-0.1,0.6l-0.1,0.6l-0.1,1.5v0.3c0,1.3,0.5,2.3,1.6,3c1,0.6,2,0.9,2.6,0.9h0.1l0.1,0l0.1,0l0.1-0.1l0.1-0.1l-0.2-0.1l-0.9-0.6
	L13,15.1c-0.6-0.5-0.7-0.6-0.8-0.8l-0.1-0.2L12.1,14l0,0l0-0.1c0-0.1,0-0.2-0.1-0.3c0-0.1,0-0.2,0-0.3v-0.5l0-0.8l0.1-1.1l0.1-1.4
	V8.9c-0.2-1.3-1-2.2-2-2.4H10l-0.1,0H9.9l-0.2,0H9.5V6.2L10,5.7l1.7-1.4L12,4.1c0.2-0.2,0.3-0.3,0.6-0.7l0-0.2
	c-0.3-0.8-0.6-1.3-1.1-1.6c-0.1-0.1-0.2-0.1-0.4-0.1l-0.2,0c-0.3,0-0.5,0-0.9,0.2L9.8,1.8L9.6,1.9L7.6,3C7.3,3.1,6.9,3.2,6.8,3.2h0
	H6.7L4.6,3.1l-0.1,0l0,0v0L4.4,3.2L4.4,3.3V4l0.4,0.4l0.2,0.2l0.2,0.2C5.3,5,5.4,5.1,5.8,5.3l0.8,0.6l0.3,0.2L6.9,6.2
	c-0.5,1-1.2,1.6-2,1.6H4.8H4.7H4.6L4.2,7.7l-1-0.3l-0.1,0l-0.1,0H2.7L2.3,7.9L2.4,9z"/>
</svg>
