<?xml version="1.0" encoding="utf-8"?>
<!-- Generator: Adobe Illustrator 22.0.1, SVG Export Plug-In . SVG Version: 6.00 Build 0)  -->
<svg version="1.1" id="レイヤー_1" xmlns="http://www.w3.org/2000/svg" xmlns:xlink="http://www.w3.org/1999/xlink" x="0px"
	 y="0px" viewBox="0 0 18 18" style="enable-background:new 0 0 18 18;" xml:space="preserve">
<path d="M13.2,3.8c0.1,0.4,0.4,0.6,0.8,0.6l0.2,0c0.1,0,0.1,0,0.2-0.1l0.2-0.1c0.1-0.2,0.2-0.3,0.2-0.4l0-0.2c0-0.3-0.1-0.4-0.3-0.6
	l-0.2-0.1l-0.2-0.1l-0.1,0h-0.2l-0.1,0l-0.2,0.1c-0.2,0.1-0.4,0.3-0.4,0.6l0,0.1L13.2,3.8z M14.1,7L14.1,7L14.1,7h-0.1
	c-0.1,0-0.2,0-0.3,0.1l-0.2,0.1l-0.1,0.2c-0.1,0.1-0.1,0.2-0.1,0.3l0,0.1l0,0.2l0,0.1l0.1,0.1l0.1,0.2l0.2,0.1
	c0.1,0.1,0.2,0.1,0.3,0.1l0,0h0.1l0.2,0c0.1,0,0.1,0,0.2-0.1l0.1-0.1l0.1-0.2c0.1-0.2,0.1-0.2,0.1-0.3V7.7c0-0.1,0-0.2-0.1-0.3
	l-0.1-0.2l-0.1-0.1C14.3,7.1,14.3,7.1,14.1,7L14.1,7L14.1,7z M6.1,5L5.4,5.8C5.3,6,5.2,6,5.1,6.1L2.8,8C2.4,8.4,2.3,8.7,2.3,9.3v0.1
	l0,0.1l0,0.2l0.1,0.1l0,0l0,0l0,0l0.1,0.1l0.3,0.1C3,10,3.1,10,3.2,10l0.4,0.1c0.8,0.2,1.7,1.1,1.9,2v0.3c0,0.2,0,0.3-0.1,0.5
	l-0.3-0.3l-0.3-0.2c-0.5-0.4-0.8-0.5-1.1-0.5S3.3,12,3,12.3l-0.2,0.2l-0.1,0.1l0.1,0l0.3,0l0.3,0l0.3,0.1c0.4,0.2,0.5,0.3,1,0.7
	l0.8,1.1C6.6,16,7,16.2,8.9,16.2l1.3,0v-0.2l-1.1-0.3c-1.7-0.5-2-0.6-2.7-1.6l-0.3-0.4c0.1-0.1,0.1-0.1,0.1-0.1l0,0l0,0l0-0.1
	l0.1-0.2c0-0.2,0.1-0.2,0.1-0.4l0.2-2.7c0.1-0.7,0.3-1,0.6-1.4C7.6,8.5,8,8.3,8.2,8.3c0.4,0,0.7,0.3,0.7,1l-0.2,2.5l0,0.1v0.1
	c0,1.5,0.8,2.3,2.7,3l2,0.8c0.1,0.1,0.2,0.1,0.3,0.1l0.3,0.1l0.2,0.1l0.1,0.1l0.5,0.3l0.2-0.1L14.4,16l-0.2-0.1l-0.5-0.3l-1.3-0.6
	c-0.3-0.1-0.3-0.1-0.6-0.3l-0.5-0.3c-1-0.6-1.4-1.2-1.4-2.2c0-0.2,0-0.4,0-0.7l0.1-1l0.1-0.9c0-0.3,0-0.3,0-0.4V9.2
	c0-1.2-0.7-2.1-1.6-2.1c-0.6,0-1.5,0.5-2.2,1.3C6.1,8.8,5.9,9.4,5.7,9.9l-0.1,0.4L5.3,10L5,9.8C4.7,9.6,4.5,9.4,4.2,9.3
	C3.8,9.1,3.7,9,3.7,8.8c0-0.3,0.4-0.6,1-1c0.4-0.3,0.5-0.3,0.9-0.6l0.7-0.6L7,5.9l1.2-1.2c0.7-0.6,0.7-0.6,1.1-0.8l0.2-0.1l0.1-0.1
	l0-0.1V3.6C9.6,3.4,9.2,3,8.7,3l-0.2,0H8.5l-0.1,0L8.3,3C8.3,3,8.2,3,8,3c0,0-0.1,0.1-0.2,0.1L7.5,3.3C7.3,3.4,7.2,3.4,7,3.4L7,3
	c0.2-1,1.2-1.7,2.2-1.7c0.6,0,1.3,0.3,1.6,0.7C11.3,2.3,11.5,3,11.5,4l-0.2,5.2c0,0.2,0,0.4,0,0.4c0,1.8,0.2,2.3,0.9,2.9
	c0.1,0.1,0.2,0.2,0.3,0.3l2.6,1.8v0h0h0h0l0.5,0.5v-0.3l-0.6-0.7l-1.7-1.7c-0.6-0.6-0.8-1.4-0.8-2.8v-5l0-0.8
	c-0.1-0.9-0.3-1.6-0.6-2.1c-0.4-0.6-1.5-1.1-2.5-1.1c-1,0-2,0.4-2.5,1.1c-0.4,0.5-0.6,0.9-0.8,2L5.6,3.9L5.3,3.9
	C4.7,4.1,4.1,4.1,3.7,4.1H3.5L3,4.1v0.1l0.7,0.4C4.4,4.9,4.6,5,5.2,5l0.2,0l0.2,0l0.3,0H6.1z"/>
</svg>
