<?xml version="1.0" encoding="utf-8"?>
<!-- Generator: Adobe Illustrator 22.0.1, SVG Export Plug-In . SVG Version: 6.00 Build 0)  -->
<svg version="1.1" id="レイヤー_1" xmlns="http://www.w3.org/2000/svg" xmlns:xlink="http://www.w3.org/1999/xlink" x="0px"
	 y="0px" viewBox="0 0 18 18" style="enable-background:new 0 0 18 18;" xml:space="preserve">
<path d="M9.3,8.3h0.2c1.2,0.3,1.4,0.3,2.5,0.9v2.3c0,0.4,0,0.4,0,0.6c0,0.4-0.1,0.8-0.3,1.5h-0.8L9,13l0.3-1l-0.1-0.7v-0.3l0.3-0.2
	L9.3,8.3z M11.8,3.6h0.2v4.3l-0.4-0.1c-0.8-0.4-1.2-0.6-2.6-0.9l0.6-1L10.5,5L11.8,3.6z M12.9,1h-1.1l-0.2,0.2l0.3,1.5l-0.3-0.1
	C11.1,2.1,10.9,2.1,10,2H9.9H9.8L8.5,2.9C6.9,3.2,6.1,3.3,5.3,3.3H4.9H4.7l-0.2,1c1,0.9,1.1,1,2.1,1.6L7,6.1L6.8,6.7L5.5,6.9
	L3.4,7.4C3.1,8.1,3,8.3,3,8.6c0,0.6,0.4,0.9,1.5,1.1l2.7-1.4l0.4,0.2l0.3,0.2L8,10l-0.6,2.3L6.3,13l-1.5-0.5c-0.2,0-0.3,0-0.4,0
	c-0.8,0-1.4,0.6-1.4,1.3c0,0.7,0.7,1.2,1.5,1.2h0.1h0.1l2-0.4L7.2,14c1.2,0.1,1.4,0.2,2.5,0.5l0.4,0.9c0.6,0.6,0.6,0.6,1.7,1
	c1.3,0.5,1.8,0.6,2.2,0.6c0.1,0,0.3-0.1,0.7-0.2v-0.1c-1.2-0.4-1.5-0.6-2.1-1.1l-0.1-0.2l-0.3-0.6h1.5l0.2-0.4V7.1c0-0.4,0-0.8,0-1
	c0-0.8,0.1-1.3,0.3-2.5c0.2-0.4,0.3-0.7,0.3-0.9c0-0.3-0.2-0.7-0.8-1.6l-0.6,0.2L12.9,1z"/>
</svg>
