<?xml version="1.0" encoding="utf-8"?>
<!-- Generator: Adobe Illustrator 22.0.1, SVG Export Plug-In . SVG Version: 6.00 Build 0)  -->
<svg version="1.1" id="レイヤー_1" xmlns="http://www.w3.org/2000/svg" xmlns:xlink="http://www.w3.org/1999/xlink" x="0px"
	 y="0px" viewBox="0 0 18 18" style="enable-background:new 0 0 18 18;" xml:space="preserve">
<path d="M8.6,0.5l2.2,1.9L4.7,9l4.1,4.3L13,9l-1.1-1.3L9.8,9.9l-2-2.1l4.1-4.3L17,8.8l-8.2,8.4l-8-8.4L8.6,0.5z M8.8,0.2l-0.6,0
	L7.5,0.3C3.6,0.9,0.5,4.8,0.4,9l0,0.3v0.3L0.7,11l0.5,1.5C2,14,2.6,14.8,3.7,15.7c1.5,1.2,3.4,1.9,5.1,1.9c2.5,0,5.1-1.3,6.7-3.5
	c1.2-1.6,1.7-3.1,1.9-5.2V8.5l0-0.3l-0.3-1.3l-0.6-1.6c-0.9-1.7-1.6-2.6-3-3.7l-1.1-0.7l-1.4-0.5L9.8,0.2L8.8,0.2z"/>
</svg>
