<?xml version="1.0" encoding="utf-8"?>
<!-- Generator: Adobe Illustrator 22.0.1, SVG Export Plug-In . SVG Version: 6.00 Build 0)  -->
<svg version="1.1" id="レイヤー_1" xmlns="http://www.w3.org/2000/svg" xmlns:xlink="http://www.w3.org/1999/xlink" x="0px"
	 y="0px" viewBox="0 0 18 18" style="enable-background:new 0 0 18 18;" xml:space="preserve">
<path d="M14.4,8l-0.6,0.8H2v0.5h11.6l-2.9,3c-0.6,0.5-0.6,0.6-1.3,0.9l-0.1,0l-0.5,0l-0.3-0.1l-0.5-0.3l-2.6-2.1l-0.3-0.4l0-0.1
	v-0.1v-0.1l0.1-0.1l0.2-0.3L5.1,9.3l-2.3,1.8l-0.4,0.4l-0.1,0.1l0,0.2l0.1,0.3l0.1,0.2l0.2,0.1l0.2,0.1l1.8-2.1L6,12.1l1.9,1.6
	L8.1,14l-0.9,0.6l-4.6,1.9l-1.6,0.2l-0.2,0.1l-0.1,0.1l-0.2,0.4L1,17h0.4l3-0.6l4.7-1.8l4.2,1.5l3.2,0.6l0.1-0.3l0.8-1.1l-2.2,0
	L11,14.3L10.1,14l1.2-0.8l3.7-3.6h0.8l-0.1-0.4l-0.9-1.1L14.6,8L14.4,8z M14.1,0.5l-0.7,0.7H2.6v0.5h11.1v3.8H2.6V6h11l0.1,0.4
	l0.1,0.2L14,6.7l0.2,0.1l0.1,0l0.1-0.1l0.1-0.1l0.1-0.1l0.1-0.1l0-4l0.1-0.1l0.7-0.4l-0.4-0.7l-0.4-0.4l-0.3-0.2L14.1,0.5z"/>
</svg>
