<?xml version="1.0" encoding="utf-8"?>
<!-- Generator: Adobe Illustrator 22.0.1, SVG Export Plug-In . SVG Version: 6.00 Build 0)  -->
<svg version="1.1" id="レイヤー_1" xmlns="http://www.w3.org/2000/svg" xmlns:xlink="http://www.w3.org/1999/xlink" x="0px"
	 y="0px" viewBox="0 0 18 18" style="enable-background:new 0 0 18 18;" xml:space="preserve">
<path d="M5.1,7.8L4.4,8.6L4.3,8.7L4,8.8L1,8.7v0.5h5.4L6,8.5L5.6,8.1L5.4,7.9L5.3,7.8L5.1,7.8z M5.1,5.5L4.4,6.3L4.3,6.4L4,6.5
	L1,6.4v0.5h5.4L6,6.2L5.6,5.7L5.4,5.6L5.3,5.5L5.1,5.5z M5.7,3.1L5.1,3.9L5,4L4.4,4.1L0.5,4.1v0.5H7L6.6,3.8L6.2,3.4L6,3.2L5.9,3.2
	L5.7,3.1z M2.1,11.6l2.6,0v3.3H2.1V11.6z M7.1,0.8v14.4l-0.8,0.4l-0.6,0.1l-0.3,0l0.1-0.2l0.2-3.6L6,11.8l0.4-0.3l-0.5-0.6l-0.7-0.6
	l-0.8,0.7l-0.2,0.1l-0.3,0c-0.9-0.1-1.7-0.3-2.5-0.7l-0.3-0.2v6.5l0.1,0.1l0.2,0.1l0.1,0l0.2,0l0.1-0.1l0.1-0.1L2,16.6l0.1-0.1
	l0.1-1.2l0-0.1l0,0l0.2-0.1l2.3,0.1v0.4L5.2,16l0.6,1.1l0.1,0.1l0.2,0.1l0.3,0l0.4-0.9l4.3-2.1l0.3-0.3l0-0.1l-3.3,0.8V7.6h3.5
	l-0.1-0.3l-0.3-0.4L10.3,6L9.8,6.6L9.2,7L9,7.1H8.1l-0.1-5l0,0L8.2,2l0.7-0.4L8.7,1L7.1,0.8z M4.7,0.8L3.8,1.6L3.2,1.8L1.1,1.7v0.5
	h5L5.8,1.6L5.4,1.1L5.1,1L4.8,0.9L4.7,0.8z M11.7,0.7v15.4l1.4,0.4l1.3,0.1l2.6-0.4l0.1-0.1l0.2-0.2l0.1-0.2L16.6,15l0.4-2.1
	l-0.1-0.6l-0.3,0.3v0.3l-0.9,2.7l-2.7,0l-0.2-0.2V8.1l2.1-1.4L16,6.1l1.4-0.4l-0.3-0.5l-0.4-0.5l-0.2-0.1l-0.2-0.1H16l-0.1,0.1
	l-3.1,2.9V1.9l0.8-0.5l-0.1-0.5L11.7,0.7z"/>
</svg>
