<?xml version="1.0" encoding="utf-8"?>
<!-- Generator: Adobe Illustrator 22.0.1, SVG Export Plug-In . SVG Version: 6.00 Build 0)  -->
<svg version="1.1" id="レイヤー_1" xmlns="http://www.w3.org/2000/svg" xmlns:xlink="http://www.w3.org/1999/xlink" x="0px"
	 y="0px" viewBox="0 0 18 18" style="enable-background:new 0 0 18 18;" xml:space="preserve">
<path d="M9.6,10.6h5.3v4.5H9.6V10.6z M9.6,5.5h5.3v4.5H9.6V5.5z M15.7,0.7l-0.9,1.1H7.5v0.5h3.9L10.9,5l-0.4,0.1l-0.5,0L9.8,5
	L8.6,4.3v12.4l0.1,0.1l0.2,0l0.2,0l0.1-0.1l0.1-0.1l0.2-0.3l0-0.1l0-0.6h5.3l-0.1,0.2l0,0.3l0.1,0.1l0.1,0.1l0.1,0.1l0.1,0.1l0.1,0
	l0.1,0l0.2-0.1l0.1-0.1l0.1-0.3l0-9.9l0.9-0.6l-1.4-1.4l-0.8,0.8L14.5,5l-0.3,0.1L11.5,5l1.1-2.7h4.6L17,2l-0.9-1.1l-0.2-0.1
	L15.7,0.7z M3.5,0.6l0,4.1L3,4.8l-0.7,0L1.9,4.6L1.6,4.4L0.8,3.8v9.8l0,0.1l0.1,0.1L1,13.8l0.2,0l0.2,0l0.1-0.1l0.1-0.1l0.1-0.1
	l0.1-0.2l0-8.1h1.7V17l0.1,0.1l0.3,0.1l0.2,0l0.1-0.1L4.3,17l0.1-0.3l0-11.5h1.7v7.4L6,12.7l-1-0.1l-0.4,0.1l1,0.8l0,0.1l0,0.4
	l0.8-0.1l0.3-0.2l0.2-0.2L7,13.2l0.1-0.4l0.1-7.3L8,5.1L6.7,3.9L5.9,4.7l-0.1,0L4.5,4.7L4.5,1.9l0-0.1l0.1-0.1l0.7-0.4L5.1,0.8
	L3.5,0.6z"/>
</svg>
