<?xml version="1.0" encoding="utf-8"?>
<!-- Generator: Adobe Illustrator 22.0.1, SVG Export Plug-In . SVG Version: 6.00 Build 0)  -->
<svg version="1.1" id="レイヤー_1" xmlns="http://www.w3.org/2000/svg" xmlns:xlink="http://www.w3.org/1999/xlink" x="0px"
	 y="0px" viewBox="0 0 18 18" style="enable-background:new 0 0 18 18;" xml:space="preserve">
<path d="M7.9,6.2l0,3.1L5.7,9.9V8.2L6.3,8l0-0.2l0-0.2L6.1,7.5l-0.1,0l-1-0.2H4.8l-0.1,0L4.7,7.4L4.6,7.5l0,0.2l0.1,2.5l-1.8,0.5
	v0.6l1.8-0.5l-0.1,3.4l0.1,0.3l0.1,0.1l0.2,0.2l0.8,0.4l0.9,0.1l5.6,0l1.3-0.4l0.1-0.1l0.1-0.1l0-0.1l0-0.2l-0.1-0.1L13,13.8
	l0.1-1.5L13.1,12H13l-0.2,0.3l-0.5,1.6l-0.2,0.3H5.8L5.7,14l-0.1-0.2l0.1-3.4L8,9.7l-0.1,3L8,13.1L8,13.2l0.1,0.1l0.1,0l0.1,0l0.1,0
	l0.1-0.1l0.1-0.1l0.1-0.1l0.1-0.3L9,9.5l2.4-0.7L11.3,11L11,11.8l0,0.1l-0.1,0.1l-0.1,0L10.6,12l-1.3-0.3L9,11.9l0.2,0.3l1,0.5
	l0.1,0.1l0.1,0.1l0,0.5l0.6,0l0.3-0.1l0.3-0.2l0.2-0.2l0.1-0.2l0.2-0.9L12.4,9L13,8.6l-0.3-0.5l-0.4-0.4L12,7.7h-0.1l-0.1,0.1
	L11,8.4l-0.4,0.2L9,9.1V7.2l0.7-0.4L9.5,6.5L9.4,6.4L9.3,6.3L7.9,6.2z M10.7,3.6h4.5v1.3h-4.5V3.6z M10.7,1.8h4.5v1.3h-4.5V1.8z
	 M9.8,0.5L9.6,5.3l0.1,0.5L10,6L10.1,6l0.2,0l0.1,0L10.5,6l0.2-0.2l0.1-0.3h4.5v10.7L12.6,16v0.1l0.3,0.2l1.8,0.4l0,0.6l0.8-0.1
	l0.3-0.2l0.2-0.2l0.1-0.3l0.1-0.4l0.1-13.8l0.8-0.5l-0.7-1l-0.3-0.2l-0.1,0l-0.1,0L15,1.3l-0.3,0.1l-3.8,0l-0.3-0.1L9.8,0.5z
	 M1.9,3.6h4.5v1.3H1.9V3.6z M1.9,1.8h4.5v1.3H1.9V1.8z M0.9,0.6V17l0,0.1L1,17.1l0.1,0.1l0.2,0l0.2,0l0.1-0.1L1.8,17l0.1-0.1
	l0.1-0.2l0-11.3h4.5l0,0.3l0,0.3l0.1,0.2l0.1,0.1l0.2,0L7,6.1L7.2,6l0.1-0.1l0.1-0.3l0.1-3.2l0.1-0.1l0.8-0.4L7.8,1.2L7,0.6L6.7,0.8
	L6.2,1.3L5.9,1.4l-3.7,0l-0.1,0L1.3,0.6L0.9,0.6z"/>
</svg>
