<?xml version="1.0" encoding="utf-8"?>
<!-- Generator: Adobe Illustrator 22.0.1, SVG Export Plug-In . SVG Version: 6.00 Build 0)  -->
<svg version="1.1" id="レイヤー_1" xmlns="http://www.w3.org/2000/svg" xmlns:xlink="http://www.w3.org/1999/xlink" x="0px"
	 y="0px" viewBox="0 0 18 18" style="enable-background:new 0 0 18 18;" xml:space="preserve">
<path d="M12.7,8.1L13,8.4l0.2,0.2l0.8,1.7l0.4,0.1l0.3,0l0.2-0.1l0.1-0.1L15,10L15,9.9l0-0.2l0-0.2l-0.2-0.4l-0.3-0.3l-1.2-0.7L13,8
	L12.7,8.1z M10.4,7.5l-0.1,3.1H5.3V11h4.8l-0.1,0.2c-0.5,1.3-1,2.2-2,3.4l-1,1l-2.2,1l-0.3,0.2l-0.1,0.1l-0.2,0.4L5.6,17l1-0.4
	l2-1.2l1.1-1.1l0.4-0.7l1-2.1l0.7,1.6l0.9,1.3l0.8,0.9l3,1.7l0.1-0.3l0.1-0.1l0.8-0.8l-0.4-0.1c-2.6-0.7-4.5-2.1-5.7-4.5L11.3,11
	h6.1L17,10.2l-0.4-0.4l-0.1-0.1l-0.1-0.1l-0.3,0l-1.1,1l0,0l-0.4,0.1l-3.3-0.1l0.1-1.4l0.1-0.3l0.1-0.1l0.6-0.6l-0.1-0.4L10.4,7.5z
	 M2.4,1.2l0,5.2v0.1l0,0h0l-1.9,0v0.5h1.9v6.1l-1.5,0.2l-0.3,0.1l-0.1,0.1l0,0.1l0,0.2l0.3,1.1l0.1,0.1L1,15l0.1,0l0.2,0l0.2-0.7
	l4.2-1.7l0.3-0.4L6,12.2l-0.3,0.1L5,12.4l-1.5,0.5v-6h2.3L5.5,6.2L5.2,5.9L4.6,5.5L3.7,6.4l-0.1,0L3.5,6.5L3.4,2.7l0-0.1l0-0.1
	l0.1-0.1L4.2,2V1.6l0-0.1L4.1,1.4L2.4,1.2z M10.5,0.5V3H6.9V2.3L6.5,2.2L6.4,3.4L6.2,3.8L5.9,4.1L5.3,4.6l0,0.6l0,0.1l0.1,0.1
	l0.1,0.1l0.2,0l0.2,0l0.2-0.1l0.2-0.2l0.2-0.3l0.2-0.5l0.1-0.9h2L8.2,5.6L7.7,6.2L5.5,7.8L5.2,8.1l0.3,0.1h0.1L6.5,8l0.9-0.4
	c0.9-0.6,1.3-1,1.8-1.8l0.5-1l0.2-1.2l2,0l0,2.9L12,6.8l0.6,0.3L13,7.2l3.5-0.1L17,7l0.2-0.1l0.1-0.2l0-0.1l0-0.1l0-0.1l-0.6-0.5
	l0.1-1l0-0.4l-0.4,0.3l-0.1,0.7l-0.1,0.3L16.2,6L16,6.1l-0.4,0.2l-0.7,0.1l-2-0.3V3.5h2.6l-0.7,1.6l0.4-0.1l1.6-1.3L17,3.6l0.4-0.1
	l-0.1-0.4L17.1,3l-0.7-0.5l-0.3-0.1l-0.1,0L15.3,3l-0.4,0.1L11.6,3l-0.1-0.4l0-0.5l0.1-0.2l0.3-0.3l0.4-0.3l0.1-0.3l0-0.1l-0.1-0.1
	l-0.1-0.1L10.5,0.5z"/>
</svg>
