<?xml version="1.0" encoding="utf-8"?>
<!-- Generator: Adobe Illustrator 22.0.1, SVG Export Plug-In . SVG Version: 6.00 Build 0)  -->
<svg version="1.1" id="レイヤー_1" xmlns="http://www.w3.org/2000/svg" xmlns:xlink="http://www.w3.org/1999/xlink" x="0px"
	 y="0px" viewBox="0 0 18 18" style="enable-background:new 0 0 18 18;" xml:space="preserve">
<path d="M10.8,10.9l-0.3,1.6H5.6V13h4.9L9,14.9l-1,0.9l-2.5,0.9l-0.3,0.2l-0.2,0.3l0.4,0.1h0.1l2.8-0.9l1.1-0.6c0.6-0.4,1-1,1.6-2.1
	l0.1-0.3l1.5,1.7l1.1,0.8l1.4,0.7l1.1,0.3l0.4,0l0.1-0.3l0.4-0.6l0.1-0.3l-1.5-0.3L14.6,15L13,14.2L11.8,13l0,0h5.7l-0.1-0.2
	L16.9,12l-0.3-0.2l-0.1-0.1l-0.3,0l-1,0.8l-0.4,0.1l-3.4-0.1l0-0.2l0.1-0.2l0.1-0.1l0.6-0.4l-0.2-0.6L10.8,10.9z M8.5,5l1.1,1.7
	l0.1,0.1l0.1,0l0.1,0L10,6.7l0.1-0.1l0.1-0.1l0-0.1V6.2L10,5.8L9.7,5.4L9.4,5.2L9.1,5.1L8.5,5z M13.9,4.6l-0.1-0.4L13.6,4l-0.1-0.1
	l-0.4-0.2l-0.3-0.1h-0.1L8.5,4.3L8.2,4.7l2.6,0.1l0,1.7l-0.1,0.3l0,0l-0.1,0l-0.2,0.1L8,6.8v0.5h2.5l-2.8,3.2l0.1,0.1l0.8-0.3l2.3-2
	l0,1.9l0.1,0.4l0.1,0.1l0.1,0.1l0.1,0.1l0.1,0l0.1,0l0.1-0.1l0.1-0.1l0.1-0.1l0.1-0.2l0-2.1h0.1l2.1,1.9l0.3,0.1l0.1,0l0.1,0
	l0.1-0.1l0.1-0.1l0.1-0.1l0-0.1l0-0.2l-0.1-0.3l-0.6-0.7l-1.4-0.8l-0.6-0.1l-0.2,0V7.3h3l-0.3-0.7l-0.6-0.4l-0.6,0.5l-0.3,0.1h-0.4
	L13.1,6l0.1-0.1l0.1-0.1l0.2,0h0.4V5.4l-1.1-0.6l-0.8,2l0,0l-0.1,0h-0.2V4.6L13,4.4L13.9,4.6z M2.6,6.7h1.8v3.8H2.6V6.7z M2.6,2.4
	h1.8v3.8H2.6V2.4z M1.6,1.1v9l-0.3,3.6l-0.7,2.6l0,0.4h0.1L1.6,15l0.5-1.4L2.5,11h1.9l0.1,4.2l0,0.2l0,0.1l-0.1,0.1l-0.1,0l-0.1,0
	l-1.7-0.2l-0.3,0.1l0.2,0.3l1.3,0.5l0.2,0.1V17l0.8-0.1l0.3-0.2l0.2-0.2l0.2-0.3l0.1-0.4l0-13l0.8-0.4L5,1.2L4.7,1.4L4.1,2l0,0
	L3.9,2L3.3,2L2.8,1.9L1.9,1.2L1.6,1.1z M10.7,0.7l-0.2,1.2l-0.3,0.6l-0.1,0.2L10,2.9L9.8,2.9l-0.2,0L7.9,2.8L7,2.1L6.7,2v9.7l0,0.1
	l0.1,0.1l0.2,0.1l0.2,0l0.2,0l0.2-0.1l0.1-0.1l0.1-0.1l0.1-0.2V3.3H15v8.2l0,0.1l0.1,0.1l0.2,0.1l0.2,0l0.2,0l0.2-0.1l0.1-0.1
	l0.1-0.1l0.1-0.2l0-7.5l0.6-0.3l-0.6-0.9l-0.3-0.3l-0.1,0l-0.1,0l-0.8,0.6l-0.1,0l-0.2,0l-3.7-0.1l0-0.1l0.4-0.5L11.4,2l0.8-0.4
	l-0.1-0.4l-0.1-0.1L12,1.1l-0.4-0.2L10.7,0.7z"/>
</svg>
