<?xml version="1.0" encoding="utf-8"?>
<!-- Generator: Adobe Illustrator 22.0.1, SVG Export Plug-In . SVG Version: 6.00 Build 0)  -->
<svg version="1.1" id="レイヤー_1" xmlns="http://www.w3.org/2000/svg" xmlns:xlink="http://www.w3.org/1999/xlink" x="0px"
	 y="0px" viewBox="0 0 18 18" style="enable-background:new 0 0 18 18;" xml:space="preserve">
<path d="M13.4,7.2l-3.8,3.7L3,16.4l-2.5-0.1v0.6h17L17,16l-0.4-0.4l-0.2-0.1l-0.3,0l-0.2,0l-0.2,0.1l-0.2,0.1L15,16.4H3.7l2.8-1.7
	l4.8-3.8l2.3-2.1l0.7-0.3l0.7,0l-0.1-0.5l-0.1-0.1l-1.2-0.6H13.4z M8.3,0.9l0,3.2H0.5v0.5h7.4L6.6,7.2l-1.3,2l-2.5-1H2.6l-0.1,0
	L2.4,8.3L2.3,8.4l0.2,0.3L5,10.3l2.3,2.1l0.2,0l0.1,0l0.1-0.1l0.1-0.1L8,12v-0.2l0-0.1l-0.3-0.5L7,10.4L5.8,9.6l3.9-4.9h7.8L17,3.8
	l-0.4-0.4l-0.2-0.1l-0.3,0l-0.2,0l-0.2,0.1l-0.2,0.1L15,4.2H9.5L9.4,2.6l0.1-0.4l0.1-0.1l0.6-0.5l-0.2-0.5L8.3,0.9z"/>
</svg>
