<?xml version="1.0" encoding="utf-8"?>
<!-- Generator: Adobe Illustrator 22.0.1, SVG Export Plug-In . SVG Version: 6.00 Build 0)  -->
<svg version="1.1" id="レイヤー_1" xmlns="http://www.w3.org/2000/svg" xmlns:xlink="http://www.w3.org/1999/xlink" x="0px"
	 y="0px" viewBox="0 0 18 18" style="enable-background:new 0 0 18 18;" xml:space="preserve">
<path d="M11,9.2h1.7v2.4H11V9.2z M10.2,8l-0.1,4.7l0,0.1l0.1,0.1l0.7,0.2l0.2-1.1l0.1,0l1.5,0l0,0.3l0,0.1l0.1,0.1l0.1,0.1l0.2,0
	l0.1,0l0.1-0.1l0.1-0.1l0.1-0.1l0.1-0.1l0-2.7L14,9.2l-0.9-1.1l-0.6,0.5l-0.3,0.1l-0.3,0.1l-0.2,0L10.2,8z M2.7,1.2l0,4H0.6l0,0.3
	l0,0.2l0.1,0.1l0.1,0l1.9-0.1l-0.4,5.6L1.4,15l-0.8,1.8v0.4l0.3-0.1L1.2,17l0.3-0.4l1-2.1L3.1,12l0.3-2.5l0,0.1l0.9,2l0.1,0.2
	l0.2,0.1l0.2,0.1l0.2,0l0.1-0.1l0.1-0.1l0.1-0.1l0.1-0.1v-0.1l-0.1-0.5l-0.4-0.8L4.4,9.7L3.4,9.2l0.3-3.6h1.8l0.1,10.1l0.1,0.4
	l0.2,0.3l0.2,0.2l0.1,0.1l1,0.3l8,0l1.5-0.2l0.4-0.2l0.2-0.1l0.1-0.1l0-0.1l0-0.1l0-0.1v-0.1l-0.6-0.4l0.1-1.9l-0.1-0.4l-0.3,0.3
	l-0.6,2l-0.2,0.2l-0.1,0.1L15.4,16l-8.1,0l-0.8-0.6V6.1l0.8-0.5L6.9,5L6,4.4L5.2,5.1L5,5.1L3.7,5.1L3.6,2.6l0-0.1l0-0.1l0.1-0.1
	l0.7-0.4L4.3,1.4L2.7,1.2z M12.1,4.2h1.5v2.7h-1.5V4.2z M10.1,2h3.5v1.7h-1.1l-0.1,0l-0.9-0.5l-0.4-0.1v3.9h-1.1V2z M9.1,0.7v6.2
	L7.8,6.1v8.6l0.1,0.1l0.2,0.1l0.1,0l0.1,0l0.2-0.1l0.1-0.1l0.1-0.1l0.1-0.2l0-7h6.2v6.2l-0.2,0.1l-1.5-0.1l-0.4,0.1l0.4,0.3l1,0.3
	l0.2,0.1v0.5h0.3l0.5-0.1l0.3-0.2l0.2-0.2l0.1-0.3l0.1-0.4L16,7.9l0.8-0.5l-0.4-0.7l-0.2-0.3l-0.3-0.2l-0.1,0l-0.2,0l-0.1,0L14.6,7
	V2.4L15.4,2l-1.3-1.2l-0.6,0.8l-2.1,0.1c-0.5,0-0.6-0.1-1.1-0.2h-0.1L9.1,0.7z"/>
</svg>
