<?xml version="1.0" encoding="utf-8"?>
<!-- Generator: Adobe Illustrator 22.0.1, SVG Export Plug-In . SVG Version: 6.00 Build 0)  -->
<svg version="1.1" id="レイヤー_1" xmlns="http://www.w3.org/2000/svg" xmlns:xlink="http://www.w3.org/1999/xlink" x="0px"
	 y="0px" viewBox="0 0 18 18" style="enable-background:new 0 0 18 18;" xml:space="preserve">
<path d="M12.9,8.5h2.3v1.8h-2.3V8.5z M9.7,8.5H12v1.8H9.7V8.5z M12,6.3L12,8l-1.5,0.2l-0.2-0.1L10.1,8L9.3,7.5L8.9,7.4L8.8,11
	l0.1,0.3L9,11.4l0.1,0.1l0.1,0.1l0.1,0l0.1,0l0.1-0.1l0.1-0.1l0.1-0.1l0-0.2l0-0.3H12l0,1.8l0,0.1l0,0l-0.1,0L8.4,13l0.4,1.2
	l0.1,0.1l0.1,0.1l0.1,0l0.1,0l0.2-0.1L9.5,14l6-0.8l0.1,0.4l0.1,0.3L16,14l0.2,0.1l0.2,0.1l0.1,0l0.1,0l0.1-0.1l0.1-0.1l0.1-0.1
	l0.1-0.2l-0.3-0.7l-0.4-0.5l-1.3-1l-0.5-0.2l-0.3,0l0.8,0.9l0.2,0.4l0.1,0.2l-2.3,0v-2h2.2l0,0.3l0,0.1l0.1,0.1l0.1,0.1l0.1,0.1
	l0.2,0l0.1-0.1l0.1-0.1l0.1-0.3l-0.1-1.8L16,9l0.5-0.4l-0.4-0.7l-0.6-0.4L14.9,8l-0.3,0.1l-0.4,0L12.9,8l0-0.7l0.8-0.3l-0.2-0.4
	l-0.1-0.1L12,6.3z M7.6,3.4L8.8,5L8.9,5l0.3,0l0.2-0.1l0.1-0.1l0-0.1l0-0.3L9.5,4.3L9.4,4.2l-1-0.6L8,3.4L7.6,3.4z M9.4,2.1h5.5
	l-1.3,1.4l-0.9,0.7l-0.2,0.1l-0.4,0.1l-0.1,0l-0.3-0.1L9.6,2.5L9.4,2.2L9.4,2.1z M15.4,1.2l-0.3,0.4H8.3l0,0.3l0.1,0.2L9,2.2
	l1.6,2.2L11.4,5l-0.8,0.5c-1.3,0.8-1.9,1-2.9,1.2l-0.4,0L7,7.1l0.3,0l1.5-0.1l2.7-1.3l0.6-0.2L16,6.9l0.5,0l0.1-0.3l0.6-0.5l0.2-0.4
	L15,5.5L13,5l2.7-2.3l0.8-0.5l0-0.2l-0.6-0.7l-0.2-0.1L15.4,1.2z M11,2.3l1.1,1.4l0.1,0.1l0.2,0l0.1,0l0.2-0.2l0.1-0.3l0-0.1
	l-0.1-0.1l-0.1-0.2l-0.2-0.2l-0.5-0.3L11,2.3L11,2.3z M7.9,1.6l-1-0.9l-0.1,0L6.5,0.8L5.8,1.4L2.6,2.8L2.1,2.2L1.9,2.1l-0.1,0
	l-0.3,0v8.2l-0.3,3.3l-0.8,3.5l0.1,0l1-2l0.8-4l0-7.8L3.8,3v13.9l0,0.1L3.9,17L4,17.1l0.2,0l0.2,0L4.5,17l0.1-0.1l0.1-0.1l0.1-0.2
	l0-12.9l0.7-0.3l0-0.2L5.4,3L5.2,2.9L4.7,2.7L6,2.3v7.3l0.8,3.8l0.6,1.2l1,0.9c1.3,0.8,2.5,1.2,4.2,1.3l3.8,0l0.1-0.2l0.8-1.2
	l-3.8,0.3l-2-0.1c-1.2-0.2-1.9-0.5-2.8-1l-0.5-0.4L7.6,13C7.3,12.1,7.2,12,7,11L6.5,7.8L6.4,5.9l0-3.9l1.3-0.3L7.9,1.6z"/>
</svg>
