<?xml version="1.0" encoding="utf-8"?>
<!-- Generator: Adobe Illustrator 22.0.1, SVG Export Plug-In . SVG Version: 6.00 Build 0)  -->
<svg version="1.1" id="レイヤー_1" xmlns="http://www.w3.org/2000/svg" xmlns:xlink="http://www.w3.org/1999/xlink" x="0px"
	 y="0px" viewBox="0 0 18 18" style="enable-background:new 0 0 18 18;" xml:space="preserve">
<path d="M1,7.6l1.4,1.8l0.3,0.3l0.2,0.1l0.2,0l0.1,0l0.1-0.1l0.1-0.1l0.1-0.1l0.1-0.2L3.4,9L3.3,8.6L3.1,8.3L2.7,7.9L2.2,7.7L1,7.6z
	 M7,5.7l-4.1,6.8l-0.5,0.2H1.1v0.5l0.6,0l0.5,0.1l0.4,0.2l0.1,0.1l0.1,0.1l0.1,0.1l0,2.6l0.1,0.2L3,17l0.2,0.2l0.2,0.1l0.2,0l0.2,0
	l0.2-0.1l0.2-0.3l0-0.1l0-0.1l-0.4-2.4l0-0.4l3.3-8.1L7,5.7z M9,11.8h6.1V16H9V11.8z M9,7.5h6.1v3.8H9V7.5z M11.1,4.3l0,0.3
	l-0.1,0.6l-0.8,1.7L10.2,7L10,7.1l-0.2,0l-0.2,0L8.8,6.7L8,6.1V17l0.3,0.1l0.1,0l0.1,0l0.1,0L8.8,17l0.1-0.3L9,16.5h6.2v0.1l0,0.2
	l0.1,0.2l0.2,0.1l0.1,0l0.1,0l0.3-0.2l0.1-0.3l0-8.5L17,7.5l-0.4-0.7l-0.3-0.3L16,6.4l-0.1,0h-0.1h-0.2l-0.8,0.7l-0.1,0.1L11,7
	l1.2-1.7h0.5l0.1,0l0.1-0.1l0-0.1l0-0.1l0-0.1l-0.1-0.1l-0.1-0.1l-0.7-0.1L11.1,4.3z M2.6,4.4l0.2,0.2l1,1.7l0.2,0.2l0.2,0.1l0.2,0
	l0.1,0l0.1-0.1l0.1-0.1L5,6.4l0-0.1l0-0.2L4.7,5.4L4.3,5L4,4.7L3.6,4.6L2.6,4.4L2.6,4.4z M11.7,0.6l0,1.5l0,0.2l-0.1,0.1l0,0
	l-0.2,0.1L8.9,2.4v0.5h2.8l0,1l0.1,0.3l0.1,0.1L12,4.3l0.1,0l0.1,0l0.1,0l0.1-0.1L12.5,4l0.1-0.3l0.1-0.5l0-0.3h4.8L17,2l-0.4-0.4
	l-0.6-0.4l-1,1.1l-0.2,0.1l-0.4,0l-1.7-0.2V1.6l0.6-0.3l0-0.2l0-0.1l0-0.1l-0.1-0.1l-0.1,0L11.7,0.6z M5.3,0.6v1.8H0.5v0.5h4.8
	l0,1.5l0.1,0.3l0.1,0.1l0.1,0.1l0.1,0.1l0.2,0L6,4.8l0.1-0.1l0.1-0.3l0.2-1.6l0.1,0l2,0L8.2,2.2L8,2L7.9,1.8L7.4,1.6L6.8,2.3l-0.1,0
	l-0.1,0l-0.3,0V1.6L7,1.3L6.8,0.7L5.3,0.6z"/>
</svg>
