<?xml version="1.0" encoding="utf-8"?>
<!-- Generator: Adobe Illustrator 22.0.1, SVG Export Plug-In . SVG Version: 6.00 Build 0)  -->
<svg version="1.1" id="レイヤー_1" xmlns="http://www.w3.org/2000/svg" xmlns:xlink="http://www.w3.org/1999/xlink" x="0px"
	 y="0px" viewBox="0 0 18 18" style="enable-background:new 0 0 18 18;" xml:space="preserve">
<path d="M10.5,13.1l-0.1,1l-0.2,0.6l-0.6,1.1l-0.1,0.3l0,0.3l0.1,0.3l0.1,0.1l0.1,0.1l0.1,0l0.3-0.1l0.2-0.2l0.1-0.2l0.2-0.8v-2.5
	H10.5z M2.1,12.8l-0.2,1.3L1.6,15l-1,1l-0.1,0.1l-0.1,0.3l0,0.2l0.1,0.2L0.8,17l0.1,0.1l0.1,0l0.2,0L1.4,17l0.4-0.4l0.3-0.5l0.3-0.9
	l0.1-1l-0.1-1.3H2.1z M11.5,12.6l0,2.7l0,0.1l0.1,0.1l0.3,0.2l0.2,0l0.1,0l0.1-0.1l0.1-0.1l0.1-0.2l0.1-0.3l0-0.5l-0.8-2H11.5z
	 M4.1,12.6L4,13l0.1,0.8l0,0.3l-0.7,2.1l0.1,0.3l0.1,0.1l0.1,0.1l0.3,0.1l0.2,0l0.2-0.1l0.2-0.2l0.1-0.3l0.1-0.5v-1.5l-0.4-1.8H4.1z
	 M6,12.3L6.4,14v1.5l0.1,0.1l0.3,0.3L6.9,16l0.2,0l0.2,0l0.1-0.1l0.1-0.1l0.1-0.1l0.1-0.1l0-0.1l-0.1-0.6l-0.9-2.2l-0.2-0.2L6,12.3z
	 M7.9,12.2l0.7,1.4l0.3,1.3L9,15l0.2,0.1l0.2,0L9.6,15L9.7,15l0.1-0.3l-0.1-0.4l-0.4-0.8l-0.5-0.7l-0.5-0.5l-0.2-0.1L7.9,12.2z
	 M12.5,12l0.8,2.6l0.2,0.1l0.1,0l0.1,0l0.1-0.1l0.1-0.1l0.1-0.3l0-0.1l-0.1-0.5l-0.2-0.4l-0.9-1.2l-0.1,0L12.5,12z M13.6,11.5
	l0.4,0.7l0.3,1.3l0.1,0.2l0.2,0.1l0.1,0l0.1,0l0.1-0.1l0.1-0.1l0.1-0.1l0-0.1l0-0.1l-0.4-0.9l-0.5-0.5L14,11.5L13.6,11.5z M5,6.8
	l1.2,0v3.1H5V6.8z M4.2,5.7v5.3l0.3,0.1l0.2,0l0.2-0.1L4.9,11L5,10.9l0.1-0.3l0-0.3h1.2l0,0.3l0.1,0.1l0.2,0.1l0.2,0l0.1-0.1L7,10.7
	l0.1-0.1l0.1-0.4l-0.1-3l0.7-0.3L7.5,6.4L7.2,6.1L6.9,5.9L6.6,5.8L6,6.3L5.9,6.4l-0.2,0l-0.1,0l-1-0.6L4.2,5.7z M8,5.1v5.7L8.4,11
	l1.4,0.2l1-0.2l0.3-0.2l0.1-0.2l0-0.1l0-0.2l-0.1-0.1l-0.1-0.1H11h-0.1l0.1-1.6h-0.1l-0.9,1.8l-0.1,0.1l-0.2,0.1H9.4l-0.1-0.1
	l-0.1-0.1l-0.1-0.1L8.9,9.7L8.9,9.1l0-0.4L9,8.4l0.1-0.2l1-0.8l1.2-0.5l-0.1-0.2l-0.1-0.2L11,6.3l-0.2-0.2l-0.4-0.2L8.9,7.7V6.1
	l0.6-0.3l0-0.2l0-0.1l0-0.1L9.4,5.3L9.2,5.2L8,5.1z M2.3,5.1l0,1.6H0.6l0,0.3l0,0.2l0.1,0.1l1.7-0.1V9L0.6,9.8l0.1,0.9l0.1,0.2
	L0.9,11L1,11.1l1.4-1.5L2.3,11l0.1,0.2l0.1,0.1l0.1,0.1l0.1,0l0.1,0l0.1,0l0.1,0l0.2-0.1l0.1-0.1l0.1-0.1l0-5.1l0.6-0.3l0-0.2V5.5
	L3.8,5.4L3.7,5.3L3.5,5.2L2.3,5.1z M12.5,5l2.7,0v1.5h-2.7V5z M12.5,3l2.7,0v1.5h-2.7V3z M13.4,0.6L13,2.7l-1.4-0.8v9.2l0,0.2
	l0.1,0.1l0.1,0.1l0.2,0l0.2,0l0.1-0.1l0.1-0.1l0.1-0.1l0-0.3h3.3L15.6,14c-0.1,0.7-0.1,0.8-0.4,1.4l-0.1,0.2l-0.3,0.3l-0.1,0.1
	l-0.1,0l-1.5-0.1l-0.3,0.1l0.3,0.3l1.3,0.5v0.6l1.1-0.7l0.4-0.4l0.1-0.2l0.3-0.6l0.3-1.4l0.2-2.6l0.7-0.4l-0.7-0.9L16.5,10l-0.1,0
	l-0.1,0l-0.1,0l-0.6,0.5l-0.1,0l-3-0.1V9h5l-0.3-0.7l-0.3-0.3l-0.5-0.4l-0.8,0.8l-0.1,0.1l-0.3,0.1l-2.6,0V7h2.7l0,0.3l0.1,0.1
	l0.1,0.1l0.1,0l0.2,0l0.1-0.1L16,7.2l0.1-0.3l-0.1-3.3l0.6-0.3L15.6,2l-0.4,0.4L15,2.5l-0.2,0.1l-1.3-0.1l0.6-0.8l0.1-0.1l0.1,0h0.6
	L14.7,1L14.6,1l-0.4-0.2L13.4,0.6z M4.7,2.9h1.8v1.3H4.7V2.9z M3.9,0.6v1.6L3.8,2.4l0,0L3.7,2.4L3.5,2.5l-3-0.1v0.5l3.2-0.1l0.1,0
	l0,0l0,0.3l0,1.9L4,5.2l0.5,0l0.1-0.3l0.1-0.1l0.1,0l1-0.1l0.3,0L6.9,5l0.4,0.1l0.1-0.4l0-1.9H11l-0.3-0.7L9.9,1.4L9.1,2.2L8.9,2.3
	L8.7,2.4l-0.4,0L7.4,2.3l0-0.7L8,1.3L8,1L7.9,0.9L7.8,0.9L7,0.6l-0.3,0l-0.1,0L6.6,0.7L6.5,0.9l0,1.4H4.7L4.7,2.1V2l0-0.3l0-0.1
	l0.1-0.1l0.6-0.3L5.2,0.8L3.9,0.6z"/>
</svg>
