<?xml version="1.0" encoding="utf-8"?>
<!-- Generator: Adobe Illustrator 22.0.1, SVG Export Plug-In . SVG Version: 6.00 Build 0)  -->
<svg version="1.1" id="レイヤー_1" xmlns="http://www.w3.org/2000/svg" xmlns:xlink="http://www.w3.org/1999/xlink" x="0px"
	 y="0px" viewBox="0 0 18 18" style="enable-background:new 0 0 18 18;" xml:space="preserve">
<path d="M10.5,9.4v2H5.3v0.5h4.6l-2.2,2.5l-2.8,2l-0.3,0.3L5,16.6l0.4-0.1l1.6-0.8l2.4-1.9l1-1.1l-0.1,3.7l0.1,0.5l0.1,0.1l0.1,0.1
	l0.2,0.1l0.2,0l0.1,0l0.1,0l0.1-0.1l0.1-0.1l0.1-0.6l0-4.1l1.2,1.6l0.9,0.9l2.9,2l0.8-1.1l-2.1-0.9L14.4,14l-2.5-2.2h5.3l-0.3-0.6
	l-0.2-0.3l-0.2-0.2l-0.2-0.1l-0.1-0.1l-0.2,0l-0.2,0l-1.2,0.9l-0.3,0.1l-2.9-0.1l0-0.5l0.2-0.3l0.6-0.5V9.8l0-0.1l-0.1-0.1L10.5,9.4
	z M12.6,4l1.2,0l0,0.1v0.1L13.3,6l-0.7,0.8V4z M16.2,1L16,1.1l-0.5,0.6l-0.2,0.1l-3.9-0.2v0.5l2.1-0.1l0.2,0.1l0,0l0,0l0,0.2v1.1
	l-0.9,0l-0.8-0.5l-0.4-0.1v6l0.1,0.1L12,9l0.2,0l0.1,0l0.1-0.1l0.1-0.1l0.1-0.1l0.1-0.1V7.2l0.3-0.1l0.4-0.3l0.4-0.4L14,6l0.2-0.5
	l0.1-0.3l0.4,0.5l0.5,1.4l0.2,0.1l0.4-0.1L15.8,7l0.1-0.3l0-0.3l-0.1-0.3l-0.2-0.3l-1-0.9l0-0.1L14.7,4l1.2,0L16,7.5l-0.1,0.3
	l-0.1,0.1l-0.2,0.1l-0.3,0l-0.9-0.2l-0.3,0.1l0.2,0.3l0.6,0.2l0.5,0.4l0.2,0.1L15.8,9L16,8.9l0.3-0.1l0.3-0.2l0.2-0.3l0-4L17.5,4
	l-0.3-0.5l-0.3-0.3L16.6,3l-0.1,0l-0.1,0l-1,0.6l-0.3,0.1l-0.1,0l-0.1-0.1l-0.1-0.1l-0.1-0.1l-0.1-0.1l0.1-1l0.1-0.1l0.1,0l2.5,0.1
	l-0.1-0.3l-0.2-0.3l-0.3-0.3L16.6,1L16.4,1H16.2z M6.7,4l1.1,0l0,0.2c-0.2,1-0.5,1.8-1,2.7l0,0V4z M9.9,0.9L9.5,1.5L9.3,1.6L8.9,1.7
	L5.3,1.7v0.5l2.1-0.1l0.2,0.1l0.1,0l0,0l0,0.2v1.1L7,3.5L6.1,2.9L5.8,2.8v6l0.1,0.1L6.1,9l0.2,0l0.1,0l0.1-0.1l0.1-0.1l0.1-0.1
	l0-0.1l0-1.4l0.3-0.1l0.3-0.3l0.8-1l0.1-0.4l0-0.2h0.2l0.8,1.9l0.1,0.1l0.1,0l0.2-0.1l0.1-0.1l0.1-0.1l0-0.2l0-0.3L9.6,6.1L8.6,4.6
	V4L9.8,4l0.1,3.5L9.9,7.7L9.8,7.8L9.7,7.8L9.6,7.9l-0.3,0L8.3,7.8L8,7.9l0.2,0.3l0.6,0.2l0.5,0.4l0.2,0.1L9.7,9l0.2-0.1l0.3-0.1
	l0.3-0.2l0.2-0.3l0-4L11.4,4L11,3.5l-0.2-0.2l-0.6-0.4L9.6,3.4L9.3,3.6L9,3.6l-0.1,0L8.8,3.5L8.7,3.5L8.6,3.4L8.6,3.2l0.1-1l0-0.1
	l0.1-0.1l0.1,0l2.4,0.1l-0.1-0.3l-0.2-0.3l-0.3-0.3L10.3,1L10.1,1L9.9,0.9z M2.5,0.8l0,4.1l0,0.1l-0.1,0l-1.9,0v0.5h1.9v4.1l-2,0.3
	l0.4,1.4L1,11.3l0.3,0.1L1.4,11l0.2-0.2l0.8-0.4l0.1,4.8l-0.1,0.2l-0.1,0.1l-0.2,0.2l-1.7-0.2v0.1l1.2,0.7l0.2,0.7l0.4,0l0.4-0.1
	l0.4-0.2l0.2-0.2l0.1-0.2L3.4,16l0.1-6l2-1.3l0-0.1L3.5,9.1V5.4h2.2L5.3,4.7L5,4.4L4.5,4L3.6,4.9l-0.1,0L3.4,2.2l0-0.2l0-0.1
	l0.1-0.1l0.7-0.4L4.1,1L2.5,0.8z"/>
</svg>
