<?xml version="1.0" encoding="utf-8"?>
<!-- Generator: Adobe Illustrator 22.0.1, SVG Export Plug-In . SVG Version: 6.00 Build 0)  -->
<svg version="1.1" id="レイヤー_1" xmlns="http://www.w3.org/2000/svg" xmlns:xlink="http://www.w3.org/1999/xlink" x="0px"
	 y="0px" viewBox="0 0 18 18" style="enable-background:new 0 0 18 18;" xml:space="preserve">
<path d="M9.4,12.5l0.6,2.5l0.3,0.1l0.1,0l0.1,0l0.2-0.1l0.1-0.1l0-0.3l0-0.4l-0.2-0.4l-0.3-0.5L10,12.8L9.4,12.5L9.4,12.5z
	 M6.8,12.5l-0.6,3l0.1,0l0.4-0.6l0.8-1.6L8,13.2l-0.1-0.3l-0.1-0.1l-0.1-0.1L6.8,12.5z M3.3,9.6l-0.1,3l0.1,1.2l0.1,0.1L3.5,14
	l0.2,0.1L4,13.9l0.1-0.1l0-3.2l0.3-0.1l0.3-0.2V10L4.7,9.9L4.7,9.9L4.5,9.8L3.3,9.6z M9.7,7.3l-2.2,3.4l-0.1,0l-1.1,0l0.3,1.2
	l0.3,0.5L7,11.6l1.1-0.3V17l0.1,0.1l0.3,0.1l0.1,0l0.1,0l0.1-0.1L9,17.1v-5.9l1.1-0.2l0.1,0.5l0.1,0.2l0.1,0.1l0.1,0.1l0.1,0l0.1,0
	l0.1-0.1l0.1-0.1l0-0.1l0-0.3l-0.1-0.3l-0.3-0.5l-0.6-0.6L9.8,9.7L9.4,9.6l0.4,0.9L8,10.7l0,0l2.2-2.3l0.1,0L11,8.2l-0.1-0.4
	l-0.1-0.1l-0.1-0.1l-0.6-0.3L9.7,7.3z M12.4,13.9l1.4,0v2.2h-1.4V13.9z M12.4,11.2l1.4,0v2.2l-1.4-0.1V11.2z M12.4,8.5l1.4,0v2.2
	l-1.4-0.1V8.5z M12.4,5.3l-0.8,2.4l-1.1,2.4l0.1,0.1l0.7-0.5l0.3-0.4v7.6l0.1,0.2l0.1,0.1l0.2,0.1l0.1,0l0.2-0.1l0.1-0.1l0-0.1
	l0.1-0.6h5l-0.1-0.2l-0.4-0.7l-0.3-0.2l-0.2,0l-0.2,0.1L15.5,16l-0.2,0.1l-0.7,0v-2.2H17l-0.2-0.5l-0.2-0.3L16,12.6l-0.7,0.7
	l-0.1,0.1h-0.2l-0.3-0.1v-2.2H17l-0.3-0.6l-0.3-0.4L16.3,10h-0.1h-0.1l-0.1,0l-0.9,0.7l-0.4-0.1V8.5H17l-0.3-0.6l-0.2-0.2L16,7.3
	l-0.3,0.2l-0.5,0.5L15,8h-0.7L15,6.7l0.2-0.2l0.1-0.1l0.5-0.1l-0.1-0.3l-0.2-0.3L15,5.5l-0.2-0.1l-0.2,0l-0.2,0.1L13.8,8l-1.4-0.1
	l0-0.1l0.5-1.2l0.3-0.4l0.1-0.1l0.3-0.1l0-0.3l-0.1-0.1l-0.4-0.3l-0.5-0.2L12.4,5.3z M8.6,5.3L7.7,7.8L6.6,7.3L6.5,7.3l1.2,2.1H8
	l0.2,0l0.1-0.1l0.1-0.1l0.1-0.3V8.7L8.2,8.3L8,8l0.9-1.5l0.3-0.2l0.1-0.1l0.4-0.1l0-0.3L9.6,5.7L9.1,5.4L8.7,5.3H8.6z M13.6,1.8h2
	v2.4h-2V1.8z M10.8,1.8h2v2.4h-2V1.8z M7.9,1.8h2v2.4h-2V1.8z M7.1,0.6L7,4.8l0.1,0.4l0.1,0.1l0.1,0.1l0.1,0.1l0.1,0l0.1,0l0.1-0.1
	l0.1-0.1l0.1-0.1L8,5l0-0.3h7.6L15.6,5l0.1,0.1l0.1,0.1l0.1,0.1l0.1,0l0.1,0l0.1-0.1l0.1-0.1l0.1-0.3V2.4l0.8-0.5L16.7,1l-0.3-0.2
	l-0.2-0.1l-0.2,0l-0.1,0l-0.1,0l-0.5,0.6H8.2l-0.1,0L7.9,1.2L7.5,0.7L7.4,0.6L7.1,0.6z M2.6,3.6H5v4.7H2.6V3.6z M3.6,0.7L3.2,3.3
	L1.7,2.5v6H0.5l0,0.3l0.3,1.1L1,10.1l0.1,0.1l0.3,0.1V9.6h0.3l-0.1,3.1l-1,4.2l0.1,0l0.7-1.1L2,14.6c0.4-1.5,0.6-2.6,0.6-4.2l-0.1-1
	L5,8.8v6.9l-0.3,0.1l-1.1-0.3H3.2l-0.3,0.1L3.1,16l1.3,0.6v0.5h0.2L5.1,17l0.3-0.2l0.2-0.2l0.2-0.3l0.1-0.4l0.1-7.3l0.5,0l0.1,0
	l0.1-0.1l0.2-0.3l-0.9,0V4l0.7-0.3L6.1,3L5.9,2.8L5.7,2.7L5.3,2.6L4.8,3L4.5,3.1l-0.8,0l0.8-1.5l0.1,0l0.2-0.1l0.4-0.1L5.1,1.2
	l0-0.1L5,1.1L4.9,1L3.8,0.6L3.6,0.7z M3,4.7l0.2,0.4l0.3,1.4l0,0.7l0.2,0.1l0.1,0l0.1,0l0.2,0l0.1-0.1l0.2-0.2l0.1-0.2l0-0.1l0-0.1
	L4.2,5.9L3.5,4.9L3.4,4.8L3,4.7z"/>
</svg>
