<?xml version="1.0" encoding="utf-8"?>
<!-- Generator: Adobe Illustrator 22.0.1, SVG Export Plug-In . SVG Version: 6.00 Build 0)  -->
<svg version="1.1" id="レイヤー_1" xmlns="http://www.w3.org/2000/svg" xmlns:xlink="http://www.w3.org/1999/xlink" x="0px"
	 y="0px" viewBox="0 0 18 18" style="enable-background:new 0 0 18 18;" xml:space="preserve">
<path d="M6.3,11.6l0,1.4H0.6v0.5h5.8l-0.5,1.1L5.6,15l-1,0.8l-3,1l-0.2,0.4l0.3,0.1l2.8-0.6L5.9,16l0.6-0.5l0.4-0.7l0.4-1.2l3.4,0
	l-0.1,3l0.2,0.7l0.1,0.1l0.1,0l0.1,0l0.1-0.1l0.1-0.1l0.1-0.1l0.2-0.8l0-2.7h5.7l-0.2-0.6l-0.4-0.4l-0.3-0.2l-0.2-0.1l-0.2,0l-0.1,0
	l-1,0.8l-0.4,0.1l-3-0.1v-0.4l0.7-0.4L12.3,12l-0.6-0.3l-1-0.1V13H7.3v-0.4L8,12.2l-0.2-0.3l-0.1-0.1l-0.2-0.1L6.3,11.6z M6.2,7.8
	L6.5,8l1,1.7l0.1,0.1l0.1,0.1l0.1,0l0.2-0.1l0.1-0.2V9.2l0-0.1L7.9,8.6L7.4,8.1L7,7.8L6.6,7.7L6.2,7.8L6.2,7.8z M11.9,6.5h2.3l0,0.2
	L13.8,8l-0.5,0.7L11.9,7l-0.1-0.2V6.5z M11.9,4.3l-0.3,1.1L9.8,8.7l0.1,0.1l1-0.7l0.9-1l0.2,0.7l0.9,1.4l-0.1,0.1l-3,1.7l-0.3,0.5
	l0.4,0l3.6-1.5l3.4,1.6l0.1-0.3l0.4-0.6l0.1-0.3l-1-0.1l-1.8-0.6L14,9.3l0.5-0.6l0.7-2l0-0.1h1.9V6.2l-0.8-0.9l-0.2-0.1l-0.1,0
	l-0.1,0l-1.1,0.9l-0.3,0.1L12.1,6l0.5-0.6l0.1-0.1l0.1,0l0.6,0l-0.2-0.5l-0.1-0.1l-0.4-0.2L11.9,4.3z M2.2,10.1l0-3h2.8l-0.1,3.6
	L5,11.3L5,11.4l0.1,0.1l0.1,0.1l0.2,0l0.1-0.1l0.1-0.1l0.1-0.2l0.1-0.3L5.8,7.1h2.7l0.1,3.1l-0.1,0.2l-0.1,0.1l-0.2,0.2l-1.6-0.1
	v0.1l1.7,0.9l0.3,0.1l0.2,0l0.2-0.1l0.2-0.1l0.1-0.1l0.1-0.4l0.1-3.1l0.5-0.4L9.7,6.9l0.2,0l0.2-0.1l0.1-0.2l0-0.1l0-0.2l0-0.2
	l-0.2-0.4L10,5.7L7.7,4.6L7.4,4.8L7.7,5l1.7,1.6l-0.1,0L8.8,6.3H8.6L7.9,6.6l-2.1,0V5.3l0.7-0.4L6.4,4.7L6.3,4.5L6.1,4.4L4.9,4.3
	v2.3L2.6,6.7L2.3,6.6L2.2,6.4L2.1,6.4l0-0.1V6.2l1-0.6l0.4-0.1l0.3-0.1L3.7,5L3.6,4.9L2.8,4.5l-0.2,0l-0.1,0L0.6,7l0.1,0.1l0.7-0.3
	L1.3,11l0.1,0.4l0.1,0.1l0.1,0.1l0.1,0.1l0.3,0L2,11.5l0.2-0.1V10.1h0.3l0.1,0L4,8.7l0.2-0.4h0.4V7.9l0-0.1L4.5,7.7L4.2,7.6L3.9,7.5
	H3.8l-0.2,0L2.2,10.1z M11.6,0.7l0,1.6H9l0,0.3l0.1,0.1l0.1,0.1l0.1,0.1l0.1,0l2.2-0.1l-0.1,0.5l0.1,0.5l0.1,0.1L11.8,4L11.9,4
	l0.1,0L12.2,4l0.1-0.1l0.1-0.1l0.1-0.2l0.1-0.2l0-0.6h4.9l-0.4-0.7l-0.9-0.7l-1,0.9l-0.1,0l-0.3,0.1l-2.2-0.1V1.7l0.6-0.3l0-0.2
	l0-0.1l0-0.1l-0.1-0.1l-0.1,0L11.6,0.7z M5.4,0.7l0,1.6H0.4v0.5h5L5.3,3.2l0,0.3l0.1,0.2l0.1,0.1L5.6,4l0.1,0.1l0.1,0l0.1,0l0.2-0.1
	l0.1-0.1l0.1-0.2l0.1-0.9v0l0.1,0l2.2,0L8.6,2.4L8.3,2L8.1,1.8L7.5,1.5L7,2.2L6.8,2.3l-0.1,0l-0.3,0V1.7L7,1.4l0-0.2l0-0.1l0-0.1
	L6.9,0.9l-0.1,0L5.4,0.7z"/>
</svg>
