<?xml version="1.0" encoding="utf-8"?>
<!-- Generator: Adobe Illustrator 22.0.1, SVG Export Plug-In . SVG Version: 6.00 Build 0)  -->
<svg version="1.1" id="レイヤー_1" xmlns="http://www.w3.org/2000/svg" xmlns:xlink="http://www.w3.org/1999/xlink" x="0px"
	 y="0px" viewBox="0 0 18 18" style="enable-background:new 0 0 18 18;" xml:space="preserve">
<path d="M9.5,5.3v2.5H6.2l0-0.1l0.6-1l0.1-0.1l0.1,0h0.3V6.2L5.7,5.6L5.1,7.7l-1,2.5l0,0.4h0.1l1.7-2.3h3.6V11h-6v0.5h5.4l-2.1,2.2
	l-3.9,2.8l0,0.1l0.3,0c1.3-0.2,2.4-0.8,3.5-1.7l2.8-2.4l-0.1,3.9L9.5,17l0.1,0.1l0.2,0.1l0.2,0l0.2,0l0.2-0.1l0.1-0.1l0.1-0.1
	l0.1-0.4l0-4.6l0,0.1l3,2.9l3.1,1.7l0.7-1.2L17,15.3c-1.6-0.4-2.5-0.8-3.9-2L11,11.5h5.9l-0.4-0.7l-0.4-0.5L15.6,10l-0.2,0l-1,1.1
	l-0.1,0L10.5,11V8.3h5.1l-0.1-0.2l-0.3-0.6l-0.3-0.4l-0.6-0.4l-0.8,1l-0.1,0.1l-0.2,0.1l-2.6,0l-0.1-0.4l0-0.5l0.1-0.2l0.1-0.1
	l0.2-0.1L11.3,6l-0.1-0.5L9.5,5.3z M3,1.8h11.8v2.4H3V1.8z M2,0.6v8.5l-0.4,3.4l-1,3.4l-0.1,0.2l0.1,0.4l0.1,0l0.9-1.2l0.9-2.5
	L3,9.6L3.1,7L3,4.7h11.9l0,0.3L15,5.2l0.2,0.1l0.2,0.1l0.3-0.1l0.1-0.1L15.8,5l0-2.6L16,2.3l0.7-0.4l-0.4-0.7L16,1l-0.4-0.3l-0.2,0
	l-0.1,0l-0.1,0.1l-0.1,0.1l-0.4,0.5H3.3l-0.1,0L2.5,0.7L2.4,0.6l-0.1,0H2z"/>
</svg>
