<?xml version="1.0" encoding="utf-8"?>
<!-- Generator: Adobe Illustrator 22.0.1, SVG Export Plug-In . SVG Version: 6.00 Build 0)  -->
<svg version="1.1" id="レイヤー_1" xmlns="http://www.w3.org/2000/svg" xmlns:xlink="http://www.w3.org/1999/xlink" x="0px"
	 y="0px" viewBox="0 0 18 18" style="enable-background:new 0 0 18 18;" xml:space="preserve">
<path d="M10.2,12.9l0.1,0.7l-0.1,0.6l-0.9,1.5l0,0.1l0,0.2l0.1,0.1l0.2,0.2l0.1,0.1l0.1,0l0.2,0l0.1-0.1l0.2-0.2l0.1-0.2l0.2-0.7
	v-2.5H10.2z M11.3,12.5l0.2,0.3v0.1l-0.2,2.4l0.2,0.1l0.2,0l0.1,0l0.1-0.1l0.2-0.2l0.2-0.2l-0.5-2.3l-0.1-0.2l-0.1,0L11.3,12.5z
	 M12.4,12.1l0.6,2.5l0.1,0.1l0.2,0.1l0.1,0l0.1,0l0.1-0.1l0.1-0.1l0.1-0.1l0-0.1l0-0.4l-0.1-0.4l-0.8-1.3l-0.1-0.1l-0.1,0L12.4,12.1
	z M13.6,11.7l0.7,2l0.4,0.1l0.2,0l0.1-0.1l0.1-0.1l0-0.3L15,12.8l-0.3-0.5L14.3,12L13.6,11.7L13.6,11.7z M5,10l0,1.5l0,0.2l0,0.1
	l-0.1,0.1L4.7,12l-3.8-0.2v0.5h3.7l-1.1,1.3L0.7,16l-0.2,0.3l0.3,0.1l0.3,0l0.2,0L2,15.9L5,13.3l0,3.7l0.1,0.1l0.1,0.1l0.2,0l0.2,0
	l0.2-0.1l0.1-0.1L6,17l0.1-0.5l0-3.1l0.3,0l2.5,1.8l0.2,0l0.3-0.1L9.4,15l0.1-0.1l0-0.2l0-0.2l-0.3-0.4l-0.4-0.3
	C8,13.2,7.3,13,6.4,12.9l-0.3,0l0-0.6h4.4l-0.3-0.7l-0.3-0.3l-0.6-0.4l-0.8,0.8l-0.2,0.1l-0.5,0.1l-1.7-0.2V11l0.6-0.3l0-0.2l0-0.1
	l0-0.1l-0.1-0.1l-0.1,0L5,10z M0.6,3.6l1.3,1.8h0.4l0.2-0.1l0.1-0.1L2.6,5l0-0.2l0-0.1l0-0.1L2.5,4.4L2,4L1.3,3.6L1,3.5L0.6,3.6z
	 M4.7,2.5L2,7.4L0.7,7.2l-0.1,0L0.5,7.3l0,0.2l0.1,0.3L1,7.7l0.5,0.1l0.3,0.1L1.9,8L2,8.2l0.1,0.2l0,0.2l-0.3,1.6l0.1,0.2l0.4,0.4
	l0.1,0.1l0.2,0l0.1,0l0.2-0.1L3,10.6l0.1-0.2l0.1-0.2l0-0.3L2.8,8.1l0-0.1l2-4.9L4.7,2.5z M1.4,1.3l0.1,0.3l1,1.3L2.5,3l0.1,0l0.1,0
	l0.1,0L3,3l0.1-0.1l0.1-0.1l0.1-0.1l0-0.4L3,2L2.8,1.7L2.6,1.5L2.2,1.3L1.7,1.2L1.4,1.3z M5.9,4.4h2.9v2.2H5.9V4.4z M9.3,0.8
	L8.8,1.5L8.7,1.5L8.3,1.6L4.5,1.6V2L5,2v7.1H4.4l-0.1,0L4.2,9.2L4.2,9.3v0.3h6.6L10.5,9l-0.2-0.3L10,8.5l-0.1,0l-0.1,0l-0.1,0
	L8.8,9.1L8.4,9.1l-2.5,0v-2h2.9l0,0.3l0.1,0.2L9,7.6l0.1,0l0.1,0l0.1,0l0.2-0.1l0.1-0.3l0-2.5l0.6-0.4L9.8,3.7L9.5,3.5L9.4,3.4
	l-0.2,0l-0.2,0L8.6,3.7L8.1,3.9H5.9V2h4.7l-0.1-0.2l-0.2-0.4l-0.2-0.2L9.8,0.9L9.5,0.8L9.3,0.8z M12,5.1h2.9v1.5H12V5.1z M12,3.1
	h2.9v1.5H12V3.1z M13.1,0.7l-0.4,2.2L11.2,2v9.4l0.1,0.2l0.1,0.1l0.2,0.1l0.1,0l0.2-0.1l0.1-0.1l0.1-0.1l0-0.6h3.6l0,0.8
	c0,1.5-0.2,2.6-0.5,3.5l-0.2,0.3l-0.3,0.3l-0.4,0.2l-0.2,0l-1.6-0.4L12,15.7l0.4,0.4l0.4,0.2l1,0.3v0.6l1-0.3l0.7-0.4l0.3-0.3
	l0.4-0.7l0.2-0.8l0.3-3.4l0.1-0.1l0.1,0l0.5-0.3l-0.6-0.9l-0.3-0.3l-0.1,0l-0.1,0l-0.7,0.6l-0.1,0l-0.3,0.1L12,10.5V9h5.5l-0.3-0.7
	L16.9,8l-0.2-0.2l-0.1,0h-0.2l-1,0.8L15,8.6l-3-0.1V7.1h2.9L15,7.4L15,7.5l0.1,0.1l0.1,0.1h0.1l0.2-0.1l0.2-0.1l0.1-0.1l0-3.9
	l0.7-0.3l-0.3-0.5l-0.2-0.2l-0.2-0.1l-0.2-0.1l-0.3-0.1l-0.1,0l-0.6,0.4l-0.1,0l-1.3-0.1l0.6-1l0.1-0.1l0.4-0.1L14.2,1l-0.1-0.2
	L13.1,0.7z"/>
</svg>
