<?xml version="1.0" encoding="utf-8"?>
<!-- Generator: Adobe Illustrator 22.0.1, SVG Export Plug-In . SVG Version: 6.00 Build 0)  -->
<svg version="1.1" id="レイヤー_1" xmlns="http://www.w3.org/2000/svg" xmlns:xlink="http://www.w3.org/1999/xlink" x="0px"
	 y="0px" viewBox="0 0 18 18" style="enable-background:new 0 0 18 18;" xml:space="preserve">
<path d="M2.8,4.4h12.4v11.7H2.8V4.4z M1.8,3.2v14l0.3,0.1l0.1,0l0.1,0l0.1,0l0.1-0.1l0.1-0.3l0.1-0.3h12.4v0.1l0,0.2l0.1,0.2
	l0.2,0.1l0.1,0l0.1,0l0.3-0.2l0.1-0.3l0-11.7l0.8-0.5l-0.4-0.7l-0.4-0.4L16,3.3l-0.2,0l-0.1,0l-0.1,0.1l-0.2,0.2l-0.2,0.4h-12L3,3.9
	L2.3,3.3L2.2,3.2l-0.1,0H1.8z M10.7,4.6L12,6.2l0.1,0.1l0.1,0l0.1,0l0.1-0.1L12.6,6l0-0.1l0-0.2l-0.1-0.1l-0.2-0.2l-0.6-0.4L11,4.7
	L10.7,4.6z M9.6,10.9h3v1.5h-3V10.9z M5.5,10.9h3v1.5h-3V10.9z M9.6,8.9h3v1.5h-3V8.9z M5.5,8.9h3v1.5h-3V8.9z M8.5,4.7l0,1.8H3.3
	v0.5h5.2v1.5l-0.2,0l-2.6,0l-0.1,0L4.9,7.7L4.5,7.6v8.1l0.1,0.1l0.2,0.1l0.1,0l0.2,0l0.2-0.1l0.1-0.1l0.1-0.1l0.1-0.3v-2.3h3l0,2.2
	l0.1,0.5l0.1,0.1l0.1,0.1l0.1,0.1l0.1,0l0.1,0l0.1-0.1l0.1-0.1l0.1-0.1l0.1-0.3l0-2.3h3l0,1.4l-0.1,0.3l-0.1,0.2l-0.9-0.2h-0.5
	l-0.3,0.1L11,15l0.3,0h0.1l0.1,0.1l0.3,0.2l0.2,0.2l0,0.1v0.4l0.8-0.1l0.3-0.2l0.2-0.2l0.2-0.3l0.1-0.4l0.1-5.5L14.2,9l-0.7-1
	l-0.2-0.1l-0.1,0l-0.1,0l-0.8,0.6l-0.1,0l-2.6,0V6.9h5.3l-0.3-0.6l-0.3-0.4l-0.1-0.1l-0.1,0l-0.1,0l-0.1,0l-0.9,0.6l-0.4,0.1
	L9.6,6.5V5.7l0.6-0.3l-0.1-0.5L8.5,4.7z M11.7,0.7l0,1.4l-0.1,0.1l-0.2,0L9.1,2.2v0.5h2.5l-0.1,0.3v0.3l0.1,0.2l0.1,0.1l0.1,0.1
	L12,3.7l0.1,0l0.1,0l0.1,0l0.2-0.2l0.1-0.2l0.1-0.1l0-0.6h4.9l-0.4-0.8l-0.3-0.4L16.2,1l-0.7,0.9l-0.2,0.2l-0.3,0.1l-0.5,0.1
	l-1.6-0.2V1.7l0.7-0.4L13.2,1L13.2,1l-0.2-0.1L11.7,0.7z M5.4,0.7l0,1.4H0.5v0.5h4.9L5.4,2.9v0.3l0.1,0.2l0.1,0.1l0.1,0.1l0.1,0.1
	l0.1,0l0.2-0.1l0.1-0.1l0.1-0.1l0.1-0.3l0-0.6h2.3L8.7,2.4L8.5,2L8.3,1.8L7.7,1.4L6.9,2.2l-0.1,0H6.7L6.4,2.2V1.7L7,1.4l0-0.2l0-0.1
	L7,1L6.9,1L6.7,0.9L5.4,0.7z"/>
</svg>
