<?xml version="1.0" encoding="utf-8"?>
<!-- Generator: Adobe Illustrator 22.0.1, SVG Export Plug-In . SVG Version: 6.00 Build 0)  -->
<svg version="1.1" id="レイヤー_1" xmlns="http://www.w3.org/2000/svg" xmlns:xlink="http://www.w3.org/1999/xlink" x="0px"
	 y="0px" viewBox="0 0 18 18" style="enable-background:new 0 0 18 18;" xml:space="preserve">
<path d="M8.7,11.9h3.5v1.7H8.7V11.9z M7.7,10.8l-0.1,3.4l0.1,0.3l0.1,0.1l0.1,0.1L8,14.8l0.1,0l0.2,0l0.2-0.1l0.2-0.2l0.1-0.1l0-0.2
	V14h3.5l0,0.3l0.1,0.2l0.1,0.1l0.1,0.1l0.2,0.1l0.2-0.1l0.2-0.1l0.1-0.3l0.1-2l0.2-0.1l0.3-0.3l-0.6-0.7l-0.4-0.2l-0.1,0l-0.1,0
	L12,11.4l-0.1,0l-3-0.1L7.7,10.8z M12,9l-0.6,0.7H7.7v0.5h5.6L13,9.6l-0.3-0.3l-0.3-0.2L12.2,9L12,9z M12,7.4l-0.6,0.7H7.7v0.5h5.6
	L13,8l-0.3-0.3l-0.3-0.2l-0.3-0.1L12,7.4z M12.9,5.6l-0.7,0.9H7.1V7h7.1l-0.4-0.7l-0.4-0.4l-0.2-0.2l-0.1-0.1L12.9,5.6z M11.4,4.2
	L10.6,5l-0.1,0l-0.3,0L8.3,4.8v0.6h4.4l-0.3-0.7L12,4.4l-0.3-0.2l-0.2-0.1H11.4z M1.9,3.3h2.9v8.8H1.9V3.3z M0.8,1.9v13L0.9,15
	l0.2,0l0.1,0l0.2,0l0.2-0.1l0.1-0.1l0.1-0.1l0.1-0.3l-0.1-1.8h2.9l0,0.3l0,0.2l0.1,0.1l0.1,0.1l0.1,0l0.2,0l0.2-0.1l0.2-0.1l0.1-0.2
	l0-0.1l0-9.2l0.8-0.4L5.3,2.1L5,2.2L4.4,2.8l-0.1,0l-0.3,0l-2-0.2L0.8,1.9z M8.2,0.7L7.3,3.9L5.9,7.2l0.3-0.1L6.3,7l0.2-0.2l1.9-3.2
	h6.9l0,6.7l-0.4,3.6l-0.4,1.5l-0.2,0.3l-0.2,0.2l-0.1,0.1l-0.3,0.1l-2.5-0.2v0.1l2.1,0.8v0.5h0.3l0.6-0.2l0.4-0.2l0.4-0.4l0.7-1.6
	l0.5-2.7l0.3-5.3l-0.1-2.5l0-0.1l0.1-0.1l0.1-0.1l0.7-0.4L16.7,3l-0.2-0.2l-0.4-0.3l-0.2,0l-0.1,0l-0.1,0.1l-0.1,0.1l-0.4,0.5H8.6
	l0.6-1.5l0.7,0L9.8,1.3L9.7,1.1L9.5,0.9L8.9,0.7l-0.4,0L8.2,0.7z"/>
</svg>
