<?xml version="1.0" encoding="utf-8"?>
<!-- Generator: Adobe Illustrator 22.0.1, SVG Export Plug-In . SVG Version: 6.00 Build 0)  -->
<svg version="1.1" id="レイヤー_1" xmlns="http://www.w3.org/2000/svg" xmlns:xlink="http://www.w3.org/1999/xlink" x="0px"
	 y="0px" viewBox="0 0 18 18" style="enable-background:new 0 0 18 18;" xml:space="preserve">
<path d="M6.3,11.2l-0.6-0.7L5.2,10l-0.1,0.1L5.6,11l0.4,2.3l0.3,0.5l0.4,0.1l0.4-0.3L7.1,13l-0.2-0.8L6.3,11.2z M1.5,10.1l-0.1,1.2
	l-0.6,2.5l-0.4,1.2l0.1,0l0.9-1.2l1.1-2.6l0.3,0l0.3-0.3L3,10.6L1.5,10.1z M9,13.5h2.9v2.4H9V13.5z M9,10.6h2.9V13H9V10.6z M9,7.7
	h2.9v2.4H9V7.7z M9.3,7.3L9.3,7.3l0.6-1.1l0.7-0.1V5.8l-0.1-0.2L9.1,5.1L8,8L7.2,9.4l-1.1,1.4l0.1,0.1l0.7-0.3l0.7-0.4L8,9.3v7.6
	l0.2,0.3h0.4l0.3-0.1L9,16.8v-0.5h8.4l0.2-0.2l-0.1-0.3L16.3,15l-0.9,0.9h-2.5v-2.3h3.9l0.3-0.2L17,13.1l-0.8-0.7l-0.5-0.3L14.8,13
	h-1.9v-2.3h4l0.3-0.2L17,10l-1.3-0.8l-0.8,0.9h-2V7.8h4.2l0.2-0.3l-0.2-0.3L16,6.3l-1,1h-2.6l0.7-1.2l0.6-0.3l-0.2-0.4l-1.2-0.3
	l-0.7,2.2H9.3z M2.8,8.3l3.4-3.9l0.8,0L7,3.9L5.8,3.1L5.4,3L3.9,5.9L2.3,8.3L1.4,8.4L0.5,8.3l0.2,1.4L0.9,10l0.3-0.1l0.4-0.6
	l1.9-0.4l0,7.8l0.2,0.1h0.4l0.3-0.2l0.1-7.9l1.3-0.3l0.4,1l0.4,0.1l0.3-0.2L7,8.9L6.9,8.3L6.5,7.7L5.7,6.9L5,6.7L4.9,6.7l0.7,1.1
	l0.1,0.3L2.8,8.3z M2.6,4.7l1.9-3l0.7-0.2l0.1-0.4L4.2,0.6H3.9L2.3,4.4L2.1,4.3L0.6,3.7L0.6,3.8l0.6,0.4l0.6,1.1l0.1,0.6l0.2,0.3
	l0.4,0.2H3L3.2,6l0-0.4L2.9,5L2.6,4.7z M11.8,0.5l0,3.5H8.6l0-1.6L9,2.2L9.3,2l0-0.4L7.7,1.3v3.7L8,5.2h0.4l0.2-0.1l0.1-0.3l0-0.4
	h7.3V5l0.3,0.1h0.3L16.7,5l0.1-0.3V2.3L17,2.2L17.4,2l0.1-0.4L16,1.3V4h-3.2V1.5l0.6-0.4l0-0.3L11.8,0.5z"/>
</svg>
