<?xml version="1.0" encoding="utf-8"?>
<!-- Generator: Adobe Illustrator 22.0.1, SVG Export Plug-In . SVG Version: 6.00 Build 0)  -->
<svg version="1.1" id="レイヤー_1" xmlns="http://www.w3.org/2000/svg" xmlns:xlink="http://www.w3.org/1999/xlink" x="0px"
	 y="0px" viewBox="0 0 18 18" style="enable-background:new 0 0 18 18;" xml:space="preserve">
<path d="M0.4,10.6l0.4,0.7l0.6,2.2l0.2,0.3L1.9,14L2,14l0.2,0l0.2-0.1l0.1-0.1l0-0.1v-0.1l-0.1-0.4l-0.6-1.5l-0.3-0.4l-0.3-0.3
	l-0.3-0.2L0.4,10.6z M5.5,10.2l-1.1,4l0.1,0.1L4.7,14l1.4-2.7l0.1-0.1l0.1-0.1L6.7,11l-0.2-0.5L5.5,10.2z M14,10.3h1.7v3.3H14V10.3z
	 M13.1,9.1l-0.1,5l0.1,0.4l0.1,0.1l0.1,0.1l0.1,0.1l0.1,0l0.1,0l0.1-0.1l0.1-0.1l0.1-0.1l0.1-0.2l0-0.3h1.6l0,0.3l0,0.1l0.1,0.1
	l0.1,0.1l0.1,0l0.1,0l0.2-0.1l0.1-0.1l0-3.9l0.3-0.1l0.4-0.2l-1-1.1l-0.9,0.8L15.1,10l-0.4,0L14,9.6l-0.5-0.5H13.1z M9.8,10.3h1.5
	v3.3H9.8V10.3z M9,9.1L8.8,14l0.1,0.6l0.2,0.2l0.1,0.1l0.1,0l0.1,0l0.1,0l0.1-0.1l0.1-0.1l0.1-0.2l0-0.3h1.5l0,0.3l0,0.1l0.1,0.1
	l0.1,0.1l0.1,0l0.1,0l0.2-0.1l0.1-0.1l0-3.9l0.3-0.1l0.4-0.2l-1-1.1l-1,0.9l-0.1,0l-0.3,0l-0.3-0.1L9.8,9.6L9.3,9.1H9z M11.3,4.2
	l2.7,0v2.9h-2.7V4.2z M10.3,2.9l-0.1,4.6L10.3,8l0.1,0.1l0.1,0.1l0.1,0.1l0.2,0l0.1,0L11,8.1l0.1-0.2l0.1-0.3H14v0.1l0,0.2l0.1,0.1
	L14.2,8l0.1,0.1l0.2,0L14.7,8l0.2-0.1L15,7.7l0.1-0.4l0-2.8l0.6-0.3L14.6,3l-0.3,0.2l-0.5,0.6l-0.3,0.1l-0.9,0.1l-0.6-0.1L10.3,2.9z
	 M15.8,0.6l-0.9,1.1H8.3l-0.1,0L8,1.5L7.6,1L7.4,1L7.2,1v16.1l0.3,0.1l0.1,0l0.1,0l0.1,0l0.1-0.1l0.1-0.3l0.1-0.3h9.4l-0.3-0.7
	l-0.4-0.5l-0.2-0.1l-0.2-0.1l-0.2,0l-0.1,0L16,15.3l-0.2,0.1l-0.5,0.7H8.2V2.2h9.1l-0.1-0.3l-0.9-1.1L16,0.7L15.8,0.6z M3.2,0.6
	L1.6,4.8L0.4,7.1l0.1,0.1l1.2-0.8l0.1,0l1.4,0.1l0,1.9L3.1,9l0,0.1L3,9.1L2.8,9.2L0.6,9.1v0.5h2.5v5.1L0.6,15L1,16.8l0.2,0.1l0.2,0
	L2,15.9l4.5-1.2l0.2-0.4L4,14.7l-0.1-4.4L4,9.7l0-0.1l0.2-0.1l2.4,0.1V9.2L5.6,8.3L5.1,8.9L4.9,9L4.7,9.1L4,9.1L3.9,6.8L4,6.4l0-0.1
	l0,0l0.1,0h1.9V6L5.5,5.4L5.2,5.2L5,5.2L4.1,5.9L4,5.9l-0.2,0L1.9,5.8l2-3.6l0.8,0.6l1.3,1.7l0.4,0.2l0.1,0l0.1,0l0.1-0.1l0.1-0.2
	l0-0.1V4.3L6.7,3.8L6.5,3.4L6.2,3L5.5,2.5L4.2,1.9l0.2-0.3l0.1,0l0.3,0V1.2L4.7,1.2L4.6,1.1L4.5,1L4.2,1L3.2,0.6z"/>
</svg>
