<?xml version="1.0" encoding="utf-8"?>
<!-- Generator: Adobe Illustrator 22.0.1, SVG Export Plug-In . SVG Version: 6.00 Build 0)  -->
<svg version="1.1" id="レイヤー_1" xmlns="http://www.w3.org/2000/svg" xmlns:xlink="http://www.w3.org/1999/xlink" x="0px"
	 y="0px" viewBox="0 0 18 18" style="enable-background:new 0 0 18 18;" xml:space="preserve">
<path d="M1.9,3.6h1.7v8.1H1.9V3.6z M12.5,5.6l0.6-0.1l1.4,0l0,0.9l-0.9,5l-0.1-0.1c-0.2-0.3-0.2-0.4-0.3-0.8l-0.6-3.8L12.5,5.6z
	 M8.1,3.6h1.6L8.7,5.6L8.6,5.6L8.1,5.8V3.6z M5.3,3.6L5.3,3.6l0.1,0.1l0.1,0l1.6-0.1v2H4.7v0.5h3.5L7.4,7.7L6.9,8L6.7,8.1L6.3,8.2
	L5.5,8.1l0,0.6l0.8,0l-1.6,1.9l0,0.1l0.3-0.1l2.7-1.9l0.2-0.1l1.5,0.1l-1,1.5l-0.1,0.1l-0.5,0.1V12l-3,0.5l0.1,0.3l0.6,1.4L5.6,14
	l0.5-0.7l0,0l0.3-0.1l1.3-0.2l0,2.8l0,0.1L7.6,16l-0.1,0H7.4l-1.8-0.3l-0.5,0.1l0.4,0.4l1.4,0.5l0.2,0.1l0,0.5l0.1,0.1l0.1,0
	l0.4-0.1L8.2,17l0.2-0.2l0.2-0.2L8.7,16l-0.1-3.4l2.3-0.7l0.4,0l0.1-0.1l0.2-0.4l-3,0.4v-0.4l0.6-0.3l-0.1-0.4l-0.1-0.1l-0.2-0.1
	l-0.2,0l0.1-0.2l0.8-0.8l0.9-0.5L11.3,9L11,8.4l-0.8-0.8L9.6,8.1L9.4,8.2l-1.4,0v0L8,7.9l1.6-1.7l0.1-0.1l0.1,0l1.7,0.1l-0.7,1.9
	l0.1,0.1L12,6.7l0,0.2l0.4,3.9l0.5,1.5l-0.9,1.6l-2.6,3l-0.2,0.3l0,0.1l0.3-0.1l1-0.7l1.8-1.9l0.9-1.3l1.7,2.4
	c0.4,0.4,0.5,0.5,1,0.9l0.1,0.1l0.2,0.1l0.2-0.2l0.1-0.4l0.4-0.5l-1.3-1L15,13.8L14,12.3l0-0.1v-0.1l1-3.1l0.5-3.6h1.7l-0.3-0.7
	l-0.4-0.5L16.1,4L15.9,4l-0.1,0l-1.1,1l-0.1,0l-0.1,0l-1.6-0.1l0.8-3.2h0.6l0-0.3l0-0.2l-0.1-0.1L13,0.6l-0.2,0l-1,5.1l-1-0.9
	l-0.7,0.7l-0.2,0L11,3.4l0.1-0.3L11.4,3l0.2-0.1l0.2-0.3l0-0.2l-0.2-0.1L10.6,2l-0.3-0.1l-0.2,1L10,3.1L9.2,2.3L8.5,3.1L8.4,3.2
	l-0.1,0H8.1V1.7l0.7-0.4L8.7,0.9L8.6,0.9L8.4,0.8L7.1,0.6l0,2.5h-2L5.3,3.6L5.3,3.6L4.1,2.4L3.2,3.2l-0.1,0l-0.7,0L2.1,3.1l-0.1,0
	L1.2,2.4L0.8,2.3v12.4l0.5-0.1l0.3-0.1l0.1-0.1l0.1-0.1l0.1-0.2l0-0.3l-0.1-1.5h1.7l0,0.3l0,0.2l0.1,0.1l0.1,0.1L3.9,13l0.1,0
	l0.1-0.1l0.3-0.3l0.1-0.2l0-8.4L5.3,3.6z"/>
</svg>
