<?xml version="1.0" encoding="utf-8"?>
<!-- Generator: Adobe Illustrator 22.0.1, SVG Export Plug-In . SVG Version: 6.00 Build 0)  -->
<svg version="1.1" id="レイヤー_1" xmlns="http://www.w3.org/2000/svg" xmlns:xlink="http://www.w3.org/1999/xlink" x="0px"
	 y="0px" viewBox="0 0 18 18" style="enable-background:new 0 0 18 18;" xml:space="preserve">
<path d="M9.2,10.5h5.8v5.3H9.2V10.5z M8.2,9.3v7.9l0.1,0.1l0.2,0.1l0.1,0l0.1,0l0.1,0L9,17.2l0.2-0.2l0-0.1l0-0.6h5.9l0,0.3l0,0.2
	l0.1,0.1l0.1,0.1l0.2,0.1l0.1,0l0.1-0.1l0.2-0.1l0.1-0.2l0.1-0.1l0-5.4l0.8-0.5l-0.4-0.7L16,9.5l-0.2-0.1h-0.3l-0.1,0l-0.1,0.1
	l-0.2,0.2L14.9,10H9.5l-0.1,0L8.6,9.4L8.5,9.3l-0.1,0H8.2z M2,4.8l-0.4,2L0.6,8.6l0,0.2L0.7,9l0.1,0.2l0.2,0.1l0.2,0.1l0.2,0l0.2,0
	l0.2-0.1l0.2-0.2L2,9l0.3-1l0.1-1.3L2.3,4.8H2z M3.6,0.9v7L3.1,12l-0.8,2l-1.8,2.7l0,0.1l0.3-0.1l0.7-0.4l0.8-0.8
	C3.2,14.3,3.5,13.6,4,12L4,11.8l0.1,0l0.4,0.3l0.3,0.4l1.2,2.3l0.1,0.1l0.2,0.1l0.2,0.1l0.2,0l0.2,0l0.2-0.1l0.1-0.1l0.1-0.2
	l0.1-0.1v-0.2v-0.1l-0.3-0.6L6.6,13l-2.1-1.5l-0.1-0.1l0-0.1l-0.1-0.3L4.5,8l0.1-0.3l0.2-0.3l1.8-2.1l0.8-0.6l0.4-0.1L7.7,4.1
	L6.3,3.3L4.6,6.7L4.5,2.5l0-0.3l0-0.1L4.6,2l0.7-0.4L5.2,1.1L3.6,0.9z M11,0.7L8.5,6.8l-1.2,0l0.4,1.7l0.1,0.1l0.3,0l0.1-0.3
	l0.1-0.1l0.3-0.2l7-1.4l0.4,1l0.5,0.7l0.3,0.2l0.2,0l0.1,0l0.1-0.1l0.1-0.1l0.1-0.1L17.4,8l0-0.1l-0.2-0.8l-0.6-1L15,4.7l-0.6-0.3
	l-0.1,0l-0.4,0l1.3,1.6l0,0.2L9.1,6.8l3-4.9l0.8-0.1l-0.1-0.3l-0.1-0.1l-0.8-0.5L11,0.7z"/>
</svg>
