<?xml version="1.0" encoding="utf-8"?>
<!-- Generator: Adobe Illustrator 22.0.1, SVG Export Plug-In . SVG Version: 6.00 Build 0)  -->
<svg version="1.1" id="レイヤー_1" xmlns="http://www.w3.org/2000/svg" xmlns:xlink="http://www.w3.org/1999/xlink" x="0px"
	 y="0px" viewBox="0 0 18 18" style="enable-background:new 0 0 18 18;" xml:space="preserve">
<path d="M10.7,13.7l0.2-0.2l1.5,0.2l0,0.2l-0.1,0.2l-0.1,0.2l-0.1,0.2l-0.1,0.1l-0.2,0.1l-0.2,0h-0.1l-0.1-0.1l-0.2-0.1L11,14.4
	l-0.1-0.1L10.7,14L10.7,13.7z M5,14.4l0.1-0.2l0-0.1l0.2-0.5L5.6,13l0.3-0.4l0.3-0.3l0.2-0.1L6.6,12l0.1-0.1v0.1l-0.2,0.6l-0.4,0.9
	l-0.2,0.3l-0.2,0.3l-0.2,0.2l-0.2,0.1l-0.2,0.1L5,14.4z M11.1,1.4l0.4,0.4l-0.6,2L7.4,5.1V3.4L7.2,3.1L7,3.2L7,3.3L6.6,5.4L4.8,6.1
	L4.6,6.2L4.5,6H4.1l0.4,1.2l2.3-0.8l0.5,0.8h0.3L7.7,7V6.3L7.5,6.1L10,5.2L9.8,5.6L7.9,8.2L7.8,8.4L7.5,9.7l-0.2,0.7l-0.5,0.4
	l-1.6,1.6l-0.8,1.1L4.3,14l0,0.3l0,0.2l0,0.2l0.1,0.2l0.1,0.2l0.2,0.2L5,15.5l0.1,0.1l0.3,0.1l1.4-1.8l0.3-0.6l0.5-1.6l0.1-0.5
	L8,10.9l1.9-1.3l1.4-0.7l0.9-0.3l0.4,0L12.8,9L13,9.5l0,0.7l-0.1,1.1L12.6,13l-0.1,0L11,12.8l-0.2,0l-0.2,0.1L10.4,13l-0.3,0.2
	l-0.3,0.2l-0.1,1l0.3,0.3l0.2,0.2l0.3,0.3l0.4,0.2l0.3,0.1l0.3,0l0.3,0l0.3-0.1l0.4-0.3l0.5-0.4l0.3-0.3h0.3l0.3,0.3l0.4,0.3
	l0.4,0.3l0.2,0.1l0.1,0.1h0.2l0.2-0.3v-0.6l-1.8-1.1l0.1-0.1l0.1-0.4l0.1-1l0.2-2.1l0-0.6L14,9l-0.1-0.3l-0.1-0.3l-0.1-0.3L13.4,8
	L13,7.8l-0.3,0L11.8,8l-1.1,0.5L8.1,10L8,10.1l0.3-1.8L8.6,8l1-0.8l0.7-0.7l1-1.3l0.2-0.3l0.2-0.3l2.8-0.7l0.2-0.2V3.2l-0.2-0.3
	h-0.3l-0.2,0l-1.5,0.5h-0.1l0.4-1.4L11.1,1.4L11.1,1.4z"/>
</svg>
