<?xml version="1.0" encoding="utf-8"?>
<!-- Generator: Adobe Illustrator 22.0.1, SVG Export Plug-In . SVG Version: 6.00 Build 0)  -->
<svg version="1.1" id="レイヤー_1" xmlns="http://www.w3.org/2000/svg" xmlns:xlink="http://www.w3.org/1999/xlink" x="0px"
	 y="0px" viewBox="0 0 18 18" style="enable-background:new 0 0 18 18;" xml:space="preserve">
<path d="M4.7,7.9L5,8.2l1.3,1.1L8,11.7l0.2,0.1l0.2,0.1L8.6,12l0.3,0h0.2L9.4,12l0.3-0.1l0.1-0.2l0.1-0.3l0-0.3l-0.1-0.5l-0.1-0.4
	L9.5,9.9L9.3,9.7L9.2,9.5L8.7,9.2L7.8,8.7L6.5,8.2L5.4,7.9l-0.1,0L4.7,7.8V7.9z M7.7,6.1l0.3,0.2l3.9,3.1l0.1,0l0.1,0l0.4,0l0.9-0.2
	l0.1-0.5V8.6l0-0.4l-0.1-0.4l-0.3-0.4L12.5,7l-0.3-0.2l-0.8-0.3L9.7,6.1L9,6l-0.6,0H8.2L7.7,6.1L7.7,6.1z"/>
</svg>
