<?xml version="1.0" encoding="utf-8"?>
<!-- Generator: Adobe Illustrator 22.0.1, SVG Export Plug-In . SVG Version: 6.00 Build 0)  -->
<svg version="1.1" id="レイヤー_1" xmlns="http://www.w3.org/2000/svg" xmlns:xlink="http://www.w3.org/1999/xlink" x="0px"
	 y="0px" viewBox="0 0 18 18" style="enable-background:new 0 0 18 18;" xml:space="preserve">
<path d="M1.9,11l3.3,0v3.8H1.9V11z M1.9,6.7l3.3,0v3.8H1.9V6.7z M1.9,2.4l3.3,0v3.8H1.9V2.4z M0.9,1v15.9L1,17l0.1,0h0.1l0.1,0
	l0.1-0.1l0.2-0.2l0.1-0.2L2,16.2l0-0.3l-0.1-0.6h3.4l0,0.3l0.1,0.3L5.4,16L5.5,16l0.3,0L6,15.9l0.1-0.1l0.1-0.1l0.1-0.1l0-12.6
	l0.8-0.5L6.6,1.7L5.8,1.2L5.5,1.4L4.9,1.9L4.7,2L4.5,2L2.1,1.7L0.9,1z M8.8,1l0.1,14.9L9,16.3l0,0.1l0.2,0.2l0.4,0.3l4.7,0.1
	l2.1-0.3l0.4-0.1l0.1-0.1l0.1-0.1l0-0.2l0-0.1l-0.5-0.4l0.1-2.7l-0.1-0.5h-0.1l-0.7,2.8l-0.1,0.1l-0.1,0.1l-0.4,0.3l-0.4,0.2
	l-4.6-0.1l-0.2-0.2v-7l5.6-3l0.7-0.2V4.9l-1.2-0.7l-4.2,3.2L9.9,7.9V2.2l0.8-0.5l-0.1-0.5L8.8,1z"/>
</svg>
