<?xml version="1.0" encoding="utf-8"?>
<!-- Generator: Adobe Illustrator 22.0.1, SVG Export Plug-In . SVG Version: 6.00 Build 0)  -->
<svg version="1.1" id="レイヤー_1" xmlns="http://www.w3.org/2000/svg" xmlns:xlink="http://www.w3.org/1999/xlink" x="0px"
	 y="0px" viewBox="0 0 18 18" style="enable-background:new 0 0 18 18;" xml:space="preserve">
<path d="M10.8,13l4.1,0v3.1h-4.1V13z M10.8,9.4l4.1,0v3.1h-4.1V9.4z M1.8,3.7h2v8.5h-2V3.7z M9.2,6.1l0.2-0.2V5.6L7.9,4.9L7.8,5.4
	l-2.2,5l-0.8,1.2V4.2l0.8-0.5L5.2,3L4.4,2.5L4.1,2.7L3.6,3.1L3.4,3.2l-0.1,0l-0.2,0L2.1,3.1L1.2,2.5L0.8,2.3v13l0.1,0.1l0.1,0.1
	l0.1,0l0.2,0l0.1-0.1l0.1-0.1l0.1-0.1l0.1-0.2v-2.3h2l0,0.2l0,0.3L4,13.5l0.1,0.1l0.3,0.1l0.1,0l0.1-0.1l0.1-0.1l0.1-0.1l0-0.2
	l0.1-1.3l0.7-0.3l0.3-0.3l0.5-0.6l0.5-0.9v7.3l0.1,0.1l0.1,0l0.3,0.1l0.1,0l0.1-0.1l0.1-0.1l0.1-0.3l0-7.9l0.4-0.3V8.4l0-0.2l0-0.1
	L8.1,8L7.9,8L7.9,8l0.9-1.6L9.2,6.1l0,0.5h3l-0.7,2.4l-0.4,0l-0.1,0l-0.9-0.7l-0.4,0V17l0,0.1l0.1,0.1l0.1,0.1l0.2,0l0.1,0l0.1-0.1
	l0.1-0.1l0.1-0.2l0.1-0.3l4.1-0.1l0,0L15,17l0.1,0.1l0.1,0l0.2,0l0.1-0.1l0.1-0.1l0.1-0.3l0-6.7l0.8-0.5L16,8.5l-0.3-0.2l-0.1,0
	l-0.1,0l-0.1,0l-0.7,0.5l-0.4,0.1l-2.2,0l1.3-2.3l0.1-0.1l0.4-0.1l3.4,0.1l-0.4-0.7l-0.6-0.6l-0.1-0.1l-0.2,0l-0.8,0.9H9.2z
	 M10.7,0.7v2.5H7.2V2.5H6.8v0.2L6.6,3.9L6.4,4.1l-1,1L5.4,5.2l0.1,0.5l0.1,0.1L5.7,6l0.1,0.1l0.1,0l0.1,0l0.3-0.1L6.5,6l0.3-0.3
	l0.2-0.3l0.2-0.7l0.1-1h8l-0.7,1.8h0.4l0.9-1l0.4-0.3l1-0.3l-0.4-0.7l-0.4-0.5l-0.1-0.1l-0.3-0.1L15,3.2l-0.3,0.1l-3-0.1V1.7
	l0.7-0.4L12.2,1l-0.1-0.1L12,0.9L10.7,0.7z"/>
</svg>
