<?xml version="1.0" encoding="utf-8"?>
<!-- Generator: Adobe Illustrator 22.0.1, SVG Export Plug-In . SVG Version: 6.00 Build 0)  -->
<svg version="1.1" id="レイヤー_1" xmlns="http://www.w3.org/2000/svg" xmlns:xlink="http://www.w3.org/1999/xlink" x="0px"
	 y="0px" viewBox="0 0 18 18" style="enable-background:new 0 0 18 18;" xml:space="preserve">
<path d="M13.7,13.3l2.3,2.9l0.2,0.1l0.2,0.1l0.2,0l0.3-0.1l0.1-0.1l0.1-0.1l0.1-0.2l0-0.2l0-0.2l-0.1-0.2l-0.1-0.3l-0.4-0.5
	l-1.8-1.2L13.7,13.3L13.7,13.3z M8.7,13.2l-0.9,1.5l-1.4,1.5l-0.2,0.3l0.1,0.1l0.3-0.1l2.7-2l0.3-0.1h0.7L10.1,14l-0.8-0.6L9,13.3
	L8.7,13.2z M13.6,7.7L10,11.1l-0.8,0.6l-0.4,0.1l-1.6,0l0.5,1.6L8.2,13l0.2-0.1l3-0.3l-0.1,4.1l0.1,0.4l0,0.1l0.1,0.1l0.1,0.1l0.2,0
	l0.1,0l0.1,0l0.1-0.1l0.1-0.3l0.1-0.8l-0.1-3.7l3.2-0.5l0.1,0.3l0.1,0.2l0.1,0.1l0.2,0.2l0.2,0.1l0.2,0l0.1,0l0.1-0.1l0.1-0.1
	l0.1-0.1l0-0.1l0-0.2L16.8,12l-0.2-0.4l-0.4-0.4l-1-0.6l-0.5-0.2l-0.5,0l1,1.2l-5.1,0.3l3.7-2.9l1-0.2V8.6l0-0.1l-0.1-0.1L13.6,7.7z
	 M0.5,2.5l0.2,0.4l0.6,2.3l0.1,0.3l0.1,0.1l0.1,0.1l0.1,0.1l0.1,0l0.2,0l0.1-0.1l0.1-0.1l0.1-0.2L2.4,4.7L2.1,3.8L1.8,3.3L1.4,2.9
	L0.5,2.5L0.5,2.5z M5.8,2.3L4.9,5.8L5,5.9l0.3-0.2l1.5-2.3l0.6-0.1L7.3,2.9L7.2,2.7L7.1,2.7L6,2.3L5.8,2.3z M3.1,0.9v5.8H0.5l0,0.3
	l0.1,0.2l0.1,0.1L1,7.2l2.2-0.1l0,0.2C2.9,8.4,2.9,8.6,2.5,9.6l-1.9,4.2l0.4-0.1l0.2-0.1l0.2-0.1l0.2-0.3l1.6-2.8V17L3.3,17l0.3,0.1
	l0.2,0l0.1-0.1L4,17l0.1-0.3l0-7.2l0.1,0.1l1.8,2l0.1,0.1l0.1,0l0.1,0l0.1,0l0.3-0.2l0.1-0.1l0.1-0.2l0-0.2l-0.2-0.4l-0.3-0.4
	L5.5,9.5L4.2,8.9l0-1.5l0.1-0.3l0,0l0.1,0L4.5,7l2.6,0.1L6.8,6.5L6.6,6.2L6.4,6.1L6,5.9L5.3,6.5L5,6.6l-0.9,0L4.1,2.3l0.1-0.2L4.2,2
	l0.7-0.4V1.3l0-0.1L4.8,1.1L3.1,0.9z M11.4,0.7v2.5H7.5v0.5h3.9v2H8.2V5L7.9,5L7.8,5l0,0.1l0,1l-0.4,1L7.2,7.3L6.6,7.6l0,0.3l0,0.1
	l0.2,0.3l0.1,0.1L7,8.5l0.2,0l0.2-0.1l0.2-0.1l0.2-0.2L8,7.9l0.2-0.5l0-1.2h3.1L9.9,8.5L9.1,8.1L8.7,8.1L8.3,8.1l1.8,2.2l0.1,0.1
	l0.1,0l0.1,0l0.1,0l0.1-0.1l0.1-0.1l0.1-0.1l0-0.2l-0.6-1.2l0.4-0.5l1.2-1.1l0.2-0.1l0.6-0.1l0-0.4l-0.4-0.3l-0.4-0.1h-0.1V6.2
	l3.8,0l-0.6,1.6L15,7.8l1.6-1.3l0.9-0.1l-0.1-0.2l-0.4-0.7l-0.3-0.3l-0.1-0.1l-0.2,0l-0.2,0l-0.6,0.4l-0.3,0.1l-2.9,0v-2h4.3L16.3,3
	l-1-0.7l-0.5,0.5l-0.5,0.4L14,3.3l-0.5,0.1l-1.1-0.2V2.3L12.5,2l0.1-0.1l0.6-0.5L13,0.9L11.4,0.7z"/>
</svg>
