<?xml version="1.0" encoding="utf-8"?>
<!-- Generator: Adobe Illustrator 22.0.1, SVG Export Plug-In . SVG Version: 6.00 Build 0)  -->
<svg version="1.1" id="レイヤー_1" xmlns="http://www.w3.org/2000/svg" xmlns:xlink="http://www.w3.org/1999/xlink" x="0px"
	 y="0px" viewBox="0 0 18 18" style="enable-background:new 0 0 18 18;" xml:space="preserve">
<path d="M3.1,0.9l0.1,3.4L3.1,4.9L3,5L2.8,5.1L0.5,5v0.5h2.5v4L0.5,10l0.1,0.6l0.5,1L1.5,12l0.1-0.4l0.1-0.2l0.1-0.2L2,10.9l0.3-0.2
	l0.3-0.1l0.3,0h0.1l0.1,4.9l-0.1,0.3L3,15.9l-0.1,0l-0.1,0l-1.9-0.4l-0.3,0.1l0.2,0.3l1.7,0.7v0.5h0.3L3.3,17l0.3-0.2l0.2-0.2
	l0.2-0.3L4.1,16l0.1-6l2.5-1.2V8.7H6L4.1,9.2L4,6l0.1-0.4l0-0.1l0.1,0l0.2-0.1l2.3,0.1L6.4,4.8L6.1,4.5L5.5,4L4.6,5L4.1,5L4,2.3
	l0-0.2l0-0.1L4.2,2l0.7-0.4L4.8,1L3.1,0.9z M8,7.6h3v2.7H7.7L8,7.6z M12,4.4h3v2.7h-3V4.4z M10.1,3.9L10.1,3.9l0.3-0.3l0-0.2
	l-0.3-0.9L9.6,1.9l-1.1-1L8.2,0.8H7.6l0.9,0.9l1.1,2.2l0.1,0.1H7.1v0.5H11v2.7L8.8,7.3l-0.3,0l-0.1,0l-1-0.8L7.1,6.4l-0.6,4.9l0,0.1
	l0.1,0.1l0.1,0.1l0.1,0.1l0.1,0l0.2-0.1l0.1-0.1l0.1-0.1l0.1-0.2l0.1-0.3h2.8l-2,2.3l-3.6,2.6l-0.3,0.3l0.3,0.1l0.4-0.1l0.6-0.2
	l1-0.6l2.9-2.3l1.3-1.3l-0.1,4.9l0.2,0.4l0.1,0.1l0.1,0.1l0.2,0l0.2,0l0.1-0.1l0.1-0.1l0.1-0.3l0-6h3.6V11l-0.2,2.7L15,14.4
	l-2.1-0.4l-0.6,0.1l0.3,0.3l0.5,0.3l1.1,0.3v0.5l0.4,0.1l0.5-0.1l0.3-0.1l0.3-0.3l0.3-0.4l0.2-0.6l0.3-2.6l0.1-0.1l0.1-0.1l0.5-0.3
	L17,10.2L16.7,10l-0.3-0.2l-0.1,0l-0.1,0l-0.8,0.6l-0.1,0l-0.3,0.1L12,10.4V7.6h3l0,0.2L15.1,8l0.1,0.2l0.2,0.1l0.2,0.1l0.1,0
	l0.1-0.1l0.1-0.1L16,8.1L16,7.9L16,5l0.1-0.1l0.7-0.4l-0.4-0.7l-0.9-0.6l-0.3,0.2l-0.6,0.6L14.5,4L13,3.9l0.7-1.1l0.6-0.7l0.1-0.1
	l0.1-0.1l0.2,0l0.5,0l-0.1-0.5l-0.1-0.1l-1.2-0.6l-0.2,0l-1.2,3.2H10.1z"/>
</svg>
