<?xml version="1.0" encoding="utf-8"?>
<!-- Generator: Adobe Illustrator 22.0.1, SVG Export Plug-In . SVG Version: 6.00 Build 0)  -->
<svg version="1.1" id="レイヤー_1" xmlns="http://www.w3.org/2000/svg" xmlns:xlink="http://www.w3.org/1999/xlink" x="0px"
	 y="0px" viewBox="0 0 18 18" style="enable-background:new 0 0 18 18;" xml:space="preserve">
<path d="M15.9,6l-0.8,1H7.6v0.5h1.9l0.2,2.2c0,1.6-0.1,2.4-0.6,3.9l-0.3,0.7l-2.2,2.6l-0.2,0.4L6.7,17l0.6-0.4l1.2-1.2l0.9-1.1
	l0.8-1.3l0.5-1.7l0.1-1.6l-0.2-2.3h1.8l0.1,8.4l0.1,0.5l0.1,0.1l0.3,0.1l4,0.1l0.4-0.2l0.1-0.1l0.1-0.1l0-0.1v-0.1v-0.1l-0.7-2.3
	L16.6,13h-0.4l0,1.6L16,15.2l-0.1,0.2l-0.1,0.1l-0.3,0.1l-1.4,0.1l-0.4-0.1l-0.2-0.1l-0.2-0.1L13.2,15l0-7.6h3.9l-0.8-1.2L16.1,6
	L15.9,6z M14.4,1.3l-0.7,1H8.5v0.5h7.4l-0.6-0.9l-0.5-0.5l-0.1-0.1L14.4,1.3z M4.4,8.5l1.4,0v2H4.4V8.5z M2,8.5l1.4,0v2L2,10.5V8.5z
	 M4.4,6h1.4v2H4.4V6z M2,6h1.4v2L2,8V6z M3.4,0.6v2.7H0.7l0,0.3l0,0.2l0.1,0.1l0.1,0l2.5-0.1v1.6l-1.1,0l-0.1,0L1.4,5L1,4.9v6.8
	l0.1,0.1l0.2,0.1l0.1,0l0.1,0l0.1-0.1l0.1-0.1l0.2-0.2l0-0.1L2,11l1.3,0.1l0.1,1.7L3.4,13l0,0.1l-0.1,0.1l-0.2,0.1L0.7,13v0.5h2.7
	l0.1,3.6H4l0.1,0l0.2-0.2l0.1-0.1l0.1-0.5l0-2.7h3.5l-0.1-0.3l-0.1-0.3l-0.2-0.3l-0.7-0.6l-0.6,0.8L6,13L5.7,13l-0.4,0l-1-0.1v-2
	h1.4l0,0.3l0,0.2l0.1,0.2L6,11.7l0.1,0.1h0.1l0.1,0l0.2-0.1l0.3-0.3L6.9,11L6.8,6.4l0.5-0.3L6.9,5.3L6.8,5.2L6.3,5L5.7,5.4L5.5,5.5
	l-0.3,0L4.4,5.5l0-1.4l0-0.2l0.1-0.1l0.2-0.1l3,0.1L7.6,3.5L7,2.6L6.7,2.5L6.5,2.4L6.1,2.9L5.9,3.1L5.8,3.2L5.5,3.3l-1.1,0V1.7
	l0.1,0l0.1,0l0.1-0.1l0.1-0.2V1.2l0-0.1L4.8,1L4.7,0.9L4.6,0.8L3.4,0.6z"/>
</svg>
