<?xml version="1.0" encoding="utf-8"?>
<!-- Generator: Adobe Illustrator 22.0.1, SVG Export Plug-In . SVG Version: 6.00 Build 0)  -->
<svg version="1.1" id="レイヤー_1" xmlns="http://www.w3.org/2000/svg" xmlns:xlink="http://www.w3.org/1999/xlink" x="0px"
	 y="0px" viewBox="0 0 18 18" style="enable-background:new 0 0 18 18;" xml:space="preserve">
<path d="M6.5,1.4l0.8,1l0.6,1.6L8,4.2l0.2,0.1l0.1,0.1l0.2,0l0.1,0l0.1-0.1l0.1-0.1l0.1-0.1L9,3.9l0-0.2L9,3.4L8.8,3L8.4,2.4L8,2.1
	L6.5,1.4L6.5,1.4z M1.8,10.4h2.4v3.5H1.8V10.4z M1.8,6.5h2.4v3.5H1.8V6.5z M1.8,2.5h2.4V6H1.8V2.5z M0.8,1.2V16l0.1,0.1L1,16.1
	l0.1,0l0.3-0.1L1.6,16l0.1-0.1l0.1-0.1l0.2-1.4l0,0l0,0l2.3,0.1l-0.1,0.2l0,0.2L4.2,15l0.1,0.1l0.1,0.1l0.1,0.1l0.1,0l0.1,0l0.2-0.1
	L5.1,15l0.1-0.3l0-11.7L6,2.6L5.6,1.9L4.8,1.3L3.9,2.1L3.8,2.1L3.1,2.2L2.4,2.1L2,2L1.1,1.4L0.8,1.2z M8.2,10.8h5.6v1.3H8.2V10.8z
	 M8.2,9h5.6v1.3H8.2V9z M8.2,7.2h5.6v1.3H8.2V7.2z M14.1,1l-1.2,3.6H7L7,4L6.6,4L6.5,4.8L6.5,5.1L6.3,5.3l-1,1l0.1,0.4l0,0.1L5.6,7
	l0.2,0.1l0.1,0l0.2,0L6.3,7l0.2-0.2l0.1-0.2L6.8,6l0.2-1h8.1l-0.6,1.3l-0.1-0.1l-0.1,0L14,6.3l-0.5,0.4H8.4l-0.1,0L8,6.5L7.6,6
	L7.5,6L7.2,6v7.1l0.1,0.1l0.3,0.1l0.2-0.1l0.1-0.1L8,13.1l0.2-0.5l1.1,0.1l0,0.1l-0.4,0.9l-0.7,1l-0.8,0.8l-0.7,0.4l-2.9,1l-0.2,0.4
	L4,17.3h0.1l2.7-0.8l1.8-1l0.7-0.7L9.8,14l0.5-1.4l1.4,0.1l0,2.9l0.1,0.7l0.2,0.2l0.5,0.3l1.7,0.3l2.6-0.1l0.3-0.1l0.1-0.1l0.1-0.2
	v-0.2l-0.1-0.1l-0.5-0.5l0.1-1.9l-0.1-0.4l-0.3,0.3l-0.4,1.6l-0.1,0.3l-0.1,0.2l-0.2,0.1l-0.4,0.1l-2.3,0l-0.1-0.2l0-0.2l0.1-2.9h1
	v0.2l0,0.1l0.1,0.2l0.2,0.1l0.2,0l0.1-0.1l0.2-0.2l0.1-0.2l0.1-0.3l-0.1-4.7l0.7-0.3l-0.3-0.6L15,6.7l0-0.2l0.5-0.6L16,5.6l1.2-0.2
	l-0.4-0.7l-0.9-0.9l-0.8,0.8L15,4.6l-1.7-0.1l1-1.8l0.5-0.6l0.3-0.1h0.5l-0.1-0.4l-0.1-0.1L14.2,1H14.1z M9.8,0.5l0.7,1.5l0.3,1.6
	L11,3.9L11.2,4l0.2,0l0.2,0l0.1-0.1l0.1-0.1l0.1-0.3l0-0.1l-0.1-0.3l-0.9-1.9l-0.4-0.4l-0.3-0.2L9.8,0.5z"/>
</svg>
