<?xml version="1.0" encoding="utf-8"?>
<!-- Generator: Adobe Illustrator 22.0.1, SVG Export Plug-In . SVG Version: 6.00 Build 0)  -->
<svg version="1.1" id="レイヤー_1" xmlns="http://www.w3.org/2000/svg" xmlns:xlink="http://www.w3.org/1999/xlink" x="0px"
	 y="0px" viewBox="0 0 18 18" style="enable-background:new 0 0 18 18;" xml:space="preserve">
<path d="M8.3,0.8l0,3.8l-4.5,0l-0.1,0L3.5,4.3L3.1,3.9L2.9,3.8l-0.3,0v6.3L1.8,15l-1,1.9l0,0.3h0.1L1,17l0.1-0.2l0.8-0.6l0.2-0.3
	L3,14.2c0.5-1.7,0.7-3,0.7-4.8L3.6,7.9h4.1L7.7,8.4l0,0.8l0.1,0.4L8,9.8L8.2,10l0.4,0.2l0.8,0.2l0.9,0.1l3.3-0.3l1.3,0l0.4-0.2
	l0.1-0.1l0.1-0.2l0.1-0.1l0-0.2l0-0.2l-0.1-0.2l-0.1,0l-0.2,0l0.2-1.8h-0.1l-0.9,1.7L14.2,9l-0.4,0.2l-0.8,0.1L9.4,9.4L9.1,9.3
	L9,9.3L8.9,9.1L8.8,8.8l0-0.3l0-0.6h4.7L13,7.1l-0.4-0.4L12,6.3l-0.8,1L11,7.4l-0.3,0.1l-1.1,0L8.7,7.4l0-0.3l0.1-0.4l0.1-0.1
	l0.2-0.2L9.5,6l0.1-0.3L9.5,5.6L9.3,5.5L8.8,5.4L7.7,5.3v2.2H3.7V5h11.5l-1.1,2.2h0.4l0.4-0.6L16,5.9l1.2-0.4l-0.5-0.9l-0.4-0.4
	L16.1,4l-0.2-0.1l-0.2,0L15.6,4l-0.1,0.1L15,4.6H9.3V3.1h6.5l-0.4-0.7L15,1.8l-0.4-0.2l-0.1,0l-0.1,0l-1,1l-0.1,0.1L9.3,2.6l0.1-0.5
	L9.5,2l0.6-0.5l0.1-0.1l0-0.1l0-0.1L10,1L8.3,0.8z"/>
</svg>
