<?xml version="1.0" encoding="utf-8"?>
<!-- Generator: Adobe Illustrator 22.0.1, SVG Export Plug-In . SVG Version: 6.00 Build 0)  -->
<svg version="1.1" id="レイヤー_1" xmlns="http://www.w3.org/2000/svg" xmlns:xlink="http://www.w3.org/1999/xlink" x="0px"
	 y="0px" viewBox="0 0 18 18" style="enable-background:new 0 0 18 18;" xml:space="preserve">
<path d="M2.3,1.2l0,14.1l0.1,0.4L2.7,16L3,16.2l0.2,0.1l2.6,0.4l6,0l3.6-0.8l0.1-0.1l0.2-0.3l0.1-0.4L14.8,15l-0.3-0.2l0.2-1.8
	l-0.1-1.6l-0.3,0.3l-0.9,3.5l-0.2,0.2l-0.3,0.2l-0.6,0.2l-6,0.1l-2.2-0.2l-0.2-0.1l-0.5-0.3l-0.1-0.1l0-0.1V2.4h8.1l0,0.2l0,3.5
	c0,1.2-0.2,2-0.6,2.9l-0.2,0.3l-0.2,0.2l-0.2,0.1l-0.3,0L7.2,8.9L6.9,9.1l0.2,0.3l2,1l0,0.1l0,0.6l0.4,0.1l0.7-0.1l0.5-0.2l0.4-0.4
	l0.6-1.1L12.4,6l0-3L12.5,3l0.1-0.1l0.2-0.1l0.7-0.1L13.1,2l-0.4-0.4l-0.2-0.1l-0.2-0.1l-0.3,0l-0.3,0.2L11.3,2H3.6l-0.1,0L2.7,1.3
	L2.7,1.2l-0.1,0H2.3z"/>
</svg>
