<?xml version="1.0" encoding="utf-8"?>
<!-- Generator: Adobe Illustrator 22.0.1, SVG Export Plug-In . SVG Version: 6.00 Build 0)  -->
<svg version="1.1" id="レイヤー_1" xmlns="http://www.w3.org/2000/svg" xmlns:xlink="http://www.w3.org/1999/xlink" x="0px"
	 y="0px" viewBox="0 0 18 18" style="enable-background:new 0 0 18 18;" xml:space="preserve">
<polygon points="8.3,0.7 8.3,6.8 3.7,6.8 3.7,7.3 8.3,7.3 8.3,14.5 3.5,15.1 3.9,17.1 4,17.2 4.1,17.3 4.2,17.3 4.3,17.3 4.3,17.3 
	4.5,17.2 4.6,17.1 4.8,16.7 4.9,16.5 14.5,14.1 14.8,13.6 9.5,14.3 9.5,7.3 14.4,7.3 13.9,6.4 12.7,5.7 11.5,6.8 11.3,6.8 9.5,6.7 
	9.3,2.4 9.5,2 9.5,1.9 9.7,1.8 10.4,1.5 10.3,1 10.3,1 10.2,0.9 10,0.8 "/>
</svg>
