<?xml version="1.0" encoding="utf-8"?>
<!-- Generator: Adobe Illustrator 22.0.1, SVG Export Plug-In . SVG Version: 6.00 Build 0)  -->
<svg version="1.1" id="レイヤー_1" xmlns="http://www.w3.org/2000/svg" xmlns:xlink="http://www.w3.org/1999/xlink" x="0px"
	 y="0px" viewBox="0 0 18 18" style="enable-background:new 0 0 18 18;" xml:space="preserve">
<polygon points="8.6,0.7 8.6,4.8 3.7,4.8 3.7,5.3 8.6,5.3 7.9,7 5.5,11.5 3.4,13.8 3.4,13.9 3.9,13.7 5.6,12.4 8.6,8.7 8.6,17.1 
	8.8,17.2 8.9,17.3 9.1,17.3 9.3,17.3 9.4,17.2 9.6,17.1 9.7,16.9 9.8,16.8 9.8,8.7 11.2,9.7 13.5,12.2 13.6,12.3 13.9,12.3 
	14.1,12.3 14.3,12.2 14.4,12.1 14.4,12 14.4,11.8 14.3,11.5 14,10.8 13.4,10.1 12.4,9.4 9.9,8.3 9.8,8.2 9.8,8.1 9.8,8 9.8,5.3 
	14.6,5.3 14.4,4.7 14.2,4.6 12.9,3.6 12,4.8 9.8,4.7 9.7,2 9.7,1.9 9.8,1.8 10.5,1.4 10.5,1.1 10.5,1 10.4,0.9 "/>
</svg>
