<?xml version="1.0" encoding="utf-8"?>
<!-- Generator: Adobe Illustrator 22.0.1, SVG Export Plug-In . SVG Version: 6.00 Build 0)  -->
<svg version="1.1" id="レイヤー_1" xmlns="http://www.w3.org/2000/svg" xmlns:xlink="http://www.w3.org/1999/xlink" x="0px"
	 y="0px" viewBox="0 0 18 18" style="enable-background:new 0 0 18 18;" xml:space="preserve">
<path d="M3.4,9.7l-0.7,0.7l-0.3,0.1l-1.9-0.1v0.5h2.4v3.6L0.5,16l0.8,1.2l0.1,0.1l0.2,0l0.2-0.4l0.5-0.7l1.6-1.7l1.3,1.2l0.8,0.4
	L9,17l7.6,0.1l0.1-0.3l0.8-1.1L14.6,16H9.3l-2.6-0.4l-0.9-0.3l-1-0.6l-0.4-0.4L4,13.9l-0.1-0.4l0-0.8l0.3-1.4l0.2-0.2L4.8,11
	l-0.4-0.7L3.9,9.9L3.7,9.8L3.6,9.7L3.4,9.7z M1.2,5.7l1,0.6l1.1,1.3l0.2,0.1l0.1,0l0.2,0l0.1,0l0.1-0.1l0.2-0.2l0.1-0.1V7.2L4.2,6.8
	L3.8,6.3L3.3,5.9L2.8,5.6L1.9,5.5L1.2,5.7L1.2,5.7z M15.8,1.8L15,2.5l-0.1,0l-0.4,0.1l-2.2-0.1v0.5h3l0.1,2.3l-0.1,0.2l0,0.1
	l-0.1,0.1L15,5.7l-2.8-0.1v0.5h3.1v2.6h-3.1l0,0.3l0,0.2h3.2l0.2,0.5l0.1,0.1l0.1,0l0.2,0l0.1-0.1l0.1-0.1l0.1-0.1l0.1-0.2l0-5.6
	l0.8-0.5l-0.4-0.7L16.3,2L16,1.9L15.8,1.8z M10.4,2.5l-0.1-0.3L10.3,2l-0.1-0.2L9.6,1.3H9.5l-1.8,1l-0.2,0l-0.1,0L6.8,2L6.4,2.1v7.6
	l0.3,0.1l0.1,0l0.1,0l0.1,0l0.1-0.1l0.1-0.1l0.1-0.2l0.1-0.3h3.1l-0.2-0.6l-0.1-0.2L9.9,8.2L9.3,7.9L8.6,8.6l-0.1,0l-1,0V6.1h3
	l-0.1-0.2l-0.2-0.4l-0.2-0.2L9.9,5.2L9.3,4.9L8.5,5.6l-0.1,0h-1l0.1-2.5L7.6,3l0.1,0l0.6-0.2L10.4,2.5z M2.2,1.4l1.8,2.1l0.4,0.4
	l0.1,0.1l0.1,0l0.1,0l0.1-0.1L5,3.7l0.1-0.2L5,3L4.9,2.6L4.5,2.2L4.2,1.8L3.6,1.5L2.8,1.4H2.2z M10.9,0.8l0,7.7L10,10.9
	c-0.4,1-1,1.6-1.8,2.2l-1.8,1.2l-0.7,0.2l-0.1,0.1l-0.1,0.1L5.4,15l0.3,0l0.8-0.1l1-0.4l2.4-1.7l0.6-0.7l1-2.4l0.1-0.1l0.4,1.2
	l0.8,1.3l1.7,1.7l1.7,1.1l0.2,0.2l1-1.2l-2.3-1.1c-0.7-0.5-0.8-0.5-1.5-1.1l-1.1-1.3L12,9.5l-0.1-0.4l0-7.3l0.7-0.4l-0.2-0.3L12.3,1
	L12.1,1L10.9,0.8z"/>
</svg>
