<?xml version="1.0" encoding="utf-8"?>
<!-- Generator: Adobe Illustrator 22.0.1, SVG Export Plug-In . SVG Version: 6.00 Build 0)  -->
<svg version="1.1" id="レイヤー_1" xmlns="http://www.w3.org/2000/svg" xmlns:xlink="http://www.w3.org/1999/xlink" x="0px"
	 y="0px" viewBox="0 0 18 18" style="enable-background:new 0 0 18 18;" xml:space="preserve">
<path d="M5.9,5.2l0,4.1l-1-0.9L4.4,9H2.9v0.4l1.5,0v0.1l-0.5,2.2l-0.5,1.3l-1.2,1.6l0,0.1l0.3-0.1l0.8-0.4l0.8-1l1.1-2.7l0.4-0.6
	l0.3,0v6.1l-0.2,0.3l-1.4-0.3l-1,0l0.2,0.3l1.8,0.7v0.5h0.2L6,17.2L6.3,17l0.2-0.2l0.1-0.3l0.1-0.4l0.1-6.4l1.1,1.6l0.9,2.3l0.3,0.4
	l0.3,0.1l0.3-0.1l0.2-0.3l0-0.3L12,13v2.7l0.1,0.6l0.2,0.3l0.1,0.1l0.4,0.2l0.5,0.1h2.8l0.9-0.4l0.1-0.1l0.1-0.1l0.1-0.4l-0.6-0.4
	l-0.1-0.1l0-0.1l0.2-1.8l-0.2-0.3l-0.9,2.4l-0.1,0.1l-0.1,0.1h-2.5l-0.1-0.2v-2.9l3.8-0.8l-0.2-0.3l-0.4-0.5L16,11.1l-0.4-0.2
	L14.6,12L13,12.3V9.8l3.2-0.6l-0.1-0.3l-0.3-0.3l-0.4-0.4L15,8l-0.8,1L13,9.3V6.9l1.5-0.5l0.6,0.1l0.4-0.2l-0.2-0.4l-0.1-0.2
	l-0.4-0.3l-0.3-0.1l-0.3,0l-0.4,0.3L9.9,7.3L9.6,7.7L12,7.1l0,2.3L9.5,9.9v0.4L12,10v2.6L9.8,13l-0.5-1.2L8.7,11l-0.9-0.8l1.2-1.1
	l0.4-0.2l0.5-0.1l0.4-0.2L10,8.2L9.9,8.1L9.7,7.9L9,7.8L8.9,7.8L8.7,8L7.5,9.8L6.8,9.3V6.5L7,6.2l0.6-0.3L7.5,5.6L7.4,5.4L7.2,5.4
	L5.9,5.2z M2.8,1.9h12.4v2.2H2.8V1.9z M1.7,0.7v9L1.6,12l-0.4,2.7l-0.6,1.7l0.1,0.4l0.9-1.4l0.8-2.1L2.8,10V4.6h12.4v0.3l0.1,0.2
	l0.1,0.1l0.1,0.1l0.2,0.1l0.1,0l0.1-0.1L16,5.2L16.1,5l0.1-0.2l0-2.4l0.1-0.1L17,1.9l-0.5-0.7l-0.4-0.4l-0.2-0.1l-0.2,0l-0.1,0
	l-0.1,0.1l-0.2,0.2L15,1.4H3l-0.1,0L2.2,0.8L2.1,0.7L2,0.7H1.7z"/>
</svg>
