<?xml version="1.0" encoding="utf-8"?>
<!-- Generator: Adobe Illustrator 22.0.1, SVG Export Plug-In . SVG Version: 6.00 Build 0)  -->
<svg version="1.1" id="レイヤー_1" xmlns="http://www.w3.org/2000/svg" xmlns:xlink="http://www.w3.org/1999/xlink" x="0px"
	 y="0px" viewBox="0 0 18 18" style="enable-background:new 0 0 18 18;" xml:space="preserve">
<path d="M1.7,8.2l0.2,0.2H2h0.1c0.1,0,0.2,0,0.4,0l0.4,0c1.3,0.1,2.7,1.1,3.2,2.3L7,12.6l0,0.1l0.2,0.3l0.3-0.3l0-0.3l0-0.1
	c0.2-1.5,0.9-2.9,2-3.8c1.1-0.9,3.5-1.8,5.1-1.9l0.4,0c0.3,0,0.4,0,0.4,0h0.1l0.7,0V5.9l-0.2-0.1c-0.2-0.1-0.3-0.1-0.7-0.2h-0.5
	l-0.7,0c-1.3,0.2-2.2,0.4-3.6,1.1l-0.2,0.1c-1.5,0.7-2.8,2.3-3.2,3.8l-0.1,0.3L7,10.7C6.1,9.3,5.7,8.9,4.9,8.3L4.4,8.1
	c-1-0.4-1.6-0.6-2.2-0.6L2,7.5L1.9,7.6l-0.1,0L1.7,7.7V8.2z"/>
</svg>
