<?xml version="1.0" encoding="utf-8"?>
<!-- Generator: Adobe Illustrator 22.0.1, SVG Export Plug-In . SVG Version: 6.00 Build 0)  -->
<svg version="1.1" id="レイヤー_1" xmlns="http://www.w3.org/2000/svg" xmlns:xlink="http://www.w3.org/1999/xlink" x="0px"
	 y="0px" viewBox="0 0 18 18" style="enable-background:new 0 0 18 18;" xml:space="preserve">
<path d="M9.3,10.7l-0.8,0.2c-0.7,0.3-0.8,0.3-1.1,1v0.2c0.1,1.3,0.2,1.4,1.1,2h0.2l0.8-0.2c0.8-0.4,1-0.5,1.1-1v-0.5
	c-0.2-1.1-0.3-1.2-1.1-1.7H9.3z M10.4,3.2h-2L6.6,3.5L4.2,4.8L2.7,6.7C1.1,9.9,1,10.4,0.6,13.9h0.7v-0.4c0.4-2.1,0.5-2.4,1.1-3.5
	l0.5-0.6l1.8-1.7l2.9-0.8c4.8,0.1,5.1,0.2,7.9,3l0.9,1.6l0.3,2.4h0.7V13l-0.8-3.8l-1.5-3c-1-1.1-1.1-1.2-2.2-2L10.4,3.2z"/>
</svg>
