<?xml version="1.0" encoding="utf-8"?>
<!-- Generator: Adobe Illustrator 22.0.1, SVG Export Plug-In . SVG Version: 6.00 Build 0)  -->
<svg version="1.1" id="レイヤー_1" xmlns="http://www.w3.org/2000/svg" xmlns:xlink="http://www.w3.org/1999/xlink" x="0px"
	 y="0px" viewBox="0 0 18 18" style="enable-background:new 0 0 18 18;" xml:space="preserve">
<path d="M3.6,8L3.3,8.1L2.7,8.6L2.6,8.7L2,8.8L0.6,8.6v0.6h2.5l0.1,5.1l0,0.1l0,0l-2.3,1.3l-0.3,0.1l0.3,0.9l0.4,0.6l0.2,0.1l0.1,0
	l0.1,0L1.9,17l0.8-1.2l1.2-1.3l1.4,1.3L6,16.3L8.6,17l8,0l0.1-0.3l0.8-1.1L14.9,16h-6l-1.2-0.2L5.1,15l-1-0.8L4,10.1l0.1-0.3
	l0.1-0.1l0.1-0.1l0.7-0.4L4.5,8.5L4,8L3.9,8L3.6,8L3.6,8z M15.6,4.7l-0.8,1.1H5.2v0.5h3.4l0.1,1.1c0,1.5-0.2,2.3-0.8,3.7L7.4,12
	l-0.7,0.7l-1.9,1.4l-0.3,0.3l0.3,0.1c0.6,0,1.1-0.3,2-0.9l1-0.9l0.8-1L9,11.1c0.5-1.2,0.6-1.8,0.7-3.2L9.6,6.3h2.3l0.1,7l0.1,0.4
	l0.2,0.2l0.1,0.1l0.4,0.2l0.6,0.1l3,0l0.7-0.2l0.2-0.1l0.1-0.2l0.1-0.5l-0.7-0.4l0.1-2.3h-0.1l-0.2,0.2l-0.9,2.4l-1.6,0.2l-0.5,0
	l-0.4-0.1L12.9,13V6.3h4.4L17,5.5l-0.3-0.3L16,4.8l-0.3-0.1L15.6,4.7z M1.4,1.6l1.1,1.1l0.7,1.4l0.1,0.1l0.4,0.3l0.4,0.1l0.1,0
	l0.1-0.1l0.1-0.1l0.1-0.1L4.6,4L4.6,3.7L4.4,3.4L3.9,2.6L3.3,2.1l-1-0.5L1.9,1.5H1.8L1.4,1.6z M14.1,0.8l-0.9,1.1H6.7v0.5h9.2
	l-0.4-0.7l-0.3-0.3l-0.7-0.5l-0.3-0.1L14.1,0.8z"/>
</svg>
