<?xml version="1.0" encoding="utf-8"?>
<!-- Generator: Adobe Illustrator 22.0.1, SVG Export Plug-In . SVG Version: 6.00 Build 0)  -->
<svg version="1.1" id="レイヤー_1" xmlns="http://www.w3.org/2000/svg" xmlns:xlink="http://www.w3.org/1999/xlink" x="0px"
	 y="0px" viewBox="0 0 18 18" style="enable-background:new 0 0 18 18;" xml:space="preserve">
<path d="M13.2,1.2l1.6,1.7l1.1,1.7l0.3,0.2l0.2,0.1l0.2,0.1l0.1,0L17,4.7L17,4.6l0.1-0.3l0-0.3l-0.3-0.7l-0.5-0.7l-1.6-1.1L13.2,1.2
	L13.2,1.2z M9,4.6l4,0l-0.5,4H9V4.6z M8,0.7v3.4H2.9v0.5H8v4H0.5v0.5H8v8.1l0.1,0.1l0.3,0.1l0.2,0l0.1-0.1l0.1-0.1L9,16.8l0-7.7h6.5
	v0.2c-0.1,1.5-0.3,2.5-0.8,3.7l-0.2,0.3l-0.3,0.3L14,13.6l-0.4,0l-0.2,0l-2.7-0.8L10.5,13l0.2,0.3l2.2,1.1l-0.1,0.8l1.5-0.4l0.7-0.4
	l0.5-0.7l0.3-0.8l0.6-3.1l0-0.1l1-0.6l-0.6-0.8L16,7.8l-0.9,0.7l-0.1,0l-0.1,0l-1.5-0.1l0.4-3.1L14,5.2l0.7-0.7l-0.6-0.9l-0.3-0.2
	l-0.1,0l-0.1,0l-0.1,0.1l-0.8,0.6l-0.1,0l-0.3,0.1L9.1,4.1L9,2.3l0.1-0.2l0.1-0.1l0.7-0.5L9.7,0.9L8,0.7z"/>
</svg>
