<?xml version="1.0" encoding="utf-8"?>
<!-- Generator: Adobe Illustrator 22.0.1, SVG Export Plug-In . SVG Version: 6.00 Build 0)  -->
<svg version="1.1" id="レイヤー_1" xmlns="http://www.w3.org/2000/svg" xmlns:xlink="http://www.w3.org/1999/xlink" x="0px"
	 y="0px" viewBox="0 0 18 18" style="enable-background:new 0 0 18 18;" xml:space="preserve">
<path d="M8.9,16.9c-1.7-0.1-2.7-0.4-4.1-1.2l-0.7-0.5l-0.8-0.7l-0.8-1l-0.6-1.1c-0.5-1.1-0.6-1.6-0.7-2.7V9.5l0-0.2l0.1-1.4l0.4-1.4
	c0.5-1.3,1-2,1.9-2.9l1.1-1L6,1.9l1.1-0.4l1.2-0.2l0.5-0.1l0.5,0c1.2,0.1,2,0.3,3,0.7c1,0.5,1.9,1.2,2.7,2.1
	c1.3,1.5,2.1,3.5,2.1,5.3c0,0.9-0.3,2-0.7,2.9c-0.5,1.2-1.5,2.2-2.7,3.1c-1.1,0.8-2,1.1-3.6,1.4l-0.7,0.1H8.9z M17.3,7.6l-0.5-1.5
	l-0.5-1l-0.7-1l-0.6-0.6l-0.5-0.5l-0.7-0.5c-1.4-0.9-2.5-1.4-3.7-1.6l-0.2,0l-0.7,0l-0.4,0L8.1,0.8c-4.3,0.6-7.4,4-7.5,8.3v0.3
	l0,0.3L0.8,11l0.5,1.3c0.8,1.5,1.3,2.2,2.4,3.1c1.5,1.3,3.5,2,5.4,2c1.8,0,3-0.4,4.8-1.5l0.6-0.5l0.6-0.6l0.9-1l0.6-1.1
	c0.6-1.5,0.8-2.1,0.8-3.6L17.3,7.6z M8.1,6.6L7.4,8.5L6.8,9.7l-0.5,1.1l-1.1,2l-2.1-0.3l0.5,1.4l9-1.3l0.1-0.1l1,2h0.6l0.3-0.3
	l-0.1-0.4l-0.6-1.1L13,11.5l-0.3-0.3l-0.4-0.4L11.1,10l-0.7-0.2l-0.4,0v0.1l0.3,0.1l0.2,0.2l0.9,0.8l0.6,0.6l0.4,0.5v0L6,12.5l2-3.4
	l0.8-1.1L9,8l0.3-0.1l0.3-0.1V7.3L8.1,6.6z M7,2.1L6.9,2.4L6.8,2.6L5.6,4.6L5,5.5l-2.5,3L2.2,8.8l0.1,0.1l0.3-0.3l1.8-1.2
	c0.7-0.5,1.6-1.5,2.6-3l0.4-0.6l0.3-0.2l0.6-0.3L8.3,3V2.8L7,2.1z M9.5,1.8v0.4l0.3,0.9l1.4,2.4c0.9,1.4,1.8,2.2,3.1,2.8l0,0
	l0.3,0.1l0.9-0.7l-0.3-0.1l-1.1-0.6l-1.4-1.1l-0.7-0.7l-0.6-0.7c-0.9-1.1-1.2-1.6-1.4-2.4l0-0.1L10,1.8l-0.1,0l-0.1,0L9.5,1.8z"/>
</svg>
