<?xml version="1.0" encoding="utf-8"?>
<!-- Generator: Adobe Illustrator 22.0.1, SVG Export Plug-In . SVG Version: 6.00 Build 0)  -->
<svg version="1.1" id="レイヤー_1" xmlns="http://www.w3.org/2000/svg" xmlns:xlink="http://www.w3.org/1999/xlink" x="0px"
	 y="0px" viewBox="0 0 18 18" style="enable-background:new 0 0 18 18;" xml:space="preserve">
<polygon points="14,2.6 13.4,3.3 2.9,3.3 2.9,3.8 13.5,3.8 13.5,8.7 0.5,8.7 0.5,9.2 13.5,9.2 13.5,14.5 2.9,14.5 2.9,14.9 
	13.5,14.9 13.5,15.2 13.6,15.4 13.6,15.5 13.7,15.6 13.8,15.7 14,15.7 14.2,15.7 14.4,15.6 14.5,15.4 14.7,15.2 14.7,15.1 14.7,9.2 
	17.5,9.2 17.3,8.9 17.1,8.5 16.2,7.6 15.3,8.5 15.1,8.7 14.7,8.8 14.7,4.5 15.5,4 14.5,2.8 14.3,2.7 14.2,2.6 "/>
</svg>
