<?xml version="1.0" encoding="utf-8"?>
<!-- Generator: Adobe Illustrator 22.0.1, SVG Export Plug-In . SVG Version: 6.00 Build 0)  -->
<svg version="1.1" id="レイヤー_1" xmlns="http://www.w3.org/2000/svg" xmlns:xlink="http://www.w3.org/1999/xlink" x="0px"
	 y="0px" viewBox="0 0 18 18" style="enable-background:new 0 0 18 18;" xml:space="preserve">
<path d="M5,4.4L5,4.7l0,0.7L4.4,7.8L4,8.4L2.3,9.8l0.1,0.6l0,0.1l0.1,0.2l0.2,0.2L3.2,11l0.4-0.1l0.3-0.2l0.6-0.6l0.5-0.8l0.5-1.9
	L5.4,4.4H5z M9.3,4.2l0.9,1.7L11,9l0.3,0.4l0.2,0.1l0.1,0.1l0.1,0l0.2,0l0.2-0.1l0.1-0.1l0.1-0.2l0.1-0.3l0-0.3l-0.1-0.5l-1-2
	l-1.3-1.5L9.3,4.2L9.3,4.2z M11.4,3.5l0.9,1l2,3.8l0.3,0.3l0.5,0.1l0.2,0l0.2-0.1l0.3-0.3l0.1-0.3l0-0.3l-0.1-0.6l-0.2-0.4l-0.3-0.4
	l-2.8-2.5l-0.6-0.3L11.4,3.5L11.4,3.5z M7.4,0.6v15.5l-0.2,0L5.4,16L5,16.2v0.1l1.6,0.6v0.6l0.3,0l0.7-0.2l0.4-0.3l0.1-0.1l0.1-0.1
	l0.1-0.4L8.4,1.8l0.8-0.5L9,0.8L7.4,0.6z"/>
</svg>
