<?xml version="1.0" encoding="utf-8"?>
<!-- Generator: Adobe Illustrator 22.0.1, SVG Export Plug-In . SVG Version: 6.00 Build 0)  -->
<svg version="1.1" id="レイヤー_1" xmlns="http://www.w3.org/2000/svg" xmlns:xlink="http://www.w3.org/1999/xlink" x="0px"
	 y="0px" viewBox="0 0 18 18" style="enable-background:new 0 0 18 18;" xml:space="preserve">
<polygon points="13.5,0.7 12.6,1.8 3.4,1.8 3.4,2.3 8.5,2.3 8.5,8.2 3.7,8.2 3.7,8.7 8.5,8.7 8.5,14.9 2.8,15.3 3.3,17.3 3.7,17.3 
	3.8,17.1 3.9,17 4,16.9 4.4,16.7 14.9,14.9 15.2,14.4 15,14.3 9.6,14.8 9.6,8.7 14.6,8.7 14.3,8 14.1,7.7 13.5,7.3 13.4,7.2 
	12.2,8.1 11.7,8.3 9.6,8.2 9.6,2.3 15,2.3 14.8,2 13.9,0.8 13.7,0.7 "/>
</svg>
