<?xml version="1.0" encoding="utf-8"?>
<!-- Generator: Adobe Illustrator 22.0.1, SVG Export Plug-In . SVG Version: 6.00 Build 0)  -->
<svg version="1.1" id="レイヤー_1" xmlns="http://www.w3.org/2000/svg" xmlns:xlink="http://www.w3.org/1999/xlink" x="0px"
	 y="0px" viewBox="0 0 18 18" style="enable-background:new 0 0 18 18;" xml:space="preserve">
<path d="M13.4,6.1L13.3,6l-0.8-1l-0.1,0l-4.9,2L2.7,8.1H2.2L2,8.6l1,0l4.5-0.9v3.1l-6.9,0.9v0.4l6.9-0.6l-0.1,4L7.5,16l0.2,0.3
	l0.5,0.4l0.9,0.4l4.4,0.1l3.4-0.4l0.3-0.1l0.1-0.1l0.1-0.2l0-0.1l0-0.2l-0.1-0.3l-0.6-0.3L17,13h-0.4l-0.1,1.5l-0.3,0.8l-0.4,0.5
	l-0.4,0.2l-0.9,0.2l-5.2,0.1L9,16.1l-0.1-0.1l-0.4-0.5l-0.1-0.4l0-3.8l8.4-1l-0.4-0.8L16,9l-0.1-0.1l-0.1,0l-0.1,0l-0.2,0l-0.9,0.9
	l-0.3,0.2l-0.2,0.1l-5.7,0.7V7.4l4.1-1.2l0.6,0.1l0.1,0L13.4,6.1z M11.1,0.8L9.4,4L8.2,5.8l0.1,0.1l0.4-0.2l2.2-2.2l0.2-0.1l0.7-0.1
	l0.4,0l0.3,0.1l0.3,0.3L12.9,4l0.4,0.7L13.7,6L14,6.1h0.1L14.3,6l0.3-0.1l0.1-0.1l0.1-0.1l0.1-0.4l0-0.2l0-0.1l-0.3-0.4L14.1,4
	l-0.8-0.6h4.2l-0.1-0.2l-0.3-0.5l-0.6-0.6L16.3,2l-0.4-0.2l-0.8,1l-0.1,0.1L14.7,3l-3.4-0.1l0.5-0.9l0.1,0L12.1,2l0.5,0.1l-0.2-0.5
	l-0.3-0.3L11.7,1L11.1,0.8z M3.8,0.8L3,2.5L0.5,5.9L0.6,6l1.6-1.1l1.4-1.5l0.4,0l0.4,0.1l0.3,0.2l0.2,0.2l0.8,2.2h0.6L6.4,6l0.1-0.2
	l0.1-0.3L6.5,4.8L5.8,4.1L5,3.4h4.5L9.4,3.2L9,2.4L8.7,2.2l-0.1,0l-0.1,0l-0.2,0L7.2,2.9L7.2,3L6.8,3L4,2.9l0.2-0.5l0.2-0.3l0.1-0.1
	L4.7,2l0.6,0V1.6L3.8,0.8z"/>
</svg>
