<?xml version="1.0" encoding="utf-8"?>
<!-- Generator: Adobe Illustrator 22.0.1, SVG Export Plug-In . SVG Version: 6.00 Build 0)  -->
<svg version="1.1" id="レイヤー_1" xmlns="http://www.w3.org/2000/svg" xmlns:xlink="http://www.w3.org/1999/xlink" x="0px"
	 y="0px" viewBox="0 0 18 18" style="enable-background:new 0 0 18 18;" xml:space="preserve">
<path d="M16,12.7l-0.7,0.9H0.5v0.5h5.3l-0.3,1.2l-0.2,0.4l-0.1,0.1l-1.9,1l-0.3,0l-0.2,0.4l0.3,0l1.5-0.3L6,16.2L6.2,16l0.2-0.3
	l0.2-0.5l0.2-1.1h4.5l-0.1,2.4l0.1,0.4l0.1,0.2l0.1,0.1l0.1,0l0.1,0l0.1-0.1l0.2-0.1l0.1-0.2l0.1-0.3l0-2.3h5.2l-0.4-0.7L16.8,13
	l-0.3-0.2l-0.2-0.1L16,12.7z M9.5,11.6h4.9l0,0.8H9.4L9.5,11.6z M3.5,11.6h4.9l0,0.8H3.5L3.5,11.6z M9.5,10.3h4.9l0,0.8H9.4
	L9.5,10.3z M3.5,10.3h4.9l0,0.8H3.5L3.5,10.3z M2.5,9.3l-0.1,3.5l0.1,0.4l0.1,0.1l0.1,0.1l0.1,0.1l0.1,0l0.2,0l0.1,0l0.2-0.2
	l0.3-0.3h10.8l0.1,0.2l0.1,0.1l0.1,0.1l0.1,0l0.3-0.1l0.1-0.1l0.1-0.1l0.1-0.2l0-1.8l0.7-0.4L16,10.1L16,9.9l-0.1-0.1l-0.1-0.1
	l-0.5-0.2l-0.4,0l-0.1,0l-0.5,0.4H3.8L2.5,9.3z M4.5,8.2h8.9v0.6H4.5V8.2z M4.5,7.1h8.9v0.6H4.5V7.1z M4.5,6h8.9v0.6H4.5V6z
	 M16.5,2.9l-0.6,1.2h-4.6l-0.1-0.2l0-1.4h4.2l-1,1.3h0.3L16.5,2.9z M3.6,5l4.6-1.6L8.2,3.2L7.6,2.6L7.5,2.5h2.6L10,3l0,0.9l0.1,0.4
	l0.2,0.2L11.8,5l4.9-0.2l0.7-0.3l-0.1-0.3l-0.1-0.1L16.8,4l0-0.9l-0.1-0.2l0.8-0.1l-0.3-0.7l-0.2-0.3l-0.2-0.2l-0.4-0.2l-0.3,0
	l-0.1,0.1l-0.2,0.2L15.4,2h-6V1.5l0.8-0.2l-0.2-0.6L8.4,0.5V2H2.7l0-0.6l0-0.1L2.6,1.2H2.3l0,0.9L2.1,2.5L2,2.6L1.6,2.9L0.7,3.3
	l0,0.6l0.1,0.2l0.1,0.1l0.1,0.1l0.2,0.1l0.2,0l0.4-0.1l0.3-0.2l0.3-0.3l0.2-0.3l0.1-0.4l0-0.6h4.3l-1.3,1l-4,1.5L1.5,5.3l1.8-0.2
	L3.5,5l-0.1,4l0.1,0.4l0.1,0.1l0.1,0.1l0.1,0l0.2,0l0.1-0.1l0.2-0.2h8.9l0.1,0.2l0.1,0.1l0.1,0h0.2L14,9.6l0.1-0.1l0.1-0.3l0.1-2.8
	l0,0l0.1-0.1l0.1-0.1l0.1,0l0.2-0.1l-0.4-0.7l-0.1-0.1l-0.2-0.1l-0.2-0.1l-0.3,0l-0.6,0.5H8l1.3-1L9.3,4.4l0-0.1L9.2,4.2L9,4.1
	l-1-0.2L7.6,5.5L5,5.6L3.8,5L3.6,5z"/>
</svg>
