<?xml version="1.0" encoding="utf-8"?>
<!-- Generator: Adobe Illustrator 22.0.1, SVG Export Plug-In . SVG Version: 6.00 Build 0)  -->
<svg version="1.1" id="レイヤー_1" xmlns="http://www.w3.org/2000/svg" xmlns:xlink="http://www.w3.org/1999/xlink" x="0px"
	 y="0px" viewBox="0 0 18 18" style="enable-background:new 0 0 18 18;" xml:space="preserve">
<path d="M7.9,13.3l1.5,0l0,1.7H7.9V13.3z M7.9,11.1l1.5,0l0,1.7H7.9V11.1z M7.9,9l1.5,0l0,1.7H7.9V9z M14.4,14.3l0.2,0.4l1.6,2.1
	l0.4,0.3l0.4,0.1l0.3-0.1l0.1-0.3l-0.1-0.3l-0.1-0.3L17,15.9l-0.1-0.4l0.3-3h-0.1l-0.8,2.2l-0.1,0.1h-0.1l-0.1-0.1l-0.3-0.4
	l-0.5-1.1L16.4,9l0.8-0.4V8.2l-1.4-0.6h-0.4l-0.8,3.9L13.9,6l3.2,0l0.3-0.3l0-0.3L17,5l-0.6-0.4l-0.4-0.1l-1,1h-1.3l-0.1-3.9
	l0.5-0.2l0.2-0.2l-0.1-0.3l-0.6-0.2l-0.9-0.1l0.1,4.8h-2.6v-2l2,0l0.3-0.2V3l-0.5-0.6l-0.5-0.3L10.8,3h-0.5V1.6l0.3-0.1l0.3-0.2
	L10.9,1L9.3,0.6V3H6.9v0.5h2.4v2h-3V6l6.6,0l1.1,7.2l-1.2,1.7l-0.1-0.1l-0.3-0.3l-0.3-0.2L11.3,15h-0.9l0-1.7l2.2,0l0.1-0.1L12.7,13
	l-0.5-0.6l-0.3-0.2L11,12.8h-0.6l0-1.7l2.2,0l0.1-0.1l0-0.2l-0.6-0.7l-0.3-0.2l-0.8,0.7h-0.6l0-1.7l2.3,0l0.1-0.2V8.6L12,7.8
	l-0.8,0.7h-1l0.9-0.8l0.4-0.1l0.2-0.2l0.1-0.3l-1-0.4l-0.5-0.1L10,7.5l-0.5,1H7.9l0.4-0.8h0.3l0.5-0.1l0.3-0.2L9.2,7.1L7.9,6.4
	L7.5,6.4L7.2,7.6l-1.3,2.9l-0.4-0.2H4.9l-1,3.7l0.1,0l0.3-0.2l0.3-0.3l1.1-2.1l0.8-0.2l-0.5-0.6l0.8-0.9l0,6.5l0.1,0.3l0.2,0.1h0.3
	l0.4-0.3l0-1h4.5l-1.1,1.5l0.1,0.1l0.7-0.3l1.4-1.1L14.4,14.3z M1.1,13.8l0.1,0.3l0.3,0.1l0.3-0.1l0.3-0.3l0.1-0.4V13l-0.4-1.2
	l-0.5-0.6l-0.8-0.5l-0.1,0.1l0.4,0.9L1.1,13.8z M15.9,3.9l0.2,0.2l0.3,0.1l0.3,0L17,4.1l0.2-0.3l0-0.4l-0.1-0.4l-0.2-0.5l-0.3-0.5
	l-0.4-0.4l-0.6-0.4l-0.7-0.2l-0.1,0.1l0.7,1L15.9,3.9z M3,0.8L1.9,4.4L0.5,7.2l0.1,0.1l0.5-0.2l0.7-0.8l1,0l0,2.7H0.6v0.5h2.2l0,5.5
	l-2.2,0.2l0.1,0.5l0.4,1.1L1.2,17L1.4,17l0.2-0.3l0.2-0.3l1-0.3l3.2-1.4v-0.1l-2.2,0.3V9.5l2,0l0.2-0.2l0.1-0.2L6.1,8.8L5.3,8.2
	L4.4,9.1H3.8l0-2.8l1.6,0l0.3-0.3l0.1-0.2L5.6,5.4L5.2,5.1L4.8,4.9L3.9,5.8H2.1l1.8-3.6l0.9,1.5L5,4.4l0.3,0.3l0.4,0.1l0.4-0.1
	l0.1-0.4L6,3.8L5.6,3.1L5.1,2.5L4.5,2.1L4.1,2l0.5-0.1V1.4L3,0.8z"/>
</svg>
