<?xml version="1.0" encoding="utf-8"?>
<!-- Generator: Adobe Illustrator 22.0.1, SVG Export Plug-In . SVG Version: 6.00 Build 0)  -->
<svg version="1.1" id="レイヤー_1" xmlns="http://www.w3.org/2000/svg" xmlns:xlink="http://www.w3.org/1999/xlink" x="0px"
	 y="0px" viewBox="0 0 18 18" style="enable-background:new 0 0 18 18;" xml:space="preserve">
<path d="M14.1,14.5l0.9,1.3l1.2,1.1l0.4,0.2l0.4,0.1l0.3-0.1l0.2-0.2l-0.1-0.3L17,15.9l0-0.5l0.2-2.2h-0.1l-0.8,2l-0.1,0.1h-0.1
	l-0.1,0l-0.2-0.2l-0.3-0.3L14.9,14l1.6-1.5l0.5-0.2l0.1-0.3l-0.8-0.5l-0.4-0.1l-1.5,1.9l-0.1-0.1l-0.5-1.4l-0.1-0.6l3.4,0l0.3-0.1
	l-0.1-0.3l-0.3-0.4l-0.8-0.6l-1,0.9h-1.6l0-1.9L14,8.7l0.3-0.2l0.1-0.2L14.4,8l-1-0.3l-0.5,0v2.9h-2.1V9.1l0.8-0.2l0.4,0l0.3-0.1
	l0.1-0.2l-0.3-0.3l-0.5-0.4l-0.3-0.1L7.6,9.6l0,0.1l2.3-0.4v1.3H7.2v0.5h2.7v1.5L7.5,13L8,14.7l0.3-0.1l0.2-0.1l0.1-0.3l1.3-0.6v2
	l-0.1,0.2l-0.1,0.1l-2-0.1v0.1l0.7,0.3l0.4,0.3l0.2,0.3l0.1,0.4l0.2,0.1l1-0.3l0.2-0.2l0.1-0.3v-3.1l1.6-0.6l0.3-0.3l0.2-0.4l0-0.1
	l-2.1,0.5v-1.4h2.1v0.2l0.4,1.7l0.4,0.8l-0.5,0.6l-1.9,1.6l0.1,0.1l1.3-0.7L14.1,14.5z M0.7,15.7L0.5,16v0.4l0,0.3l0.1,0.2l0.2,0
	l0.3-0.1l0.3-0.2l0.3-0.4l0.3-0.8l0-2L2,13.1l-0.3-0.2L1.6,13l0.1,0.3l-0.2,1.5l-0.2,0.4L0.7,15.7z M2.8,15.7l0,0.3L3,16.3l0.2,0.1
	l0.2,0l0.3-0.2l0.2-0.3l0.1-0.4l0-0.5l-0.4-1.7l-0.2-0.3l-0.2-0.2l-0.1,0l0.1,0.6l-0.1,1.1L2.8,15.7z M4.7,15.4l0.1,0.2L5,15.7
	l0.3,0l0.3-0.1l0.1-0.4l0-0.4l-0.5-1.4L5,13.1l-0.3-0.3l-0.4-0.2l-0.1,0.1l0.4,0.6l0.2,1.1l-0.1,0.8L4.7,15.4z M5.5,12.4l0.3,0.4
	l0.3,0.7L6.4,15l0.3,0.1l0.3,0L7.2,15l0.1-0.2l0-0.3l-0.1-0.4l-0.4-0.8L6.5,13L5.5,12.4L5.5,12.4z M14.6,7.9l0.5,0.4l0.7,1l0.3,0.2
	l0.3,0l0.2-0.1l0.2-0.2V8.9l-0.3-0.3l-0.4-0.3l-1-0.4l-0.6-0.1V7.9z M16.7,3.4l0.1-0.1l0-0.2l-0.5-0.6l-0.4-0.3L15.3,2l-0.9,0.9
	h-0.9l1.1-1.2l0.4-0.1l0.1-0.5l-1.3-0.6l-0.9,2.3l-5.1,0v0.5h3.7l0,1.5H8.1v0.5h3.4l0,1.5H7.2l0,0.5h10l0.3-0.1V7l-0.1-0.3L17,6.4
	l-0.4-0.3L16.2,6l-0.9,0.9h-2.9l0-1.5h4l0.2-0.1l0-0.2l-0.5-0.6l-0.4-0.3L15.3,4l-1,0.9h-1.9l0-1.5H16.7z M9.9,1.5L10,1.7l0.2,0.9
	l0.2,0.2l0.2,0.1l0.3,0l0.2-0.1l0.2-0.1l0.1-0.3L11.2,2l-0.4-0.6l-0.3-0.3l-0.4-0.3L9.4,0.6L9,0.7l0.2,0.3l0.3,0.2L9.9,1.5z
	 M4.5,8.8h1.4v2.4H4.5V8.8z M2.3,8.8h1.4l0,2.4H2.3V8.8z M4.5,5.9h1.4v2.4H4.5V5.9z M2.3,5.9h1.4l0,2.4H2.3V5.9z M2.9,3.2h1.3
	L4.1,4.1L3.7,5.4H2.5L2.2,5.3L2,5.2L2.9,3.2z M2.6,0.6L2.4,1.7L0.4,7L0.5,7L1.4,6v6.4l0.1,0.1l0.2,0h0.2l0.3-0.2l0.1-0.2v-0.6l3.6,0
	V12l0,0.2l0.1,0.1h0.3l0.3-0.1L6.7,12l0-5.7l0.3-0.2L7.3,6l0.1-0.2L6.8,4.9L6.5,4.7H6.2L5.9,5.1L5.7,5.4H4.2l1-1.7l0.3-0.2l0.4-0.1
	l0.2-0.3L5.7,2.5L5.1,2L4.8,2L4.2,2.7H3L3.3,2l0.9-0.4V1.1L2.6,0.6z"/>
</svg>
