<?xml version="1.0" encoding="utf-8"?>
<!-- Generator: Adobe Illustrator 22.0.1, SVG Export Plug-In . SVG Version: 6.00 Build 0)  -->
<svg version="1.1" id="レイヤー_1" xmlns="http://www.w3.org/2000/svg" xmlns:xlink="http://www.w3.org/1999/xlink" x="0px"
	 y="0px" viewBox="0 0 18 18" style="enable-background:new 0 0 18 18;" xml:space="preserve">
<path d="M16.6,11.2l0.6-0.4l0.1-0.2l-0.1-0.3l-0.5-0.6l-0.6-0.3l-0.3-0.1l-0.2,0.1l-0.4,0.6h-4v0.5h3.3l-4,2.6l0.1,0.1l0.4-0.1
	l4.4-2v1.6l-0.3-0.3L15,12.7l-4.3,2.6l0,0.1l2.4-0.7l2.4-1.3v2l-0.1,0.2l-0.1,0.1l-1,0.2l-1,0v0.1l1.1,0.3l0.2,0.2l0.1,0.2v0.3
	l0.1,0.1l0.9-0.2l0.4-0.2l0.3-0.3l0.1-0.3V11.2z M10.6,11.1l0.3-0.2l0.3-0.2l0.1-0.1v-0.2l-0.1-0.2l-0.4-0.4l-0.6-0.3l-0.2,0
	L9.7,9.5L9.3,9.8l-0.2,0.3H5.4v0.5l3.7,0l-0.5,0.5l-3.8,2.1v0.1l0.6,0l1.9-0.6l2.3-1.2v1.4l-0.3-0.3l-1.2,1l-3.5,2.2l0,0.1L8,14.5
	l1.6-1v2.2l-0.1,0.1l-0.4,0.1l-1.8,0.1v0.1l0.9,0.2l0.4,0.2l0.2,0.2L8.9,17L9,17.2l1.1-0.2l0.4-0.3l0.1-0.3V11.1z M7.9,7h6.2l0,1.3
	l-6.2,0V7z M6.9,5.8V9L7,9.2l0.2,0.1h0.4l0.3-0.1l0.1-0.2V8.8h6.2v0.3l0.2,0.2h0.3L15,9.2l0.1-0.2V7.4l0.3-0.2L15.7,7l0.1-0.3
	l-0.1-0.2l-1-0.7l-0.2,0.1l-0.3,0.3L14,6.5H8.2L8,6.2L6.9,5.8z M12.2,4.2l-0.7,0.9H8.1v0.5l5.4,0l0.2-0.2l0-0.2l-0.6-0.6l-0.4-0.3
	L12.2,4.2z M3,0.6v4.5H0.6v0.5H3L2.4,8.1l-2,5.1l0.1,0.1l0.9-0.8l0.4-0.6L3,9.3V17l0,0.1l0.2,0.1h0.3L4,17.1l0.1-0.2V8.1l0.3,0.2
	L4.9,9l0.8,0.6h0.4l0.3-0.3l0-0.3L6.2,8.7L5.8,8.3L5.3,8L4.1,7.6v-2l1.8,0L5.1,6.2v0.1l0.7,0L6.2,6l2.6-1.7L11,2.2l1.1,1.3L14,5
	l2.2,1.1l0.2-0.2l0-0.2l0.1-0.2L17,5.2L17.5,5V4.9l-2.5-0.6l-2.5-1.4l-1.1-1l0.7-0.3l0.1-0.4L11,0.6h-0.3L9.9,1.9L6.5,5.1L6.2,4.7
	L5.3,4L4.1,5V1.9l0.7-0.4l0.1-0.3L4.8,1L3,0.6z"/>
</svg>
