<?xml version="1.0" encoding="utf-8"?>
<!-- Generator: Adobe Illustrator 22.0.1, SVG Export Plug-In . SVG Version: 6.00 Build 0)  -->
<svg version="1.1" id="レイヤー_1" xmlns="http://www.w3.org/2000/svg" xmlns:xlink="http://www.w3.org/1999/xlink" x="0px"
	 y="0px" viewBox="0 0 18 18" style="enable-background:new 0 0 18 18;" xml:space="preserve">
<path d="M5,12.5l0.1,3.7l0.2,0.3l0.8,0.3l4.6,0.2l2.1-0.2l0.4-0.2l0.2-0.3l0-0.4l-0.4-0.1l-0.2-0.2l-0.1-0.8l0.1-1.3h-0.1L12,15.8
	l-0.2,0.1l-2.3,0.2l-3.2-0.2l-0.2-0.2L6,13.7l0.5-0.3l0.1-0.2L6.6,13l-0.4-0.2L5,12.5z M13.9,13l1.4,1.5l0.5,0.9l0.1,0.4l0.2,0.4
	l0.4,0.3l0.5,0l0.3-0.4l0-0.5L17.2,15l-0.7-1l-1.2-0.8L13.9,13L13.9,13z M2.9,12.8v0.3l-0.2,1.1l-0.4,0.5l-0.4,0.3l-1.3,0.6L0.5,16
	l-0.1,0.3l0.1,0.3l0.1,0.3L0.9,17l0.3,0L1.6,17l0.3-0.1l0.3-0.3l0.6-0.7L3.2,15l0.2-1.2l0-0.5L3.1,13L2.9,12.8z M9.1,12.3l-1.4-0.4
	H7.3V12l0.4,0.2l1,1l0.8,1.4l0.5,0.2l0.6-0.1l0.2-0.3V14l-0.5-0.8L9.1,12.3z M3.6,5.3h10.5v5.8H3.6V5.3z M2.6,3.9l0,8.2l0.1,0.2
	l0.2,0.1h0.2l0.4-0.2L3.6,12v-0.4h10.5V12l0.1,0.2l0.3,0.1h0.3l0.3-0.1l0.1-0.3V5.8l0.6-0.4l0.1-0.2V4.9l-0.6-0.6L14.8,4h-0.3
	l-0.3,0.2L14,4.6l0,0.2H4.2L3.9,4.5L2.6,3.9z M8.9,7.5l3,0L9.1,9.1l0-0.2L9,8.7L8.4,8.1L7.9,7.9H7.8L8.9,7.5z M9.4,7l0.3-0.3
	l0.4-0.3l0.7-0.1l0.2-0.2L10.9,6l-0.4-0.2L9.5,5.6L8.8,6.4L6,8.1L4.4,8.8v0.1l0.3,0l2.6-0.8l0.3,0.2L7.8,9l0.3,0.3l0.4,0.1L7.9,9.6
	l-4.2,0.9v0.1l0.9,0l3.6-0.6l2.1-0.8l2-1.2l0.9-0.2l0.3-0.2V7.3l-0.2-0.4l-0.5-0.4l-0.2,0l-0.3,0.1L12,6.8L11.9,7H9.4z M11.6,0.7
	l0,1.8H9V3h2.5v1l0.1,0.3l0.1,0.1h0.3l0.3-0.1L12.6,4V3h4.6l0.2-0.1V2.7l-0.1-0.3l-0.7-0.8l-0.4-0.2l-1,1.1h-2.7V1.7l0.5-0.2
	l0.2-0.2V1.1L13.1,1L11.6,0.7z M5.3,0.7v1.8H0.5V3h4.8v1.3l0.1,0.1l0.2,0.1h0.3l0.4-0.1l0.1-0.2V3h2.2l0.1-0.2V2.6L8.3,2.2L7.7,1.8
	L7,2.5H6.3V1.8l0.3-0.1l0.3-0.2L7,1.3L6.9,1.1L5.3,0.7z"/>
</svg>
