<?xml version="1.0" encoding="utf-8"?>
<!-- Generator: Adobe Illustrator 22.0.1, SVG Export Plug-In . SVG Version: 6.00 Build 0)  -->
<svg version="1.1" id="レイヤー_1" xmlns="http://www.w3.org/2000/svg" xmlns:xlink="http://www.w3.org/1999/xlink" x="0px"
	 y="0px" viewBox="0 0 18 18" style="enable-background:new 0 0 18 18;" xml:space="preserve">
<path d="M15.1,8.5l-0.6,1.1H7.6v0.5h2.1l-0.7,3.4L9,13.7l0.2,0.1h0.3l0.3-0.1l0.2-0.4l0.2-1l4.3,0l-0.1,0.7L14,14.9l-0.5,0.8
	l-0.3,0.2L13,15.9L12.6,16l-2.5-0.3v0.1l1.6,0.6l0.3,0.3V17l0.2,0.2l0.1,0.1l0.6,0l0.4-0.1l0.9-0.6l0.7-1l0.7-2.7l0.4-0.2l0.2-0.2
	v-0.3l-0.4-0.5l-0.4-0.4h-0.3l-0.2,0.1l-0.3,0.3L14.5,12h-4.1l0.5-1.8h5.6l0.3-0.2V9.7l-0.2-0.4L16.1,9L15.1,8.5z M13.4,6.4
	l-0.5,0.9H9.1v0.5h5.7l0.1-0.1V7.4l-0.2-0.3l-0.7-0.5L13.4,6.4z M11.3,0.7l-0.8,2.5H7.3v0.5h3.1L10,4.6L9.3,5.5L6.9,8.1L7,8.1
	l0.6-0.2l1.8-1.2l1.4-1.6l0.8-1.4h1L13.8,6l1,1.1L16,8h0.4l0.2-0.3l0.1-0.3L17,7.2L17.5,7V6.9l-1.1-0.3l-1.3-0.8l-1.2-1.1l-0.8-1.1
	h3.8l0.3-0.2l-0.1-0.3l-0.3-0.4l-0.5-0.5l-0.4-0.2l-1.1,1.1h-2.9l0.6-1.3l0.4-0.1l0.3-0.2V1.2l-1.2-0.5L11.3,0.7z M2.5,8.5l2.7,0v2
	l-2.7,0.3V8.5z M2.5,5.8h2.7l0,2.2H2.5V5.8z M2.5,3.1h2.7l0,2.2H2.5V3.1z M6.2,9.5v-6l0.3-0.1l0.3-0.3l0.1-0.2l0-0.2L6.5,2.4L6,2
	L5.7,2L5.5,2.1L5.1,2.6H3.7l0.9-0.8l0.4-0.1l0.2-0.1l0.1-0.2L5.1,1.2L3.5,0.7l-0.5,2H2.8L1.9,2.1L1.4,1.9l0,9.1l-0.9,0.1L1,12.9
	l0.3-0.3l0.3-0.4l3.2-0.9l-0.7,0.8l-2,1.9l-1.6,1.2l0,0.1l0.7-0.1l0.6-0.2L3,14.2l2.2-2.1l0,3.5l0,0.1l-0.1,0.1L4.9,16L4.6,16
	l-0.5,0l-1.7-0.4l0,0.1L3,16l0.6,0.4l0.3,0.3L4,16.9v0.2l0,0.2h0.7l0.5-0.1L5.6,17l0.3-0.3l0.2-0.3l0-5.3l1.5-1.8l0.7-0.2V8.8
	L7.1,8.2H6.7L6.2,9.5L6.2,9.5z"/>
</svg>
