<?xml version="1.0" encoding="utf-8"?>
<!-- Generator: Adobe Illustrator 22.0.1, SVG Export Plug-In . SVG Version: 6.00 Build 0)  -->
<svg version="1.1" id="レイヤー_1" xmlns="http://www.w3.org/2000/svg" xmlns:xlink="http://www.w3.org/1999/xlink" x="0px"
	 y="0px" viewBox="0 0 18 18" style="enable-background:new 0 0 18 18;" xml:space="preserve">
<path d="M7.8,12.1l0,3.9l0.1,0.2l0.2,0.2l0.4,0.1l2,0.3l3-0.1l0.5-0.2l0.2-0.2l0.1-0.2L14.3,16l-0.2-0.1L14,15.7l-0.1-0.6v-1.3h-0.1
	l-0.7,1.8L13,15.8L11.5,16l-2.5-0.2l-0.1-0.1l-0.1-0.2l0-2.2l0.4-0.2l0.3-0.2l0-0.3l-0.2-0.1L7.8,12.1z M16.2,16.4l0.3,0.3h0.4
	l0.3-0.2l0.2-0.3v-0.5l-0.1-0.4l-0.8-1.2l-0.8-0.6l-0.4-0.2l-1-0.2l-0.1,0.1l0.8,0.5l0.4,0.4L16.2,16.4z M6.5,15.7l0.3-1.5L6.7,13
	l-0.2-0.3H6.4l-0.3,1.6l-0.3,0.6l-0.5,0.5l-0.6,0.3L4.4,16l-0.1,0.4l0.2,0.5l0.3,0.2h0.4l0.4-0.2L6,16.6L6.5,15.7z M10.8,12.7
	l0.3,0.5l0.2,0.7l0.2,0.3l0.3,0.2h0.4l0.4-0.2l0-0.5l-0.1-0.5l-0.2-0.5l-0.9-0.9l-0.7-0.4l-0.8-0.1l-0.5,0.1v0.1l0.3,0.1L10.8,12.7z
	 M2.3,7.9L2.4,8l0.3,0.1H3l0.4-0.2l0.1-0.3L3.4,7.1L3.3,6.7L3.1,6.5L2.3,5.9L1.5,5.5L0.6,5.4l0,0.1l0.8,1l0.4,0.8L2.3,7.9z M5.7,3.5
	l-3,7.6l-0.5,1l-0.3,0.3l-0.5,0l-0.9-0.2l0,0.1l0.3,0.3l1.1,0.4l0.2,0.2l0.2,0.3l0,0.4l-0.2,2.8L2.2,17l0.3,0.2h0.4l0.5-0.1l0.3-0.5
	l0-0.7l-0.4-3l0.1-0.6l2.3-7.7l0.1-1.1H5.7z M3.5,3.7l0.4,0.4l0.3,0.1l0.4-0.1L4.8,4l0.1-0.3V3.4L4.8,2.9L4.2,2.1L3.5,1.6L2.6,1.4
	H2.2L1.9,1.5v0.1l0.5,0.3l0.4,0.4l0.2,0.3L3.5,3.7z M9.3,2.9h2.7L12,3.2l-1.2,1.9H7.7L9.3,2.9z M9,0.8L8.8,1.4L5.5,6.7l0.1,0.1
	l0.7-0.4l1-0.8h7.3l0,2H5.1v0.5h9.6l0,2H6.3v0.5h8.4v0.6l0.1,0.2l0.2,0.1h0.2l0.3-0.1l0.1-0.2v-3h1.7l0.2-0.3l-0.1-0.3l-0.3-0.3
	l-0.6-0.3l-0.8,0.7V6.1L16,5.9l0.3-0.3l0.1-0.2l-0.5-0.6l-0.6-0.3h-0.2l-0.8,0.7h-2.8l1.6-1.6l1-0.3L14.2,3l-0.1-0.3L13.5,2
	l-0.5-0.3h-0.3l-0.6,0.7H9.7L10,2l0.8-0.3l0.1-0.3L9,0.8z"/>
</svg>
