<?xml version="1.0" encoding="utf-8"?>
<!-- Generator: Adobe Illustrator 22.0.1, SVG Export Plug-In . SVG Version: 6.00 Build 0)  -->
<svg version="1.1" id="レイヤー_1" xmlns="http://www.w3.org/2000/svg" xmlns:xlink="http://www.w3.org/1999/xlink" x="0px"
	 y="0px" viewBox="0 0 18 18" style="enable-background:new 0 0 18 18;" xml:space="preserve">
<path d="M2.8,15.9L2.5,16l-0.2,0.2l-0.1,0.3l0,0.3L2.3,17l0.1,0.2l0.3,0.1l0.4,0l0.4-0.2L4,16.7l0.3-0.4l0.2-0.5l0.1-1.1L4.6,14
	l-0.1-0.3l-0.3-0.2l0.1,0.4l-0.1,0.8l-0.2,0.4l-0.3,0.4l-0.4,0.3L2.8,15.9z M7.2,14.6l0,1l-0.1,0.6v0.3l0,0.2l0.2,0.2l0.3,0.1h0.2
	l0.3-0.1l0.2-0.3l0.1-0.3l0-0.4l-0.1-0.9l-0.5-0.8l-0.7-0.6l-0.3-0.1L7.2,14.6z M11.7,15.2l-0.1-0.8L11,13.7l-0.4-0.3l-0.6-0.1H9.4
	v0.1l0.3,0.3l0.4,0.4l0.3,0.7l0.1,0.4l0.3,0.4l0.3,0.1l0.3-0.1l0.2-0.1L11.7,15.2z M13.3,14.3l0.1,0.3l0.2,0.2l0.2,0.1h0.3l0.2-0.1
	l0.1-0.3l-0.1-0.3l-0.3-0.3l-0.4-0.3l-0.4-0.2l-0.5-0.1l-0.5,0v0.1l0.4,0.3L13.3,14.3z M8.5,3.2v1.5H2.7l0-0.2L2.4,4.1L2.1,3.8
	L2,4.6L1.8,5.1L1.5,5.5L1.1,5.7L0.7,6L0.6,6.4l0.1,0.4l0.2,0.1h0.4l0.3-0.1l0.3-0.3l0.3-0.4l0.4-1h12.8l0,0.3l-0.1,0.3L15,6
	l-0.2,0.2L14.7,6l-0.3-0.2h-0.2l-0.3,0.2l-0.3,0.3H9.3v0.5h4.5v1.5l-4.5,0v0.5h4.5v1.5H4V8.8h4.2l0.2-0.1l0.1-0.1l0-0.3L7.9,7.7
	L7.6,7.5l-1,0.9L4,8.4V7.2l3.4-0.8l0.9,0l0.3-0.1l0.1-0.2L7.4,5.3L6.9,5.5l-2.7,1L3.7,6.2L3,5.8v5.3l0.1,0.2l0.2,0.1h0.3L4,11.3
	l0.1-0.2v-0.2h1L4,12l-3.5,2.9L0.5,15l1.2-0.4l3-2h10.8l0.1,0.6l-0.2,1.6L15,15.8l-0.2,0.2l-0.3,0.1l-0.4,0.1l-1.9-0.4l0.1,0.2
	l0.9,0.3l0.6,0.4l0.1,0.2l0,0.3l0.1,0.1l0.2,0l0.6-0.1l0.5-0.2l0.3-0.2l0.3-0.3l0.6-1.5l0.2-2.1l0.2-0.1l0.3-0.2l0.1-0.2l-0.1-0.3
	L17,11.9l-0.4-0.3l-0.5-0.2l-0.2,0l-0.4,0.3l-0.3,0.4h-10l0.4-0.4l0.7-0.1l0.4-0.1l0.2-0.2l-0.1-0.2l-0.8-0.3h7.7V11l0.1,0.1
	l0.2,0.1l0.5,0l0.2-0.1l0.1-0.2V7.4l0.3-0.2l0.2-0.3V6.6L15,6.4l0.3-0.1l1.3-0.9l0.6-0.1l0.2-0.1V4.8L17,4.2l-0.5-0.3h-0.4l-1,0.7
	H9.5l0-0.4l0.5-0.2l0.2-0.2V3.6L9.9,3.4L8.5,3.2z M11.7,0.7l0,1.6l-2.5,0v0.5l2.5,0v1.1L11.7,4l0.2,0.1h0.2L12.6,4l0.1-0.2V2.8h4.4
	l0.4-0.1l-0.1-0.3l-0.3-0.5l-0.5-0.5l-0.4-0.2l-1,1.1l-2.6,0V1.8l0.3-0.1l0.3-0.2l0.2-0.2l0-0.2L13.4,1L11.7,0.7z M5.4,0.7v1.6H0.6
	v0.5h4.8v1.3l0.1,0.2l0.4,0l0.4-0.2l0.1-0.2l0-1.1h2l0.2-0.1l0.1-0.1l0-0.2L8.5,2.1L8.2,1.8L7.8,1.6L7.1,2.3H6.4l0-0.4l0.4-0.1
	L7,1.5l0.1-0.3L7,1L5.4,0.7z"/>
</svg>
