<?xml version="1.0" encoding="utf-8"?>
<!-- Generator: Adobe Illustrator 22.0.1, SVG Export Plug-In . SVG Version: 6.00 Build 0)  -->
<svg version="1.1" id="レイヤー_1" xmlns="http://www.w3.org/2000/svg" xmlns:xlink="http://www.w3.org/1999/xlink" x="0px"
	 y="0px" viewBox="0 0 18 18" style="enable-background:new 0 0 18 18;" xml:space="preserve">
<path d="M10.4,9.6l0.1,5l0.1,0.2l0.2,0.2l0.4,0.1l0.6,0.1l1.7-0.1l0.3-0.1l0.1-0.3l-0.1-0.3l-0.3-0.1L13.3,14l-0.1-0.6l0.1-1.5h-0.1
	l-0.5,2.1l-0.1,0.2l-0.2,0.1l-0.8,0l-0.2-0.1L11.2,14l0-3.2l0.2-0.1l0.3-0.2l0.2-0.2v-0.2L11.7,10L10.4,9.6z M14.6,13.7l0.2,0.5
	l0.4,0.1l0.4-0.1l0.2-0.3l-0.2-1l-0.6-1.3l-1-0.9l-0.5-0.2l-0.1,0.1l0.3,0.3l0.8,1.6L14.6,13.7z M9.3,14l0.2-0.6l0.1-0.8l-0.1-1.6
	l-0.1-0.4L9,10.4l0.1,1l-0.3,1.2l-0.4,0.5L8,13.5l-0.1,0.4l0.1,0.5l0.2,0.2h0.4L9,14.4L9.3,14z M2.3,11.6h2v3.8h-2V11.6z M1.4,10.4
	l0,6.7l0.2,0.1h0.2L2.2,17l0.1-0.2v-0.9h2v0.6l0.1,0.1l0.1,0.1h0.3l0.3-0.2l0.1-0.3v-4.6l0.3-0.1l0.2-0.2V11l-0.3-0.3l-0.5-0.2H4.5
	l-0.3,0.3l-0.1,0.3H2.5l-0.7-0.6L1.4,10.4z M4.6,7.9L4,8.8H1.4v0.5l4.1,0l0.3-0.1V8.8L5.6,8.5L5,8L4.6,7.9z M11,8.2l0.3,0.4l0.6,1.2
	l0.3,0.3l0.3,0.1l0.3-0.1L13,9.7l-0.1-0.5l-0.2-0.5l-0.4-0.4l-0.7-0.4l-0.8-0.2h-0.5v0.1L11,8.2z M4.6,5.5L4,6.4H1.4v0.5h4.1
	l0.4-0.1l0-0.2L5.6,6.2L5,5.6L4.6,5.5z M5,3.2L4.3,4.1H0.7v0.5l5.3,0l0.3-0.1L6.2,4.2L6,3.8L5.5,3.4L5,3.2z M4.4,0.9L3.8,1.8H1.4
	v0.5h4l0.3-0.1V1.9L5.5,1.6L5,1.1L4.4,0.9z M13.2,4h2.7v1.8h-2.7V4z M13.2,1.9h2.7v1.7h-2.7V1.9z M12.3,0.7v6l0.1,0.2l0.2,0.1h0.2
	l0.3-0.1l0.1-0.2l0-0.3h2.7l0,9.4l-0.2,0.2L15.5,16l-0.3,0.1L13,15.9V16l1.3,0.4l0.4,0.3l0.2,0.3l0,0.3l0.2,0.2h0.3l0.8-0.2l0.4-0.3
	l0.2-0.3l0-14.3l0.2-0.1l0.3-0.2l0.2-0.3l0-0.2L17,1.1l-0.5-0.3l-0.3,0l-0.4,0.7h-1.8L12.3,0.7z M7.7,4h2.5v1.8H7.7V4z M7.7,1.9h2.5
	v1.7H7.7V1.9z M6.8,0.7l0,16.4l0.1,0.2l0.4,0l0.3-0.1l0.1-0.3l0-10.5h2.5v0.4l0.1,0.1l0.2,0.1h0.3L11,6.8l0.1-0.2V2.2l0.3-0.1
	l0.3-0.2l0.1-0.3L11.4,1l-0.5-0.3h-0.3L10.4,1l-0.2,0.4H7.9L7.7,1.1L7.3,0.8L6.8,0.7z"/>
</svg>
