<?xml version="1.0" encoding="utf-8"?>
<!-- Generator: Adobe Illustrator 22.0.1, SVG Export Plug-In . SVG Version: 6.00 Build 0)  -->
<svg version="1.1" id="レイヤー_1" xmlns="http://www.w3.org/2000/svg" xmlns:xlink="http://www.w3.org/1999/xlink" x="0px"
	 y="0px" viewBox="0 0 18 18" style="enable-background:new 0 0 18 18;" xml:space="preserve">
<path d="M8.5,6.5l1.1-4L10,2.4l0.4-0.2V1.9L9.5,1.3H9.2L8.7,1.8H7.1v0.5h1.6l-1.3,5v0.2l0.1,0.1l0.4,0l0.2-0.1L8.4,7H10l-0.4,3
	l-0.6,2.2L8.4,9.8l0.1-0.4l0-0.3L8,8.7l-1.2,2L7,11.1l0.1,0.4l0.3,0l0.2-0.1l0.3-1.2l0.7,2.7l-0.3,0.5l-1.5,2L5,17.3L5,17.4l0.8-0.3
	l0.8-0.5l0.7-0.6L9,13.5l0.9,1.7l0.7,0.7l1,0.6l1.2,0.3l3.5,0.1l0.3-0.1l0.2-0.2l-0.1-0.2l0.1-0.3l0.2-0.3l0.4-0.4l0-0.1L15,15.9
	l-1.6,0l-2.1-0.7l-0.5-0.4l-1.1-1.2L9.3,13l1.1-2.9l0.5-2.9l0.3-0.1l0.2-0.2l-0.1-0.2l-0.4-0.4L10.5,6h-0.2L10,6.2L9.8,6.5H8.5z
	 M14.6,2.5L16,2l0.7,0.1l0.2-0.2l-0.2-0.4l-0.9-0.6l-0.3-0.1l-0.4,0.3l-4,2l0,0.1l2.5-0.5v4.9H11V8h2.7v5.1h-2.4v0.5l5.6,0l0.2-0.1
	v-0.1L17,13.1l-0.3-0.4l-0.4-0.3L16,12.2l-1,0.9h-0.5l0-5.1h2.7l0.2-0.2V7.7L17.1,7l-0.4-0.3l-0.4-0.2l-1.1,1.1h-0.6L14.6,2.5z
	 M4.3,8h1.2l0,2.2H4.3V8z M2,8h1.3v2.2H2V8z M2.8,3.5h2.1l0,1.5H2.8V3.5z M1.9,0.6l0,2.5l-1.3,0v0.5l1.3,0v2.4l0.1,0.1l0.2,0.1h0.2
	L2.7,6l0.1-0.2V5.5h0.5v2h-1L1.1,6.8v4.5l0,0.1l0.1,0.1h0.3l0.4-0.1L2,11.2v-0.5h1.3v2l-2.7,0v0.5l2.7,0v4l0.1,0.2l0.2,0.1h0.3
	l0.3-0.2l0-4h3l0.2-0.1v-0.2l-0.2-0.3l-1.1-0.7l-0.9,0.9H4.3v-2l1.2,0l0,0.4l0.1,0.1l0.2,0.1H6l0.3-0.1L6.4,11V8.2l0.2-0.1l0.2-0.2
	l0.1-0.2l0-0.3L6.5,7.2L6.1,6.9H5.8L5.5,7.3L5.4,7.6H4.2v-2h0.7v0.2l0,0.2L5.1,6h0.3l0.4-0.2l0-2.3h1.4l0.3-0.1l0-0.2L7.5,3L7.1,2.6
	L6.5,2.4L5.8,3l0-1.1l0.5-0.2l0.2-0.3V1.1L6.1,0.9L4.9,0.8l0,2.3l-2.2,0l0-1.3l0.6-0.4l0.1-0.3l0-0.2L3.1,0.8L1.9,0.6z"/>
</svg>
