<?xml version="1.0" encoding="utf-8"?>
<!-- Generator: Adobe Illustrator 22.0.1, SVG Export Plug-In . SVG Version: 6.00 Build 0)  -->
<svg version="1.1" id="レイヤー_1" xmlns="http://www.w3.org/2000/svg" xmlns:xlink="http://www.w3.org/1999/xlink" x="0px"
	 y="0px" viewBox="0 0 18 18" style="enable-background:new 0 0 18 18;" xml:space="preserve">
<path d="M7.7,9.6V17l0.2,0.1l0.2,0L8.8,17v-6.2l1.3,0l0.2,0.1l0,0.1l0.1,0.3l0,2.3l0.2,0.1l0.1,0.1l0.1,0l0.1,0l0.2-0.1l0.2-0.1
	v-0.5h1.7l0,0.3l0.1,0.2l0.1,0.2l0.2,0.1l0.3,0l0.1-0.1l0.1-0.1l0.1-0.1l0.1-0.4l-0.1-2.2h1.7V16l-2.3,0.1v0.1l0.3,0.1l1.5,0.4
	l0.1,0l0.1,0.1l0.1,0.1l0.1,0.5l0.9-0.3l0.2-0.2l0.1-0.2l0.1-0.4L16.7,16l0.1-4.6l0-0.1l0.1-0.1l0.1,0l0.4,0.1l-0.3-0.7L16.8,10
	l-0.3-0.1l-0.1,0l-0.1,0l-1,0.5l-0.4,0.1l-0.4-0.1l-1.6-0.7l0,2.7l0,0.1l-0.1,0l-0.2,0.1h-1.3l-0.1-0.9l0-0.1l0.1-0.1l0.4-0.4
	L11.3,10l-0.2-0.2l-0.1,0l-0.9,0.6l-0.3,0.1l-0.4-0.1L7.7,9.6z M9.4,7.2l2.4,0v1.5H9.4V7.2z M9.4,5.2l2.4,0v1.5H9.4V5.2z M4.3,5.2
	h1.2v4.9H4.3V5.2z M2,5.2h1.2v4.9H2V5.2z M9.4,3.2l2.4,0v1.5H9.4V3.2z M3.3,0.6v4.1L2.3,4.7l-1-0.6L1,4.1v7.8l0.2,0.1l0.1,0l0.4-0.1
	L2,11.8l0-0.9l0.1-0.2l0.1-0.1l0.2-0.1l0.9,0v4.1L0.5,15L1,16.6l0.4-0.1L2,16l4-1.4L6.4,16l0.3,0.4l0.2,0.1l0.2,0l0.1,0l0.1-0.1
	L7.4,16l0-0.3l-0.1-0.5l-0.2-0.5l-1.4-1.7l-0.4-0.3L5,12.5L5,12.5l1,1.7l-0.2,0.1l-0.1,0l-1.4,0.2v-4h1.2l0,0.2l0,0.3l0.1,0.3
	l0.1,0.1l0.1,0l0.1,0l0.2,0l0.5-0.3V5.9l0-0.1l0.2-0.2l0.1,0l0.1,0l0,0.1l0,0.1v0L7,5.9L6.6,6.5H7l1.3-1.7v4.8l0.3,0.2l0.1,0l0.2,0
	l0.2-0.1l0.1-0.1l0.1-0.1l0.1-0.2h8L17,8.5l-0.3-0.3l-0.5-0.4l-1,0.9L15,8.7l-2.2-0.1l0-1.4l0,0l0.1-0.1L13.2,7l3.5,0.1l-0.3-0.7
	L16,6.2l-0.6-0.4l-0.9,0.9l-0.3,0.1l-0.4,0l-1.1-0.1l0-1.4l0,0l0.1-0.1l0.2-0.1l3.5,0.1l-0.3-0.7L16,4.2l-0.6-0.4l-0.9,0.9l-0.3,0.1
	l-0.4,0l-1.1-0.1l0-1.4l0,0l0.1-0.1l0.2-0.1L17,3.2V2.9L16.2,2l-0.2-0.1l-0.1,0l-0.1,0l-0.1,0l-1.1,0.9l-0.3,0.1l-2-0.2L13,2.1
	l0.5-0.4l0.4-0.2l0.2-0.1V1.1l-1.4-0.6l-0.1,0.2l-0.9,1.7l-0.1,0.1l-0.2,0.1l-0.3,0.1H9.6l0.3-0.7l0.4-0.5l0.1-0.1l0.3-0.1V1.1
	L9.4,0.6L7.4,5.4L7.1,5.5L7,5.2L6.6,4.7L5.8,4.2L5.3,4.6L5.1,4.7l-0.8,0L4.2,1.9l0.1-0.4l0.1-0.1l0.1-0.1l0.1-0.1l0.1,0h0.2l0.1-0.4
	L3.3,0.6z"/>
</svg>
