<?xml version="1.0" encoding="utf-8"?>
<!-- Generator: Adobe Illustrator 22.0.1, SVG Export Plug-In . SVG Version: 6.00 Build 0)  -->
<svg version="1.1" id="レイヤー_1" xmlns="http://www.w3.org/2000/svg" xmlns:xlink="http://www.w3.org/1999/xlink" x="0px"
	 y="0px" viewBox="0 0 18 18" style="enable-background:new 0 0 18 18;" xml:space="preserve">
<path d="M9,12.7h5.7v3.5H9V12.7z M15.1,11.5l-0.6,0.7H9.3L8,11.7l-0.1,4.4L8.1,17l0.2,0.2l0.1,0.1l0.2,0l0.1,0l0.1-0.1L8.9,17
	L9,16.6h5.6l0.1,0.2l0.1,0.1L15,17l0.1,0.1l0.1,0l0.1,0l0.1-0.1l0.1-0.1l0.1-0.1l0.1-0.4l0-3.3l0.7-0.3l-0.8-1.1l-0.2-0.2l-0.2-0.1
	H15.1z M14,7.9l-0.4,0.6H8.3v0.5h5.2l-0.9,2.2l0,0.2l0,0.2l0.1,0.2l0.1,0.1l0.2,0.1h0.1l0.1-0.1l0.1-0.1l0.1-0.1l0.9-2l0-0.2
	l0.8-0.5l-0.2-0.4l-0.3-0.3l-0.4-0.2L14,7.9z M13.1,5.4l-0.7,0.8l-0.1,0.1L12,6.4L9.4,6.3v0.5h5L14,6l-0.4-0.4l-0.2-0.1l-0.1-0.1
	L13.1,5.4z M4.6,5.4h1.4v4.4H4.6V5.4z M2.2,5.4h1.4v4.4H2.2V5.4z M11.3,0.7l-2,3.6C8.4,5.8,7.7,6.7,7.1,7L6.9,7.1V5.7l0.7-0.4
	L6.4,4.1L5.7,4.9l-1.1,0V2.1l0.6-0.3l0-0.2l0-0.1L5.1,1.4L4.9,1.4L3.5,1.1v3.7L2.9,4.9L2.5,4.9L2.4,4.8L1.5,4.2L1.1,4v7.4l0.1,0.1
	l0.2,0.1l0.1,0l0.2,0l0.2-0.1L2,11.3l0.1-0.1l0.1-1l0,0l0.1,0l1.2,0L3.6,14l0,0.2l-0.1,0.1l-0.3,0.1l-2.8,0.3l0.5,1.5l0.2,0.1l0.1,0
	l0.1,0l0.2-0.5l4.5-1.6l0.4,0l0.1,1l0.1,0.3l0.1,0.1l0.1,0.1L7,15.6l0.1,0l0.2,0l0.1-0.1l0.1-0.1l0.1-0.2l0.1-0.4l0-0.4l-0.2-0.5
	l-0.3-0.4l-1.1-1.1l-0.5-0.3L5.3,12l-0.1,0.1l1,1.6L4.6,14v-3.8h1.4l0,0.3l0.1,0.3L6,10.8l0.1,0.1l0.1,0.1l0.2,0l0.2-0.1l0.2-0.2
	l0.1-0.2L7,10.1l0-2.5l1.8-1.3L10,4.9l1.8-2.6L13.6,5c0.5,0.5,0.6,0.6,1.1,1l1.6,1.1l1-1l-1.9-1l-1.7-1.3l-1.3-1.1l-0.3-0.4l0-0.1
	l0-0.1l0,0l0.6-0.1l0-0.5L12,1L11.3,0.7z"/>
</svg>
