<?xml version="1.0" encoding="utf-8"?>
<!-- Generator: Adobe Illustrator 22.0.1, SVG Export Plug-In . SVG Version: 6.00 Build 0)  -->
<svg version="1.1" id="レイヤー_1" xmlns="http://www.w3.org/2000/svg" xmlns:xlink="http://www.w3.org/1999/xlink" x="0px"
	 y="0px" viewBox="0 0 18 18" style="enable-background:new 0 0 18 18;" xml:space="preserve">
<path d="M7.5,10L7.5,10l-0.2,0l-0.1,0l-0.7,0.7H4.8l0,0.5h2.1v3.6L4.7,16l0.2,0.6L5,16.8l0.6,0.5l0.3-0.7L6,16.5L7.6,15l1,0.9
	c2,0.9,2.5,1,4.6,1h3.4l0.1-0.2l0.8-1.1l0-0.1l-1.1,0.3L13.1,16c-2.2-0.1-3.2-0.2-4.2-0.6L8.1,15l-0.3-0.3v-3.1l0.7-0.3L7.5,10z
	 M10.7,12.6h4.4v1.7h-4.4V12.6z M10.7,8.7h4.1v1.7h-4.1V8.7z M9.7,7.4v7.8l0,0.1l0.1,0.1l0.1,0.1l0.2,0l0.1,0l0.2-0.1l0.1-0.1
	l0.1-0.2v-0.3h4.4v0.1l0,0.2l0.1,0.1l0.1,0.1l0.2,0.1l0.1,0l0.1-0.1l0.1-0.1l0.1-0.1l0.1-0.2l0-1.7l0.6-0.3l-0.6-0.8l-0.3-0.3
	l-0.1,0l-0.1,0l-0.8,0.6l-4.1,0v-1.3h4.1l0.1,0.2l0.1,0.1l0.2,0.1h0.1l0.1,0l0.1,0l0.2-0.1l0.1-0.3V9.1l0.6-0.5l0.1-0.4l-1.1-0.8
	L15,7.6l-0.6,0.6h-3.6L10,7.5L9.7,7.4z M5.9,5.6l1.6,2.3l0.2,0.1l0.1,0l0.1-0.1L8,7.8l0.1-0.1l0.1-0.4l0-0.1L8,6.7L7.7,6.3L7.3,6
	L6.9,5.8L5.9,5.6L5.9,5.6z M2,4.6L1.8,3.9H1.7L1.5,5.5L1.2,6.2L0.5,7.2l0,0.1l0,0.3L0.7,8l0.1,0.1L1,8.2l0.2,0l0.2,0l0.2-0.1
	l0.2-0.2l0.1-0.2L2,6.9L2,4.6z M3.8,3l0.5,1.3l0.3,2l0.3,0.1l0.1,0l0.2,0l0.2-0.1l0.1-0.2l0.1-0.2l0.1-0.2l0-0.2l0-0.2L5.5,4.8
	l-1-1.4L4.2,3.2L3.8,3z M6.4,1.8L6.6,2l1,1.9l0.2,0.2l0.2,0.1l0.2,0l0.1,0l0.1-0.1L8.5,4l0.1-0.2l0-0.2L8.3,2.8L8,2.3L7.7,2.1L7.4,2
	L6.4,1.8L6.4,1.8z M2.7,0.8v15.9l0.1,0.1l0.1,0l0.3,0.1l0.1,0l0.1-0.1l0.1-0.1l0.1-0.3L3.7,2l0.8-0.5L4.3,1L2.7,0.8z M13.2,2.9h1.8
	v1.7h-1.8V2.9z M10.4,2.9h1.8v1.7h-1.8V2.9z M12.2,0.7v1.8h-1.4L9.9,1.9L9.5,1.8v3.6l0.1,0.2l0.1,0.1l0.1,0.1l0.1,0l0.1,0l0.1,0
	l0.1-0.1l0.1-0.1V5.1h1.8v1.3H8v0.5h9.5l-0.3-0.6l-0.1-0.2l-0.2-0.2l-0.6-0.3l-0.6,0.8h-2.4V5.1h1.8v0.3l0,0.1l0.1,0.1l0.1,0.1
	l0.1,0l0.1,0l0.2-0.1l0.1-0.1l0-0.2V3.3L16.6,3l-0.4-0.7L15.8,2l-0.1,0l-0.1,0l-0.1,0l-0.7,0.4h-1.5V1.7l0.6-0.3l-0.1-0.5L12.2,0.7z
	"/>
</svg>
