<?xml version="1.0" encoding="utf-8"?>
<!-- Generator: Adobe Illustrator 22.0.1, SVG Export Plug-In . SVG Version: 6.00 Build 0)  -->
<svg version="1.1" id="レイヤー_1" xmlns="http://www.w3.org/2000/svg" xmlns:xlink="http://www.w3.org/1999/xlink" x="0px"
	 y="0px" viewBox="0 0 18 18" style="enable-background:new 0 0 18 18;" xml:space="preserve">
<path d="M9.5,16.4l0.2,0.4l0.2,0.2l4.7,0.1l0.4-0.3l0.1-0.2L15,16.2l-0.4-0.3l-0.1-0.4v-0.8l0.1-0.4L14.4,14l-0.3,1.2l-0.4,0.8
	l-0.2,0.1h-2.5L10.7,16l-0.1-0.1l0-0.1v-3.2l0.2-0.1l0.3-0.2l0.2-0.3v-0.2l-0.1-0.2l-1.6-0.3L9.5,16.4z M7.9,11.5l0,0.8l-0.5,2
	l-0.3,0.4l-0.5,0.3l-0.3,0.4V16l0.1,0.4l0.4,0.3h0.4l0.4-0.1l0.3-0.3l0.4-0.7L8.3,15l0-2.7l-0.1-0.5L7.9,11.5z M14.5,11.6l1.1,2
	l0.2,0.7l0.1,1l0.2,0.6l0.2,0.3l0.2,0.1h0.4l0.3-0.1l0.2-0.4l-0.1-0.6l-0.1-0.4l-0.8-1.5l-1.6-1.5L14.5,11.6L14.5,11.6z M10.8,10.3
	l0.8,1l0.5,1.1l0,0.4l0.1,0.5l0.3,0.4l0.4,0.1l0.3-0.1l0.3-0.1l0.1-0.3l-0.1-0.5L12.3,11l-0.6-0.4L10.8,10.3L10.8,10.3z M2.7,6.8
	h2.1v3.9H2.7V6.8z M2.7,2.2h2.1v4.1H2.7V2.2z M1.6,1v9.8l-0.4,3.5l-0.6,2.4l0.1,0.1l0.2-0.3l0.4-0.7l1-2.4l0.4-2.2h2.1v4.6L4.7,16
	l-0.3,0.1L4,16.2l-1.5-0.4l0,0.1l0.2,0.3l1.1,0.4L4,16.8l0.1,0.3l0,0.3l0.2,0.2l0.3,0L5,17.5l0.4-0.2L5.6,17l0.2-0.4V3.1L6,3
	l0.5-0.4l0.1-0.2L6.4,2.2L5.7,1.2L5.4,1.1H5.3L4.7,1.8H2.9L2.1,1.2L1.6,1z M8.9,7.4h5.9v1.7H8.9V7.4z M8.9,5.3h5.9V7H8.9V5.3z
	 M8.9,3.2h5.9v1.6H8.9V3.2z M15.9,3.8l0.5-0.1l0.3-0.2l0.1-0.2l-0.1-0.2l-0.2-0.4L15.9,2l-0.3-0.2l-0.2,0.1l-0.8,0.9h-3.5l0.9-1
	l0.2,0l0.5-0.1l0.1-0.2V1.3l-0.2-0.2l-1.4-0.5l-0.7,2.2H9.3L9.1,2.5L7.7,1.9l0,8.4l0.2,0.1l0.2,0l0.3,0l0.3-0.1l0.1-0.3V9.6h5.9v0.5
	l0.3,0.1l0.4,0l0.3-0.1l0.2-0.2L15.9,3.8z"/>
</svg>
