<?xml version="1.0" encoding="utf-8"?>
<!-- Generator: Adobe Illustrator 22.0.1, SVG Export Plug-In . SVG Version: 6.00 Build 0)  -->
<svg version="1.1" id="レイヤー_1" xmlns="http://www.w3.org/2000/svg" xmlns:xlink="http://www.w3.org/1999/xlink" x="0px"
	 y="0px" viewBox="0 0 18 18" style="enable-background:new 0 0 18 18;" xml:space="preserve">
<path d="M3.7,12.9l-0.7,3v0.3L3,16.4l0.1,0.1l0.1,0.1l0.1,0.1l0.2,0l0.1-0.1l0.3-0.3l0.2-0.3l0.2-0.5l0-0.4L3.7,12.9L3.7,12.9z
	 M2.2,13l-0.8,1.9l-0.8,1.4l0,0.2l0,0.1l0.1,0.3l0.1,0.1L1,17l0.1,0L1.3,17l0.2-0.1l0.3-0.3L2,16.2l0.3-0.8L2.3,13H2.2z M5,12.7
	l0.3,1.4l-0.1,1.6l0.1,0.4l0.3,0.1l0.2,0L6,16.1l0.2-0.1l0.1-0.2l0.1-0.2l0-0.2l-0.1-0.6l-0.6-1.4L5,12.7L5,12.7z M6.5,12.5l1,2.7
	l0.1,0.1l0.1,0.1l0.1,0l0.2,0l0.1-0.1l0.1-0.1L8.3,15l0-0.1l-0.1-0.4l-0.5-1.2L7.5,13l-0.3-0.3l-0.4-0.2L6.5,12.5z M14.3,9.8v7
	l0.1,0.1l1.6,0.3l0.5,0L17,17l0.1-0.1l0.2-0.3l0-0.2l0-0.1L17,15.7l0.1-2.1L17,13.2h-0.1l-0.5,1.9L16,16l-0.1,0.1l-0.1,0l-0.1,0
	l-0.1,0l-0.1-0.1L15.4,16l0-0.1l-0.1-4.6l0.1-0.3l0.6-0.4L16,10L14.3,9.8z M11.6,9.8v7.4l0.2,0.1l0.1,0l0.2,0l0.5-0.2v-6.2l0.6-0.4
	V10L11.6,9.8z M9,9.8l0.1,2.9L8.8,14l-0.6,1.5l-1.1,1.8l0.1,0.1l2.3-2.4l0.4-0.8l0.3-3.2l0.5-0.5l0-0.1l0-0.3L9,9.8z M11.6,3.5v2.2
	H7.9v0.5l1,0.1l0.3,2.5L10,9.1h5.1l1.2-0.2V8L10.4,8L10,7.9V6.2h7.5l-0.4-0.7l-0.3-0.3l-0.5-0.4l-0.9,0.9l-0.2,0l-2.6,0l-0.1-0.2
	l0-0.7l0.1-0.2l0.1-0.2l0.7-0.5L11.6,3.5z M9.8,0.7l0.1,1.7l0,0l0,0.1l-0.1,0L7.4,2.5V3h2.4l0,0.4l0,0.3l0.1,0.2L10,4.1l0.1,0.1
	l0.1,0.1l0.1,0l0.1,0l0.1-0.1L10.7,4l0.1-0.1l0.1-0.4l0-0.6h2.8l0,0.9L13.6,4l0.1,0.1l0.1,0.1l0.1,0.1l0.2,0l0.2,0L14.6,4V3.2l0-0.2
	l0,0l0.1-0.1l0.2-0.1L17.5,3l-0.1-0.3L17,2l-0.2-0.2l-0.2-0.1l-0.3-0.1l-0.4,0.6l-0.1,0.1l-0.2,0.1l-0.2,0.1L15,2.5l-0.4-0.1l0-0.5
	l0-0.1l0.1-0.2l0.1-0.1l0.4-0.2V1l-1.6-0.3v1.8h-2.7l0-0.4l0.1-0.2l0.2-0.3l0.1-0.1l0.1-0.1l0.1,0l0.1-0.4L9.8,0.7z M5,8.7l1.2,0
	v2.5H5V8.7z M2.8,8.7l1.2,0v2.5H2.8V8.7z M5,5.7l1.2,0v2.5H5V5.7z M2.8,5.7l1.2,0v2.5l-1.2,0V5.7z M3.3,2.7l0.2,0.1L5,2.6l0.3,0.1
	L4.2,5.2l-0.9,0L2.7,5.1L2.1,4.8L3.3,2.7z M3,0.7L0.5,6.4l0.1,0.1l1.2-1.3v7.2l0.3,0.1l0.2,0l0.1,0l0.1,0l0.3-0.2v-0.5h3.4l0.2,0.5
	l0.1,0.1l0.1,0l0.2,0L7.3,12V6.2l0.7-0.5L7.8,5.3L7.5,5L6.8,4.8H6.7L6.1,5.2L6,5.2l-1.4,0L5.3,4l1.1-1L7,2.7L6.8,2.2L6.6,2L6.1,1.6
	L5.4,2.1l-0.2,0l-1.7,0l0.2-0.3l0.8-0.5V0.9L3,0.7z"/>
</svg>
