<?xml version="1.0" encoding="utf-8"?>
<!-- Generator: Adobe Illustrator 22.0.1, SVG Export Plug-In . SVG Version: 6.00 Build 0)  -->
<svg version="1.1" id="レイヤー_1" xmlns="http://www.w3.org/2000/svg" xmlns:xlink="http://www.w3.org/1999/xlink" x="0px"
	 y="0px" viewBox="0 0 18 18" style="enable-background:new 0 0 18 18;" xml:space="preserve">
<path d="M10.1,1L10.1,1C10,1,9.8,1.2,9.6,1.5C9.4,1.7,9.4,1.8,9.2,2L9.1,2.3L8.9,2.6C8.9,2.8,8.9,2.8,8.9,2.9l0,0.4l0,0.3
	c0.1,0.3,0.1,0.3,0.3,0.5c0.3,0.3,0.8,0.5,1.4,0.5c0.7,0,1.3-0.3,1.5-0.7L12,3.8l0-0.1l0-0.2l0-0.3L12,2.9c-0.3-0.8-0.8-1.3-1.5-1.7
	C10.3,1.1,10.2,1,10.2,1L10.1,1L10.1,1L10.1,1L10.1,1z M1.4,12.9l0.3,0.1l2.3,0.3c0.6,0,1.3,0.3,1.7,0.6L8.8,16c1,0.7,1.8,1,2.5,1
	h0.1l0.4,0l0.5-0.1c1.8-0.5,3.3-1.8,3.4-3.2l0-0.2c-0.1-1.6-1.4-3.2-2.8-3.3l-0.2,0l0-0.1v0L13,9.5c0.4-0.8,0.5-1,0.8-1.3l0.1-0.2
	l0.1-0.1l0.1-0.1l1.7-0.8h0l0.1,0L16,6.9l0.1-0.1l0.1-0.1l0.1-0.1l0.1-0.2l0.1-0.2l0.1-0.2c0-0.1,0-0.1,0.1-0.2V5.9l0,0V5.6l0-0.1
	l-0.1-0.3c-0.2-0.4-0.5-0.6-0.9-0.7h-0.3c-0.3,0-0.6,0.2-0.9,0.4l-0.9,0.7L13,5.9L12,6.6c-0.3,0.1-0.4,0.2-0.5,0.2l-0.9-0.1l-3-0.2
	L6.5,6.3l-0.1,0L5.9,6.6C5.6,6.8,5.4,6.9,5.3,7.1L5.2,7.1l0,0.1l0,0.1C5.1,7.4,5.1,7.5,5,7.8L5,8l0,0.3l0.3,0.1
	c0.5,0.3,1,0.5,1.3,0.6l1.1,0.4l0.1,0l0.1,0.1l0.6-0.8L8.2,8.2L8.4,8l0,0h0.1l0.1,0.1h0l0,0h0.2l0.5,0C9.7,8,9.8,8,10.1,8h0.1
	L10.3,8l0.1,0.1c0.1,0.1,0.1,0.1,0.2,0.1l0.1,0l0.1,0h0h0h0l0.3,0c0.2,0,0.2-0.1,0.4-0.1l0.1,0l0.2,0.3l0,0
	c-0.2,0.3-0.4,0.6-0.6,0.7l-1,0.8L10,10.1c-0.2,0.2-0.4,1-0.6,1.8v0l0,0l0,0h0v0l0,0.2l0.9,0.7l0.4-0.5c0.5-0.5,1.1-0.9,1.3-0.9h0
	c0.3,0,0.4,0.1,0.8,0.3l0.1,0.1l0.1,0.1l0.1,0.1l0.1,0.1c0.2,0.3,0.4,0.7,0.4,1v0.3l0,0.1c0,0.4-0.3,0.9-0.7,1.1
	c-0.3,0.2-0.6,0.4-1.1,0.5l-0.2,0l-0.1,0h-0.1c-0.5,0-1.4-0.3-1.8-0.5L7.3,13l-0.1-0.1l-0.1,0c-0.3-0.2-0.4-0.2-0.8-0.3
	c-0.2,0-0.3-0.1-0.4-0.1c-0.1,0-0.2,0-0.4-0.1l-0.9-0.1c-0.3-0.1-0.4-0.1-0.8-0.1l-0.4,0l-0.5,0c-0.3,0.1-0.6,0.1-0.8,0.3L1.4,12.9
	L1.4,12.9z"/>
</svg>
