<?xml version="1.0" encoding="utf-8"?>
<!-- Generator: Adobe Illustrator 22.0.1, SVG Export Plug-In . SVG Version: 6.00 Build 0)  -->
<svg version="1.1" id="レイヤー_1" xmlns="http://www.w3.org/2000/svg" xmlns:xlink="http://www.w3.org/1999/xlink" x="0px"
	 y="0px" viewBox="0 0 18 18" style="enable-background:new 0 0 18 18;" xml:space="preserve">
<path d="M8.2,17.4l0.8-0.7c1.4-1.3,1.5-1.5,2-2.3l0.5-1.1l0,0l0-0.1l0.2-0.3l0-0.1c0,0,0-0.1-0.1-0.2h0.3l0.1-0.3l0.9-3
	C12.9,9,12.9,9,12.9,9L13,8.9l0-0.1l0,0l0.1-0.1l0,0l0.1-0.1l-1.1-0.9L8.8,8.4l1.7-1.7l1.2-1.2L12.2,5V5l0,0l0,0h0l0-0.1l-0.1,0.1
	l0.1-0.1l0,0l0,0l0,0l0,0l0,0l-0.6-0.2c-0.1,0-0.2-0.1-0.4-0.4L8.7,4.7l0.2-0.2C9,4.3,9,4.3,9.2,4.1l0.7-0.8l0.7-0.8l0.4-0.4L11,1.9
	L11,1.9l0.1-0.1l0.1,0l0.4-0.3l-1.3-0.8l-0.2,0.1L10,0.7l-0.1,0h0L9.5,0.9L8.6,1.1L8,1.2L7.4,1.3C7.1,1.4,7,1.4,6.7,1.4H6.5
	c-0.1,0-0.2,0-0.2,0H6.2H6.2l-0.8,0C5.3,1.3,5.3,1.3,5.1,1.2L4.9,1.1h0L4.7,1.2l0.1,0.1v0.1l0,0.1l0.1,0.4l0,0.2v0.2v0.4l0,0.4
	l0,0.4c0,0.1,0,0.2-0.1,0.4L4.7,4.3l0.5,0.4h0.4l0.1-0.2c0.1-0.1,0.1-0.2,0.1-0.2L5.8,4l0.1-0.1l0-0.2l0-0.2l0-0.2l0-0.8l0.5,0h0
	l0.1,0l2.9-0.6l0.3,0L9.2,2.7C8.2,4.2,6.8,5.4,6,5.3l-0.1,0l-0.1,0H5.3l0.3,0.4L5.7,6c0.1,0.1,0.1,0.1,0.1,0.2l0,0L6,6.3l0,0.3
	l4.4-1.2l0,0.1c-0.2,0.4-0.3,0.4-0.8,0.9L6.9,8.7C6.6,8.9,6.4,9,6,9H5.9H5.9L5.8,9L5.6,9L5.5,9c-0.1,0-0.1,0-0.3-0.1l0.1,0.4
	l0.2,0.3c0.1,0.2,0.2,0.3,0.3,0.4L6,10.3l0.3-0.1C6.7,10,6.7,10,7.1,9.9l2.1-0.6L10,9.1l0.8-0.2l0.6-0.1l0.4,0l0,0.2l-0.1,0.7
	l-0.2,0.6l-0.2,0.6L11,11.5c-0.8,2.2-1.5,3.3-2.4,4.1l-0.7,0.6l-0.1,0l-0.7-0.2l-0.7-0.2l-0.1,0l-0.2-0.1l-0.1,0h0h0
	c-0.1,0.1-0.2,0.1-0.3,0.2l0.3,0.1l1,0.7l0.4,0.2l0.1,0.1L7.5,17l0.1,0.2h0l0,0l0,0h0l0.1,0.2H8.2z"/>
</svg>
