<?xml version="1.0" encoding="utf-8"?>
<!-- Generator: Adobe Illustrator 22.0.1, SVG Export Plug-In . SVG Version: 6.00 Build 0)  -->
<svg version="1.1" id="レイヤー_1" xmlns="http://www.w3.org/2000/svg" xmlns:xlink="http://www.w3.org/1999/xlink" x="0px"
	 y="0px" viewBox="0 0 18 18" style="enable-background:new 0 0 18 18;" xml:space="preserve">
<path d="M1.5,11.9l-0.2,1l-0.9,2l0,0.3l0,0.2l0.1,0.1l0.1,0.1l0.1,0.1l0.1,0.1l0.2,0l0.2,0l0.1-0.1l0.1-0.1l0.1-0.3l0.2-0.7L1.8,14
	L1.5,11.9L1.5,11.9z M2.6,11.7l-0.3,3.2l0.1,0.2l0.1,0.1l0.1,0.1l0.2,0.1l0.1,0L3,15.3l0.1-0.1l0.1-0.1l0.2-0.6l0-0.7L3,12.3
	L2.6,11.7L2.6,11.7z M3.5,11.5l0,0.4l0.4,1.2l0.2,1.6l0.2,0.1l0.3,0.1l0.2,0L5,14.8L5,14.7l0.1-0.1l0.1-0.1l0-0.2l-0.1-0.4l-0.2-0.6
	l-0.4-0.7L3.5,11.5L3.5,11.5z M4.5,11.4l0.2,0.3l0.9,2.2L5.7,14L5.8,14l0.2,0.1l0.1,0L6.4,14l0.1-0.1l0.1-0.1l0.1-0.1l0-0.3l0-0.1
	L6.5,13l-1.4-1.4L4.5,11.4L4.5,11.4z M10.1,5.4v3.5L8.2,9.2l0.5,1.3L10,9.9l0,0.1l-0.1,1.7l-0.5,1.9l-0.9,1.8l0.3-0.1l0.1-0.1
	L9,15.1l1.5-3L11,9.4l1.8-0.6V8.7l-1.6,0.1L11,6.7l0.1-0.4l0.1-0.1l0.1-0.1l0.1,0l0.1,0h0.2l0.1-0.4L10.1,5.4z M14.5,1.2l0.4,0.3
	l1.2,1.7l0.4,0L16.7,3l0.1-0.2l0-0.1l0-0.3l-0.1-0.1l-0.2-0.2l-0.3-0.3l-1.3-0.7l-0.3-0.1L14.5,1.2L14.5,1.2z M12.8,0.6l0,3.6H7.8
	v0.5h4.9l0.1,3l0.4,3.3v1.1l-0.2,0.4l-3.6,4.3l0.1,0.1l1.5-1.1l2.7-3l0.4,1.3l0.7,1.2l1.2,1.5l0.8,0.5l0.2,0l0.1,0l0.2-0.1l0.1-0.1
	l0.1-0.1l0-0.2l0-0.2l0-0.2l0-0.2l-0.1-0.2L17.2,16l-0.1,0l-0.2,0l0.1-3.5h-0.1l-0.7,2.8l-0.8-0.9l-0.6-1.1l-0.3-0.8l-0.1-0.7l0-0.1
	l2.1-4.4l0.4-0.2V6.8l-1.5-0.5l-0.8,2.6l-0.7,1.4l-0.3-2.1l-0.1-3.6h3.6l-0.1-0.2l-0.2-0.4L17,3.9l-0.2-0.2l-0.6-0.3l-0.9,0.8
	l-0.1,0l-1.4-0.1l-0.1-2.3l0-0.1l0-0.1l0.7-0.5l0.1-0.4L12.8,0.6z M2.6,5h3.9v1.5H2.6V5z M2.6,3h3.9v1.5H2.6V3z M3.9,0.5l-0.4,2
	L3.3,2.5L2.9,2.5L2,2L1.6,1.9v9.4l0.3,0.2l0.1,0l0.2,0l0.1-0.1l0.3-0.2l0-0.3h4.5v0.2c0,1.7-0.3,3-0.8,4.2l-0.1,0.2l-0.1,0.1
	l-0.3,0.1l-2.3-0.1v0.1l1.9,0.8l0,0.2l0,0.1l0.1,0.1l0.1,0.1h0.1l0.4-0.1l0.4-0.2l0.2-0.2L7,16.3l0.8-2.2l0.3-2.6l0-0.1l0.6-0.6
	v-0.3L7.6,9.9L7.4,10l-0.5,0.4l-0.4,0.1l-3.9-0.1V8.9h6.2L8.5,8.3L8,7.9L7.7,7.7l-0.2,0L6.7,8.5L6.5,8.5L2.6,8.5V7h3.9l0.1,0.4
	l0.1,0.1l0.1,0.1l0.1,0l0.2,0l0.5-0.2l0-3.9l0.7-0.3L7.7,2.3L7.4,2.1l-0.1,0l-0.1,0l-0.1,0L6.3,2.6l-0.2,0L3.9,2.5l0.2-0.4l0.4-0.5
	l0.8-0.5V0.8L3.9,0.5z"/>
</svg>
