<?xml version="1.0" encoding="utf-8"?>
<!-- Generator: Adobe Illustrator 22.0.1, SVG Export Plug-In . SVG Version: 6.00 Build 0)  -->
<svg version="1.1" id="レイヤー_1" xmlns="http://www.w3.org/2000/svg" xmlns:xlink="http://www.w3.org/1999/xlink" x="0px"
	 y="0px" viewBox="0 0 18 18" style="enable-background:new 0 0 18 18;" xml:space="preserve">
<path d="M9.1,4.1l0.4-0.7C9.7,2.9,9.7,2.8,10,2.1c0.5-0.1,0.7-0.3,0.7-0.5c0-0.2-0.1-0.3-0.5-0.5l-1-0.4C8.7,2.9,7.9,4.9,6.8,6.9
	L7,7.1C7.9,6,8.1,5.7,8.8,4.6h8.3c0.3,0,0.4-0.1,0.4-0.3c0-0.1-0.1-0.3-0.3-0.4L16.1,3l-0.9,1.1H9.1z M5.5,8.5c-0.3,0-0.4,0-0.4,0
	c-0.6,0-1.3,0.1-1.9,0.1c0,0-0.2,0-0.3,0V3.8h2.7V8.5z M5.5,9v6c0,0.6-0.1,0.8-0.7,0.8l-1.3-0.1v0.3c1.2,0.2,1.4,0.3,1.6,1.1
	c1.1-0.1,1.4-0.6,1.5-1.8V8.9l1.6-0.3V8.2L6.5,8.4V4.1c0.4-0.2,0.6-0.4,0.6-0.5c0-0.2-0.2-0.4-0.5-0.6L5.9,2.6L5.4,3.3H4.2l0.7-1.7
	c0.3-0.1,0.5-0.3,0.5-0.5c0-0.1-0.1-0.2-0.4-0.4l-1-0.2v0.2v0.1c0,0.8-0.1,1.4-0.2,2.6H3L1.8,2.6v6.1H0.5l0.3,1.1
	C0.9,10,1,10.2,1.1,10.2c0.1,0,0.3-0.1,0.4-0.4l0.3-0.1c-0.1,3.8-0.3,4.9-1.1,7l0.2,0.2c1-1.4,1.4-2.2,1.6-3.4
	c0.2-1,0.4-2.8,0.4-3.8V9.5l0.8-0.2v4.4c0,0.2,0.1,0.3,0.3,0.3c0.3,0,0.4-0.1,0.6-0.5V9.2L5.5,9z M3.2,4.9c0.5,0.7,0.6,1,0.8,2
	C4,7.4,4.2,7.6,4.5,7.6S5,7.3,5,7c0-0.8-0.4-1.4-1.7-2.3L3.2,4.9z M14.8,8.3l-2.2,0.4V6.3c0.4-0.2,0.6-0.3,0.6-0.5
	c0-0.2-0.2-0.3-0.6-0.4l-1-0.2v3.7L9.6,9.2V7.7c0.4-0.2,0.6-0.4,0.6-0.5c0-0.2-0.3-0.4-0.7-0.4L8.5,6.6v2.8L6.9,9.6v0.5l1.6-0.3v5.4
	c0,1.5,0.3,1.6,3.5,1.6h1.6c2.6,0,3.7-0.2,3.7-0.8c0-0.2-0.2-0.4-0.6-0.7l0.1-2.1h-0.3l-0.4,1.5c-0.1,0.5-0.2,0.6-0.4,0.7
	c-0.3,0.2-1.2,0.3-2.6,0.3c-0.3,0-0.6,0-0.9,0c-0.5,0-0.9,0-1.1,0c-1.4,0-1.7-0.1-1.6-0.6v0V9.7l2.1-0.4V14c0,0.2,0.1,0.4,0.3,0.4
	c0.3,0,0.4-0.1,0.7-0.5V9.1l2.2-0.4v1c0,0.8-0.1,1.9-0.2,2.4c-0.1,0.5-0.2,0.6-0.6,0.6c-0.1,0-0.2,0-0.4,0h0l-1-0.2v0.3
	c1,0.4,1.2,0.6,1.2,1.3c0.7-0.2,1.1-0.4,1.3-0.8c0.3-0.5,0.6-2,0.6-3.7V9c0.4-0.2,0.6-0.4,0.6-0.6c0-0.2-0.2-0.4-0.5-0.6l-0.6-0.4
	L14.8,8.3z"/>
</svg>
