<?xml version="1.0" encoding="utf-8"?>
<!-- Generator: Adobe Illustrator 22.0.1, SVG Export Plug-In . SVG Version: 6.00 Build 0)  -->
<svg version="1.1" id="レイヤー_1" xmlns="http://www.w3.org/2000/svg" xmlns:xlink="http://www.w3.org/1999/xlink" x="0px"
	 y="0px" viewBox="0 0 18 18" style="enable-background:new 0 0 18 18;" xml:space="preserve">
<path d="M3.6,10.7L3,11.4l-2.5-0.1v0.6h2.7v3.2l-2.7,0.7l0.1,0.4l0.5,1l0.1,0.1l0.3,0l0.2-0.6l2.3-1.6l0.3,0.3l1,0.6l2.9,0.8l8.5,0
	l0-0.3l0.5-0.6l0.1-0.3l-9.2,0.2l-3-0.5l-1-0.6l0-2.1l0-0.1L5,12.1l-0.9-1.2l-0.3-0.2L3.6,10.7z M12.9,7.8l0,5.7l0.1,0.4l0.2,0.3
	l0.1,0.1l0.3,0.1l2.3,0l0.5-0.1l0.4-0.2l0.2-0.2l0.1-0.1l0.1-0.1l0-0.3L16.8,13l-0.1-0.1l-0.1-0.3l0-1.7h-0.1l-0.1,0.5l-0.6,1.5
	l-0.3,0.3l-0.3,0.3L15,13.5l-0.3,0.1l-0.2,0l-0.2-0.1L14,13.2l-0.1-0.4l0-3.7l0.1-0.1L14,8.9l0.6-0.4V8.1L12.9,7.8z M7.2,7.8l0,3.4
	l-0.3,1.3l-0.2,0.4l-1.3,1.8l0.1,0.1l0.9-0.5l0.7-0.6l0.8-1.2l0.3-0.8l0.1-2.7l0.1-0.1L9,8.5V8.1L7.2,7.8z M0.9,7.3l0.8,0.4l1.6,1.7
	L3.8,9l0-0.1l0-0.3L3.8,8.3L3.5,8L3.3,7.8L2.6,7.4l-1-0.3H1.2L0.9,7.3L0.9,7.3z M12.2,4.3l1.8,2L14,6.4l0.2,0l0.1-0.1l0.1-0.1
	L14.5,6l0-0.4l-0.1-0.3l-0.3-0.4l-0.3-0.3l-0.5-0.2l-0.6-0.1L12.2,4.3z M10.1,4.1v2.7H5v0.5h5.1v8.1l0.2,0.1l0.2,0l0.7-0.2v-8h5.8
	L16.7,7l-1.2-1.3l-0.9,1l-0.1,0.1l-0.4,0.1l-2.9,0l-0.1-1l0.1-0.5l0-0.1l0.1-0.1l0.6-0.4V4.3L10.1,4.1z M2.1,4.1l0.7,0.6l1.2,1.6
	l0.5-0.2l0.1-0.2l0.1-0.2l0-0.2l0-0.1L4.5,4.9L3.6,4.3l-1-0.4L2.1,4.1L2.1,4.1z M5.9,0.7l0,1.6H0.5v0.5h5.4l0,0.9l0.1,0.1L6,3.9
	L6.1,4L6.2,4l0.1,0L6.6,4l0.3-0.2l0-1H11v0.9l0,0.1l0.1,0.1L11.1,4L11.3,4l0.2,0L11.7,4L12,3.8l0-1h5.5l-0.1-0.3L16.1,1l-1.1,1.2
	l-0.1,0.1l-0.4,0.1l-2.6,0l0-0.5l0.1-0.1l0.6-0.4V1L11,0.7v1.6H6.9l0-0.3l0-0.2l0.1-0.1l0.6-0.4V0.9L5.9,0.7z"/>
</svg>
