<?xml version="1.0" encoding="utf-8"?>
<!-- Generator: Adobe Illustrator 22.0.1, SVG Export Plug-In . SVG Version: 6.00 Build 0)  -->
<svg version="1.1" id="レイヤー_1" xmlns="http://www.w3.org/2000/svg" xmlns:xlink="http://www.w3.org/1999/xlink" x="0px"
	 y="0px" viewBox="0 0 18 18" style="enable-background:new 0 0 18 18;" xml:space="preserve">
<path d="M12.6,5.7L12.7,9l-0.1,0.4l0,0.1l-0.1,0l-0.2,0.1L9.5,9.5v0.5h3.1v6.1H9.2v0.5h8.3l-0.3-0.7l-0.4-0.5l-0.4-0.2l-0.2-0.1
	l-0.1,0l-1,0.9l0,0l-0.1,0l-1.2-0.1V9.9h3.5L17,9.7l-0.3-0.4l-0.9-0.9l-0.7,0.8L15,9.3l-0.3,0.1l-1.1,0L13.6,7l0-0.1l0-0.1l0.1-0.1
	l0.7-0.4V5.9L12.6,5.7z M10.3,0.7L10,2.7L9.6,3.7L9.4,3.9L9.3,4L8.9,4.1l-2.3,0v0.5h2.6L5.7,11L6,11l0.3-0.1l1-1.1L8,8.6v8.4
	l0.2,0.1l0.2,0L9,16.9V8.5l0.6-0.4V7.7L8.8,7.5l1.4-2.9h7.2l-0.6-1l-0.4-0.4l-0.1-0.1l-0.2,0l-0.1,0l-0.2,0.1l-0.8,0.9h-4.7L11,2.7
	l0.8-1.2l0.1-0.1l0.3-0.1l0.2-0.3L10.3,0.7z M3.2,0.7l0,4.1H0.5l0.1,0.3l0.1,0.1l0.1,0.1l0.1,0l2.3-0.1v0.2l-1.3,5l-1.4,2.7v0.4
	l0.3-0.1L1,13.4l0.2-0.2l2-3.8v7.7l0.2,0.1l0.2,0l0.7-0.2V7.8l0.3,0.3l1.3,1.7l0.4,0.1l0.2-0.6V8.8L6.3,8.5L6.3,8.4L5.9,8.1L5.3,7.7
	l-1-0.2l0-2.1l0-0.1l0.1,0l0.1,0l2.3,0.1L6.4,4.4L5.8,3.9L5.6,4L4.7,4.8L4.5,4.9l-0.3,0L4.2,2l0-0.1l0-0.1l0.1-0.1L5,1.3V0.9
	L3.2,0.7z"/>
</svg>
