<?xml version="1.0" encoding="utf-8"?>
<!-- Generator: Adobe Illustrator 22.0.1, SVG Export Plug-In . SVG Version: 6.00 Build 0)  -->
<svg version="1.1" id="レイヤー_1" xmlns="http://www.w3.org/2000/svg" xmlns:xlink="http://www.w3.org/1999/xlink" x="0px"
	 y="0px" viewBox="0 0 18 18" style="enable-background:new 0 0 18 18;" xml:space="preserve">
<path d="M8.1,6.3v2.5H5.3L5.7,8l0.2-0.1l0.1,0l0.4,0l0-0.5L5.2,6.8l-0.2,0l-1.8,4.2L3.5,11l0.3-0.1L4,10.7l0.9-1.4h3.2v2.6H2.6v0.5
	h5.5l0,4.4l0.1,0.1L8.3,17l0.2,0l0.2,0l0.2-0.1l0.1-0.1l0.1-0.3l0-0.1l0-4.1h5.8l-0.1-0.2l-0.3-0.6l-0.4-0.4l-0.6-0.5l-0.7,0.9
	l-0.1,0.1l-0.5,0.1h-3V9.3h4.4l-0.3-0.7l-0.4-0.5l-0.4-0.2l-0.2-0.1l-0.1,0l-1.1,1l-0.1,0.1l-0.2,0l-0.3,0L9.1,8.7V7.8l0.1-0.3
	l0.1-0.1L9.9,7L9.7,6.5L8.1,6.3z M10.7,3.7h4.5V5h-4.5V3.7z M10.7,1.9h4.5v1.3h-4.5V1.9z M9.8,0.6L9.6,5.4l0.1,0.5L10,6.1l0.1,0.1
	l0.2,0l0.1,0l0.1-0.1l0.2-0.2l0.1-0.3h4.5v10.3L14.6,16l-1.9-0.4l-0.3,0.2l0.2,0.3l0.5,0.3l1.4,0.3l0,0.7l0.6,0l0.4-0.1l0.3-0.2
	l0.2-0.2l0.1-0.2l0.1-0.4l0.1-13.8L17.1,2l-0.7-1l-0.3-0.2l-0.1,0l-0.1,0L15,1.4l-0.3,0.1l-3.8,0l-0.3-0.1L9.8,0.6z M1.9,3.7h4.5V5
	H1.9V3.7z M1.9,1.9h4.5v1.3H1.9V1.9z M0.9,0.7v16.4l0,0.1L1,17.3l0.1,0.1l0.2,0l0.2,0l0.1-0.1l0.1-0.1L1.8,17l0.1-0.2l0-11.3h4.5
	l0,0.3l0,0.3l0.1,0.2l0.1,0.1l0.2,0L7,6.2l0.1-0.1L7.2,6l0.1-0.3l0.1-3.2l0.1-0.1L8.3,2L7.8,1.3L7,0.7L6.7,0.9L6.2,1.4L5.9,1.5
	l-3.7,0l-0.1,0L1.3,0.7L0.9,0.7z"/>
</svg>
