<?xml version="1.0" encoding="utf-8"?>
<!-- Generator: Adobe Illustrator 22.0.1, SVG Export Plug-In . SVG Version: 6.00 Build 0)  -->
<svg version="1.1" id="レイヤー_1" xmlns="http://www.w3.org/2000/svg" xmlns:xlink="http://www.w3.org/1999/xlink" x="0px"
	 y="0px" viewBox="0 0 18 18" style="enable-background:new 0 0 18 18;" xml:space="preserve">
<path d="M12.1,11.7l0.9,0.8l0.6,1.1l0.1,0.1l0.1,0l0.2,0l0.1-0.1l0.2-0.1l0.1-0.2l0.1-0.1V13v-0.1l-0.1-0.1l-0.2-0.3l-0.4-0.3
	l-0.6-0.3l-0.6-0.1L12.1,11.7z M8.4,11.8l0.3,0.1l0.9,1.4l0.2,0.1l0.1,0.1l0.2,0l0.1,0l0.1-0.1l0.1-0.1l0.1-0.1l0.1-0.1l0-0.3
	l-0.1-0.2l-0.2-0.3l-0.2-0.2l-0.8-0.4l-0.3-0.1l-0.2,0L8.4,11.8L8.4,11.8z M12.3,9l0.2,0.3l1.4,1.5l0.1,0h0.1l0.2-0.1l0.1-0.1l0-0.1
	l0-0.1l-0.1-0.3L14,9.5l-0.3-0.3L13.2,9L12.5,9L12.3,9z M8.3,9L9,9.6l0.8,1.3l0.5,0l0.2-0.1l0.1-0.1l0.1-0.1l0.1-0.2l0-0.1l-0.1-0.4
	l-0.2-0.3l-0.2-0.2L9,8.9l-0.3,0L8.3,9z M14.8,7.8l0,4.8l0.2,1.7l0.7,1.8l0.5,0.6l0.5,0.4l0.4,0.2l0.4,0L17.4,16l0.1-2.5l-0.1-0.3
	h-0.1l-0.8,1.9l-0.3-0.4l-0.3-0.9l0-5.1L16,8.5l0,0l0.1,0l0.3,0L16.5,8L14.8,7.8z M10.9,7.8v7.7l-0.1,0.2l-0.1,0.1h0l-0.9,0l0.4,0.9
	l0,0.1l0,0.6l0.4-0.1l0.7-0.6l2.7-1.4l0.6-0.1l0.1-0.1l0.1-0.3l-0.3-0.1h-0.1l-2.5,0.7l0-6.5l0.1-0.3L12,8.5l0.1,0l0.1,0h0.4L12.7,8
	L10.9,7.8z M7.1,7.8v7.6l-1.5,0.1L5.6,16l0.6,1.4l0.4-0.1l0.1-0.1l0.4-0.6l3.7-1.8v-0.1l-0.4,0l-2.4,0.6l0-6.3l0.1-0.1l0.1-0.2
	l0.1-0.1l0.1,0h0.4L9,8L7.1,7.8z M11.5,1.3l-0.9-0.6l-0.1,0l-0.2,0L9,1.4L8.5,1.6h0L7.2,0.9v6.3l0.3,0.2l0.2,0l0.2,0l0.1-0.1
	l0.3-0.2l0-0.3h6.7l0.2,0.2l0.1,0.1l0.1,0l0.1,0l0.1,0l0.3-0.1L15.9,7l0.1-4.5l0.5-0.3L16.8,2l-0.4-0.8L16.2,1l-0.7-0.4l-0.9,0.8
	l-0.2,0l-2.6-0.1v0.5H15l0,1.7l-0.1,0.3l0,0.1l-0.1,0L14.6,4l-2.8-0.1v0.5H15v2H8.2l0-1.7l0.1-0.3l0-0.1l0.1-0.1l0.2-0.1l2.9,0.1
	l-0.1-0.3L11,3.5l-0.2-0.2l-0.6-0.3L9.4,3.8L9.3,3.9h-1V2l3.3-0.3V1.3z M3.3,0.7l0,4.1H0.6l0.1,0.3l0.1,0.2l0.1,0.1l0.1,0l2.3-0.1
	L3.3,5.8l-1.6,5.1l-1.3,2.7l0.1,0.1l0.7-0.6l1.1-1.7l0.9-2v7.7l0.2,0.1l0.1,0L4.3,17V8.1l0.3,0.2l1.5,2.1l0.1,0.1l0.1,0l0.2-0.2
	L6.7,10l0-0.4L6.6,9.4L6,8.5L5.3,8L4.7,7.8l-0.3,0l0-2l0.1-0.4l0-0.1l0.1,0l0.1,0l2.4,0.1L6.5,4.4L6,3.9L5.6,3.8L5.4,4.2L5.2,4.5
	L4.8,4.8L4.6,4.8l-0.3,0V1.8l0.7-0.5V0.9L3.3,0.7z"/>
</svg>
