<?xml version="1.0" encoding="utf-8"?>
<!-- Generator: Adobe Illustrator 22.0.1, SVG Export Plug-In . SVG Version: 6.00 Build 0)  -->
<svg version="1.1" id="レイヤー_1" xmlns="http://www.w3.org/2000/svg" xmlns:xlink="http://www.w3.org/1999/xlink" x="0px"
	 y="0px" viewBox="0 0 18 18" style="enable-background:new 0 0 18 18;" xml:space="preserve">
<path d="M2.8,0.9l0.1,4.9l0,0.1l0,0.1L2.8,6l-2.2,0v0.5h2.2v6.1l-1.7,0.2l-0.3,0.1L0.8,13l0,0.1l0.5,1.6h0.4l0.1-0.3l0.2-0.2
	l1.2-0.8l3-1.3l0-0.1l-0.3,0.1l-0.3,0l-1.2,0.3l-0.4,0V6.4h2.5V6L5.2,4.8L4.4,5.8L4.2,5.9L3.8,6L3.7,2.2l0-0.1l0-0.1L3.8,2l0.8-0.5
	l0.1-0.4L2.8,0.9z M7.7,8h6.8l-0.1,2.6l-0.4,3H7.1L7.7,8z M8.2,1.9h6.4v5.6H7.8L8.2,1.9z M7.3,0.7L6.8,7.5h-2V8l1.6,0l0.3,0.1
	l0.1,0.1l0,0.1l0,0.1l-0.9,7.3l1.1-0.3l0-1.2H14L13.8,15l-0.3,0.6l-0.1,0.1l-0.1,0.1l-0.2,0l-2.4-0.2l0.3,0.5l1.9,0.5l0.1,0.7
	l0.3-0.1l0.8-0.2l0.1-0.1l0.2-0.2l0.3-0.5l0.5-2.2l2.3,0l-0.5-0.9l-0.7-0.6l-0.6,0.9l-0.1,0.1l-0.1,0.1h-0.2L15.6,8h1.9l-0.1-0.3
	l-0.1-0.2l-0.8-0.9l-0.6,0.8l-0.2,0.1l-0.1,0l-0.2-4.8l0.1-0.2l0-0.1l0.1-0.1l0.6-0.2L16.4,2V1.9l0-0.2l-0.1-0.1l-0.1-0.1l-0.8-0.6
	l-0.4-0.1H15l-0.1,0.1l-0.5,0.6H8.5L7.3,0.7z M9.4,8.7l0.8,1.4l0.7,2.5l0.1,0.1l0.2,0.1l0.1,0l0.2,0l0.3-0.2l0.1-0.1l0.1-0.1
	l0.1-0.3l0-0.3l0-0.4L12,11.2l-0.4-0.7l-1.2-1.4L10,8.8L9.4,8.7z M10,2.7l0.7,1.4l0.7,2.4l0,0.1l0.1,0.1l0.1,0.1h0.1l0.2,0l0.2-0.1
	l0.1-0.1l0.1-0.2l0.1-0.3V5.3l-0.1-0.4L12,4.2l-1-1.1l-0.6-0.4L10,2.7L10,2.7z"/>
</svg>
