<?xml version="1.0" encoding="utf-8"?>
<!-- Generator: Adobe Illustrator 22.0.1, SVG Export Plug-In . SVG Version: 6.00 Build 0)  -->
<svg version="1.1" id="レイヤー_1" xmlns="http://www.w3.org/2000/svg" xmlns:xlink="http://www.w3.org/1999/xlink" x="0px"
	 y="0px" viewBox="0 0 18 18" style="enable-background:new 0 0 18 18;" xml:space="preserve">
<polygon points="15.5,0.8 14.5,2.1 0.9,2.1 0.9,2.6 8,2.6 4.6,8 0.6,13.1 0.7,13.2 0.9,13.1 1.3,12.9 3.8,10.6 7,6.6 8.4,4.2 
	8.4,16.9 8.6,17 8.7,17.1 9.4,16.8 9.4,3 10.1,4.9 12.5,9.2 14.2,11.1 16.3,13 17.4,11.8 17.3,11.5 17.2,11.5 16,11 15.5,10.5 
	12.6,7.5 9.7,2.7 9.7,2.6 17.1,2.6 16.9,2 16.6,1.6 "/>
</svg>
