<?xml version="1.0" encoding="utf-8"?>
<!-- Generator: Adobe Illustrator 22.0.1, SVG Export Plug-In . SVG Version: 6.00 Build 0)  -->
<svg version="1.1" id="レイヤー_1" xmlns="http://www.w3.org/2000/svg" xmlns:xlink="http://www.w3.org/1999/xlink" x="0px"
	 y="0px" viewBox="0 0 18 18" style="enable-background:new 0 0 18 18;" xml:space="preserve">
<path d="M4.8,1L4.3,1.6L4.2,1.7L3.8,1.8l-3-0.1v0.5h3.4v3.4L2.9,5.8L2.6,5.7L1.8,5.1L1.5,4.9l-1.1,6.4L1.5,11l0.1-0.5l0.1-0.1
	l0.1-0.1l0.2-0.1l2.3,0.1l-0.6,4.8l-0.3,0.6l-2.7-0.2v0.1l1.7,1l0,0.1l0,0.1l0,0.3l0.4,0l0.4-0.1l0.4-0.2L4,16.6l0.3-0.4l0.4-0.9
	L5.3,11l0.1-0.3l0.1-0.1l0.1-0.1l0.1,0l0.4,0l-0.2-0.4L5.5,9.6L4.7,9.1L4,9.8L1.7,9.8l0.6-3.6h2l0,0.3l0,0.3l0.1,0.1L4.5,7l0.3,0
	l0.5-0.3L5.2,3l0-0.1l0.1-0.1l0.1-0.1l0.7-0.4l-0.8-1L5,1.1L4.8,1z M14,0.7l-1.2,4.5l-0.1,0.1l-0.3,0.1l-0.3,0l-0.6,0v0.5h1.8
	l0.1,3.5L13.3,10l0,0l-0.1,0.1L13,10.1L10.8,10v0.5h2.5v6.6l0.1,0.1l0.1,0l0.1,0l0.2,0l0.5-0.2v-6.5h3.2l-0.3-0.6l-0.2-0.3l-0.5-0.4
	l-0.3-0.1L15.3,10L15.1,10l-0.8,0l-0.1-3.6l0.1-0.5l0-0.1l0.1,0l0.2-0.1l2.5,0.1l-0.2-0.5L16.7,5L16,4.4L15,5.3l-0.3,0.1l-0.4,0.1
	l-1.2-0.1l1.3-2.8L14.9,2l0.1-0.1l0.6-0.2V1.3L14,0.7z M8.4,0.7L7.1,5.2l0,0.1L7,5.3L6.8,5.4l-1.1,0v0.5h2.1L7.9,10l0,0.2l0,0.1
	l-0.1,0l-0.4,0.1l-1.7,0.2l0.5,1.7h0.5l0-0.3l0-0.1L7,11.5l0.2-0.1l0.2-0.1l0.4,0l-0.1,1.6L7,15l-1.4,2.2l0.1,0.1l0.3-0.1l0.4-0.3
	L7,16.2l1.3-1.9L8.7,13l0.1-2.1l2.6-1.3l0-0.1l-0.2,0.1h-0.1l-0.3-0.1l-2,0.3l0-4l0.1-0.1l2.3,0l-0.2-0.5L10.7,5L9.9,4.4L9.5,5
	L9.1,5.3L8.8,5.4l-0.4,0L7.6,5.3l1.3-2.8L9.3,2l0.1-0.1l0.8-0.2V1.3L8.4,0.7z"/>
</svg>
