<?xml version="1.0" encoding="utf-8"?>
<!-- Generator: Adobe Illustrator 22.0.1, SVG Export Plug-In . SVG Version: 6.00 Build 0)  -->
<svg version="1.1" id="レイヤー_1" xmlns="http://www.w3.org/2000/svg" xmlns:xlink="http://www.w3.org/1999/xlink" x="0px"
	 y="0px" viewBox="0 0 18 18" style="enable-background:new 0 0 18 18;" xml:space="preserve">
<path d="M5.2,8.7l0.1-0.6l0.3-0.9l0.6-1L7,5.3l0.9-0.6L7.7,4.6L6.3,5.4l-0.8,1L4.9,7.6L4.5,8.7L4.3,9.5l-0.1,0.9
	C4.3,11.8,4.7,13,5.5,14c1.1,1.5,2.7,2.4,4.5,2.4c1.1,0,2.4-0.4,3.5-1.3c0.8-0.6,1.3-1.3,1.9-2.4l0.3-0.6l0.2-0.6l0.2-1l0.1-1.1
	l-0.1-1.1L16,7.2l-0.3-1.1l-0.4-1l-0.2-0.4l-0.2-0.3l-0.7-0.8l-1-0.8l-0.3-0.2l-0.3-0.2c-0.9-0.5-1.9-0.8-3-0.8l-0.4,0L8.4,1.6
	L7.1,1.9l-1,0.3L5.7,2.3L5.5,2.5l-3,2.6L2.3,5.1L1.8,5.3L1.4,5.3l0.1,0.3l0.3,0.5l0.4,0.4l0.3,0.2l0.3,0.1l0.1,0l0.2,0l0.2-0.3
	l1.1-1.7l0.2-0.3L5,4.2l0.7-0.5l0.5-0.3l0.6-0.2L8,2.9l1.4-0.1c2.7,0.1,3.8,0.8,4.9,3l0.3,0.8l0.3,0.9l0.2,0.9l0.1,0.8v0.2l0,0.2
	L15.1,10l-0.4,2.3l0,0.1l-0.1,0.2l-0.1,0L14.3,13c-1,1.6-2.5,2.5-4.2,2.5c-1.4,0-2.7-0.6-3.6-1.7c-0.9-1-1.3-2.2-1.3-3.9L5.2,8.7z"
	/>
</svg>
