<?xml version="1.0" encoding="utf-8"?>
<!-- Generator: Adobe Illustrator 22.0.1, SVG Export Plug-In . SVG Version: 6.00 Build 0)  -->
<svg version="1.1" id="レイヤー_1" xmlns="http://www.w3.org/2000/svg" xmlns:xlink="http://www.w3.org/1999/xlink" x="0px"
	 y="0px" viewBox="0 0 18 18" style="enable-background:new 0 0 18 18;" xml:space="preserve">
<polygon points="5.9,0.7 2.9,6 8.3,9.1 8.2,9.3 8.1,9.4 7.9,10 7.2,11.1 5.6,13.8 5.3,13.7 4.1,13.1 2.7,12.2 1.6,11.5 1.2,11.2 
	1,11.1 0.6,11.6 0.6,11.9 6,15.1 9.1,9.6 13.7,12.3 11,16.7 11.6,17.3 11.9,17.3 15,12 9.6,8.9 9.7,8.6 11.9,4.9 12.3,4.2 12.5,4.3 
	16.4,6.6 16.5,6.6 16.9,6.8 17.4,6.1 11.9,3 8.7,8.4 4.2,5.7 4.3,5.4 6.6,1.2 "/>
</svg>
