<?xml version="1.0" encoding="utf-8"?>
<!-- Generator: Adobe Illustrator 22.0.1, SVG Export Plug-In . SVG Version: 6.00 Build 0)  -->
<svg version="1.1" id="レイヤー_1" xmlns="http://www.w3.org/2000/svg" xmlns:xlink="http://www.w3.org/1999/xlink" x="0px"
	 y="0px" viewBox="0 0 18 18" style="enable-background:new 0 0 18 18;" xml:space="preserve">
<path d="M2.1,12.8l-0.7,2.1L0.7,16l-0.1,0.2l0,0.3l0.1,0.2l0.1,0.2l0.3,0.2l0.2,0l0.1,0L1.6,17l0.2-0.2l0.2-0.2l0.2-0.3l0.4-3.1
	l-0.1-0.2L2.1,12.8z M3.6,12.6L3.5,13l-0.1,1.4l-0.4,1.8l0,0.1l0,0.1l0.1,0.1l0.2,0.1l0.2,0l0.2,0L4,16.6l0.1-0.1l0.1-0.2L4.3,16
	l0.1-0.4L4,13.1l-0.1-0.2L3.6,12.6z M5,12.5l0.3,1.5l0,1.8L5.4,16l0.2,0.1l0.1,0l0.1,0l0.2,0l0.2-0.1l0.2-0.2l0.1-0.2l0.1-0.3l0-0.2
	l0-0.2l-0.8-2.2l-0.3-0.4l-0.2-0.1L5,12.5z M6.5,12.3l1.1,3.2l0.1,0.2l0.1,0L8,15.7l0.1,0l0.2-0.1l0.1-0.1l0-0.1l0-0.1l0-0.6L8.3,14
	l-0.2-0.4l-0.5-0.7L6.5,12.3L6.5,12.3z M9.8,2.4h3l-0.1,4.1l0.1,0.6l0.1,0.1l0.1,0.1L13,7.4l0.1,0l0.1,0l0.1-0.1l0.2-0.1L13.7,7
	l0.1-0.2l1.6,0V11l-1.1,0l-1.1-0.7l-0.4-0.1v5.5h-3V2.4z M16.1,0.8l-0.9,1.1l-5.1,0L9.8,1.8L9.5,1.6L9.2,1.2L9,1.2H8.8v15.8L8.9,17
	l0.3,0l0.3,0l0.3-0.2l0-0.7h7.7l-0.4-0.8l-0.9-0.9l-0.8,0.9l-0.2,0.2l-0.3,0.1h-1.1v-4.1h1.5v0.2l0.1,0.2l0.1,0.1l0.1,0.1l0.1,0
	l0.2,0l0.5-0.3l-0.1-2.7l0.1-1.6l0-0.1l0.1-0.1l0.7-0.4l-0.4-0.7l-0.8-0.6l-0.4,0.5l-0.2,0.1l-0.3,0.1l-0.4,0l-0.8-0.1V2.4h3.7
	l-0.1-0.3l-0.9-1.1l-0.2-0.1L16.1,0.8z M10.8,5.7v6.6l0.2,0.1l0.2,0l0.2,0l0.5-0.2V6.6l0.6-0.3l0.1-0.2l0-0.3L10.8,5.7z M5.2,8.7
	l1.4,0v2.5H5.2V8.7z M2.8,8.7l1.4,0v2.5l-1.4-0.1V8.7z M5.2,5.6l1.4,0v2.5H5.2V5.6z M2.8,5.6l1.4,0v2.5H2.8V5.6z M3.4,2.7l1.8,0.1
	l0,0.1L5.1,3.1l-1,1.9L3.9,5.1l-0.1,0l-0.2,0L3.1,5.1L2.3,4.7L3.4,2.7z M2.8,0.6L1.4,4.9L0.4,6.6l0.1,0.1l1.2-1v6.7l0.2,0.1l0.1,0.1
	l0.3,0l0.4-0.2v-0.5h3.7l0.2,0.2L6.8,12l0.1,0L7,12l0.6-0.2V6.1l0.8-0.4L8.2,5.2L7.4,4.6L7.2,4.4L6.4,5.1l-0.2,0L4.6,5.1l0.9-1.3
	l0.2-0.2L6.9,3l0.2-0.2V2.6L5.9,1.7L5.5,2.1L5.3,2.2L5.1,2.3L3.6,2.2l0.2-0.6l0.8-0.2V1L2.8,0.6z"/>
</svg>
