<?xml version="1.0" encoding="utf-8"?>
<!-- Generator: Adobe Illustrator 22.0.1, SVG Export Plug-In . SVG Version: 6.00 Build 0)  -->
<svg version="1.1" id="レイヤー_1" xmlns="http://www.w3.org/2000/svg" xmlns:xlink="http://www.w3.org/1999/xlink" x="0px"
	 y="0px" viewBox="0 0 18 18" style="enable-background:new 0 0 18 18;" xml:space="preserve">
<path d="M1.9,12.7l-0.5,1.8l-1,1.8l0,0.1v0.1l0.1,0.5L1,17l0.2,0l0.2-0.1l0.3-0.2l0.1-0.2L2,16l0.3-2l-0.1-0.9L1.9,12.7L1.9,12.7z
	 M3.2,12.5l-0.4,3.4l0,0.2L3,16.2l0.2,0.1l0.2,0.1l0.2,0l0.1-0.1l0.1-0.1l0.1-0.2l0.2-0.5l0-0.6l-0.1-1l-0.5-1.4H3.2z M4.5,12.2
	l0.6,3.3l0.1,0.1l0.1,0.1l0.3,0l0.1-0.1L6,15.3L6,15.1l0-0.4l-0.2-1.1l-0.2-0.4L4.5,12.2L4.5,12.2z M5.7,11.8l1.1,2.6l0.1,0.1
	L7,14.6l0.1,0l0.2,0l0.1-0.1l0.1-0.2l0-0.1l0-0.5l-0.1-0.5l-0.4-0.8l-0.2-0.2l-0.3-0.2L5.7,11.8L5.7,11.8z M13.7,8.6l1.5,1.8l0.6,0
	l-0.3-1l-0.1-0.2l-0.2-0.1l-0.3-0.2L13.7,8.6L13.7,8.6z M9.4,5.1h6v2.4h-6V5.1z M16.2,1.9l-0.1-0.2L15,0.6L9.8,2.3l-0.1,0l-0.1,0
	L8.4,1.4v8.4l-0.7,4.3l-1.5,2.8l0.4-0.1L7,16.6L7.6,16l1.3-2.6l0.4-1.8h2.4l-0.4,1.4l-0.6,1.2l-2.9,3l0.1,0.1l1.7-0.9l1.5-1.2l1-1.4
	l0.6-1.6l0.1,0.3c0.5,1.3,1.1,2.2,2,3.3l1,1l0.3,0.2l0.1,0l0.2,0l1.2-0.8l-0.2-0.3l-0.3,0c-0.8-0.2-1.5-0.7-2.7-1.8l-0.9-1.1
	l-0.6-1.1l0-0.2h4.6L17,10.8l-0.8-0.9l-1,1.1l-0.4,0.1l-0.3,0L12.9,11l-0.1-1.3l0.1-0.2l0.6-0.8l0-0.2l-1.7-0.3l0.1,2.2L11.7,11
	L11.6,11l0,0H9.4l0.1-3.1h6l0,0.1l0.1,0.3l0.2,0.1l0.2,0.1l0.2,0l0.4-0.3L16.3,6l0.1-0.3l0.1-0.1l0.8-0.4l-0.6-0.8l-0.4-0.3L16.1,4
	l-0.2-0.1l-0.1,0l-0.1,0l-0.2,0.2l-0.2,0.4H9.4V2.7l5.8-0.9L16.2,1.9z M4.8,8.7l1.4,0V11H4.8V8.7z M2.5,8.7l1.4,0V11H2.5V8.7z
	 M4.8,5.8l1.4,0v2.3H4.8V5.8z M2.5,5.8l1.4,0v2.3L2.5,8.1V5.8z M3,3l0.2-0.1l0.3-0.1l0.4,0l1,0.1L4.7,3.8L4.5,4.4L4.2,4.8L3.8,5.2
	L3.5,5.4L3.1,5.4L2.6,5.3L2.3,5.1L2.1,4.9L3,3z M2.8,0.6L1.1,5.3L0.4,6.7l0.5-0.1l0.2-0.1l0.4-0.7v6.3l0.2,0.1l0.1,0.1l0.3,0
	l0.1-0.1L2.5,12v-0.4l3.4-0.2L6,11.4l0.4,0.4l0.1,0.1L6.7,12l0.2,0L7,11.9l0.2-0.2V6.3L8,5.8L7.5,5.1L6.6,4.5L5.9,5.3H4.4l0-0.1
	l1.5-1.8L6,3.4L6.9,3V2.7L5.4,2L4.8,2.5L4.6,2.5L3.5,2.4l0.1-0.3l0.2-0.3l0.1-0.1l0.1,0l0.1,0l0.6,0V1.2L2.8,0.6z"/>
</svg>
