<?xml version="1.0" encoding="utf-8"?>
<!-- Generator: Adobe Illustrator 22.0.1, SVG Export Plug-In . SVG Version: 6.00 Build 0)  -->
<svg version="1.1" id="レイヤー_1" xmlns="http://www.w3.org/2000/svg" xmlns:xlink="http://www.w3.org/1999/xlink" x="0px"
	 y="0px" viewBox="0 0 18 18" style="enable-background:new 0 0 18 18;" xml:space="preserve">
<path d="M8.3,1.5l0,7.2H2.6l0-5.9c0.8-0.3,0.9-0.3,0.9-0.5C3.4,2.1,3.3,2,3,1.9L1.5,1.5v8.3c0,0.3,0.1,0.5,0.3,0.5
	c0.3,0,0.7-0.3,0.7-0.6l0-0.1V9.2h5.7v6.7l-7.3,0v0.5h7.3v0.8c0,0.2,0.1,0.3,0.4,0.3c0.4,0,0.6-0.2,0.6-0.7V9.2h5.8v7.4
	c0,0.5,0.1,0.7,0.5,0.7c0.4,0,0.6-0.3,0.6-0.8V9.8l0.4-0.1C16.8,9.6,17,9.4,17,9.3c0-0.4-1-1.1-1.5-1.1c-0.1,0-0.2,0.1-0.4,0.3
	L15,8.7H9.3V2.3h6.9c0.3,0,0.4-0.1,0.4-0.2c0-0.3-0.6-0.9-1.6-1.5l-0.1-0.1l-1.1,1.3H9.7L8.3,1.5z"/>
</svg>
