<?xml version="1.0" encoding="utf-8"?>
<!-- Generator: Adobe Illustrator 22.0.1, SVG Export Plug-In . SVG Version: 6.00 Build 0)  -->
<svg version="1.1" id="レイヤー_1" xmlns="http://www.w3.org/2000/svg" xmlns:xlink="http://www.w3.org/1999/xlink" x="0px"
	 y="0px" viewBox="0 0 18 18" style="enable-background:new 0 0 18 18;" xml:space="preserve">
<path d="M16.1,9l-0.9,1.1H0.6v0.5h6.1l-0.3,1.7l-0.6,1.2l-0.4,0.6l-1.1,1L2,16.6l-0.6,0.2H1l-0.1,0l-0.1,0.1l-0.1,0.3l0.4,0l1.1-0.2
	l1.6-0.6l1.9-1.1l0.9-0.9L7,13.8l1-3.2h2.3v5.7l0,0.2l0.3,0.3l0.6,0.2l0.6,0.1l4.7-0.1l0.6-0.2l0.2-0.2l0.1-0.1l0-0.1v-0.1l-0.2-0.7
	l-0.3-2.5l-0.4,0.3l-0.1,1.1l-0.2,0.6l-0.2,0.3l-0.3,0.3l-0.3,0.1L15.1,16l-2.3,0.1l-1.5-0.3v-5.1h6.3L17,9.7l-0.5-0.6l-0.2-0.1
	L16.1,9z M16.1,6.7l-0.7,0.5l-4.6,1.7h-0.6L10,9.3l0.9,0.1l6-1.6h0.6l-0.1-0.5l-0.1-0.1L17,7l-0.6-0.4L16.1,6.7z M17.1,4.5l-0.3-0.3
	L16.6,4L16,3.7L15.5,4L11,5.8h-0.5l-0.3,0.6l7-1.7V4.5z M16.9,2l-0.2-0.4L15.9,1l-0.4-0.2l-0.3,0.3l-4.1,2l-0.7,0.1l-0.3,0.5
	l0.1,0.1l6-1.7H16.9z M2.7,0.8v5.6H0.4l0.1,0.3l0.1,0.2l0.1,0.1l0.1,0l2.2-0.1l0,0.2L2.6,8L2.4,8.2L2.3,8.3L2.1,8.3h-1l0.2,0.8
	l0.2,0.3l0.2,0.2l0.2,0.2L2,9.9h0.2L3,9.4l5.3-0.7l0.8,1l0.2,0l0.1,0l0.1-0.1l0.1-0.1l0.1-0.1l0.1-0.2V9L9.7,8.6L9.6,8.4L9.2,8
	l-1-0.6L7.7,7.3H7.2L8,8.2L7.4,8.3H3l1.5-1.5H10L10,6.6L9.6,6.1L9.3,5.8L9.1,5.7l-0.3,0l-0.1,0L7.9,6.3L7.4,6.4L3.7,6.4V5.2H9
	L8.7,4.6L8.4,4.2L8.2,4.1l-0.1,0L8,4.1l-0.1,0L7,4.8L6.6,4.8L3.7,4.8V3.6h5.1L8.7,3.4l0-0.1L8.6,3L8.3,2.7L8.1,2.5L8,2.5l-0.2,0
	l-0.1,0L7,3.2L6.7,3.2l-3-0.1V2h5.9L9.5,1.8L9.1,1.1L8.9,0.9L8.6,0.9L8.2,0.8L7.5,1.5L4.1,1.7L3.7,1.5L3.5,1.4L3,0.8H2.7z"/>
</svg>
