<?xml version="1.0" encoding="utf-8"?>
<!-- Generator: Adobe Illustrator 22.0.1, SVG Export Plug-In . SVG Version: 6.00 Build 0)  -->
<svg version="1.1" id="レイヤー_1" xmlns="http://www.w3.org/2000/svg" xmlns:xlink="http://www.w3.org/1999/xlink" x="0px"
	 y="0px" viewBox="0 0 18 18" style="enable-background:new 0 0 18 18;" xml:space="preserve">
<path d="M3.8,2.7l1.4,2.4L5.1,5.3L3.7,7.2l0.1,1.6l-0.4,3l0,0.5l0.1,0.8l0.2,0.7l0.2,0.4l0.2,0.3l0.3,0.3L4.7,15l0.2,0l0.3,0
	l0.3-0.7l0.9-3.1l0.3-0.8l0.5-0.8l0.2-0.3L7.7,9l0.4-0.3l0.6-0.4c1.3-0.8,2.5-1.3,3.9-1.4h0.1l0.2,0l0.8,0.9l0,0.3l0,0.2l-0.1,0.4
	l-0.2,0.4l-0.4,0.5l-0.5,0.4l-2.8,1.8l-0.3,0.4v0.8l0.1,0.1l1,0.5l0.4,0.1l3.3,0.1l0.1,0l0.2-0.2l0.2-0.5l-0.5-0.6l-0.3,0.1l-0.9,0
	l-2.4,0.3l-0.3,0L10,12.6l-0.2-0.1l-0.2-0.2l0.1-0.1l3.7-2.3l0.3-0.2l0.4-0.5l0.3-0.5l0.1-0.7l0-0.6l-0.2-0.2l-0.5-0.6l-0.6-0.4
	L12.8,6l-0.5-0.1l-0.4,0l-0.6,0.1l-1.2,0.4L9,7.1L8.7,7.2L8.5,7.4l-1,0.8L7.2,8.8l-2.1,3.8l-0.4,0.6H4.5l0-0.2l0.1-4.5L4.3,7.5
	L4.2,7.1l0.3-0.4l0.3-0.3l0.2-0.1l1.4-0.6l0.2-0.2V4.7L3.8,2.7L3.8,2.7z"/>
</svg>
