<?xml version="1.0" encoding="utf-8"?>
<!-- Generator: Adobe Illustrator 22.0.1, SVG Export Plug-In . SVG Version: 6.00 Build 0)  -->
<svg version="1.1" id="レイヤー_1" xmlns="http://www.w3.org/2000/svg" xmlns:xlink="http://www.w3.org/1999/xlink" x="0px"
	 y="0px" viewBox="0 0 18 18" style="enable-background:new 0 0 18 18;" xml:space="preserve">
<path d="M12,14.7c-0.3,0-0.6,0.3-0.6,0.6c0,0.3,0.3,0.6,0.6,0.6c0.3,0,0.6-0.3,0.6-0.6C12.6,15,12.3,14.7,12,14.7z M9.6,0.7v13.1
	c-0.3-0.4-0.7-0.6-1.5-0.6c-1.7,0-3.1,1.1-3.1,2.4c0,1,0.8,1.7,2,1.7c1.2,0,2.2-0.5,2.7-1.4c0.2-0.4,0.3-0.7,0.3-1.3V0.7H9.6z"/>
</svg>
