<?xml version="1.0" encoding="utf-8"?>
<!-- Generator: Adobe Illustrator 22.0.1, SVG Export Plug-In . SVG Version: 6.00 Build 0)  -->
<svg version="1.1" id="レイヤー_1" xmlns="http://www.w3.org/2000/svg" xmlns:xlink="http://www.w3.org/1999/xlink" x="0px"
	 y="0px" viewBox="0 0 18 18" style="enable-background:new 0 0 18 18;" xml:space="preserve">
<path d="M12.1,13.9c-0.3,0-0.6,0.3-0.6,0.6c0,0.3,0.3,0.6,0.6,0.6c0.3,0,0.6-0.3,0.6-0.6S12.4,13.9,12.1,13.9z M8.9,0.6v13.1
	c-0.3-0.4-0.8-0.6-1.5-0.6c-1.7,0-3.1,1.1-3.1,2.4c0,1,0.8,1.7,2,1.7c1.2,0,2.2-0.5,2.7-1.4c0.2-0.4,0.3-0.7,0.3-1.3V5.1
	c2.2,0.7,3.3,1.8,3.3,3.4s-0.9,3.4-2.1,4.4c-0.1,0.1-0.2,0.1-0.5,0.4l0.3,0.3c2.4-1.8,3.5-3.6,3.5-5.5c0-1.2-0.3-2-1.2-3.1
	c-0.4-0.5-0.5-0.6-0.8-0.8c-1.7-1.3-2.1-1.9-2.3-3.4H8.9z"/>
</svg>
