<?xml version="1.0" encoding="utf-8"?>
<!-- Generator: Adobe Illustrator 22.0.1, SVG Export Plug-In . SVG Version: 6.00 Build 0)  -->
<svg version="1.1" id="レイヤー_1" xmlns="http://www.w3.org/2000/svg" xmlns:xlink="http://www.w3.org/1999/xlink" x="0px"
	 y="0px" viewBox="0 0 18 18" style="enable-background:new 0 0 18 18;" xml:space="preserve">
<path d="M10.6,7.5l0,0.5L10,10.5l-1.1,3.2l-2.2,3.4l0.1,0.1L7,17.1l0.5-0.3l0.6-0.6l2.1-3.2l1.3-4.1l0.1-0.2l0.2-0.2l0.4-0.2V7.9
	L10.6,7.5z M8.7,2.6l0.1,0.3l0.8,1.6l0.5,1.8l0.1,0.2l0.1,0.1l0.2,0.1l0.2,0l0.2-0.1L11,6.4L11,6.2L11.1,6l0-0.3L11,5.2l-0.2-0.6
	l-0.5-0.9L9.7,3.1L8.7,2.6L8.7,2.6z M15.3,1.9l-1.8,4.4l0.1,0.1L14.2,6l2.1-2.6L17,3.2l0-0.3l-0.1-0.1l-0.6-0.5L15.3,1.9z M11.9,0.9
	V7L8.4,6.9l-0.1,0L8.2,7l0,0.1l0,0.1l0,0.3h4.6v9l0.4,0.3l0.6,0.2l2.4,0l0.7-0.2l0.4-0.2l-0.1-0.6l-0.3-0.8l-0.2-1.9l-0.4,0.3
	l-0.1,1l-0.2,0.6l-0.2,0.4l-0.3,0.3L15.2,16L14.8,16l-0.3,0l-0.6-0.2V7.5h3.5l-0.1-0.3l-0.3-0.4l-1-0.9l-0.8,0.9L15,6.9L14.6,7
	l-0.5,0.1l-1.2-0.2V1.7l0.3,0l0.3-0.1l0.1-0.1l0-0.1V1.1L11.9,0.9z M4.9,7.8h1.5v2.6H4.9V7.8z M2.3,7.8h1.5v2.6H2.3V7.8z M3.2,3.4
	h2.3v1.8H3.2V3.4z M2.2,0.9L2.1,2.7l0,0l-0.1,0L1.9,2.9l-1.5,0v0.5h1.8l-0.2,2l0.1,0.5L2.2,6l0.1,0.1l0.1,0.1l0.2,0l0.1,0l0.1-0.1
	L3,6l0.1-0.1l0-0.1l0-0.1l0.6,0v1.7l-1.1,0L2.4,7.2L2,7L1.3,6.4l0,4.9l0.1,0.1l0.2,0.1l0.2,0l0.3,0l0.4-0.1v-0.5h1.5l0,1.5l-0.1,0.3
	l0,0.1l-0.1,0.1l-0.2,0.1l-3.1-0.1v0.5l3-0.1l0.4,0.1l0.1,0.1l0.1,0.3L3.8,17L4,17.1l0.1,0l0.3,0l0.5-0.2l-0.1-3.3l0.1-0.3l0.1-0.1
	l0.3-0.1l3.4,0.1l-0.3-0.6l-0.4-0.5l-0.3-0.2l-0.3-0.1l-0.9,0.8L6,12.8l-0.3,0l-0.9-0.1v-1.8h1.4l0.1,0.3l0.1,0.1l0.1,0.1l0.1,0
	l0.1,0l0.2,0l0.5-0.2L7.2,8.6l0-0.2l0-0.1l0.1-0.1L8,8.2l0.1-0.3L8,7.7L7.5,7L7.3,6.8L6.8,6.6L6.3,7.1L6.2,7.2L5.9,7.3h-1l0.1-1.7
	l0.3,0.1l0.5,0.3l0.5-0.2l0.1-0.1l0.1-0.1l0.1-0.3l-0.1-2h2.2L8.6,3.2l0-0.1L8.2,2.5L7.5,1.9L6.9,2.8L6.8,2.9l-0.1,0H6.5L6.4,2.1
	l0-0.1L7,1.7l0.2-0.2l0.1-0.4L5.5,0.9v2H3.2L3.2,2.1l0-0.1l0,0l0.8-0.5L4,1.1L2.2,0.9z"/>
</svg>
