<?xml version="1.0" encoding="utf-8"?>
<!-- Generator: Adobe Illustrator 22.0.1, SVG Export Plug-In . SVG Version: 6.00 Build 0)  -->
<svg version="1.1" id="レイヤー_1" xmlns="http://www.w3.org/2000/svg" xmlns:xlink="http://www.w3.org/1999/xlink" x="0px"
	 y="0px" viewBox="0 0 18 18" style="enable-background:new 0 0 18 18;" xml:space="preserve">
<path d="M4,2.5L2.3,9.7l-0.2,0.8L2,10.9L2,11.3l0,0.4l0.1,1l0.3,0.8L2.6,14L3,14.5l0.2,0.2l0.2,0.1c0.7,0.4,1.3,0.6,2.1,0.6h0.3
	l0.3,0l1.2-0.2l1.3-0.4l0.6-0.3l0.6-0.3l1-0.5l1-0.6l1.3-0.9l0.6-0.5l2.1-2.4l0.3-0.2V8.8h-0.4l-0.3,0.3l-0.1,0.1
	c-1.2,1.3-2,1.9-3.4,2.8l-0.4,0.2L11,12.5l-1.6,0.7l-1.5,0.6l-1.1,0.3l-1.1,0.1l-0.8-0.1L4,13.9l-0.3-0.2l-0.3-0.3l-0.1-0.2
	l-0.1-0.3l-0.1-0.6l-0.1-0.1l-0.2-0.3l2.3-9.3H4z"/>
</svg>
