<?xml version="1.0" encoding="utf-8"?>
<!-- Generator: Adobe Illustrator 22.0.1, SVG Export Plug-In . SVG Version: 6.00 Build 0)  -->
<svg version="1.1" id="レイヤー_1" xmlns="http://www.w3.org/2000/svg" xmlns:xlink="http://www.w3.org/1999/xlink" x="0px"
	 y="0px" viewBox="0 0 18 18" style="enable-background:new 0 0 18 18;" xml:space="preserve">
<path d="M13.2,4c-0.2,0.1-0.4,0.1-0.5,0.1l-0.3,0c0,0-0.1,0-0.2,0l-0.9,0l-0.7,0L9.8,4.3l-0.5,0L8.9,4.4c-0.2,0-0.2,0-0.3,0.1
	L8.3,4.5L8.1,4.6L8,4.7C7,5,6.2,5.8,5.8,6.8C5.7,7,5.7,7,5.7,7.2l0,0.1l0,0.1c0,0.1,0,0.1,0,0.3l0,0.1l0,0.1v0v0.1v0.1l0,0.2l0,0.3
	l0,0.1l0.1,0.3c0.1,0.1,0.1,0.2,0.1,0.3L6,9.7c0.1,0.1,0.2,0.3,0.3,0.4l0.2,0.2l0.2,0.1l0.6,0.5l1.1,0.9L8.5,12
	c0.2,0.2,0.2,0.2,0.3,0.3l0.1,0.1v0v0.1l-0.1,0.1l-0.1,0.1l0,0l-0.1,0l0,0h0l-0.1,0l-0.1,0l-0.2-0.1l-0.3-0.4
	C7.8,12.1,7.6,12,7.5,12l-0.2,0c-0.3,0-0.6,0.1-0.8,0.4l-0.1,0.1l0,0.1l0,0.1v0.1v0.2c0.1,0.2,0.1,0.3,0.1,0.3l0.1,0.2l0.1,0.1
	l0.1,0.1l0.1,0.1l0.1,0.1l0,0L7,13.7l0.2,0.1C7.4,14,7.5,14,7.8,14.1l0.3,0l0.3,0c0.2,0,0.3-0.1,0.5-0.2L9,13.8l0.2-0.1l0.2-0.2
	l0.1-0.2l0.1-0.1L9.7,13c0.1-0.1,0.1-0.1,0.1-0.2l0-0.1l0-0.1v0l0-0.1v-0.1l0-0.1l0-0.2l0-0.1l0-0.1l0,0l0-0.1l0-0.1l-0.1-0.1l0-0.1
	l0,0l0,0l-0.1,0l-0.1-0.1l-0.1-0.1l-0.1-0.1l-0.1-0.1l-1.2-1c-0.4-0.3-0.8-0.7-0.9-1l0-0.1L6.9,9.2l0-0.1l0-0.1l0-0.1l0-0.1l0-0.1v0
	l0,0V8.4l0-0.2l0-0.2V7.9V7.8l0-0.2l0.1-0.3L7,7.1L7.1,7l0.1-0.1l0.1-0.1l0.1-0.1l0.1-0.1l0.1-0.1l0.1-0.1l0.1-0.1l0.2-0.1
	C8.1,6.1,8.3,6,8.5,6l0.3-0.1L9,5.9l0.2,0l0.2,0l0.2,0l0.4,0l0.7,0.1l0.2,0L11.6,6c0.1,0,0.1,0,0.3,0.1l0.2,0l0.1,0h0.1l0.1,0h0h0
	h0.1c0.1,0,0.2,0,0.4-0.1L13,6l0.1-0.1l0.2-0.2l0.1-0.1l0.1-0.1l0.1-0.2l0.1-0.1l0-0.1l0-0.1l0-0.1l0-0.1l0.1-0.3V4.4l-0.1-0.4l0,0
	v0l-0.1-0.1L13.2,4z"/>
</svg>
