<?xml version="1.0" encoding="utf-8"?>
<!-- Generator: Adobe Illustrator 22.0.1, SVG Export Plug-In . SVG Version: 6.00 Build 0)  -->
<svg version="1.1" id="レイヤー_1" xmlns="http://www.w3.org/2000/svg" xmlns:xlink="http://www.w3.org/1999/xlink" x="0px"
	 y="0px" viewBox="0 0 18 18" style="enable-background:new 0 0 18 18;" xml:space="preserve">
<path d="M2.1,5.6l0.1,0.2L2.5,6l0.1,0l0.1,0l0.1,0L2.9,6L3,5.9l0.1-0.1l0.1-0.2l0-0.3L3.2,4.8L3,4.3L2.6,3.5L2,2.8L1.6,2.5L1.3,2.3
	L1,2.3l0.8,1.7L2.1,5.6z M6.8,2.1L5.3,6h0.4l2.1-2.6L8.3,3V2.7L6.8,2.1z M14.1,11.1h1.7V16h-1.7V11.1z M11.6,11.1h1.5V16h-1.5V11.1z
	 M9.1,11.1h1.5V16H9.1V11.1z M14.1,5.9h1.7v4.7h-1.7V5.9z M11.6,5.9h1.5v4.7h-1.5V5.9z M9.1,5.9h1.5v4.7H9.1V5.9z M10.6,0.7l0,4.6
	L10,5.5l-0.7,0l-0.1,0L8.4,4.7L8,4.5V17l0.2,0.1l0.1,0.1l0.3,0l0.4-0.2v-0.5h6.7l0,0.5l0.1,0.2l0.1,0.1l0.1,0.1l0.2,0l0.5-0.3V6.6
	l0.6-0.5l0.1-0.3V5.6l-0.1-0.2l-0.1-0.1L17,5.1l-0.8-0.4l-0.5,0.6l-0.1,0.1l-0.2,0.1h-1.3V1.7l0.2,0l0.3-0.1l0.2-0.2l0.1-0.1l0-0.1
	V1l-1.8-0.4v4.7h-1.5L11.5,2l0-0.1l0,0l0.1-0.1l0.8-0.4l0-0.2l0-0.3L10.6,0.7z M3.8,0.7V7H0.7l0.1,0.3l0.1,0.1L1,7.5l0.1,0l2.8-0.1
	L3.5,8.6l-2.2,4.7l-0.7,1.2l0.3-0.1l0.3-0.2l0.7-0.7l2-3.1v6.8L4,17.3l0.1,0l0.7-0.2V9.8l1.8,2l0.1,0.1l0.1,0l0.2,0l0.2-0.1l0.2-0.2
	l0.1-0.1l0-0.1l-0.1-0.4l-0.2-0.4l-0.1-0.2L6.4,10L4.9,9.5l0.1-2l0-0.1l0.1,0l0.1-0.1L8,7.5L7.6,6.8L6.8,5.9l-1.1,1L5.3,7L4.9,7
	L4.7,2l0-0.1l0-0.1l0.1-0.1l0.7-0.4l0.1-0.1l0-0.1l0-0.3L3.8,0.7z"/>
</svg>
