<?xml version="1.0" encoding="utf-8"?>
<!-- Generator: Adobe Illustrator 22.0.1, SVG Export Plug-In . SVG Version: 6.00 Build 0)  -->
<svg version="1.1" id="レイヤー_1" xmlns="http://www.w3.org/2000/svg" xmlns:xlink="http://www.w3.org/1999/xlink" x="0px"
	 y="0px" viewBox="0 0 18 18" style="enable-background:new 0 0 18 18;" xml:space="preserve">
<path d="M3.7,12.9l-0.6,3.9L3.4,17L3.6,17l0.2,0L4,16.9l0.1-0.1l0.1-0.1l0-0.1l-0.1-2.8L4,13.2L3.7,12.9z M2.1,12.9L1.7,14l-1.1,2.4
	l0,0.2l0.1,0.3L0.7,17l0.1,0.1L1,17.2l0.1,0l0.2,0l0.2-0.1l0.2-0.2l0.2-0.3l0.2-0.5l0.1-0.6L2.1,12.9L2.1,12.9z M5.2,12.7l0.3,2
	l-0.1,1.6l0.3,0.1L6,16.4l0.2,0l0.2-0.1l0.1-0.1l0.1-0.1l0.1-0.2l0-0.2l-0.1-0.8L5.6,13L5.2,12.7L5.2,12.7z M6.9,12.6l0,0.4l0.4,0.7
	l0.5,2l0,0.1l0.1,0.1l0.1,0.1l0.2,0l0.2,0l0.1-0.1l0.1-0.1l0.1-0.2l0.1-0.3l0-0.4l-0.1-0.2l-1.4-1.9l-0.2-0.1L6.9,12.6z M12.7,5.4
	v10.9l0.8,0.5l0.3,0.1l2.9,0.1l0.4-0.1l0.1-0.1l0.1-0.1l0-0.1v-0.4l-0.4-0.6l-0.1-2.4l-0.4,0.3l-0.2,1.2L16,15.3l-0.3,0.4l-0.4,0.3
	l-0.3,0.1l-0.3,0.1l-0.4-0.1L14,15.8l-0.2-0.1l-0.1-0.1l-0.1-0.2l0.1-4.6l2-1.4l1-0.4l0.6-0.1l-0.1-0.2l-0.2-0.4l-0.1-0.1l-0.4-0.2
	V7.4l-0.5,0.1l-2,2.4l-0.3,0.3V6.4l0.2,0l0.1,0l0.3-0.1L14.5,6l0-0.1l0-0.3L12.7,5.4z M10,0.7v2.2H7.4l0,0.3l0,0.2l0,0.1l0.1,0.1
	l0.1,0L10,3.4V5l0.2,0.1l0.2,0l0.2,0l0.1-0.1l0.3-0.2l0-1.6l1.7-0.1l0.5,0.1l0,0l0,0.1l0,0.1V5l0.2,0.1l0.1,0L14,5.1L14.4,5V3.7
	l0.1-0.3l0-0.1l0.1,0l0.1,0l2.8,0.1l-0.4-0.7l-0.8-0.9l-0.8,0.9l-0.2,0.1l-0.1,0l-0.7,0l-0.1-1l0-0.1l0.6-0.3l0.2-0.2l0.1-0.4
	l-1.8-0.3v2.2h-2.2l-0.1-1l0-0.1l0.8-0.5l0.1-0.4L10,0.7z M5.1,8.7l1.4,0v2.5H5.1V8.7z M2.7,8.7l1.4,0v2.5H2.7V8.7z M5.1,5.7l1.4,0
	v2.5H5.1V5.7z M2.7,5.7l1.4,0v2.5L2.7,8.2V5.7z M2.3,4.8L3.3,3l0.1,0l1.5-0.2l0.3,0.1L4.3,5L4.2,5.1L4.1,5.2L3.9,5.3l-0.8,0L2.6,5.1
	L2.3,4.8z M2.9,0.7L2.2,3.1L0.4,6.8l0.4-0.1L1,6.6l0.2-0.2l0.3-0.3l0.2-0.4v6.6L2,12.5l0.2,0l0.1,0l0.1,0l0.3-0.2v-0.4l3.7-0.1l0,0
	l0.2,0.5l0.1,0.1l0.1,0l0.2,0l0.1-0.1l0.3-0.2l0-0.5l0-0.1l1.6-1.8l0.1,0v7.5l0.2,0.1l0.2,0l0.7-0.2V8.9l0.6-0.2V8.2l-0.3,0.1
	l-0.1,0l0,0l-0.1-0.2l0.1-0.3l0.6-1l0.2-0.2l0.5-0.3V6l-1.6-0.7L9,8.3L7.6,11l-0.1,0.1L7.4,6.3l0,0l0.1-0.1L8,6.1L8.1,6l0.1-0.1
	l0-0.1L7.8,5.1L7.6,4.8L7,4.5L6.2,5.2L6,5.3l-1.4,0L5.6,4l0.6-0.6l0.6-0.2l0.3-0.2L6.8,2.4L6.6,2.1L6,1.8L5.4,2.3L5.2,2.4L3.7,2.3
	l0.2-0.5l0.8-0.3V1.1L2.9,0.7z"/>
</svg>
