<?xml version="1.0" encoding="utf-8"?>
<!-- Generator: Adobe Illustrator 22.0.1, SVG Export Plug-In . SVG Version: 6.00 Build 0)  -->
<svg version="1.1" id="レイヤー_1" xmlns="http://www.w3.org/2000/svg" xmlns:xlink="http://www.w3.org/1999/xlink" x="0px"
	 y="0px" viewBox="0 0 18 18" style="enable-background:new 0 0 18 18;" xml:space="preserve">
<path d="M8.8,4.6l-0.8,2L6.5,9.2l0.1,0.1l0.4-0.1l1.8-1.9l0.2,0l1,0l0.1,2L9.8,9.4L9.7,9.5L9.5,9.6L6.3,9.4v0.5h3.6V13H8.1l0-0.3
	l0-1l0.1-0.2l0.2-0.2l0.4-0.2v-0.3L7,10.5l-0.1,3.4L7,14.7l0.1,0.1l0.1,0.1l0.1,0.1l0.2,0l0.2,0l0.1,0L8,14.7l0-1.2h4.7l-0.1,0.4
	l0.1,0.2l0.1,0.1l0.1,0.1l0.1,0.1l0.1,0l0.1,0l0.1-0.1l0.1-0.1l0.1-0.1l0-0.1l0-2.4l0.8-0.4v-0.3l-1.8-0.3l0,1.9l-0.1,0.4l-0.1,0
	L12.4,13l-1.5,0l0-1.9l0-0.1l0-0.4l0.1-0.7l0-0.1L11,9.9l0.3-0.1l3.6,0.1l-0.5-0.8l-0.9-0.9l-1.1,1.1l-0.2,0.1l-0.4,0l-0.9-0.1
	l0-1.8l0.1-0.3l0-0.1L11,7.2l0.2-0.1l3,0.1L14.1,7l-0.3-0.5l-0.9-0.8L12,6.6l-0.1,0.1l-0.4,0.1l-2.6,0l0.8-0.9l0.4-0.1l0.1-0.1
	l0.2-0.5L8.8,4.6z M9,0.6L8.6,1.8L6.1,6.3l0.1,0.1l0.2-0.1l1.2-1.1l0.4-0.6l0.4-0.2l0.1-0.1l0-0.2h7.1v5.5l-0.5,3.6l-0.7,2.7
	l-2.8-0.2v0.1l1.6,0.9l0.5,0.8l0.5-0.1l0.5-0.2l0.4-0.3l0.3-0.4l0.2-0.4l1-4.9l0-6.3l0.1-0.1l0.1-0.2l0.1-0.1l0.1,0l0.2,0l0.4,0
	l-0.1-0.5l-0.3-0.5l-0.2-0.2L16.7,3l-0.3-0.1l-0.3,0l-0.2,0l-0.2,0.2l-0.3,0.4H8.8l0-0.1L10,1.8l0.2-0.2l0.1,0l0.4-0.1V1.3L9,0.6z
	 M2.7,0.7l0.1,2.9L2.7,3.9L2.6,4L2.4,4.1l-1.8,0v0.5h4L3.8,6.1l-3.3,4.7l0,0.1l0.4-0.1l0.2-0.1l1.6-1.5v7.7l0.2,0.1l0.2,0l0.7-0.2
	V8.9l1.8,2.3l0.2,0.1l0.1,0l0.1,0l0.1,0l0.1-0.1l0.2-0.2l0.1-0.2v-0.2l-0.1-0.4L6.2,10L6,9.8L5.4,9.3l-1-0.4L6,7.9l1-0.3L7,7.1
	L6.8,7L6.4,6.8L6.1,6.5L6,6.5l-0.1,0L5.8,6.5L4,8.7L3.7,8.5l0-0.1l0-0.1l0-0.2l0.1-0.2l1.7-2.5l0.7-0.5l0.1,0l0.3-0.1l0.2-0.4
	L5.3,3.3L5.2,3.5L5,3.8L4.7,4L4.4,4.1L4.2,4.1l-0.5,0l0-2.3l0,0l0.1-0.1l0.7-0.4V0.9L2.7,0.7z"/>
</svg>
