<?xml version="1.0" encoding="utf-8"?>
<!-- Generator: Adobe Illustrator 22.0.1, SVG Export Plug-In . SVG Version: 6.00 Build 0)  -->
<svg version="1.1" id="レイヤー_1" xmlns="http://www.w3.org/2000/svg" xmlns:xlink="http://www.w3.org/1999/xlink" x="0px"
	 y="0px" viewBox="0 0 18 18" style="enable-background:new 0 0 18 18;" xml:space="preserve">
<path d="M13.2,2.6h1.7v5.3h-1.7V2.6z M10.7,2.6h1.5v5.3h-1.5V2.6z M8.2,2.6h1.5v5.3H8.2V2.6z M7.1,1.4v6.5L5.8,7.8L5.7,7.9L5.6,8.1
	l0,0.3h1.5v8.8l0.2,0.1l0.2,0l0.7-0.2V8.4h1.5v7.2l0.2,0.1l0.2,0l0.7-0.2V8.4h1.5v7.2l0.2,0.1l0.2,0l0.7-0.2V8.4h1.7v7.6L12.6,16
	l0.2,0.4l1.5,0.4v0.5l0.3,0.1l0.5-0.1l0.4-0.2l0.2-0.2l0.1-0.2l0.1-0.2V8.4l1.4,0.1l0.1,0l0.1-0.1l0-0.1l0-0.2l-0.1-0.2L16.8,7
	l-0.8,0.8l-0.1-4.4l0-0.2l0.1-0.1L16,3.1l0.7-0.4l-0.6-0.8l-0.3-0.3l-0.2-0.1l-0.2,0l-0.1,0l-0.1,0.1l-0.5,0.6H8.4l-0.1,0L7.6,1.5
	L7.5,1.4l-0.1,0H7.1z M5.3,0.7L3.5,3.3L1.7,1.2L1.6,1.1H1.3L3,3.9L0.7,6.7l0.1,0.1l2.6-1.9l0.7,1.8l0,0.6L3.9,7.6L3.5,8.5l-2.1,2.7
	l-0.9,1.3l0.1,0.1l1-0.6l2-1.8L4.4,9l-0.1,4.7l-0.8,2L1,15.5v0.1l1.6,0.9l0.3,0.7l0.2-0.1l1.1-0.3l0.1-0.1l0.2-0.2l0.8-2.2l0.3-1.7
	L5.5,8.9L4.9,6.1L4,4l1.3-1.5L6,2.1l0.8-0.3L6.6,1.4L5.5,0.7l-0.1,0L5.3,0.7z"/>
</svg>
