<?xml version="1.0" encoding="utf-8"?>
<!-- Generator: Adobe Illustrator 22.0.1, SVG Export Plug-In . SVG Version: 6.00 Build 0)  -->
<svg version="1.1" id="レイヤー_1" xmlns="http://www.w3.org/2000/svg" xmlns:xlink="http://www.w3.org/1999/xlink" x="0px"
	 y="0px" viewBox="0 0 18 18" style="enable-background:new 0 0 18 18;" xml:space="preserve">
<path d="M12.9,11.9l0.3,0.3l1.8,1.1l1.3,1.2l0.3,0.1l0.2,0l0.3-0.1l0.1-0.1l0.1-0.2V14l0-0.1l-0.3-0.5l-0.6-0.6l-0.9-0.5l-1-0.3
	L12.9,11.9z M8.1,11.6l-3.3,2.9l0.3,0.1l3.7-1.8l0.5-0.1l-0.1-0.2l-0.1-0.1l-0.4-0.4l-0.3-0.2l-0.3-0.1H8.1z M3.4,9.8l-0.7,0.6
	l-0.3,0.1l-1.9-0.1V11h2.4v3.8l-2.4,1L1,16.9l0.2,0.3l0.1,0L1.6,17l0.6-0.9l1.5-1.4l0.7,0.6l0.9,0.5l4.3,1.2l6.9,0l0.4-0.9l0.6-0.4
	v-0.1l-7.3,0.4l-3.5-0.6l-2.1-0.8L4,14.4l-0.1-0.1l-0.1-0.3L4,11.4l0.7-0.3l-1-1.3l-0.2,0H3.4z M8,8.8h6.5v1.7H8V8.8z M7,7.6
	l-0.1,3.1L7,11.4l0.1,0.1l0.1,0L8.5,11l2.2,0l0.1,3l-0.1,0.2l-0.1,0.1l-0.1,0h-0.1l-1.8-0.3l-0.3,0.1l0.2,0.3l1.7,0.7l0,0.5h0.3
	l0.5-0.1l0.3-0.2l0.2-0.2l0.1-0.3l0.2-0.7l0.1-0.9L11.7,11h2.8v0.1l0,0.1l0.1,0.1l0.1,0.1l0.1,0.1l0.2,0l0.2-0.1l0.2-0.1l0.2-0.2
	l0.1-1.8L15.8,9L16,8.8L15.5,8l-0.3-0.2l-0.1-0.1l-0.2,0l-0.1,0l-0.1,0l-0.6,0.6h-6l-0.1,0L7.4,7.7L7.3,7.6l-0.1,0H7z M1.2,5.5
	l0.2,0.3l1.8,1.8l0.3,0.1l0.2,0l0.1,0l0.1-0.1L4,7.6l0.1-0.2l0-0.3L4,6.9L3.8,6.6L3.5,6.3L2.9,5.9L1.2,5.5z M2,1.6l2,2.1l0.1,0.1
	l0.2,0l0.1,0l0.2-0.1l0.1-0.1l0.1-0.1l0.1-0.1l0-0.3L4.9,2.9L4.7,2.7L4.6,2.5l-2-0.9L2,1.6z M8,3.8h6.5v1.3H8V3.8z M8,2h6.5v1.3H8V2
	z M7,0.8L6.9,5.6L7,5.9L7,6l0.1,0.1l0.1,0.1l0.1,0l0.2,0l0.1,0l0.6-0.4l0.1-0.1l0.3-0.1l2.1,0.1v1.1H5v0.5h12.4l-0.3-0.6l-0.4-0.4
	l-0.5-0.3l-0.1,0l-0.1,0l-0.9,0.9l-0.1,0l-3.4-0.1V6L12,5.7l0.4-0.1l1.8-0.1l0.2,0.1L15,5.9l0.1,0l0.1-0.1l0.2-0.2l0.1-0.2V2.6
	l0.3-0.2L15.9,2l-0.5-0.6L14.9,1l-0.1,0l-0.1,0l-0.2,0.2l-0.2,0.3h-6l-0.1,0L7.4,0.9L7.3,0.8l-0.1,0H7z"/>
</svg>
