<?xml version="1.0" encoding="utf-8"?>
<!-- Generator: Adobe Illustrator 22.0.1, SVG Export Plug-In . SVG Version: 6.00 Build 0)  -->
<svg version="1.1" id="レイヤー_1" xmlns="http://www.w3.org/2000/svg" xmlns:xlink="http://www.w3.org/1999/xlink" x="0px"
	 y="0px" viewBox="0 0 18 18" style="enable-background:new 0 0 18 18;" xml:space="preserve">
<path d="M11.1,10.6h2.3l-0.9,2.2l-0.1,0l-0.7-0.8l-0.6-1.2L11.1,10.6z M9.4,5.7v10l0,0.2L9.5,16l0.3,0.1l0.2,0l0.1-0.1l0.1-0.1
	l0.1-0.1l0-0.1l0-5.1l0.5,0l0.2,0.9l1,2.1l-1.7,1.9l0.2,0.1l0.1,0l2-1.5l0.3,0.4l1.3,1l0.7-1h-0.2h0l-1.4-0.8L13,13.3l1.1-2l0.7-0.6
	l-0.4-0.6L14.2,10L14,9.9l-0.1-0.1h-0.1l-0.9,0.3l-2.5,0V6.9h2.8l0.1,0.4L13.1,8L13,8.3L13,8.3l-0.1,0.1l-0.1,0h-0.1l-1.3-0.1
	l-0.3,0.1l0.3,0.4L12,8.9L12.1,9l0.1,0l0.3,0.5h0.3L13,9.5l0.2-0.1l0.4-0.5l0.2-0.6L14,7.2l0.7-0.4l-0.5-0.7l-0.4-0.2l-0.1,0l-0.1,0
	l-1,0.5l-1.4,0l-0.6-0.1L9.4,5.7z M4,9.4l2.9-0.1L6.2,11l-1.4,0l0.1-0.2l0-0.3l-0.1-0.3L4.6,10L4.5,9.8L4,9.4z M5.2,5.6l0,1.5H3.1
	v0.5l1.4-0.2L5,7.5l0.1,0.1l0.1,0.1l0,0.1l0,1.1H2.5v0.4l0.7,0.1l0.1,0l0.1,0.2L4.1,11H2.5l0,0.3l0,0.2l0,0.1l0.1,0.1l0.1,0l2.4-0.1
	V13H2.8v0.5l2,0l0.3,0.1l0.1,0.1l0.1,0.3v1.9L5.3,16l0.4,0l0.2,0L6,15.9l0.1-0.4l0-2h2.7V13l-0.9-0.5l-0.6,0.5L7.1,13l-1,0l0-1.2
	l0.1-0.2l0-0.1l0.1,0l0.2-0.1l2.8,0.1L8.9,11l-0.2-0.2l-0.3-0.2l-0.4-0.1L7.5,11L7.4,11l-0.6,0l0.8-0.8l0.2-0.1l0.3,0L8,9.7L7.9,9.6
	L7.6,9.4l1.5,0L8.9,8.7L8.7,8.5L8.1,8.1L7.3,8.8L6.8,8.9L6.1,8.8V7.6h2.4L8.5,7.4L8.3,6.9L8.1,6.7L7.9,6.6L7.5,6.3L6.9,6.9L6.8,7
	l-0.1,0l-0.6,0V6.7l0.6-0.3l0-0.2V6.1L6.6,6L6.5,5.9L5.2,5.6z M10.9,3.5h4.5v1.1h-4.5V3.5z M10.9,1.8h4.5V3h-4.5V1.8z M9.9,0.5
	L9.8,5.2l0.1,0.3L10,5.5l0.1,0.1l0.3,0l0.2-0.2l0.2-0.3h4.5v10.9L15.2,16l-2.1-0.1L12.8,16l0.3,0.2l1.5,0.5v0.6l0.3,0l0.7-0.2
	l0.4-0.3l0.1-0.1l0.1-0.1l0.1-0.4l0.1-13.8l0.8-0.5l-0.7-1l-0.3-0.2l-0.1,0l-0.1,0l-0.8,0.6l-0.3,0.1l-3.8,0l-0.3-0.1L9.9,0.5z
	 M2.1,3.5h4.5v1.1H2.1V3.5z M2.1,1.8h4.5V3H2.1V1.8z M1,0.6v16.5l0.1,0.1l0.1,0l0.3,0.1l0.1,0l0.1-0.1l0.1-0.1L2,16.8l0-11.7h4.5
	l0,0.2l0.1,0.2l0.1,0.1l0.1,0.1l0.1,0.1l0.2,0l0.1-0.1l0.1-0.1l0.1-0.1l0.1-0.2l0.1-2.8l0.1-0.1l0.8-0.4L7.9,1.2L7.1,0.6L6.8,0.8
	L6.3,1.3L6.1,1.4l-3.7,0l-0.1,0L1.4,0.6L1,0.6z"/>
</svg>
