<?xml version="1.0" encoding="utf-8"?>
<!-- Generator: Adobe Illustrator 22.0.1, SVG Export Plug-In . SVG Version: 6.00 Build 0)  -->
<svg version="1.1" id="レイヤー_1" xmlns="http://www.w3.org/2000/svg" xmlns:xlink="http://www.w3.org/1999/xlink" x="0px"
	 y="0px" viewBox="0 0 18 18" style="enable-background:new 0 0 18 18;" xml:space="preserve">
<path d="M9.7,6.4l-0.1,4.7l0.1,0.4l0.1,0.1l0.1,0.1l0.4,0.2l1.3,0.4l5.4-0.2l0.4-0.2l0.1-0.1l0.1-0.1l0-0.1l0-0.1l-0.1-0.2l-0.1-0.1
	l-0.1-0.1L16.8,11v0L17,8.8h-0.4L16.3,10L16,11l-0.2,0.3l-0.2,0.2l-0.1,0H11l-0.1-0.1l-0.1-0.1l-0.1-0.1l0-0.1l-0.1-3.5l0-0.1
	l0.1-0.1l0.7-0.4l-0.2-0.5L9.7,6.4z M6.5,6.5l-1.7,3.7L4,11l-2.7,2l-0.3,0.3l0.3,0.1l0.5-0.1l0.8-0.4l2.7-2l2.1-3.2L8,7.2L7.9,6.8
	L6.5,6.5z M8.5,2.3v2.9H2.9V4.5L2.8,4.4l-0.3,0L2.4,5.5L2.2,6.3L1.9,6.6L1.8,6.7l-1,0.6L0.7,7.4L0.7,7.5l0,0.1l0,0.3L0.7,8l0.1,0.2
	L1,8.4l0.2,0.1l0.2,0l0.3,0l0.3-0.2L2.4,8l0.3-0.4l0.2-0.6l0-1.3h12.6L14.3,8L14.6,8l0.1,0l1.9-1.6l0.9-0.2l-0.3-0.6l-0.5-0.5
	l-0.4-0.3l-0.2,0h-0.1l-0.2,0.2l-0.2,0.3H9.7L9.6,3.9l0.1-0.3L10.4,3l0.1-0.3l-0.1-0.1l-0.2-0.1L8.5,2.3z"/>
</svg>
