<?xml version="1.0" encoding="utf-8"?>
<!-- Generator: Adobe Illustrator 22.0.1, SVG Export Plug-In . SVG Version: 6.00 Build 0)  -->
<svg version="1.1" id="レイヤー_1" xmlns="http://www.w3.org/2000/svg" xmlns:xlink="http://www.w3.org/1999/xlink" x="0px"
	 y="0px" viewBox="0 0 18 18" style="enable-background:new 0 0 18 18;" xml:space="preserve">
<path d="M10.4,11.8v0.5h4.9v-0.5H10.4z M2.8,11.8v0.5h4.9v-0.5H2.8z M10.4,9.1v0.5l4.3,0V9.1H10.4z M3.4,9.1v0.5h4.3V9.1H3.4z
	 M13.8,2.7L13,3.8H2.8v0.5h5.7v2.2H2.9V5.8L2.8,5.7H2.5L2.4,6.8L2.1,7.5L1.9,7.8L1.5,8.1L0.8,8.6L0.7,8.9l0,0.4l0.1,0.2L1,9.8
	l0.2,0.1l0.2,0l0.3-0.1l0.3-0.1l0.4-0.3L2.5,9l0.3-0.8l0.1-1.3h5.6v6.5l0.1,0.1l0.2,0.1l0.2,0l0.2,0l0.2-0.1l0.1-0.1l0.1-0.1
	l0.1-0.2l0-6.1h5.9l-0.9,2.2h0.4l1.3-1.4l0.2-0.1l1.1-0.3L17,6.4l-0.5-0.4L16.2,6l-0.1,0l-0.3,0.2l-0.2,0.3h-6V4.3h5.9l-0.4-0.7
	l-0.2-0.3l-0.7-0.5L14,2.7L13.8,2.7z"/>
</svg>
