<?xml version="1.0" encoding="utf-8"?>
<!-- Generator: Adobe Illustrator 22.0.1, SVG Export Plug-In . SVG Version: 6.00 Build 0)  -->
<svg version="1.1" id="レイヤー_1" xmlns="http://www.w3.org/2000/svg" xmlns:xlink="http://www.w3.org/1999/xlink" x="0px"
	 y="0px" viewBox="0 0 18 18" style="enable-background:new 0 0 18 18;" xml:space="preserve">
<path d="M3.2,13l0.1,0.4l0.1,0.4L3,16.1l0.3,0.1l0.3,0L3.7,16l0.1-0.1L4,15.7l0.1-0.5l-0.5-2.1l0-0.1L3.5,13L3.2,13z M1.7,13.1
	l-0.1,1.3l-0.1,0.3l-1,1.5v0.4l0.1,0.2l0.1,0.1l0.1,0.1L0.8,17l0.1,0l0.2,0l0.2-0.1l0.2-0.2l0.2-0.3L2,15.3l0.1-2.2H1.7z M4.6,12.9
	L5,13.8l0.1,1.4l0.1,0.2l0.1,0l0.1,0l0.1,0l0.1-0.1l0.1-0.1l0.1-0.1l0-0.1l0-0.2l-0.1-0.9l-0.2-0.3l-0.4-0.5L4.6,12.9L4.6,12.9z
	 M6.2,12.6L7,14.3l0.3,0l0.2-0.1l0.1-0.1l0-0.3l0-0.3l-0.1-0.3l-0.1-0.3l-0.2-0.2l-0.3-0.1l-0.3,0L6.2,12.6z M11.8,0.7l0.1,3
	l-0.1,0.5l0,0.1l-0.1,0.1l-0.2,0.1L7.8,4.3v0.5h4v3.6H8.1v0.5l3.1-0.1l0.2,0.1l0,0l-1.3,2.8l-0.6,1l-2.2,2.6l-0.2,0.3l0.1,0.1
	l0.3-0.1l1-0.8l2-2.3c0.6-0.9,0.7-1,1.2-1.9l0,0v6.5l0,0.1l0.1,0.1l0.1,0.1l0.2,0l0.2,0l0.2-0.1l0.1-0.1l0.1-0.1l0.1-0.2l0-7.5
	l0.4,1.6l0.6,1.3l1.8,2.4l1,0.7l0.1,0l0.1-0.2l0.1-0.4l0.4-0.5l-0.2-0.1c-1.1-0.7-2-1.5-3.1-3L13.5,10l-0.3-0.9l0-0.2h4.3l-0.1-0.3
	L17,8.1l-0.9-0.8l-1.1,1l-0.3,0.1l-1.9-0.1V4.8h4.7L17.1,4l-0.4-0.4l-0.6-0.4l-1,1.1L15,4.4l-0.4,0l-1.7-0.2L12.8,2l0-0.1l0.1-0.1
	l0.7-0.4l-0.1-0.5L11.8,0.7z M4.8,8.9h1.5v2.6H4.8V8.9z M2.4,8.9h1.5v2.6H2.4V8.9z M4.8,5.8h1.5v2.6H4.8V5.8z M2.4,5.8h1.5v2.6H2.4
	V5.8z M3.9,5.3l-1.3,0L2.3,5.2L2.2,5.1L2.2,5l0-0.1l0.2-0.8l0.3-0.5l0.5-0.5L3.5,3l0.6-0.1L4.7,3L3.9,5.3z M2.7,0.7L2.6,1.1L1.2,5.4
	L0.4,6.9L0.5,7l0.7-0.6l0.3-0.5v6.6h0.8l0.1-0.5h3.9l0.1,0.2l0.2,0.2l0.1,0l0.1,0l0.1,0l0.1,0l0.2-0.2V6.4l1-0.6L6.9,4.6L6,5.4
	L5.8,5.4L4.4,5.3l1.2-1.8l0.1-0.1l0.1-0.1l0.7,0L6.3,2.8L6.1,2.6L5.2,1.9L4.6,2.5L4.2,2.5L3.4,2.5L3.5,2l0.2-0.2l0.1-0.1l0.1,0
	l0.2,0l0.4,0V1.2L2.7,0.7z"/>
</svg>
