<?xml version="1.0" encoding="utf-8"?>
<!-- Generator: Adobe Illustrator 22.0.1, SVG Export Plug-In . SVG Version: 6.00 Build 0)  -->
<svg version="1.1" id="レイヤー_1" xmlns="http://www.w3.org/2000/svg" xmlns:xlink="http://www.w3.org/1999/xlink" x="0px"
	 y="0px" viewBox="0 0 18 18" style="enable-background:new 0 0 18 18;" xml:space="preserve">
<path d="M1.7,10.9l-0.4,1.8l-0.8,1.1l0,0.1V14l0.1,0.2l0.1,0.2l0.1,0.1L1,14.7l0.2,0l0.2,0l0.2-0.1l0.2-0.2l0.1-0.2l0.2-0.8l0.1-0.9
	L2,11.3L1.7,10.9z M2.4,10.8l0,0.3L2.7,12l0,1.9L2.9,14l0.1,0l0.3-0.1l0.1-0.1l0.1-0.1l0.1-0.2l0-0.2l-0.1-0.6l-0.1-0.5l-0.7-1.3
	l-0.1-0.1l-0.1,0L2.4,10.8z M10.3,13.8h4.2v1.7h-4.2V13.8z M10.3,11.7h4.2v1.7h-4.2V11.7z M9.2,10.4v6.5L9.4,17L9.7,17L9.9,17
	l0.3-0.2l0-0.8l4.2-0.1l0,0l0.1,0.7l0.1,0.1l0.1,0.1l0.2,0l0.1-0.1l0.1-0.1l0.1-0.1l0.1-0.2l0-4.2l0.1-0.2l0.4-0.1l-1.1-1.3
	l-0.2,0.3l-0.4,0.4l-0.4,0.2l-0.5,0l-1.1-0.2l-1.7,0l-1-0.7L9.2,10.4z M3.2,10.5l0.6,1.1L4,12.9l0.2,0.2l0.1,0l0.1,0l0.1,0l0.1-0.1
	L4.8,13l0.1-0.1l0.1-0.2v-0.2l-0.1-0.7l-0.2-0.4L4.3,11L4,10.7L3.2,10.5L3.2,10.5z M4.3,10.2l1.1,2l0.1,0.1l0.1,0l0.1,0l0.3-0.1
	L6,12L6,11.9l0-0.1l0-0.1l0-0.2L5.9,11l-0.2-0.2l-0.2-0.2l-0.2-0.1L4.3,10.2L4.3,10.2z M12.9,5.9l2.4,0v3.3h-2.4V5.9z M9.5,5.9
	l2.4,0v3.3H9.5V5.9z M10.2,1.2L9.5,2.7L7,5.8l0.1,0.1L8.5,5L8.4,9.9l0.1,0.3l0.1,0.1l0.1,0.1l0.1,0.1l0.2,0l0.1,0l0.2-0.1l0.2-0.1
	V9.7h5.8l0.1,0.3l0,0.1l0.1,0.1l0.2,0.1l0.2,0l0.2-0.1l0.1-0.1l0.1-0.1l0.1-0.5l-0.1-3.1l0.5-0.4l-1.1-1L15.6,5l-0.4,0.4H9.6
	L8.8,4.9l2.1-2.3l0.4-0.1l0.2-0.3L10.2,1.2z M9.6,6.4l0.2,0.3l0.6,1.3l0,0.2l0,0.4l0.4,0.2l0.1,0l0.1-0.1l0.1-0.1l0.1-0.1l0.1-0.2
	l0-0.3l-0.1-0.5l-0.1-0.3L11,6.9l-0.4-0.3l-0.4-0.2L9.6,6.4L9.6,6.4z M14.1,6.1l-0.2,0.3l-0.8,2.3v0.4h0.1l1.4-1.9L15,7V6.7L15,6.7
	l-0.6-0.5L14.1,6.1z M2.5,7l1.4,0v1.8L2.5,8.8V7z M2.5,4.7l1.4,0v1.8H2.5V4.7z M2.5,2.3l1.4,0v1.8L2.5,4.1V2.3z M6.8,1L6.2,1.7
	L6.1,1.8H6L2.9,1.9l-0.2,0L1.8,1.1l-0.4,0V10l0.1,0.1l0.2,0.1l0.2,0l0.1,0l0.2-0.1L2.4,10l0-0.1l0.2-0.6l0-0.1l0.2-0.1l3.4,0.1
	l0,3.7l-0.4,1.6l-0.4,0.7l-0.1,0.1l-2.1,0.1l-0.3,0.1l0.3,0.3L3.3,16l1.1,0.3v0.6h0.4l0.5-0.1l0.5-0.3L6.3,16l0.3-0.5l0.3-0.8
	l0.3-4.6l0-0.1l0.1-0.2l0.2-0.1l0.1,0l0.4,0.1L7.7,9l-0.8-1L6.2,8.7L6.1,8.8L5.6,8.9L4.9,8.8l0-1.4L4.9,7L5,7l0.2-0.1L7.6,7V6.6
	L6.8,5.7L6,6.4L5.7,6.5L4.9,6.5l0-1.5l0.1-0.3L5,4.6l0.2-0.1l2.6,0.1L7.5,4L7.3,3.8L7.2,3.7L6.7,3.4L6,4.1l0,0l-0.1,0L4.9,4.1l0-1.5
	l0.1-0.3l0,0L5,2.3l0.2-0.1l3.1,0.1L7.8,1.5L7.1,1H6.8z M14.9,1.8l-0.2-0.5l-0.1-0.1L14.4,1L14,0.8l-0.1,0l-0.4,0.3l-0.2,0.1
	l-0.3,0.1l-1.9,0v0.5h2.2l0.1,0.3c0.5,1,1.2,1.8,2.1,2.6L16.1,5l0.5,0.1l0.2,0L16.9,5l0.3-0.3l0.3-0.5l-0.3,0
	C16,3.9,15.6,3.7,15,3.1L13.9,2L14.9,1.8z"/>
</svg>
