<?xml version="1.0" encoding="utf-8"?>
<!-- Generator: Adobe Illustrator 22.0.1, SVG Export Plug-In . SVG Version: 6.00 Build 0)  -->
<svg version="1.1" id="レイヤー_1" xmlns="http://www.w3.org/2000/svg" xmlns:xlink="http://www.w3.org/1999/xlink" x="0px"
	 y="0px" viewBox="0 0 18 18" style="enable-background:new 0 0 18 18;" xml:space="preserve">
<path d="M8.6,7.6v2.2H4.3l-0.2,0L3.5,9.1L3.3,9H3.1v7l0.2,0.1l0.2,0L4.1,16v-5.7h4.5v6.8l0.2,0.1l0.2,0L9.6,17v-6.8h4.5v4.6
	l-2.2-0.1v0.1l1.6,0.8l0.2,0.8l1.2-0.6l0.1-0.1l0.1-0.1l0.1-0.3V11l0.7-0.4l0.1-0.2l0-0.2l-0.2-0.4l-0.3-0.4l-0.4-0.3l-0.2-0.1
	l-0.1,0l-0.7,0.7l-0.3,0.1L9.6,9.8L9.5,9l0-0.3l0,0l0.6-0.3l0.2-0.2V7.8L8.6,7.6z M10.2,0.7v6.5l1,0.8l5.4,0L17,7.8l0.3-0.2l0.1-0.1
	l0-0.2l-0.4-1l-0.2-1.5L16.5,5l-0.1,0.9l-0.2,0.5L16,6.7l-0.3,0.2L15.4,7l-3.7-0.1l-0.1-0.1l-0.1-0.1l-0.1-0.1l-0.1-0.2l0-2.3
	l5.1-1.1H17l-0.5-0.8l-0.3-0.3L16,2l-0.2,0l-0.2,0l-4.3,2l-0.1-1.8L11.3,2l0.1-0.2L12,1.3l0-0.4L10.2,0.7z M5.2,0.7v6.1L3,7.1V4
	l0.3,0l0.3-0.1l0.2-0.2l0-0.1V3.3L2,3v4.3H0.6l0.7,1.9l0.6,0l0-0.3L2,8.6l0.2-0.2l0.1-0.1l6.9-1.5l0.1-0.1l0.1-0.1l0.1-0.3L8.9,6.4
	L6.2,6.8L6.1,4.4l0.1-0.3l0-0.1L6.3,4l0.2-0.1L9.6,4L9.2,3.3L8.3,2.4L7.6,3.3L7.4,3.4L7.1,3.5H6.2L6.1,1.9l0-0.1l0.6-0.3l0.2-0.2
	V0.9L5.2,0.7z"/>
</svg>
