<?xml version="1.0" encoding="utf-8"?>
<!-- Generator: Adobe Illustrator 22.0.1, SVG Export Plug-In . SVG Version: 6.00 Build 0)  -->
<svg version="1.1" id="レイヤー_1" xmlns="http://www.w3.org/2000/svg" xmlns:xlink="http://www.w3.org/1999/xlink" x="0px"
	 y="0px" viewBox="0 0 18 18" style="enable-background:new 0 0 18 18;" xml:space="preserve">
<path d="M10,10.4l-1.3,3.2l-0.7,0.8c-1,1.1-2.1,1.9-3.8,2.6l-0.3,0.1v0.1l0.3,0.1L5,17.2l3.5-2l0.8-0.7l1.5-2.9l0.1-0.1l0.1,0
	l0.2-0.1l0.5,0l-0.1-0.4l-0.1-0.2l-0.1-0.1l-1.1-0.4L10,10.4z M3.3,6.2h2.1L4.8,9.7L4.5,9.2L2.6,8.1L3.3,6.2z M6.3,1.2L5.4,2.3H0.5
	l0.1,0.2l0.1,0.1l0.1,0.1L1,2.7l2,0.1L2.6,5.3L1.9,7.7l-1.3,2.9l0.1,0.1L1,10.6l0.4-0.4l1-1.7l1.6,2l0.5,0.3l-0.8,1.8l-2,3.4
	l-1.1,1.3l0.1,0.1l1.1-0.8c0.5-0.4,0.6-0.4,1-0.9l1.5-2.2l0.9-1.7l1.2-4.4l0.3-0.6l0.5-0.3L6,5L5,5.8l-0.1,0L3.5,5.7l0.5-2.8L4,2.8
	l0.1-0.1l0.3-0.1l3.5,0.1L7.4,2L7,1.6L6.7,1.3L6.5,1.2L6.3,1.2z M8.8,6.4H15v3.3H8.8V6.4z M11.4,0.7v2.7H6.6v0.5h4.8v2L9.5,6.1
	L9.3,6L9.2,6l-1-0.8L7.8,5.1L7.7,10l0.1,0.5l0.1,0.1L8,10.7l0.1,0.1l0.2,0l0.1,0l0.1-0.1l0.2-0.2l0.1-0.3h3.8v5.2l0.1,0.9l0.2,0.3
	l0.2,0.1l0.6,0.3l0.9,0.1l2.2-0.2l0.4-0.2l0.1-0.2l0-0.1v-0.2l0-0.1L17.4,16l-0.1-0.1l-0.2-0.1L17,15.7l-0.3-0.1l0.4-2.1l-0.1-0.8
	h-0.1l-0.8,2.6L16,15.6l-0.1,0.2l-0.3,0.2L15.3,16h-1.2L14,15.9l-0.1-0.1l-0.2-0.3v-5.4H15l0,0.2l0,0.2l0.1,0.1l0.2,0.1l0.1,0
	l0.3-0.1l0.2-0.2l0.1-0.3L16,6.9l0.1-0.1l0.7-0.4l-0.4-0.7l-1-0.6l-0.6,0.8l-2.4-0.1V3.9h5.2l-0.3-0.6l-0.1-0.2L16,2.2l-0.9,1
	l-0.1,0.1l-0.3,0.1h-2.2l-0.1-1.1l0.1-0.2l0.1-0.1l0.7-0.5l-0.1-0.5L11.4,0.7z"/>
</svg>
