<?xml version="1.0" encoding="utf-8"?>
<!-- Generator: Adobe Illustrator 22.0.1, SVG Export Plug-In . SVG Version: 6.00 Build 0)  -->
<svg version="1.1" id="レイヤー_1" xmlns="http://www.w3.org/2000/svg" xmlns:xlink="http://www.w3.org/1999/xlink" x="0px"
	 y="0px" viewBox="0 0 18 18" style="enable-background:new 0 0 18 18;" xml:space="preserve">
<path d="M10.4,11.1l0.2-0.2l3.6,0l-2,2.6l-0.1-0.1l-1.6-2L10.4,11.1z M10.7,8.4l-0.8,1.8l-2.3,3.4l0.1,0.1L8,13.5l2.1-2l0.1,0.3
	l0.3,0.7l1.1,1.5l-1.7,1.3l-1.6,1l-1.6,0.6l-0.2,0.4l1.8-0.4L12,15l0.2,0l0.2,0l0.1,0l1.9,1.2l2.2,0.9l0.9-1.4l-1.1-0.1L13,14.2
	l2.4-2.9H16L15.9,11l-0.6-0.8L15.1,10l-0.2-0.1l-0.3,0l-0.5,0.5h-3.2l0.3-0.4l0.3-0.3l0.7-0.2V9.2L12,9L10.7,8.4z M2.9,9.1h3.2v1.5
	H2.9V9.1z M2.9,7.2h3.2v1.5H2.9V7.2z M1.9,6.1V17l0.3,0.3L2.9,17l0-1.1L3,15.7l0,0l0.1-0.1l0.3-0.1l4.2,0.1v-0.4L6.4,14l-1.1,1.1
	l0,0L5,15.2l-0.3,0L2.9,15v-1.3l0-0.2l0-0.1l0.1,0l0.2-0.1l4.1,0.2v-0.4l-1.1-1.2l-1.1,1.1l-0.4,0.1l-0.3,0l-1.6-0.2v-1.8h3.1
	l0.3,0.3l0.5-0.1l0.3,0L7.1,7.9l0-0.1l0-0.1l0.1-0.1l0.7-0.4V6.9L6.5,6.1L6.2,6.5L6.1,6.6L5.9,6.7L3.1,6.6L1.9,6.1z M11.6,0.8l0,1.6
	l-0.1,0.3l-0.1,0.1l-0.2,0.1L7.8,2.7v0.5h3.9l0.1,2l-0.1,0.4l0,0.1l-0.1,0.1l-0.3,0.1L7.4,5.6v0.5h2.8L9.3,7.7l-1.9,2.5l0.1,0.1
	l0.3-0.1c0.9-0.5,1.5-0.9,2-1.6l0.9-1.1l0.3-0.2L11.6,7V6.7l-0.9-0.5l2.1-0.1v2.9l0.4,0.3l0.9,0.3l1.5,0.1l0.9-0.1L17,9.3l0.1-0.1
	l0.3-0.4V8.3h-0.3l-0.2-1.4L17,6.4l-0.1,0l-0.8,2l-2,0.1L14,8.4l-0.1-0.1V6.1h3.7l-0.1-0.2l-0.3-0.6l-0.4-0.4l-0.6-0.4l-0.7,0.9
	l-0.3,0.2l-0.4,0.2l-0.6,0.1l-1.5-0.2V3.6l0.1-0.4l0.1-0.1L13,3.1l4,0.1V2.9l-1.3-1.3l-1.1,1.1l-0.3,0.1l-0.4,0.1l-1.2-0.2V1.8
	l0.7-0.4V1L11.6,0.8z M2.8,4.9l0.6-0.7L4.9,2l1.7,2l0.3,0.7l1,0.4l0-0.2l0-0.1l0-0.2l0-0.5L7.8,3.5L7.3,2.9l-2-1.1l0.1-0.2h0.4V1.2
	L4,0.7L3.3,2.5L0.5,7H1L2.8,4.9l0,0.5h4V5L6.6,4.7L5.8,4.1l-0.2,0L5,4.9H2.8z"/>
</svg>
