<?xml version="1.0" encoding="utf-8"?>
<!-- Generator: Adobe Illustrator 22.0.1, SVG Export Plug-In . SVG Version: 6.00 Build 0)  -->
<svg version="1.1" id="レイヤー_1" xmlns="http://www.w3.org/2000/svg" xmlns:xlink="http://www.w3.org/1999/xlink" x="0px"
	 y="0px" viewBox="0 0 18 18" style="enable-background:new 0 0 18 18;" xml:space="preserve">
<path d="M12.4,9.1L12.4,9.1l0.1,0.3l0.1,0.1c0.3,0.4,0.5,0.6,0.9,0.6c0.4,0,1-0.4,1.1-0.9l0-0.1V8.9c0-0.5-0.5-1-1-1
	c-0.5,0-1,0.4-1.1,1l0,0.1V9.1L12.4,9.1L12.4,9.1z M7.9,9.1L7.9,9.1c0,0.2,0,0.2,0.1,0.3c0.1,0.4,0.6,0.7,1,0.7c0.4,0,0.8-0.3,1-0.7
	l0.1-0.3l0-0.1V8.9c0-0.5-0.6-1-1-1c-0.4,0-0.8,0.3-1,0.8L8,8.8l0,0.1L7.9,9.1z M3.4,9.2l0.1,0.2l0.1,0.1l0.2,0.3L3.9,10
	c0.2,0.1,0.4,0.2,0.5,0.2c0.5,0,1.1-0.5,1.1-1V9l0-0.1l0-0.1l0-0.1L5.5,8.5c-0.2-0.4-0.6-0.7-1-0.7c-0.4,0-0.8,0.3-1,0.8L3.4,8.9
	L3.4,9.2L3.4,9.2z"/>
</svg>
