<?xml version="1.0" encoding="utf-8"?>
<!-- Generator: Adobe Illustrator 22.0.1, SVG Export Plug-In . SVG Version: 6.00 Build 0)  -->
<svg version="1.1" id="レイヤー_1" xmlns="http://www.w3.org/2000/svg" xmlns:xlink="http://www.w3.org/1999/xlink" x="0px"
	 y="0px" viewBox="0 0 18 18" style="enable-background:new 0 0 18 18;" xml:space="preserve">
<path d="M13.4,9.1L13.4,9.1L13.4,9.1l0,0.1v0.1l0.1,0.2l0.1,0.1c0.3,0.4,0.6,0.6,0.9,0.6c0.4,0,1-0.4,1.1-0.8l0-0.1l0-0.1V8.9
	c0-0.5-0.6-1-1-1c-0.5,0-1,0.4-1.1,1L13.4,9.1z M9.6,9.1L9.6,9.1l0,0.2v0l0,0.1l0.1,0.1c0.1,0.1,0.1,0.1,0.2,0.3l0.2,0.2
	c0.1,0.1,0.4,0.2,0.5,0.2c0.4,0,0.8-0.3,1-0.7l0.1-0.3c0-0.1,0-0.2,0-0.3l0-0.2l-0.1-0.2c-0.2-0.4-0.6-0.7-0.9-0.7
	c-0.4,0-0.8,0.3-1,0.8L9.7,8.9L9.6,9.1L9.6,9.1z M6,9.1L6,9.1l0,0.1l0,0.1l0,0.1l0,0.1l0.1,0.1c0.3,0.4,0.5,0.6,0.9,0.6
	c0.4,0,1-0.4,1.1-0.8l0-0.1l0-0.1V8.9c0-0.5-0.6-1-1-1c-0.5,0-1,0.4-1.1,1L6,9.1z M2.4,9.2l0.1,0.2l0.1,0.1c0.1,0.1,0.1,0.1,0.2,0.3
	L2.9,10c0.2,0.1,0.4,0.2,0.6,0.2c0.3,0,0.7-0.2,0.9-0.5C4.5,9.4,4.6,9.3,4.6,9l0-0.2L4.5,8.5C4.3,8.1,4,7.9,3.6,7.9
	c-0.4,0-0.8,0.3-1,0.8L2.5,8.9L2.4,9.2L2.4,9.2z"/>
</svg>
