<?xml version="1.0" encoding="utf-8"?>
<!-- Generator: Adobe Illustrator 22.0.1, SVG Export Plug-In . SVG Version: 6.00 Build 0)  -->
<svg version="1.1" id="レイヤー_1" xmlns="http://www.w3.org/2000/svg" xmlns:xlink="http://www.w3.org/1999/xlink" x="0px"
	 y="0px" viewBox="0 0 18 18" style="enable-background:new 0 0 18 18;" xml:space="preserve">
<path d="M11.2,9.3L11.2,9.3L11.2,9.3V9.2l0-0.1c0.1-0.2,0.2-0.4,0.3-0.6l0.2-0.3l0.1-0.1l0.1-0.1L12,8l0,0c0,0,0.1,0,0.2-0.1h0.3
	l0.1,0l0.2,0.1L13,8.2l0.1,0.2c0.1,0.1,0.1,0.1,0.1,0.2l0,0.1v0.2C13.1,9.5,13,9.8,12.7,10l-0.2,0.1l-0.1,0h-0.2
	C11.9,10,11.6,9.9,11.2,9.3L11.2,9.3z M10.5,9.2L10.5,9.2L10.5,9.2l0,0.1l0.1,0.3l0.1,0.2c0.2,0.3,0.3,0.4,0.5,0.6l0.1,0.1l0.1,0.1
	c0.3,0.1,0.6,0.2,0.8,0.2c0.4,0,0.9-0.2,1.2-0.6c0.3-0.3,0.4-0.5,0.5-1.1V8.7l0-0.2l-0.1-0.3c-0.4-0.7-1-1.1-1.7-1.1
	c-0.9,0-1.6,0.8-1.7,1.8L10.5,9.2z M4.7,9.3l0.1-0.4c0-0.3,0.1-0.4,0.2-0.6L5,8.1C5.2,8,5.5,7.9,5.7,7.9c0.4,0,0.8,0.2,1,0.6
	l0.1,0.2l0,0.1v0.2l0,0.1L6.7,9.5L6.5,9.7L6.4,9.8L6.3,9.9C6.1,10,6,10.1,5.8,10.1l-0.1,0l-0.1,0C5.4,10,5.1,9.8,4.7,9.3L4.7,9.3z
	 M4,9.2L4,9.2l0,0.1l0,0.1l0,0.1l0.1,0.2c0.3,0.4,0.6,0.7,0.9,0.9l0.1,0.1l0.1,0.1c0.1,0.1,0.4,0.1,0.4,0.1h0.1
	c0.5,0,0.9-0.2,1.2-0.6c0.3-0.3,0.5-0.9,0.5-1.3c0-0.9-0.9-1.7-1.9-1.7c-0.5,0-1,0.2-1.2,0.6C4.2,8.2,4,8.7,4,9.1V9.2z"/>
</svg>
