<?xml version="1.0" encoding="utf-8"?>
<!-- Generator: Adobe Illustrator 22.0.1, SVG Export Plug-In . SVG Version: 6.00 Build 0)  -->
<svg version="1.1" id="レイヤー_1" xmlns="http://www.w3.org/2000/svg" xmlns:xlink="http://www.w3.org/1999/xlink" x="0px"
	 y="0px" viewBox="0 0 18 18" style="enable-background:new 0 0 18 18;" xml:space="preserve">
<path d="M8.9,1.1c2.1,0,4,0.7,5.4,2c1.7,1.5,2.6,3.6,2.6,5.8c0,4.4-3.5,8-7.9,8c-4.4,0-7.9-3.6-7.9-7.9C1.1,4.7,4.6,1.1,8.9,1.1z
	 M9.1,0.5c-2.2,0-4.3,0.8-5.8,2.2C1.5,4.4,0.5,6.6,0.5,8.9c0,4.8,3.8,8.6,8.5,8.6c4.7,0,8.5-3.8,8.5-8.5C17.5,4.4,13.7,0.5,9.1,0.5z
	 M5.7,5.8h1.2C8,5.9,8.4,6.3,8.4,7.2v5.3c0,0.8-0.3,1-1.3,1.1H6.3v0.5h5.7v-0.5l-0.6,0l-0.4,0c-0.1,0-0.6-0.1-0.8-0.2
	c-0.2-0.1-0.3-0.4-0.3-0.8V3.3H9.7c-1.2,1.6-1.7,2-3.3,2H5.7V5.8z"/>
</svg>
