<?xml version="1.0" encoding="utf-8"?>
<!-- Generator: Adobe Illustrator 22.0.1, SVG Export Plug-In . SVG Version: 6.00 Build 0)  -->
<svg version="1.1" id="レイヤー_1" xmlns="http://www.w3.org/2000/svg" xmlns:xlink="http://www.w3.org/1999/xlink" x="0px"
	 y="0px" viewBox="0 0 18 18" style="enable-background:new 0 0 18 18;" xml:space="preserve">
<path d="M8.9,1.1c2.1,0,4,0.7,5.4,2c1.7,1.5,2.6,3.6,2.6,5.8c0,4.4-3.5,8-7.9,8c-4.3,0-7.9-3.5-7.9-7.9C1.1,4.7,4.7,1.1,8.9,1.1z
	 M9.1,0.5c-2.2,0-4.3,0.8-5.8,2.2C1.5,4.4,0.5,6.6,0.5,8.9c0,4.8,3.8,8.6,8.5,8.6c4.7,0,8.5-3.8,8.5-8.5C17.5,4.4,13.7,0.5,9.1,0.5z
	 M7.6,12.5C7.8,12.3,8,12.2,8,12.1c0.4-0.4,0.7-0.8,1.1-1.1c2-1.9,2-1.9,2.2-2.1c0.7-0.8,1-1.4,1-2.2c0-1.6-1.7-3.1-3.5-3.1
	C7,3.6,5.6,5.1,5.6,6.9c0,1,0.6,1.8,1.3,1.8c0.5,0,1-0.5,1-1.1c0-0.6-0.5-1-1-1c-0.2,0-0.4,0.1-0.6,0.3H6.1c0.2-1.7,1.1-2.6,2.4-2.6
	c0.7,0,1.2,0.2,1.5,0.5c0.4,0.4,0.6,1.1,0.6,1.9c0,0.6-0.1,1.2-0.3,1.8c-0.3,0.8-0.8,1.4-2.1,2.8c-1.1,1.1-1.8,2-2.3,2.9h6.5
	l0.3-3.4H12L12,11.5c-0.1,0.8-0.2,0.9-0.6,1L7.6,12.5z"/>
</svg>
