<?xml version="1.0" encoding="utf-8"?>
<!-- Generator: Adobe Illustrator 22.0.1, SVG Export Plug-In . SVG Version: 6.00 Build 0)  -->
<svg version="1.1" id="レイヤー_1" xmlns="http://www.w3.org/2000/svg" xmlns:xlink="http://www.w3.org/1999/xlink" x="0px"
	 y="0px" viewBox="0 0 18 18" style="enable-background:new 0 0 18 18;" xml:space="preserve">
<path d="M8.9,1.1c2.1,0,3.9,0.7,5.4,2c1.7,1.5,2.6,3.6,2.6,5.8c0,4.4-3.5,7.9-7.9,7.9c-4.3,0-7.9-3.5-7.9-7.9
	C1.1,4.7,4.7,1.1,8.9,1.1z M9.1,0.6c-2.2,0-4.2,0.8-5.8,2.2C1.6,4.4,0.6,6.6,0.6,8.9c0,4.7,3.8,8.5,8.4,8.5c4.6,0,8.4-3.8,8.4-8.4
	C17.4,4.4,13.6,0.6,9.1,0.6z M9.7,8.8c0.7-0.2,1.1-0.3,1.5-0.7c0.5-0.4,0.8-1.1,0.8-1.7c0-1.5-1.5-2.8-3.1-2.8c-1.6,0-2.7,1-2.7,2.3
	c0,0.8,0.5,1.4,1.1,1.4c0.5,0,1-0.4,1-1c0-0.6-0.4-1-0.9-1c-0.2,0-0.3,0-0.7,0.2c0.2-0.8,1.2-1.5,2.1-1.5c1,0,1.7,1,1.7,2.2
	c0,1-0.4,1.8-1.2,2.2C8.8,8.6,8.7,8.6,7.9,8.6H7.7v0.5c0.5,0,0.5,0,0.7,0c1.5,0,2.2,0.8,2.2,2.3c0,0.6-0.1,1.1-0.3,1.4
	C10,13.6,9.3,14,8.6,14s-1.5-0.4-1.9-0.9c-0.1-0.1-0.1-0.2-0.2-0.4c0.1,0,0.2,0,0.3,0c0.6,0,1.1-0.5,1.1-1c0-0.5-0.6-1-1.2-1
	c-0.6,0-1,0.5-1,1.2c0,1.3,1.4,2.5,2.9,2.5c2,0,3.7-1.3,3.7-3c0-0.8-0.4-1.5-1-1.9C10.9,9.2,10.6,9.1,9.7,8.8L9.7,8.8z"/>
</svg>
