<?xml version="1.0" encoding="utf-8"?>
<!-- Generator: Adobe Illustrator 22.0.1, SVG Export Plug-In . SVG Version: 6.00 Build 0)  -->
<svg version="1.1" id="レイヤー_1" xmlns="http://www.w3.org/2000/svg" xmlns:xlink="http://www.w3.org/1999/xlink" x="0px"
	 y="0px" viewBox="0 0 18 18" style="enable-background:new 0 0 18 18;" xml:space="preserve">
<path d="M8.9,1.1c2.1,0,3.9,0.7,5.4,2c1.7,1.5,2.6,3.6,2.6,5.8c0,4.4-3.5,7.9-7.9,7.9c-4.3,0-7.9-3.5-7.9-7.9
	C1.1,4.7,4.7,1.1,8.9,1.1z M9.1,0.6c-2.2,0-4.2,0.8-5.8,2.2C1.6,4.4,0.6,6.6,0.6,8.9c0,4.7,3.8,8.5,8.4,8.5c4.6,0,8.4-3.8,8.4-8.4
	C17.4,4.4,13.6,0.6,9.1,0.6z M6.1,11.1l2.7-4.9l0,4.9H6.1z M5.4,11.6h3.4l0,1.1c-0.1,0.8-0.5,1-1.8,0.9H6.7v0.5h5.5v-0.5l-0.2,0
	c-1.3,0-1.7-0.2-1.7-0.9l0-1.1h2.2v-0.5h-2.2l0-8.4h-0.1l-4.8,8.6V11.6z"/>
</svg>
