<?xml version="1.0" encoding="utf-8"?>
<!-- Generator: Adobe Illustrator 22.0.1, SVG Export Plug-In . SVG Version: 6.00 Build 0)  -->
<svg version="1.1" id="レイヤー_1" xmlns="http://www.w3.org/2000/svg" xmlns:xlink="http://www.w3.org/1999/xlink" x="0px"
	 y="0px" viewBox="0 0 18 18" style="enable-background:new 0 0 18 18;" xml:space="preserve">
<path d="M8.9,1.1c2.1,0,3.9,0.7,5.4,2c1.7,1.5,2.6,3.6,2.6,5.8c0,4.4-3.5,7.9-7.9,7.9c-4.3,0-7.9-3.5-7.9-7.9
	C1.2,4.7,4.7,1.1,8.9,1.1z M9.2,0.5c-2.2,0-4.2,0.8-5.8,2.2C1.5,4.4,0.5,6.6,0.5,8.9c0,4.7,3.8,8.6,8.5,8.6c4.7,0,8.5-3.8,8.5-8.5
	C17.5,4.4,13.7,0.5,9.2,0.5z M6.4,11.4l0,0.8c0,0.3,0.3,1,0.7,1.4c0.4,0.5,1.1,0.8,1.8,0.8c1.9,0,3.7-1.8,3.7-3.8
	c0-1.8-1.4-3.3-3-3.3c-0.7,0-1.3,0.3-2,0.8V5.7h0.5c1.5,0,2.4-0.2,3.1-0.6c0.6-0.4,1-0.8,1-1.2c0-0.1,0-0.1,0-0.4
	c-0.9,0.7-1.4,0.9-2.4,0.9c-0.6,0-1.1-0.1-1.4-0.2c-0.6-0.2-1-0.3-1-0.3c-0.1,0-0.2,0-0.4,0c0,1.2,0,1.4,0,1.9c0,0.6,0,1,0,1.4
	c0,0.4,0,0.8,0,1c0,0.2,0,0.4,0,0.5C6.9,9.1,6.9,9.3,6.9,9.4l0,0.3h0.4c0.4-1.1,1.2-1.8,1.9-1.8c0.3,0,0.6,0.1,0.9,0.4
	c0.4,0.4,0.6,1.4,0.6,2.8c0,1.8-0.7,3-1.7,3c-0.9,0-1.8-0.6-1.9-1.3c0.8,0,1.3-0.4,1.3-1c0-0.3-0.1-0.5-0.6-0.9H6.9L6.4,11.4z"/>
</svg>
