<?xml version="1.0" encoding="utf-8"?>
<!-- Generator: Adobe Illustrator 22.0.1, SVG Export Plug-In . SVG Version: 6.00 Build 0)  -->
<svg version="1.1" id="レイヤー_1" xmlns="http://www.w3.org/2000/svg" xmlns:xlink="http://www.w3.org/1999/xlink" x="0px"
	 y="0px" viewBox="0 0 18 18" style="enable-background:new 0 0 18 18;" xml:space="preserve">
<path d="M8.9,1c2.1,0,4,0.7,5.4,2c1.7,1.5,2.6,3.6,2.6,5.8c0,4.4-3.5,8-7.9,8c-4.4,0-7.9-3.5-7.9-7.9C1.1,4.6,4.7,1,8.9,1z M9.2,0.4
	c-2.2,0-4.2,0.8-5.8,2.2C1.5,4.3,0.5,6.5,0.5,8.8c0,4.7,3.8,8.6,8.5,8.6c4.7,0,8.5-3.8,8.5-8.5C17.5,4.3,13.7,0.4,9.2,0.4z M9.2,8
	c0.4,0,0.9,0.3,1.2,0.9c0.2,0.4,0.3,0.9,0.3,1.9c0,2.3-0.5,3.2-1.6,3.2c-0.5,0-0.8-0.1-1-0.5c-0.3-0.4-0.6-1.4-0.6-2.4
	C7.5,10,7.8,9,8.2,8.5C8.5,8.2,8.9,8,9.2,8z M11.1,5.4c-0.2-0.2-0.4-0.2-0.5-0.2c-0.5,0-0.9,0.5-0.9,1c0,0.6,0.4,1.1,1,1.1
	c0.6,0,1.2-0.7,1.2-1.3c0-0.4-0.2-1-0.6-1.5c-0.5-0.7-1.2-1.1-1.9-1.1c-1.1,0-2.2,0.8-2.8,2c-0.5,1-0.7,2.2-0.7,3.5c0,1.6,0.3,3,1,4
	c0.5,0.8,1.4,1.3,2.2,1.3c1.6,0,3.1-1.7,3.1-3.5c0-1.8-1.3-3.4-2.7-3.4c-0.8,0-1.5,0.4-2,1.3C7.4,6.6,7.5,6,8,4.9
	c0.3-0.6,0.8-1,1.3-1c0.5,0,1.1,0.3,1.5,0.8C11,4.9,11,5.1,11.1,5.4z"/>
</svg>
