<?xml version="1.0" encoding="utf-8"?>
<!-- Generator: Adobe Illustrator 22.0.1, SVG Export Plug-In . SVG Version: 6.00 Build 0)  -->
<svg version="1.1" id="レイヤー_1" xmlns="http://www.w3.org/2000/svg" xmlns:xlink="http://www.w3.org/1999/xlink" x="0px"
	 y="0px" viewBox="0 0 18 18" style="enable-background:new 0 0 18 18;" xml:space="preserve">
<path d="M8.9,1.2c2,0,3.9,0.7,5.4,2c1.7,1.5,2.6,3.6,2.6,5.7c0,4.4-3.5,7.9-7.8,7.9c-4.3,0-7.8-3.5-7.8-7.8C1.2,4.8,4.7,1.2,8.9,1.2
	z M9.1,0.6c-2.2,0-4.2,0.8-5.8,2.2C1.6,4.4,0.6,6.6,0.6,8.9c0,4.7,3.8,8.5,8.4,8.5c4.6,0,8.4-3.8,8.4-8.4C17.4,4.4,13.6,0.6,9.1,0.6
	z M5.8,7.9h0.6v-1c0-0.5,0.1-0.6,0.3-1h4.6C8.9,10,8,11.9,8,13.3c0,0.4,0.1,0.8,0.3,1c0.1,0.2,0.3,0.3,0.6,0.3
	c0.7,0,0.9-0.5,0.9-2.2c0-1.2,0.2-2.4,0.9-4.3c0.3-0.8,1-2,1.9-3.4l0.1-0.2l0.1-0.2H6.5V3.8H6L5.8,7.9z"/>
</svg>
