<?xml version="1.0" encoding="utf-8"?>
<!-- Generator: Adobe Illustrator 22.0.1, SVG Export Plug-In . SVG Version: 6.00 Build 0)  -->
<svg version="1.1" id="レイヤー_1" xmlns="http://www.w3.org/2000/svg" xmlns:xlink="http://www.w3.org/1999/xlink" x="0px"
	 y="0px" viewBox="0 0 18 18" style="enable-background:new 0 0 18 18;" xml:space="preserve">
<path d="M8.9,1.1c2.1,0,3.9,0.7,5.4,2c1.7,1.5,2.6,3.6,2.6,5.8c0,4.4-3.5,7.9-7.9,7.9c-4.3,0-7.9-3.5-7.9-7.9
	C1.1,4.7,4.7,1.1,8.9,1.1z M9.1,0.6c-2.2,0-4.2,0.8-5.8,2.2C1.6,4.4,0.6,6.6,0.6,8.9c0,4.7,3.8,8.5,8.4,8.5c4.6,0,8.4-3.8,8.4-8.4
	C17.4,4.4,13.6,0.6,9.1,0.6z M9.7,8.3C9,8,8.5,7.6,8,7.2C7.7,6.9,7.6,6.5,7.6,6c0-1.1,0.8-2,1.6-2c0.9,0,1.7,1,1.7,2
	C11,6.9,10.5,7.7,9.7,8.3L9.7,8.3z M8.7,9.4c1.1,0,2.4,1.5,2.4,2.8c0,1.1-0.8,1.9-2,1.9c-1.3,0-2.3-1-2.3-2.3
	C6.8,10.6,7.7,9.4,8.7,9.4z M8.3,9C7.5,9.3,7,9.7,6.4,10.3c-0.4,0.5-0.6,0.9-0.6,1.5c0,0.8,0.3,1.3,0.9,1.9c0.7,0.5,1.4,0.8,2.3,0.8
	c1,0,2-0.4,2.6-1.1c0.6-0.6,0.9-1.4,0.9-2.1c0-0.7-0.3-1.4-0.7-1.8c-0.4-0.4-0.7-0.6-1.6-1c1.3-1,1.7-1.7,1.7-2.7
	c0-1.3-1.2-2.3-2.7-2.3c-1.6,0-3,1.3-3,2.6C6.1,7.2,7,8.3,8.3,9z"/>
</svg>
