<?xml version="1.0" encoding="utf-8"?>
<!-- Generator: Adobe Illustrator 22.0.1, SVG Export Plug-In . SVG Version: 6.00 Build 0)  -->
<svg version="1.1" id="レイヤー_1" xmlns="http://www.w3.org/2000/svg" xmlns:xlink="http://www.w3.org/1999/xlink" x="0px"
	 y="0px" viewBox="0 0 18 18" style="enable-background:new 0 0 18 18;" xml:space="preserve">
<path d="M8.9,1.2c2,0,3.9,0.7,5.4,2c1.7,1.5,2.6,3.6,2.6,5.7c0,4.4-3.5,7.9-7.8,7.9c-4.3,0-7.8-3.5-7.8-7.8C1.2,4.8,4.7,1.2,8.9,1.2
	z M9.1,0.6c-2.2,0-4.2,0.8-5.8,2.2C1.6,4.4,0.6,6.6,0.6,8.9c0,4.7,3.7,8.5,8.4,8.5c4.6,0,8.4-3.8,8.4-8.4C17.4,4.4,13.6,0.6,9.1,0.6
	z M8.8,4c1,0,1.7,1.2,1.7,3.1c0,1.8-0.7,3-1.7,3c-0.4,0-0.7-0.2-0.9-0.4C7.6,9.3,7.3,8.2,7.3,7.3s0.2-2,0.6-2.7C8.1,4.2,8.4,4,8.8,4
	z M6.9,12.9c0.2,0.1,0.3,0.1,0.4,0.1c0.5,0,1.1-0.5,1.1-1.1c0-0.6-0.6-1.1-1.2-1.1c-0.5,0-1,0.5-1,1.2c0,1.4,1.2,2.6,2.5,2.6
	c2,0,3.4-2.4,3.4-5.7c0-2.9-1.4-5.2-3.1-5.2c-1.6,0-3.1,1.8-3.1,3.7c0,1.8,1.3,3.3,2.9,3.3c0.8,0,1.2-0.3,1.9-1.3
	c0,1-0.1,1.7-0.1,2.1c-0.1,0.9-0.3,1.6-0.6,2c-0.3,0.4-0.6,0.6-1,0.6c-0.6,0-1.2-0.3-1.7-0.6C7.1,13.3,7,13.1,6.9,12.9z"/>
</svg>
