<?xml version="1.0" encoding="utf-8"?>
<!-- Generator: Adobe Illustrator 22.0.1, SVG Export Plug-In . SVG Version: 6.00 Build 0)  -->
<svg version="1.1" id="レイヤー_1" xmlns="http://www.w3.org/2000/svg" xmlns:xlink="http://www.w3.org/1999/xlink" x="0px"
	 y="0px" viewBox="0 0 18 18" style="enable-background:new 0 0 18 18;" xml:space="preserve">
<path d="M8.9,1.1c2.1,0,3.9,0.7,5.4,2c1.7,1.5,2.6,3.6,2.6,5.8c0,4.4-3.5,7.9-7.9,7.9c-4.3,0-7.9-3.5-7.9-7.9
	C1.1,4.7,4.7,1.1,8.9,1.1z M9.1,0.6c-2.2,0-4.2,0.8-5.8,2.2C1.6,4.4,0.6,6.6,0.6,8.9c0,4.7,3.8,8.5,8.4,8.5c4.6,0,8.4-3.8,8.4-8.4
	C17.4,4.4,13.6,0.6,9.1,0.6z M12.2,4c0.5,0,0.8,0.3,1,0.8c0.2,0.6,0.4,2.7,0.4,4c0,1.8-0.2,3.8-0.6,4.6c-0.1,0.4-0.5,0.6-0.9,0.6
	c-0.4,0-0.6-0.1-0.8-0.5c-0.4-0.7-0.6-2-0.6-3.5c0-1.8,0.2-4.3,0.4-4.9C11.4,4.3,11.7,4,12.2,4z M12.3,3.6c-0.8,0-1.6,0.6-2,1.5
	c-0.5,1-0.7,2.4-0.7,4.2c0,3.2,1,5.2,2.7,5.2c0.9,0,1.5-0.7,2.1-2c0.4-1.1,0.6-2.1,0.6-3.1C14.9,5.9,13.8,3.6,12.3,3.6z M3.4,5.3
	l1.3,0c0.6,0,0.7,0.1,0.8,0.8v6.8c0,0.5-0.1,0.7-0.6,0.7H3.9v0.5h4.4v-0.5H7.4c-0.6,0-0.7-0.2-0.7-0.8l0-9.6H6.6
	C5.4,4.6,5.1,4.8,4,4.8H3.4V5.3z"/>
</svg>
