<?xml version="1.0" encoding="utf-8"?>
<!-- Generator: Adobe Illustrator 22.0.1, SVG Export Plug-In . SVG Version: 6.00 Build 0)  -->
<svg version="1.1" id="レイヤー_1" xmlns="http://www.w3.org/2000/svg" xmlns:xlink="http://www.w3.org/1999/xlink" x="0px"
	 y="0px" viewBox="0 0 18 18" style="enable-background:new 0 0 18 18;" xml:space="preserve">
<path d="M9.8,2.2L8.1,3.7L6,4.2l0.2,0.5c0.3,0,0.4,0,0.6,0c0.4,0,0.7,0,1.3,0.2l0.4,0.5v6.4c0,0.4,0,0.6,0,0.8
	c0,0.4-0.1,0.7-0.5,1.5l-1.5,0.4v0.5h5.2v-0.5l-0.9-0.2l-1-0.7V2.2z M15,0.6l-0.2,0.5l0.6,0.7L16.3,5c0.4,2,0.5,3,0.5,4.1
	c0,1.8-0.3,3.3-1.1,5.5c-0.3,0.8-0.3,1-0.9,2.6h0.4l1.2-2.5c1-3,1.1-3.8,1.1-5.6c0-0.6,0-1.1-0.1-2.5l-1-3.8L15,0.6z M3.2,0.6
	L2.1,1.9C0.7,5.5,0.6,6,0.4,9.7l0.8,4l1.7,3.6L3.3,17l-0.2-0.2L3,16.1L2.3,15l-0.9-3.7c0-0.9,0-1.7,0-2.5c0-1.7,0.1-2.6,0.5-4.5
	L3.2,0.6L3.2,0.6z"/>
</svg>
