<?xml version="1.0" encoding="utf-8"?>
<!-- Generator: Adobe Illustrator 22.0.1, SVG Export Plug-In . SVG Version: 6.00 Build 0)  -->
<svg version="1.1" id="レイヤー_1" xmlns="http://www.w3.org/2000/svg" xmlns:xlink="http://www.w3.org/1999/xlink" x="0px"
	 y="0px" viewBox="0 0 18 18" style="enable-background:new 0 0 18 18;" xml:space="preserve">
<path d="M9.9,2.5L8.3,2.7C6.1,3.6,5.9,3.8,5.5,6.2L6.3,7l1-0.2L7.6,6L7,4.4l0.6-0.9c0.5-0.1,1-0.2,1.3-0.2c0.2,0,0.6,0.1,1.2,0.2
	l0.9,1.1c0.1,0.5,0.2,0.9,0.2,1.2c0,0.2-0.1,0.6-0.1,1.1l-4.8,5.9c-0.8,0.8-0.9,0.9-0.9,2.1h7c0.3-1.4,0.3-1.6,0.8-2.9v-0.4h-0.5
	l-1.1,1.8l-0.9,0.3H6.4c0.3-0.6,0.5-0.8,1.3-1.9l2.5-2.3l1.3-0.9l1.2-1.8V6.5c-0.2-2.1-0.3-2.5-1.2-3.5L9.9,2.5z M15,0.5L14.8,1
	l0.6,0.7l0.9,3.2c0.4,2,0.5,3,0.5,4.1c0,1.8-0.3,3.3-1.1,5.5c-0.3,0.8-0.3,1-0.9,2.6h0.4l1.2-2.5c1-3,1.1-3.8,1.1-5.6
	c0-0.6,0-1.1-0.1-2.5l-1-3.8L15,0.5z M3.2,0.6L2.1,1.9C0.7,5.4,0.6,6,0.4,9.6l0.8,4l1.7,3.6L3.3,17l-0.2-0.2L3,16L2.3,15l-0.9-3.7
	c0-0.9,0-1.7,0-2.5c0-1.7,0.1-2.6,0.5-4.5L3.2,0.6L3.2,0.6z"/>
</svg>
