<?xml version="1.0" encoding="utf-8"?>
<!-- Generator: Adobe Illustrator 22.0.1, SVG Export Plug-In . SVG Version: 6.00 Build 0)  -->
<svg version="1.1" id="レイヤー_1" xmlns="http://www.w3.org/2000/svg" xmlns:xlink="http://www.w3.org/1999/xlink" x="0px"
	 y="0px" viewBox="0 0 18 18" style="enable-background:new 0 0 18 18;" xml:space="preserve">
<path d="M9.6,2.7H8.4l-2,0.6L6.3,3.4C5.6,4.2,5.4,4.7,5.4,5.2c0,0.6,0.4,1,1.1,1c0.1,0,0.1,0,0.4,0l0.5-0.6L7,4.2l0.3-0.3l0.4-0.3
	C8,3.4,8.4,3.4,8.6,3.4c0.2,0,0.6,0.1,1.2,0.3l1,1.2c0,0.2,0,0.4,0,0.5c0,1.8-0.9,2.7-2.7,2.7c-0.1,0-0.2,0-0.8,0l0.2,0.7
	C8.8,8.8,8.9,8.9,10,9.4l1.2,1.2v0.7c0,1.4-0.1,1.6-1,2.6l-0.7,0.5H9.2c-0.2,0-0.2,0-0.2,0c-0.4,0-0.9-0.2-1.8-0.7l0.1-0.7v-0.1
	v-0.1c0-0.8-0.4-1.3-0.8-1.3c-0.7,0-1.3,0.5-1.3,1.1c0,0.4,0.3,1,0.7,1.4c0.3,0.3,0.7,0.6,1.8,1.1h2l2-0.9c0.8-0.9,1-1.2,1.2-1.8
	l-0.1-2.4c-1-1.1-1.2-1.2-3-1.6l0.1-0.1l1.4-0.6l1.1-1.3V6.2l0-0.3v0c0-0.7-0.3-1.4-1.1-2.7L9.6,2.7z M15,0.6l-0.2,0.5l0.6,0.7
	l0.9,3.2c0.4,2,0.5,3,0.5,4.1c0,1.8-0.3,3.3-1.1,5.5c-0.3,0.8-0.3,1-0.9,2.6h0.4l1.2-2.5c1-3,1.1-3.8,1.1-5.6c0-0.6,0-1.1-0.1-2.5
	l-1-3.8L15,0.6z M3.2,0.7L2.1,2C0.7,5.6,0.6,6.1,0.4,9.8l0.8,4l1.7,3.6l0.4-0.2l-0.2-0.2L3,16.2l-0.6-1.1l-0.9-3.7
	c0-0.9,0-1.7,0-2.5c0-1.7,0.1-2.6,0.5-4.5L3.2,0.7L3.2,0.7z"/>
</svg>
