<?xml version="1.0" encoding="utf-8"?>
<!-- Generator: Adobe Illustrator 22.0.1, SVG Export Plug-In . SVG Version: 6.00 Build 0)  -->
<svg version="1.1" id="レイヤー_1" xmlns="http://www.w3.org/2000/svg" xmlns:xlink="http://www.w3.org/1999/xlink" x="0px"
	 y="0px" viewBox="0 0 18 18" style="enable-background:new 0 0 18 18;" xml:space="preserve">
<path d="M9.4,5.1L9.4,5.1l0.1,6H6L9.4,5.1z M10.7,1.9l-0.4,0.3L6.4,8.8l-1.5,3h4.4l0.1,0.1c0,0.3,0,0.6,0,0.8c0,0.4-0.1,0.7-0.5,1.5
	l-1.5,0.4V15h5.2v-0.5l-1.4-0.4l-0.6-0.5v-1.9h2.4v-0.7h-2.4V1.9z M15,0.6l-0.2,0.5l0.6,0.7l0.9,3.2c0.4,2,0.5,3,0.5,4.1
	c0,1.8-0.3,3.3-1.1,5.5c-0.3,0.8-0.3,1-0.9,2.6h0.4l1.2-2.5c1-3,1.1-3.8,1.1-5.6c0-0.6,0-1.1-0.1-2.5l-1-3.8L15,0.6z M3.2,0.7L2.1,2
	C0.7,5.6,0.6,6.1,0.4,9.8l0.8,4l1.7,3.6l0.4-0.2l-0.2-0.2L3,16.2l-0.6-1.1l-0.9-3.7c0-0.9,0-1.7,0-2.5c0-1.7,0.1-2.6,0.5-4.5
	L3.2,0.7L3.2,0.7z"/>
</svg>
