<?xml version="1.0" encoding="utf-8"?>
<!-- Generator: Adobe Illustrator 22.0.1, SVG Export Plug-In . SVG Version: 6.00 Build 0)  -->
<svg version="1.1" id="レイヤー_1" xmlns="http://www.w3.org/2000/svg" xmlns:xlink="http://www.w3.org/1999/xlink" x="0px"
	 y="0px" viewBox="0 0 18 18" style="enable-background:new 0 0 18 18;" xml:space="preserve">
<path d="M11.8,3H6.3l-0.4,7.1h0.7V9.8l1-1.4L8.4,8C9.3,8.2,9.6,8.3,10,8.5l1,1.4v0.2c0,0.6,0,0.7,0,1c0,0.6-0.1,0.9-0.5,2l-1.3,1.4
	H9c-0.2,0-0.2,0-0.2,0c-0.4,0-0.9-0.2-1.8-0.7L7.3,13v-0.2c0-0.4,0-0.5-0.1-0.6c-0.1-0.4-0.5-0.7-0.8-0.7c-0.4,0-0.7,0.2-1,0.6
	l0.1,1.5c0.9,1,1,1.2,2.2,1.6h1.8l1.8-0.9c1.1-1.3,1.3-1.8,1.5-2.7l-0.1-1.5c-0.9-2.4-1.2-2.6-3.4-2.9L7.5,7.5L6.8,8.4H6.7l0.2-4.2
	h4.8L11.8,3z M15,0.6l-0.2,0.5l0.6,0.7l0.9,3.2c0.4,2,0.5,3,0.5,4.1c0,1.8-0.3,3.3-1.1,5.5c-0.3,0.8-0.3,1-0.9,2.6h0.4l1.2-2.5
	c1-3,1.1-3.8,1.1-5.6c0-0.6,0-1.1-0.1-2.5l-1-3.8L15,0.6z M3.2,0.7L2.1,2C0.7,5.6,0.6,6.1,0.4,9.8l0.8,4l1.7,3.6l0.4-0.2l-0.2-0.2
	L3,16.2l-0.6-1.1l-0.9-3.7c0-0.9,0-1.7,0-2.5c0-1.7,0.1-2.6,0.5-4.5L3.2,0.7L3.2,0.7z"/>
</svg>
