<?xml version="1.0" encoding="utf-8"?>
<!-- Generator: Adobe Illustrator 22.0.1, SVG Export Plug-In . SVG Version: 6.00 Build 0)  -->
<svg version="1.1" id="レイヤー_1" xmlns="http://www.w3.org/2000/svg" xmlns:xlink="http://www.w3.org/1999/xlink" x="0px"
	 y="0px" viewBox="0 0 18 18" style="enable-background:new 0 0 18 18;" xml:space="preserve">
<path d="M8.7,8.4h0.1c0.2,0,0.2,0,0.3,0c0.4,0,0.9,0.3,1.7,0.9l0.4,0.9v0.2c0,0.5,0,0.6,0,0.8c0,0.6-0.1,1.1-0.3,2l-1.3,1.4H9.6
	c-0.2,0-0.3,0.1-0.3,0.1c-0.4,0-1-0.3-1.9-0.9l-0.7-1.6v-0.7c0-0.1,0-0.2,0-0.2c0-0.4,0.3-1,0.9-1.9L8,8.9L8.7,8.4z M9.8,2.7l-2,0.9
	L6.4,4.9C5.7,6.3,5.6,6.5,5.2,7.9v2.9L6,13.4c0.6,0.9,0.9,1.1,2.3,1.8l2.4-0.2l1.4-1.1c0.6-1.1,0.6-1.3,0.9-2.4v-0.9l-0.8-2
	l-1.7-1.1c-0.4,0-0.6,0-0.8,0C9.3,7.5,9,7.6,8.1,7.9L6.7,9.3c0-0.2,0-0.3,0-0.4c0-0.9,0.4-2.2,1.5-4.4l1-0.9l0.2,0
	c0.2,0,0.4,0.1,0.8,0.4l0.3,1.1l0.6,0.4c0.2,0,0.3,0,0.4,0c0.3,0,0.5-0.1,0.9-0.4l-0.2-1.1c-0.6-0.5-0.8-0.6-1.8-1.1H9.8z M15,0.6
	l-0.2,0.5l0.6,0.7l0.9,3.2c0.4,2,0.5,3,0.5,4.1c0,1.8-0.3,3.3-1.1,5.5c-0.3,0.8-0.3,1-0.9,2.6h0.4l1.2-2.5c1-3,1.1-3.8,1.1-5.6
	c0-0.6,0-1.1-0.1-2.5l-1-3.8L15,0.6z M3.2,0.7L2.1,2C0.7,5.6,0.6,6.1,0.4,9.8l0.8,4l1.7,3.6l0.4-0.2l-0.2-0.2L3,16.2l-0.6-1.1
	l-0.9-3.7c0-0.9,0-1.7,0-2.5c0-1.7,0.1-2.6,0.5-4.5L3.2,0.7L3.2,0.7z"/>
</svg>
