<?xml version="1.0" encoding="utf-8"?>
<!-- Generator: Adobe Illustrator 22.0.1, SVG Export Plug-In . SVG Version: 6.00 Build 0)  -->
<svg version="1.1" id="レイヤー_1" xmlns="http://www.w3.org/2000/svg" xmlns:xlink="http://www.w3.org/1999/xlink" x="0px"
	 y="0px" viewBox="0 0 18 18" style="enable-background:new 0 0 18 18;" xml:space="preserve">
<path d="M13,3H6.8L5.8,3.2C5.5,4.8,5.5,5,5.4,6.7h0.6l0.3-1.5l0.7-1h4.7l-0.6,1.2c-1,1.5-1.7,2.7-1.9,3.4c-1.7,4.5-1.7,4.5-1.7,5
	c0,0.3,0.1,0.6,0.3,1.3l1.1-0.2c0.3-0.8,0.4-1.1,0.4-1.5c0-0.2,0-0.4,0-0.7C9.7,9,9.8,9,12.5,4L13,3z M15,0.6l-0.2,0.5l0.6,0.7
	L16.3,5c0.4,2,0.5,3,0.5,4.1c0,1.8-0.3,3.3-1.1,5.5c-0.3,0.8-0.3,1-0.9,2.6h0.4l1.2-2.5c1-3,1.1-3.8,1.1-5.6c0-0.6,0-1.1-0.1-2.5
	l-1-3.8L15,0.6z M3.2,0.6L2.1,1.9C0.7,5.5,0.6,6,0.4,9.7l0.8,4l1.7,3.6l0.4-0.2l-0.2-0.2L3,16.1L2.3,15l-0.9-3.7c0-0.9,0-1.7,0-2.5
	c0-1.7,0.1-2.6,0.5-4.5L3.2,0.6L3.2,0.6z"/>
</svg>
