<?xml version="1.0" encoding="utf-8"?>
<!-- Generator: Adobe Illustrator 22.0.1, SVG Export Plug-In . SVG Version: 6.00 Build 0)  -->
<svg version="1.1" id="レイヤー_1" xmlns="http://www.w3.org/2000/svg" xmlns:xlink="http://www.w3.org/1999/xlink" x="0px"
	 y="0px" viewBox="0 0 18 18" style="enable-background:new 0 0 18 18;" xml:space="preserve">
<path d="M8.2,9.2h0.3c1.3,0.4,1.7,0.6,2.4,1.1l0.9,1.2v0.2c0,1.2-0.1,1.4-0.9,2.3l-0.7,0.5H9.8c-0.5,0-0.6,0-0.8,0
	c-0.5,0-0.9-0.1-1.8-0.6l-0.9-1.2c0.1-1.5,0.3-2,0.9-2.6L8.2,9.2z M8.4,3.3c0.9,0,1.2,0.1,1.6,0.3l1.2,1.2c0,0.3,0.1,0.6,0.1,0.8
	c0,0.4-0.2,0.8-0.8,1.6l-1,0.9L7.7,7.5l-1-1.4V5.4c0.2-0.9,0.3-1,1-1.6L8.4,3.3z M9.6,2.6H8.7l-2,0.7C6.1,4,6,4.3,5.5,5.5l0.2,0.9
	c0.6,1.5,0.8,1.8,2,2.3L7.6,8.9L6,9.6c-0.6,0.6-0.6,0.8-1.1,1.8l0.1,0.9c0.3,1.1,0.5,1.3,0.9,1.8l1.8,0.9h2.3l1.8-0.9
	c0.6-0.6,0.8-0.9,1.2-2.2l-0.5-1.8c-1.1-1.2-1.7-1.7-2.5-1.8V8.3l1.3-0.5C12,7.2,12.1,7,12.5,5.9V5.7c-0.4-1.3-0.6-1.6-1.1-2.2
	L9.6,2.6z M15,0.6l-0.2,0.5l0.6,0.7L16.3,5c0.4,2,0.5,3,0.5,4.1c0,1.8-0.3,3.3-1.1,5.5c-0.3,0.8-0.3,1-0.9,2.6h0.4l1.2-2.5
	c1-3,1.1-3.8,1.1-5.6c0-0.6,0-1.1-0.1-2.5l-1-3.8L15,0.6z M3.2,0.6L2.1,1.9C0.7,5.5,0.6,6,0.4,9.7l0.8,4l1.7,3.6l0.4-0.2l-0.2-0.2
	L3,16.1L2.3,15l-0.9-3.7c0-0.9,0-1.7,0-2.5c0-1.7,0.1-2.6,0.5-4.5L3.2,0.6L3.2,0.6z"/>
</svg>
