<?xml version="1.0" encoding="utf-8"?>
<!-- Generator: Adobe Illustrator 22.0.1, SVG Export Plug-In . SVG Version: 6.00 Build 0)  -->
<svg version="1.1" id="レイヤー_1" xmlns="http://www.w3.org/2000/svg" xmlns:xlink="http://www.w3.org/1999/xlink" x="0px"
	 y="0px" viewBox="0 0 18 18" style="enable-background:new 0 0 18 18;" xml:space="preserve">
<path d="M8.6,3.3h0.3c0.7,0.2,0.9,0.3,1.9,1.1l0.6,1.9c-0.1,1.4-0.3,1.9-0.9,2.5L10,9.2L9.3,9.7c-1.4-0.2-1.8-0.4-2.2-1L6.7,7.6V7.2
	V6.7c0-0.6,0.2-1.1,0.7-2.5l0.4-0.4L8.6,3.3z M9.5,2.7H8.6l-2,0.9c-1.2,1.6-1.5,2.3-1.5,3c0,1.1,0.4,2.4,0.9,2.9
	c0.5,0.5,1.1,0.8,2.8,1.1l1.5-0.6l1.3-1.7v0.4c0,0.8-0.1,1.5-0.6,3.4l-1.5,2l-1.3,0.3l-0.4-0.7c-0.3-1-0.5-1.3-1-1.3
	c-0.4,0-0.7,0.2-1,0.6v1.1l1.4,0.9L9.5,15l0.6-0.6l1-0.7c0.4-0.5,0.4-0.6,0.6-0.9c0.7-1.1,1.1-2.3,1.1-3.3c0-3.4-0.3-4.5-1.6-5.9
	L9.5,2.7z M15,0.6l-0.2,0.5l0.6,0.7l0.9,3.2c0.4,2,0.5,3,0.5,4.1c0,1.8-0.3,3.3-1.1,5.5c-0.3,0.8-0.3,1-0.9,2.6h0.4l1.2-2.5
	c1-3,1.1-3.8,1.1-5.6c0-0.6,0-1.1-0.1-2.5l-1-3.8L15,0.6z M3.2,0.7L2.1,2C0.7,5.6,0.6,6.1,0.4,9.7l0.8,4l1.7,3.6l0.4-0.2l-0.2-0.2
	L3,16.2l-0.6-1.1l-0.9-3.7c0-0.9,0-1.7,0-2.5c0-1.7,0.1-2.6,0.5-4.5L3.2,0.7L3.2,0.7z"/>
</svg>
