<?xml version="1.0" encoding="utf-8"?>
<!-- Generator: Adobe Illustrator 22.0.1, SVG Export Plug-In . SVG Version: 6.00 Build 0)  -->
<svg version="1.1" id="レイヤー_1" xmlns="http://www.w3.org/2000/svg" xmlns:xlink="http://www.w3.org/1999/xlink" x="0px"
	 y="0px" viewBox="0 0 18 18" style="enable-background:new 0 0 18 18;" xml:space="preserve">
<path d="M14.6,17.4l0.2-0.2c0.3-0.2,0.5-0.6,0.8-1.1c0.1-0.1,0.1-0.2,0.3-0.5l0.4-0.8l0.3-0.8c0.6-1.4,0.9-3,1-4.5l0-0.2V9.3
	l-0.1-1.4c0-0.2-0.1-0.7-0.2-1.4l-0.1-0.8l-0.2-0.8l-0.2-0.8l-0.3-0.8c-0.4-1.1-1-2.2-1.4-2.5l-0.2-0.2l-0.1,0.1L14.8,1l0.7,1.6
	c0.4,1.1,0.6,1.9,0.9,3.2l0.1,0.8l0.1,0.8l0,0.8l0,0.8l0,0.9l-0.1,0.9l-0.1,0.9l-0.1,0.9c-0.3,1.5-0.7,2.6-1.2,3.8L14.6,17.4
	L14.6,17.4z M12,14.5L12,14.5l-0.1-0.1l-0.1-0.1c-0.4-0.3-0.8-1.7-1-3.4l-0.1-1.3l0-1.2c0-1.5,0.2-2.6,0.5-3.7l0.1-0.4
	c0.3-0.5,0.7-0.8,1.1-0.8c0.4,0.1,0.5,0.1,0.8,0.5c0.3,0.3,0.6,1.3,0.6,2.6l0,0.8l0,0.8l0,0.8v0.8c0,3-0.6,4.7-1.6,4.7L12,14.5z
	 M10.2,4.6C10.1,4.8,10.1,4.8,10,5L9.8,5.7c0,0.1,0,0.2-0.1,0.3C9.7,6.2,9.7,6.3,9.6,6.7L9.5,7.5L9.4,8.1l0,0.3v0.7
	c0.1,2,0.4,3.2,1,4.5l0.1,0.2c0.6,0.9,1.1,1.3,1.7,1.3h0.1l0.1,0h0l0.1,0c0.4-0.1,0.4-0.1,0.6-0.3c0.3-0.3,0.7-0.8,1-1.4
	c0.7-1.5,1-3.1,1-4.8c0-1-0.2-2.3-0.6-3.3c-0.3-0.8-0.5-1.3-0.9-1.8c-0.5-0.6-0.9-0.8-1.5-0.8c-0.6,0-1.3,0.5-1.8,1.5L10.2,4.6z
	 M3.3,14.9h4.3v-0.7H7.2c-0.4,0-0.5,0-0.9-0.3l-0.1,0l-0.1,0l-0.1-0.1l-0.2-0.2V2.6H5.8L5.7,2.8L5.6,2.8C5.1,3.4,4.8,3.5,4.2,3.8
	L3.8,3.9l-0.1,0H3.5c-0.1,0-0.1,0-0.2,0v0.6h1.4l0.2,0.2v8.7l0,0.1l-0.1,0.1l-0.1,0.1c-0.1,0.1-0.1,0.1-0.4,0.2l-0.8,0.3h0l-0.2,0
	V14.9z M3.3,0.6L3.1,0.8C2.7,1.2,2.2,2.1,1.7,3.2L1.5,3.9L1.3,4.4C1.1,4.8,1,5.3,0.9,5.8L0.8,6.5L0.6,7.6L0.5,8.7l0,1l0,0.4
	c0,0.1,0,0.2,0.1,0.3l0.1,0.3v0l0.1,0.6l0.1,0.7c0.1,0.5,0.3,1.3,0.7,2.2l0.3,0.6l0.3,0.6c0.1,0.2,0.1,0.2,0.2,0.3l0.9,1.4l0.1,0.2
	h0.1L3.4,17l-0.1-0.1c-0.5-0.9-0.8-1.6-1.2-3.1l-0.2-0.9L1.7,12c-0.2-1.1-0.3-1.8-0.3-2.7c0-0.1,0-0.2,0-0.3V8.7V8.2l0-0.4
	c0-0.1,0-0.2,0.1-0.4l0.1-0.8l0.1-0.8l0.2-0.8l0.2-0.8l0.3-0.8l0.3-0.8l0.3-0.8L3.2,1L3.3,0.6L3.3,0.6z"/>
</svg>
