<?xml version="1.0" encoding="utf-8"?>
<!-- Generator: Adobe Illustrator 22.0.1, SVG Export Plug-In . SVG Version: 6.00 Build 0)  -->
<svg version="1.1" id="レイヤー_1" xmlns="http://www.w3.org/2000/svg" xmlns:xlink="http://www.w3.org/1999/xlink" x="0px"
	 y="0px" viewBox="0 0 9 18" style="enable-background:new 0 0 9 18;" xml:space="preserve">
<path d="M2.9,6.2l0.2-0.4l0.4,0l1.5,0l0.3,0.1L5.7,6l0.4,0.4l0.3,0.5L6.8,8l0.1,1.2v0.5l-0.1,0.4l-0.1,0.5l-0.2,0.4l-0.4,0.6
	l-0.4,0.4L5,12.3l-0.9,0.1l-0.7,0l-0.2-0.1l-0.1-0.1l-0.2-0.3V6.2z M0.9,5.4v0.4h0.7l0.3,0.4v5.7l-0.3,0.4l-0.7,0v0.4l0.4,0.1l2,0
	l1.3,0l0.7-0.1L6,12.5l0.6-0.3l0.6-0.6l0.5-0.8L8,10l0.1-0.9L8.1,8.3L7.8,7.6L7.4,6.8L6.7,6.1L6.3,5.8L6,5.6L5.6,5.5L5.2,5.4
	L3.4,5.2L0.9,5.4z"/>
</svg>
