<?xml version="1.0" encoding="utf-8"?>
<!-- Generator: Adobe Illustrator 22.0.1, SVG Export Plug-In . SVG Version: 6.00 Build 0)  -->
<svg version="1.1" id="レイヤー_1" xmlns="http://www.w3.org/2000/svg" xmlns:xlink="http://www.w3.org/1999/xlink" x="0px"
	 y="0px" viewBox="0 0 18 18" style="enable-background:new 0 0 18 18;" xml:space="preserve">
<path d="M7.8,9.3h1.4l0.5,0l0.5,0.1l0.3,0.1l0.3,0.2l0.2,0.2l0.2,0.3l0.1,0.3l0.1,0.5l0,0.6l-0.1,0.7l-0.2,0.6l-0.3,0.4l-0.4,0.5
	l-0.4,0.4l-0.4,0.2l-0.4,0.1h-2l-0.3,0l-0.3-0.1l-0.2-0.2l0-0.1L7.8,9.3z M9.3,4.4l0.1-0.2l0.1-0.2l0.2-0.2l0.2-0.1l0.2-0.1l0.3-0.1
	h0.8l0.5,0.1l0.4,0.1l0.3,0.1L12.7,4L13,4.3l0.2,0.4l0.1,0.4l0,0.3l-0.1,0.4l-0.3,0.6l-0.2,0.5l-0.4,0.6l-0.3,0.3l-0.4,0.3l-0.4,0.2
	l-0.4,0.1l-0.5,0.1h-2L9.3,4.4z M13.3,2.9H4.7v0.5l0.8,0.1l0.4,0.2L6.2,4v0.4l-2.7,9.4l-0.2,0.3l-0.2,0.1l-0.3,0.2l-0.6,0.2
	l-0.6,0.2v0.5h9.2l0.4,0l0.5-0.1l0.4-0.1l0.5-0.2l0.5-0.3l0.4-0.3l0.3-0.3l0.3-0.3l0.2-0.3l0.2-0.4l0.1-0.4l0.1-0.5l0-0.5L14.5,11
	l-0.3-0.5l-0.4-0.4l-0.5-0.4l-0.5-0.3l-0.7-0.3L11.7,9l0.2,0l0.9-0.2l0.5-0.2l0.4-0.2l0.5-0.3l0.4-0.3L15,7.6l0.4-0.4l0.3-0.4
	l0.2-0.4L16,6V5.5L15.9,5l-0.3-0.6l-0.4-0.6l-0.8-0.6L13.8,3L13.3,2.9z"/>
</svg>
