<?xml version="1.0" encoding="utf-8"?>
<!-- Generator: Adobe Illustrator 22.0.1, SVG Export Plug-In . SVG Version: 6.00 Build 0)  -->
<svg version="1.1" id="レイヤー_1" xmlns="http://www.w3.org/2000/svg" xmlns:xlink="http://www.w3.org/1999/xlink" x="0px"
	 y="0px" viewBox="0 0 18 18" style="enable-background:new 0 0 18 18;" xml:space="preserve">
<path d="M15,3l-0.2-0.1l-1.1-0.4l-0.1,0l-0.2,0.1l-1.3,0.3L4.3,4.2L3.2,3.7v0.7l0.2,0.2L4,5l0.3,0.2l0.1,0l0.1,0l0.4,0l0.9-0.1
	l2.9-0.7l0.6-0.1l5.5-0.7L15,3.5V3z M3.3,3.4l0-0.4L3.1,2.6L2.7,2.3L2.3,2.1L1.9,1.9L1.4,1.8L1,1.8L0.5,2.1l1.3,1v13.2L2,16.4h0.6
	L3,15.9v-5.5l5.9-0.6l-0.1,0.9l-0.1,1l0.1,1.4l0.3,1.2l0.3,0.5l0.4,0.3l0.2,0.1l0.6,0.1l0.9,0.1l0.8,0l2,0l0.3,0l0.9-0.1l0.5-0.1
	l0.1,0l0.3-0.2v-0.3l-0.5-0.5l-0.6-0.1L11,14.5l-0.3-0.1l-0.3-0.3l-0.2-0.3l-0.1-4.3L11,9.5l6.3-0.6V8.2l-0.8-0.4L16,7.7l-5.7,1
	l-0.3,0L10,8.2l0-0.4l0-0.5l0.1-0.4l0.1-0.2l0.1-0.3l0.4-0.6l-0.3-0.4l-0.2-0.2L9.7,5L9.5,4.9L9,4.8l-0.4,0l-0.3,0L8,4.8L7.8,4.9
	l1.1,0.8l0,3.3L3,9.6V3.7L3.3,3.4z"/>
</svg>
