<?xml version="1.0" encoding="utf-8"?>
<!-- Generator: Adobe Illustrator 22.0.1, SVG Export Plug-In . SVG Version: 6.00 Build 0)  -->
<svg version="1.1" id="レイヤー_1" xmlns="http://www.w3.org/2000/svg" xmlns:xlink="http://www.w3.org/1999/xlink" x="0px"
	 y="0px" viewBox="0 0 18 18" style="enable-background:new 0 0 18 18;" xml:space="preserve">
<path d="M14.3,9.3l1,1.7l1.1,3.1l0.1,0.1l0.2,0.2l0.1,0l0.1,0l0.2,0l0.2-0.1l0.1-0.1l0.1-0.1l0.1-0.4l-0.1-0.5l-0.2-0.5l-2.2-3
	L14.3,9.3L14.3,9.3z M8.4,8.6L8,9.9l-3.4,5.6L5,15.4l0.3-0.1l1.6-1.6l3-4.4L8.4,8.6z M9,0.6L8.6,2L6.5,6.9l-1.8,3H5l0.3-0.1l0.3-0.2
	l0.6-0.6l1.3-2.4L7.9,6l0.3-0.1l3.2,0v9.8L11.1,16l-1.8-0.1l-0.3,0.1V16l0.7,0.3l0.4,0.3l0.1,0.1l0.1,0.5l0.1,0.2H11l0.7-0.3
	l0.6-0.5l0.1-0.2l0-0.1l0-10l0.3-0.4h4.8l-0.1-0.3L17,4.9l-0.4-0.3l-0.2-0.1l-0.2,0L16,4.5l-0.2,0.1l-0.2,0.2l-0.4,0.6H8.3l1.4-3.5
	l0.2-0.2l0.1,0l0.1,0l0.4,0.1l-0.1-0.5l-0.1-0.1L10.2,1L9.7,0.7L9,0.6z M4.8,0.4L3.5,3.7L0.4,9.8l0.1,0.1l2.5-3.1v10.4l0.4,0l0.2,0
	l0.1-0.1l0.1-0.1l0.2-0.2l0-0.1l0-10.6l0.3-0.3l0-0.1l0-0.2L4.2,5.3L4.1,5.3H3.9l1.7-3.6l0.5-0.1L6,1.2L5.3,0.5L5,0.4L4.8,0.4z"/>
</svg>
