<?xml version="1.0" encoding="utf-8"?>
<!-- Generator: Adobe Illustrator 22.0.1, SVG Export Plug-In . SVG Version: 6.00 Build 0)  -->
<svg version="1.1" id="レイヤー_1" xmlns="http://www.w3.org/2000/svg" xmlns:xlink="http://www.w3.org/1999/xlink" x="0px"
	 y="0px" viewBox="0 0 18 18" style="enable-background:new 0 0 18 18;" xml:space="preserve">
<path d="M9.9,10.1l0.3-0.7L10.6,9l0.7-0.5l0.4-0.4l0.2-0.4L12,7.2l-0.1-0.6l-0.2-0.4l-0.4,0l-0.8,0.2L8,6.6L7.5,6.7L6.9,7L6.4,7.4
	L6.3,7.7l0.1,0.6l0.3,0.2l0.4,0.1l0.3-0.1L8,8.4h0.4l0.4,0.1L9,8.7l-0.4,1L7,10.4l-0.4,0.1l-0.7-0.2H5.2l-0.3,0.2l-0.3,0.3l-0.1,0.5
	l0.1,0.4L5,11.9h0.5l0.6-0.1l1-0.5l0.2,0l-0.1,0.3l0.2,1.5l0.8,0.2l0.2-1.2l0.2-0.5l0.2-0.3l0.2-0.1l0.3-0.1l0.3,0l0.1,0.2l-0.1,2.5
	l-0.2,1L9,15.6l-0.1,0.1L5.2,14l-0.7,0.2v0.4l4.9,2.7l0.6-0.1l0.3-0.2l0.2-0.6l0.3-0.9l0.1-1v-1.1l0.1,0.1l0.2,0.3l0.9,1.6l0.2,0.2
	l0.3,0.1l0.4-0.1l0.3-0.3l0-0.4l-0.2-0.4l-0.4-0.4L12,13.5l-0.2-0.2v-0.2l0.2-0.3l0.3-0.2h0.4l0.5-0.1l0.2-0.2l0.1-0.4l-0.1-0.4
	L13,11.1l-0.4-0.1h-0.4l-0.3,0.2l-0.3,0.4L11,12.4H11L10.5,11l-0.3-0.5L9.9,10.1z M6.6,3.4l0.1,0.5l0.1,0.4l0.3,0.4l0.6,0.4l0.7,0.3
	l0.9,0.2h0.7l0.5-0.1l0.6-0.1l0.6-0.3l0.3-0.3l0.3-0.4l0.1-0.4V3.7l-0.1-0.4l-0.3-0.4l-0.4-0.3l-0.4-0.1l-0.2,0.1l-0.2,0.5l-0.2,0.3
	l-0.4,0.2L9.7,4L8.9,4.1l-0.5,0L7.9,4L7.7,3.8L7.4,3.5L7.3,3.2L6.6,3.4z M8.3,1.5L8.2,1.8v0.3l0.2,0.5l0.3,0.3l0.4,0.2l0.4-0.1
	l0.3-0.2l0.2-0.3l0.2-0.5V1.5L10,0.9L9.7,0.7L9.3,0.8L8.7,1.1L8.3,1.5z"/>
</svg>
