<?xml version="1.0" encoding="utf-8"?>
<!-- Generator: Adobe Illustrator 22.0.1, SVG Export Plug-In . SVG Version: 6.00 Build 0)  -->
<svg version="1.1" id="レイヤー_1" xmlns="http://www.w3.org/2000/svg" xmlns:xlink="http://www.w3.org/1999/xlink" x="0px"
	 y="0px" viewBox="0 0 18 18" style="enable-background:new 0 0 18 18;" xml:space="preserve">
<path d="M11.4,7.8l0.3,0.6l0.3,0.4l0.3,0.1l0.4-0.1L13,8.6l0.1-0.3l-0.2-0.6l2.8-1.8l0.8-0.2V5.4l-1-1h-0.3l-0.6,0.7H8.3v0.5h6
	l-1.8,1.7l-0.8-0.6l-1.5-0.8L9.9,6.1L11.4,7.8z M6.2,6.3L5.1,5.1H4.8L4.1,6.2H3.6V2.3L4.4,2V1.6L3.2,1.2l-0.6,0v5H0.5v0.5h2.1v5.7
	l-2,0.3v0.4L1,14.5h0.3l0.3-0.7L6,11.9L6,11.6l-2.4,0.5V6.7h2.5V6.3z M12.5,3V1.8l0.7-0.4L13.2,1l-1.1-0.4h-0.7V3H8.2L6.6,2.2l0,5.8
	l-0.3,3.1L5.9,13l-1.1,2.6l-0.6,0.9l0.2,0.3l0.9-1l1.4-2.5L7.1,12l0.4-2.5h3.9v6.2L11.2,16L9,15.8L8.9,16l1.7,0.7l0,0.7l1.4-0.2
	l0.3-0.3l0.2-0.3V9.6h2.7l-0.9,1.6l0.2,0.3l1.8-1.6h1V9.3l-1.3-1l-0.5,0.7H7.6V3.5h9.8V3l-1.2-1.1l-0.3,0L15.2,3H12.5z"/>
</svg>
