<?xml version="1.0" encoding="utf-8"?>
<!-- Generator: Adobe Illustrator 22.0.1, SVG Export Plug-In . SVG Version: 6.00 Build 0)  -->
<svg version="1.1" id="レイヤー_1" xmlns="http://www.w3.org/2000/svg" xmlns:xlink="http://www.w3.org/1999/xlink" x="0px"
	 y="0px" viewBox="0 0 18 18" style="enable-background:new 0 0 18 18;" xml:space="preserve">
<path d="M2.1,13.1l-1,2.3l-0.4,0.4l-0.1,0.5v0.4l0.2,0.2l0.5,0l0.3-0.2l0.6-1.7l0.1-1.7L2.1,13.1z M3.8,13l-0.2,0l-0.1,1.2l-0.4,1.5
	l0.1,1l0.2,0.1l0.4-0.1l0.2-0.2l0.2-0.7L4.2,14L3.8,13z M6.4,14.6l-1.1-1.8l-0.2,0.1l0.3,0.8l0.3,2.5l0.3,0.2l0.3-0.1l0.2-0.2
	l0.1-0.3v-0.3L6.4,14.6z M6.9,12.6v0.3l1,2.7l0.3,0.3l0.3-0.1l0.2-0.2l0.1-0.3l0-0.4l-0.3-0.8l-0.9-1.2L6.9,12.6z M17.5,2.5V2.1
	l-1.1-1.2L16.1,1L15.3,2H8.2v0.5h4.3v13.2l-0.1,0.2l-2.7-0.3l0,0.3l2,0.7l0.2,0.6l1.1-0.1l0.3-0.2l0.2-0.2l0.1-0.4V2.5H17.5z
	 M5.2,8.6h1.4v2.6H5.2V8.6z M2.8,8.6h1.4v2.6H2.8V8.6z M5.2,5.6h1.4v2.6H5.2V5.6z M2.8,5.6h1.4v2.6H2.8V5.6z M4.2,5.1H3L2.4,4.7
	l1-2.2h2.2L4.2,5.1z M3,0.5L2,3.4l-1.4,3v0.3l0.7-0.6l0.5-0.7v6.7L2,12.4h0.4L2.9,12l0-0.3l3.7,0V12l0.3,0.2h0.3L7.5,12l0.1-0.2
	l0-5.9l0.6-0.4l0-0.3l-1-0.9H7L6.5,5.1H4.8l1.8-2.3l0.6-0.3l0.1-0.3l-1-0.9L6.1,1.3L5.6,2h-2l0.1-0.4l0.8-0.2V1L3,0.5z"/>
</svg>
