<?xml version="1.0" encoding="utf-8"?>
<!-- Generator: Adobe Illustrator 22.0.1, SVG Export Plug-In . SVG Version: 6.00 Build 0)  -->
<svg version="1.1" id="レイヤー_1" xmlns="http://www.w3.org/2000/svg" xmlns:xlink="http://www.w3.org/1999/xlink" x="0px"
	 y="0px" viewBox="0 0 18 18" style="enable-background:new 0 0 18 18;" xml:space="preserve">
<path d="M3.5,13.1l-0.3,0l0.1,0.4l-0.1,1L3,15.1l-0.1,0.6L3,16.1l0.2,0.2l0.3-0.1L3.7,16l0.2-1.2L3.5,13.1z M2,13.1l-0.6,1.7
	l-0.6,0.8l-0.2,0.5v0.3l0.1,0.2L1,16.8l0.3-0.1l0.3-0.3l0.2-0.5l0.4-2.8L2,13.1z M4.8,12.7l-0.2,0l0.1,0.4l0.1,1.7l0.2,0.5l0.2,0.1
	l0.2-0.1l0.2-0.1l0.1-0.3l-0.1-0.5l-0.2-0.8l-0.4-0.6L4.8,12.7z M6.4,13.2l0.5,1.3l0.3,0.3l0.3-0.1l0.2-0.3l0.1-0.3l-0.2-0.4
	l-0.3-0.5l-0.5-0.4l-0.5-0.3l-0.1,0.3L6.4,13.2z M15.5,5.6l-0.2,0l-0.7,0.9H8.1v0.5h3.6l0,8.5L11,15l-1.1-1.2l-0.3-0.6l0.4-2.5
	l0.6-0.3l0-0.3L9.5,9.6L9,9.7l-0.2,2.5L8,14.5L7,16.4L6.3,17l0.2,0.3l1.2-1l1.1-1.4l0.5-1.1l1.4,1.9l0.9,0.6l2.2,0.6l3.1,0.1
	l0.7-1.2L13.9,16l-1.2-0.2l0-4.7h3.6v-0.4l-1.1-1.1l-0.2,0l-0.7,1.1h-1.6V6.9h3.9V6.5L15.5,5.6z M12.7,3.2V1.7l0.8-0.4l0-0.3
	l-1.2-0.3h-0.5v2.5H8.8l0-0.7L8.6,2.5l-0.3,1L7.9,4L7.4,4.5L7.2,5.1l0.1,0.3l0.4,0.2L8,5.5l0.3-0.3l0.2-0.3l0.2-1.1h6.8l-0.6,1.4
	h0.3l1.1-1L17.4,4V3.6l-1.1-1l-0.3,0l-0.3,0.5H12.7z M4.6,8.7H6v2.4H4.6V8.7z M2.4,8.7h1.4v2.4H2.4V8.7z M4.6,5.9H6v2.4H4.6V5.9z
	 M2.4,5.9h1.4v2.4H2.4V5.9z M3.7,5.4h-1L2.2,5.2l1-2.2h1.6L3.7,5.4z M4.4,5.4L6,3.3l0.6-0.2l0.1-0.3L5.7,2H5.5L5.1,2.5H3.4l0.4-0.8
	l0.5-0.2l0.1-0.3l-1-0.5L3,0.8L1.7,4.4L0.5,6.6L0.5,7l1-0.8v6l0.1,0.2L2,12.4l0.2-0.1L2.3,12l0.1-0.4h3.6V12l0.2,0.1l0.3,0l0.2-0.1
	l0.2-0.1l0-5.7l0.5-0.4V5.6L6.4,4.8l-0.3,0L5.8,5.4H4.4z"/>
</svg>
