<?xml version="1.0" encoding="utf-8"?>
<!-- Generator: Adobe Illustrator 22.0.1, SVG Export Plug-In . SVG Version: 6.00 Build 0)  -->
<svg version="1.1" id="レイヤー_1" xmlns="http://www.w3.org/2000/svg" xmlns:xlink="http://www.w3.org/1999/xlink" x="0px"
	 y="0px" viewBox="0 0 18 18" style="enable-background:new 0 0 18 18;" xml:space="preserve">
<path d="M6.5,11.1l-0.3,0.4L6,11.6l-0.4,0.1l-3.9-0.1v0.5h4.4l-1.2,1.1l-4.4,3l0.2,0.1l0.1,0l0.4-0.1l3.4-1.7l2.6-2.1l0.6-0.2
	l-0.1-0.2l-0.6-0.8l-0.2-0.2l-0.1-0.1H6.7H6.5z M8.9,9.3L8.3,10H3.3v0.5h5.2V16l-0.2,0.1l-1.8-0.3l-0.3,0.1l0.2,0.3l0.1,0.1l1.4,0.4
	l0,0.7h0.3l0.5-0.1L9,17.1l0.2-0.2l0.2-0.3l0.1-0.4l0.1-5.5l0.7-0.3L9.7,9.7L9.3,9.4L9.1,9.3L8.9,9.3z M11.6,9v6.8l0.3,0.1
	c0.6,0.3,0.7,0.3,1.4,0.5l1,0.1l2.4-0.2l0.5-0.2l0.1-0.1l0.1-0.1l0-0.2l0-0.3L16.8,15l0.2-2.3l-0.4,0.3l-0.2,1.2l-0.6,1.3l-2.7,0.1
	l-0.3-0.1l-0.1-0.1l-0.1-0.2l-0.1-0.3l0.1-4.7l0.8-0.5l-0.2-0.5L11.6,9z M9.5,7.3L8.7,8.1L8.6,8.2L8,8.3L5.5,8.2v0.5h5.5L10.6,8
	l-0.3-0.3L10,7.5L9.7,7.4L9.5,7.3z M5,0.9L5.3,1l0.1,0.1l1,1.8H1.8v0.5h6.7v1.3H2.4v0.5h6.1v1.3H0.6v0.5h16.9l-0.1-0.3l-0.6-0.9
	l-0.2-0.2l-0.1,0l-0.1,0l-0.2,0l-0.2,0.1l-0.7,0.8H9.5V5.2h6.2l-0.5-0.9l-0.4-0.4l-0.1-0.1l-0.2,0l-0.2,0l-1,0.9l-0.2,0.1L9.5,4.7
	V3.4h6.9l-0.1-0.2l-0.3-0.6l-0.4-0.4l-0.6-0.4l-0.8,1l-0.1,0.1l-0.2,0.1l-2.6,0L12.1,2l0.4-0.3l0.1,0l0.6,0L13,1.2L12.7,1l-1-0.4
	l-0.8,2.2H7.2l0.1-0.2L7.2,2.4L6.9,1.7L6.3,1L5.8,0.8l-0.4,0L5,0.9L5,0.9z"/>
</svg>
