<?xml version="1.0" encoding="utf-8"?>
<!-- Generator: Adobe Illustrator 22.0.1, SVG Export Plug-In . SVG Version: 6.00 Build 0)  -->
<svg version="1.1" id="レイヤー_1" xmlns="http://www.w3.org/2000/svg" xmlns:xlink="http://www.w3.org/1999/xlink" x="0px"
	 y="0px" viewBox="0 0 18 18" style="enable-background:new 0 0 18 18;" xml:space="preserve">
<path d="M2.2,13.5L2,13.4l-0.6,1.5l-0.8,1.4l-0.1,0.4v0.4l0.2,0.2l0.4-0.1l0.3-0.1l0.4-0.5L2,15.9L2.2,13.5z M3.8,13.2H3.5l-0.2,3.4
	l0.1,0.2l0.3,0l0.3-0.1l0.2-0.3l0.1-0.4l-0.2-1.3L3.8,13.2z M5.3,13.1l-0.2,0.1L5.5,16l0.2,0.3h0.4l0.2-0.2l0.1-0.6L6.4,15L5.3,13.1
	z M7.4,13.3l-0.6-0.5L6.7,13l0.9,2.7l0.2,0.2L8,15.9l0.4-0.1l0.1-0.4L8.5,15l-0.2-0.5L7.4,13.3z M17.2,11.8l0-0.4l-0.8-1h-0.3
	l-0.8,0.9H8.2v0.5H12v4.4H7.4v0.5h10.1l0-0.4l-1-1.1h-0.4l-0.8,1h-2.3v-4.4H17.2z M15.4,2.5h-0.5l-1.7,4.2l0.4,0.6l1.1,3.2l0.2,0.3
	l0.3,0.1l0.4-0.1l0.2-0.4l-0.1-1L15,8.1l-1.4-1.5l1.9-3.2l0.8-0.2V2.9L15.4,2.5z M12.7,2.5h-0.5l-1.4,4.4l0.7,1.3l0.8,2.7l0.4,0.1
	l0.3-0.1l0.2-0.3l-0.1-1.1L12.9,9l-1.6-2.2l1.7-3.4l0.7-0.2V2.9L12.7,2.5z M10.2,2.5H9.7L8.1,6.9l0.8,1.4l0.7,2.5L9.9,11h0.4
	l0.3-0.2l0.1-0.5l-0.1-0.6L9.8,8.3L8.6,6.8l1.8-3.3l0.8-0.2V2.9L10.2,2.5z M17.2,2.2l0-0.4l-1.1-1.1h-0.3l-0.8,1H7.7v0.5H17.2z
	 M4.9,9.1h1.5v2.6H4.9V9.1z M2.5,9.1H4v2.6H2.5V9.1z M4.9,6.2h1.5v2.4H4.9V6.2z M2.5,6.2H4v2.4H2.5V6.2z M3.4,3h1.8L4,5.7H2.7
	L2.2,5.4L3.4,3z M3.5,2.5l0.3-0.7l0.6-0.3V1.1L3.4,0.7H3L1.9,4L0.4,7.1h0.3l0.8-1v6.5l0.2,0.2l0.4-0.1l0.2-0.2v-0.4l3.9,0l0,0.3
	l0.2,0.2L7,12.6l0.3-0.2V6.7l0.5-0.4V5.9L6.9,5.1H6.6L6.2,5.7H4.6L6,3.5l0.8-0.4V2.8L5.9,2H5.7L5.4,2.5H3.5z"/>
</svg>
