<?xml version="1.0" encoding="utf-8"?>
<!-- Generator: Adobe Illustrator 22.0.1, SVG Export Plug-In . SVG Version: 6.00 Build 0)  -->
<svg version="1.1" id="レイヤー_1" xmlns="http://www.w3.org/2000/svg" xmlns:xlink="http://www.w3.org/1999/xlink" x="0px"
	 y="0px" viewBox="0 0 18 18" style="enable-background:new 0 0 18 18;" xml:space="preserve">
<path d="M12.6,11.7H14v4.7h-1.4V11.7z M10.2,11.7h1.4v4.7h-1.4V11.7z M7.8,11.7h1.4v4.7H7.8V11.7z M17.3,16.9v-0.4l-1-1h-0.3
	L15,16.3h0v-4.2l0.5-0.3v-0.4L15.2,11l-0.6-0.5h-0.3l-0.5,0.6H8.4l-1.6-0.8l0,6H4.7v0.5H17.3z M15.1,1.1h-0.4l-0.3,0.5h-7v0.5h6.5
	l-0.2,0.3L11.9,4l-1.1-0.4V6H6.5v0.5h4.3v3l-0.1,0.2L9.5,9.6L8.5,9.7v0.1l1.3,0.4l0.3,0.5h0.3l0.6-0.1l0.5-0.2l0.3-0.3l0.1-0.4V6.5
	h5.4V6l-1.1-1.1h-0.3l-0.7,1l-3.2,0V4.6l0.6-0.3l2.4-1.6l1.4-0.2V2.1L15.1,1.1z M4,5H5v4.7H4V5z M1.9,5h1.1v4.7H1.9V5z M3.6,0.9H2.9
	v3.6H2.4L0.9,3.8v7.3l0.3,0.2l0.4,0.1l0.3-0.2l0.1-0.4v-0.5h1.1v4.2L0.5,15L1,16.5h0.4l0.2-0.4l0.3-0.3l1-0.4l2.3-1l0.1,0l0.2,1
	l0.2,0.2l0.4-0.1l0.3-0.2l0.1-0.4l-0.1-0.6l-0.1-0.6L6,12.9l-0.5-0.6l-0.6-0.4H4.5l0.5,1l0.3,0.9L4,14.2v-4H5l0,0.5L5.4,11l0.7-0.4
	v-5l0.3-0.2l0.3-0.6l-1.3-1L4.9,4.5H4l0-2.5l0.8-0.2V1.3L3.6,0.9z"/>
</svg>
