<?xml version="1.0" encoding="utf-8"?>
<!-- Generator: Adobe Illustrator 22.0.1, SVG Export Plug-In . SVG Version: 6.00 Build 0)  -->
<svg version="1.1" id="レイヤー_1" xmlns="http://www.w3.org/2000/svg" xmlns:xlink="http://www.w3.org/1999/xlink" x="0px"
	 y="0px" viewBox="0 0 18 18" style="enable-background:new 0 0 18 18;" xml:space="preserve">
<path d="M11,7.8l-0.2-0.1l-0.5-0.2L9.8,7.1L9.4,6.6L9.1,6L9,5.5L8.9,5L9,4.5L9.1,4l0.2-0.4l0.3-0.2l0.3-0.1l0.5-0.1l0.5,0.1l0.4,0.2
	l0.2,0.2L11.7,4l0.1,0.3l0.1,0.3l0,0.7l-0.1,1.1l-0.1,0.3l-0.2,0.5l-0.2,0.4L11,7.8z M12.2,8.5l0.2-0.2l0.4-0.7L13,7l0.2-0.7
	l0.1-0.7l-0.1-0.9l-0.3-0.8l-0.3-0.6L12,2.7l-0.7-0.3l-0.8-0.1L9.8,2.4L9.1,2.7L8.6,3.2L8.2,3.8L8.1,4.1L8,4.3L8,4.6l0,0.4L8,5.8
	l0.2,0.7l0.2,0.4l0.3,0.3l1.8,1.6l0.1,0.2l-0.2,0.3c-1.1,1.8-1.6,2.5-2.7,3.6l-0.2,0.1l-0.3,0.2l-0.6,0.3l-0.5,0.1l-0.5-0.1
	l-0.3-0.4l-0.1-0.2l-0.1-0.3l-0.1-0.3l0-0.4l0-0.5l0.1-0.5l0.2-0.5l0.3-0.4l0.3-0.4l0.4-0.3L6.7,9l0.1-0.4l0-0.4L6.8,7.8L6.7,7.4
	L6.5,7.2L6.3,7L6.1,6.9l-0.3,0l-0.3,0L5.3,7L5.1,7.1L4.9,7.3L4.7,7.6L4.4,8l0.7,0.4L5.1,9l-0.7,2.2l-0.1,0.3l-0.1,0.4l0,0.4l0.1,0.4
	L4.4,13l0.1,0.3l0.3,0.5l0.4,0.4l0.5,0.3l0.6,0.1L7,14.6l0.6-0.2l1.1-0.6l1-0.9l1-1.3l0.8-1.4l0.2-0.6l1.1,0.3L13,9.7L13,9L12.2,8.5
	z"/>
</svg>
