<?xml version="1.0" encoding="utf-8"?>
<!-- Generator: Adobe Illustrator 22.0.1, SVG Export Plug-In . SVG Version: 6.00 Build 0)  -->
<svg version="1.1" id="レイヤー_1" xmlns="http://www.w3.org/2000/svg" xmlns:xlink="http://www.w3.org/1999/xlink" x="0px"
	 y="0px" viewBox="0 0 18 18" style="enable-background:new 0 0 18 18;" xml:space="preserve">
<path d="M13.2,8.9h-0.7v6.5l0.3,0.5l0.5,0.3l0.7,0.2h2.5l0.7-0.1l0.3-0.4l0.1-0.4l-0.3-0.4l-0.2-0.5l0.1-1.5l-0.3-0.5h-0.1l-0.6,2.2
	l-0.3,0.5h-1.7l-0.3-0.1l-0.2-0.4V9.9l0.7-0.2V9.2L13.2,8.9z M4.9,8.9H4.2l-0.1,1.8l-0.3,2l-0.6,1.5l-0.6,0.6l-2.1,1.7l0,0.1L1,16.5
	L3.6,15l0.6-0.6l0.5-0.8L4.9,13l0.4-3.1L6,9.7V9.2L4.9,8.9z M11.7,5.3l1.5,1.3l0.4,0.2L14,6.7l0.2-0.3l-0.1-0.5l-0.4-0.5L13.1,5
	l-1.7-0.4l-0.5,0.2L11.7,5.3z M9.1,4.4H8.4v2.7H0.6v0.5h7.8V17l0.4,0.2l0.7-0.4V7.6h8.1V7.2L16.3,6l-0.4,0l-1,1.1H9.4V5.5l0.7-0.3
	V4.8L9.1,4.4z M6.1,0.6H5.4v2.2H0.6v0.5h4.8V5l0.3,0.2l0.5,0l0.3-0.3V3.3h5.3v1.1l0.4,0.1l0.4-0.1L12.7,4V3.3h4.8V2.9l-1.2-1.3
	l-0.4,0.1l-0.8,1.1h-2.4V1.8l0.7-0.4V1l-1.2-0.4l-0.6-0.1l0,2.2H6.4V1.6L7,1.4V1L6.1,0.6z"/>
</svg>
