<?xml version="1.0" encoding="utf-8"?>
<!-- Generator: Adobe Illustrator 22.0.1, SVG Export Plug-In . SVG Version: 6.00 Build 0)  -->
<svg version="1.1" id="レイヤー_1" xmlns="http://www.w3.org/2000/svg" xmlns:xlink="http://www.w3.org/1999/xlink" x="0px"
	 y="0px" viewBox="0 0 18 18" style="enable-background:new 0 0 18 18;" xml:space="preserve">
<path d="M13.2,2.7h1.1v12.6h-1.1V2.7z M10.8,2.7h1.1v12.6h-1.1V2.7z M8.6,2.7h0.9v12.6H8.8L6,8.6L8.6,2.7z M1.3,2.2v0.5l1.1,0.1
	L5,9.3L4.8,9.5l-2.5,5.7l-1,0.2l-0.1,0.4h2.8v-0.5l-1.1,0L5.3,10l2.1,5.2l-0.2,0.1l-0.3,0H6.3v0.5h10.4v-0.5h-1.2V2.7h0.8l0.1,0
	l0.1-0.1l0.1-0.1V2.2H6.9v0.5H8l-2.3,5l-2.1-5h1.2V2.2H1.3z"/>
</svg>
