<?xml version="1.0" encoding="utf-8"?>
<!-- Generator: Adobe Illustrator 22.0.1, SVG Export Plug-In . SVG Version: 6.00 Build 0)  -->
<svg version="1.1" id="レイヤー_1" xmlns="http://www.w3.org/2000/svg" xmlns:xlink="http://www.w3.org/1999/xlink" x="0px"
	 y="0px" viewBox="0 0 18 18" style="enable-background:new 0 0 18 18;" xml:space="preserve">
<polygon points="2.6,4.4 3.2,4.4 3.3,4.4 3.3,4.4 3.4,4.4 3.4,4.4 3.5,4.4 3.7,4.5 3.9,4.5 3.9,4.5 3.9,4.6 3.9,4.6 4.1,4.6 
	4.1,4.6 4.1,4.6 4.2,4.8 4.2,10.2 3.9,10.5 2.9,10.5 2.9,11.1 6.8,11.1 6.8,10.5 5.6,10.5 5.3,10.2 5.3,3 5.2,3 5.1,3.1 5.1,3.1 
	5,3.2 5,3.2 4.8,3.3 4.3,3.6 3.9,3.8 3.5,3.9 3.3,4 3.1,4 2.9,4 2.9,4 2.9,4 2.8,4 2.6,4 "/>
</svg>
