<?xml version="1.0" encoding="utf-8"?>
<!-- Generator: Adobe Illustrator 22.0.1, SVG Export Plug-In . SVG Version: 6.00 Build 0)  -->
<svg version="1.1" id="レイヤー_1" xmlns="http://www.w3.org/2000/svg" xmlns:xlink="http://www.w3.org/1999/xlink" x="0px"
	 y="0px" viewBox="0 0 18 18" style="enable-background:new 0 0 18 18;" xml:space="preserve">
<path d="M7.3,2.7V2.3l-1-1.1H6L5,2.2H0.9v0.5h2.5v4.5H1v0.5h2.4l0,5l-1.5,0.5l-1,0.1L1.4,15h0.4l0.2-0.4l0.3-0.3l0.4-0.2l4.6-1.9
	l0.2-0.4l-2.8,0.7V7.7H7l0-0.4L6.1,6.2H5.8l-0.9,1H4.5V2.7H7.3z M15.1,0.8h-0.4l-0.3,0.7H8V2H14l-2,3.1h-0.8v2.9H6.8v0.5h4.3v7.3
	L11,15.9l-0.4,0l-1.8-0.3l-0.9,0.2v0.1l2,0.8l0.3,0.6h0.6l0.7-0.1l0.4-0.2l0.2-0.5v-8h4.9l0-0.5l-0.9-1.1h-0.4l-1,1.1h-2.6V6.2
	L13,5.9V5.5l-0.6-0.3l2.7-2.7l1.2-0.2V1.9L15.1,0.8z"/>
</svg>
