<?xml version="1.0" encoding="utf-8"?>
<!-- Generator: Adobe Illustrator 22.0.1, SVG Export Plug-In . SVG Version: 6.00 Build 0)  -->
<svg version="1.1" id="レイヤー_1" xmlns="http://www.w3.org/2000/svg" xmlns:xlink="http://www.w3.org/1999/xlink" x="0px"
	 y="0px" viewBox="0 0 9 18" style="enable-background:new 0 0 9 18;" xml:space="preserve">
<polygon points="2.8,7.8 2.8,5.5 2.8,5.1 2.9,4.6 3.1,4.3 3.3,3.9 3.5,3.6 3.8,3.4 4.1,3.2 4.4,3.1 4.7,3.1 4.9,3.3 5.1,3.4 
	5.3,3.7 5.6,4 5.8,4.2 6.1,4.3 6.4,4.4 6.8,4.3 7,4.2 7.2,3.8 7.3,3.5 7.2,3.2 7,2.9 6.8,2.7 6.6,2.5 6.3,2.4 5.9,2.3 5.4,2.2 
	4.7,2.3 4,2.5 3.5,2.7 3.1,3.1 2.7,3.4 2.4,3.9 2.1,4.2 1.9,4.6 1.8,5 1.6,5.4 1.6,5.8 1.5,6.4 1.5,6.9 1.5,7.8 0.4,7.8 0.4,8.3 
	1.5,8.3 1.5,14.2 1.4,14.3 1.4,14.4 1.2,14.5 0.3,14.8 0.3,15.3 4,15.3 4,14.8 3.2,14.6 2.9,14.5 2.8,14.4 2.8,14.2 2.8,8.3 
	6.2,8.3 6.2,14 6.2,14.2 6.1,14.3 5.9,14.4 5,14.9 5,15.3 8.7,15.3 8.7,14.9 7.9,14.5 7.7,14.3 7.6,14.2 7.5,14 7.5,7.2 6.7,7.8 "/>
</svg>
