<?xml version="1.0" encoding="utf-8"?>
<!-- Generator: Adobe Illustrator 22.0.1, SVG Export Plug-In . SVG Version: 6.00 Build 0)  -->
<svg version="1.1" id="レイヤー_1" xmlns="http://www.w3.org/2000/svg" xmlns:xlink="http://www.w3.org/1999/xlink" x="0px"
	 y="0px" viewBox="0 0 18 18" style="enable-background:new 0 0 18 18;" xml:space="preserve">
<path d="M11.2,16.1l-0.8,0.2l-0.9,0.1l-0.9,0l-0.9-0.2L6.8,16L6,15.6l-0.8-0.4l-0.8-0.6l-0.8-0.6l-0.6-0.7l-0.4-0.7l-0.4-1l-0.3-1
	L1.7,9.7V8.6l0.1-0.9l0.2-0.9L2.4,6l0.4-0.6l0.5-0.8l0.7-0.8l0.8-0.7l0.8-0.5l0.9-0.4l1.1-0.4l1.1-0.1h0.9l1,0.1l1,0.3l0.9,0.4
	L13,2.9l0.8,0.6l0.7,0.8l0.6,0.8l0.5,1L16,7.2l0.2,1.1v1.3L16,10.8l-0.3,1l-0.4,0.9l-0.6,1L14,14.4l-0.9,0.7l-1,0.6L11.2,16.1z
	 M3.1,3L2.6,3.5L2.2,4.2L1.6,5L1.2,6l-0.3,1L0.7,8L0.6,9.1l0.1,1.2l0.3,1.1l0.4,1.2l0.5,1l0.5,0.7L3,15l0.8,0.7l0.9,0.6l0.9,0.4
	L6.6,17l1.3,0.3l1.2,0.1l1.5-0.1l1-0.2l1-0.4l0.9-0.4l1-0.7l0.9-0.8l0.5-0.6l0.4-0.7l0.4-0.8l0.3-0.7l0.3-1l0.1-1.2V8.7l-0.1-1.1
	L17,6.5l-0.4-1.1l-0.5-0.9l-0.7-1l-0.8-0.8L13.7,2l-1-0.6L11.5,1l-1-0.2L9.4,0.7H8.5l-1,0.1L6.4,1l-1,0.4L4.6,1.9L3.8,2.4L3.1,3z
	 M11.6,7.2L9.4,7.4V8L10,8.2l0.2,0.2v3.6l-0.9,0.3V13h3.3v-0.6L11.6,12V7.2z M8,7.2L5.8,7.4V8l0.6,0.2l0.2,0.2v3.6l-0.9,0.3V13h3.3
	v-0.6L8,12V7.2z M10.6,4.4l-0.3,0.2l-0.2,0.3L10,5.1v0.4l0.2,0.3l0.3,0.3l0.4,0.1l0.4-0.1l0.3-0.1l0.2-0.2l0.1-0.4V5.1l-0.2-0.4
	l-0.3-0.3l-0.3-0.1L10.6,4.4z M6.9,4.4L6.6,4.5L6.4,4.8L6.3,5.1v0.4l0.2,0.3l0.3,0.3l0.4,0.1l0.4-0.1l0.3-0.1l0.2-0.2l0.1-0.4V5.1
	L8,4.7L7.7,4.4L7.4,4.3L6.9,4.4z"/>
</svg>
