<?xml version="1.0" encoding="utf-8"?>
<!-- Generator: Adobe Illustrator 22.0.1, SVG Export Plug-In . SVG Version: 6.00 Build 0)  -->
<svg version="1.1" id="レイヤー_1" xmlns="http://www.w3.org/2000/svg" xmlns:xlink="http://www.w3.org/1999/xlink" x="0px"
	 y="0px" viewBox="0 0 18 18" style="enable-background:new 0 0 18 18;" xml:space="preserve">
<path d="M7.6,6.4L7.2,6.3l-0.1,0L7,6.2l-0.1,0l0,0L6.8,6.1L6.8,6L6.6,5.8L6.5,5.6C6.4,5.5,6.4,5.1,6.4,4.9c0-0.7,0.4-1.3,1-1.5
	l0.3-0.1V6.4z M9.8,7.4L8.3,6.9V3h1.5V7.4z M11,9.7l0.1,0.1c0.4,0.5,0.6,1,0.8,1.3l0.1,0.2v0.1v0.3l0,0.1l0,0.1c0,0.1,0,0.1-0.2,0.4
	l-0.2,0.3c0,0-0.1,0.1-0.2,0.3l-0.1,0.1v0l-0.1,0.1l0,0h0l-0.4,0.2l-0.1,0.1h-0.2v-4L11,9.7z M9.8,13.9H8.3V8.4h0.4l0,0.2l1,0.3
	V13.9z M10.5,16.5v-2.2l0.1,0c0.9-0.4,1.3-0.7,1.7-1.3c0.5-0.6,0.8-1.3,0.8-2c0-0.9-0.6-2.1-1.4-2.5l-1-0.5l-0.1-0.1V3.3l0.6,0.2
	l0,0.3c0,0.1,0,0.1,0.1,0.2v0.3L11,5.4l0.4,0.4l0,0.1l0,0l0,0.1l0,0.1l0,0.1h0.4l0.2,0L12,5.9c0.3-0.1,0.6-0.6,0.7-0.9l0,0v0V4.7
	c0-0.3-0.4-1-0.8-1.3l-0.2-0.1l-0.2-0.1c-0.3-0.2-0.5-0.3-0.9-0.4l-0.2,0V1.5H9.8v0.9H8.3V1.5H7.6v1L7.5,2.6L7.3,2.7
	c-1.2,0.7-2,1.8-2,2.8c0,0.3,0,0.5,0.2,0.9l0.1,0.2l0.2,0.2l1.2,1h0L7.4,8c0,0,0.1,0.1,0.3,0.2v5.5l0,0l-0.1,0
	c-0.4-0.1-0.7-0.4-0.9-0.7l-0.1-0.1l0-0.1l0-0.2v0v-0.1l0.4-0.9l0-0.2l-0.1-0.1l-0.1-0.1l0,0c-0.2-0.3-0.6-0.6-0.8-0.7l-0.1,0
	l-0.1,0l-0.1,0l-0.1,0.1l-0.1,0.1l-0.1,0.2C5.1,11.2,5,11.3,5,11.6c0,0.3,0.2,0.8,0.4,1.1l0,0.1l0.1,0.1c0.3,0.5,0.4,0.6,0.8,0.8
	l0.1,0.1l0.3,0.1L6.8,14L7,14.1l0.1,0h0l0.1,0l0.3,0.1l0.1,0l0,0l0.1,0.1l0.1,0v2.1h0.7v-2h1.5v2H10.5z"/>
</svg>
