<svg xmlns="http://www.w3.org/2000/svg" viewBox="0 0 100 100"><defs><style>.a{fill:#231815;}</style></defs><path id="文" class="a" fill="none" stroke="black" stroke-width="1" d="M 85.75,34.00 C 88.73,33.82 88.28,24.85 85.75,25.00 85.75,25.00 55.13,25.00 55.13,25.00 55.13,25.00 55.13,14.00 55.13,14.00 55.97,11.31 45.24,9.74 43.91,14.00 43.91,14.00 43.91,25.00 43.91,25.00 43.91,25.00 13.75,25.00 13.75,25.00 10.82,25.66 11.55,34.49 13.75,34.00 13.75,34.00 23.48,34.00 23.48,34.00 24.58,37.86 26.67,42.39 29.77,47.61 32.87,52.82 36.70,57.65 41.25,62.11 33.91,67.21 24.16,71.51 12.00,75.00 9.89,75.27 13.02,84.43 16.41,84.00 30.16,79.88 41.14,74.84 49.38,68.88 58.18,75.30 68.82,80.34 81.30,84.00 85.92,84.59 90.07,74.53 87.34,74.25 75.71,71.24 65.85,67.00 57.78,61.53 66.11,52.87 71.69,43.69 74.50,34.00 74.50,34.00 85.75,34.00 85.75,34.00 Z M 34.89,34.00 C 34.89,34.00 62.94,34.00 62.94,34.00 60.28,41.66 55.80,48.70 49.50,55.13 42.85,48.94 37.98,41.90 34.89,34.00 Z M 65.00,17.73M 24.64,18.00M 32.09,87.18M 75.73,88.45M 12.67,10.00 C 24.56,10.00 72.59,10.00 86.32,10.00 88.66,10.00 90.00,11.03 90.00,12.87 90.00,25.77 89.96,78.03 89.96,88.09 89.96,89.17 89.42,90.00 88.35,90.00 78.42,90.00 26.45,90.00 13.12,90.00 11.13,90.00 10.00,88.73 10.00,86.52 10.00,73.10 10.00,24.95 10.00,12.80 10.00,11.01 10.96,10.00 12.67,10.00 Z M 94.00,88.20 C 94.00,71.02 94.00,20.91 94.00,10.82 94.00,7.77 89.63,6.00 88.79,6.00 72.35,6.00 22.10,6.00 11.67,6.00 11.06,6.00 9.46,6.07 8.09,7.00 6.99,7.75 6.00,9.19 6.00,10.45 6.00,24.64 6.00,68.91 6.00,86.59 6.00,91.20 8.54,94.00 12.77,94.00 29.57,94.00 72.96,94.00 88.42,94.00 91.93,94.00 94.00,91.84 94.00,88.20 Z" /></svg>