<?xml version="1.0" encoding="utf-8"?>
<!-- Generator: Adobe Illustrator 22.0.1, SVG Export Plug-In . SVG Version: 6.00 Build 0)  -->
<svg version="1.1" id="レイヤー_1" xmlns="http://www.w3.org/2000/svg" xmlns:xlink="http://www.w3.org/1999/xlink" x="0px"
	 y="0px" viewBox="0 0 18 18" style="enable-background:new 0 0 18 18;" xml:space="preserve">
<path d="M14.6,14.1l0.4,0.3l0.4,0.4l1,2.1l0.3,0.3l0.3,0.2l0.2,0l0.1,0l0.1-0.1l0.1-0.2l0-0.4L17,15.7L16.4,15L14.6,14.1L14.6,14.1z
	 M12.8,14.1l-2.8,3.1l0,0.1l0.3-0.1l2.8-1.8l1-0.3v-0.3l-0.7-0.5L13,14.1H12.8z M1.4,4.4l0.1,0.4L1.3,5.8L0.5,8.1l0,0.2l0,0.2
	l0.2,0.4L0.8,9l0.1,0.1l0.1,0l0.1,0L1.3,9l0.2-0.2l0.1-0.2l0.2-0.9L1.8,4.4H1.4z M3.5,3.6l0.1,0.3l0.6,2.3l0.1,0.1l0.3,0.1l0.2,0
	l0.1,0l0.1-0.1l0.1-0.1l0.1-0.2L5.2,5.6L5,5L4.5,4.3L4.1,3.9L3.5,3.6L3.5,3.6z M12.6,10.5l2.7,0v2.4h-2.7V10.5z M12.6,7.6l2.7,0V10
	h-2.7V7.6z M12.6,4.7l2.7,0v2.4h-2.7V4.7z M16.2,0.8l-0.8,0.9h-4.7l0,0.3l0,0.2l0.1,0.1l0.1,0l2.5-0.1L13,4.4l-1.3-0.8v9.9l0,0.1
	l0.1,0.1l0.1,0.1l0.3,0l0.1-0.1l0.1-0.1l0.1-0.1l0-0.3l2.5-0.2l0.1,0l0.1,0l0.4,0.4l0.1,0.1l0.1,0l0.1,0l0.1-0.1l0.2-0.2V5.1
	l0.7-0.3l-0.3-0.5l-0.2-0.2l-0.2-0.1l-0.5-0.1l-0.1,0l-0.5,0.4l-0.1,0l-1.3,0L14.2,3l0.4-0.5l0.3-0.2l0.4-0.1l2.2,0.1l-0.4-0.7
	l-0.6-0.6l-0.1-0.1L16.2,0.8z M2.5,0.8v16L2.6,17l0.1,0.1l0.2,0l0.2,0l0.1-0.1L3.3,17l0.1-0.1V2l0.9-0.5L4,1.1L3.8,1L2.5,0.8z
	 M8.3,6.7l1.2,0v2.5H8.3V6.7z M6.2,6.7l1.2,0v2.5l-1.2,0V6.7z M7.4,0.7v2.9H5l0,0.2l0,0.1l0,0.1L5.2,4l0.3,0.1l2-0.1v2.2l-0.2,0H6.5
	l0,0L5.7,5.5L5.4,5.3l-0.2,4l0.2,0.8l0.1,0.1l0.1,0.1l0.3,0.1l0.1,0L6,10.4l0.1-0.1l0.1-0.1L6.2,10L6.2,9.8h1.2l-0.9,2L4,15.1
	l0.1,0.1l1-0.5l2.3-2.5l0.1-0.1l-0.1,4.5l0.1,0.4l0.1,0.1l0.1,0.1l0.1,0.1l0.3,0l0.1-0.1l0.1-0.1l0.1-0.1l0-0.2v-5.5l0.1,0.1
	l1.7,1.6l0.3,0.1l0.2,0l0.1-0.1l0.1-0.1l0.1-0.1l0-0.1l0-0.2l-0.1-0.2l-0.4-0.6l-0.5-0.4l-0.7-0.4l-1-0.2l0-1.3l1.2,0.1l0,0.1l0,0.2
	l0.1,0.1l0.1,0l0.1,0l0.3,0l0.1-0.1l0.1-0.1l0-3.2l0.3-0.1L11,6.6l-1-1.1L9.8,5.6L9.3,6.2l-0.1,0L8.3,6.2l0-1.9l0.1-0.3l0-0.1l0.1,0
	l0.2-0.1L11.2,4L11,3.5l-0.2-0.3l-0.7-0.5L9.4,3.5l-0.1,0l-1-0.1l0-1.2L8.4,2l0.1-0.1l0.6-0.5L9,0.8L7.4,0.7z"/>
</svg>
