<svg xmlns="http://www.w3.org/2000/svg" viewBox="0 0 100 100"><defs><style>.a{fill:#231815;}</style></defs><path id="è„" class="a" fill="none" stroke="black" stroke-width="1" d="M 42.58,24.67 C 46.48,29.62 48.96,33.73 50.00,36.98 51.04,40.23 52.27,41.34 53.70,40.30 55.14,39.26 55.92,37.70 56.05,35.61 56.18,33.53 55.21,31.64 53.13,29.95 51.04,28.26 47.79,26.23 43.36,23.89 43.36,23.89 42.58,24.67 42.58,24.67 Z M 76.56,12.17 C 76.56,12.17 79.69,9.44 79.69,9.44 79.69,9.44 71.09,5.53 71.09,5.53 71.35,8.40 71.48,34.83 71.48,84.83 71.48,88.99 73.83,91.08 78.52,91.08 78.52,91.08 87.50,91.08 87.50,91.08 89.84,91.08 91.47,90.75 92.38,90.09 93.29,89.45 94.40,88.08 95.70,86.00 93.62,85.74 92.38,84.51 91.98,82.30 91.60,80.08 91.41,76.37 91.41,71.16 91.41,71.16 90.23,71.16 90.23,71.16 89.97,76.37 89.58,80.21 89.06,82.69 88.54,85.16 87.24,86.39 85.16,86.39 85.16,86.39 81.25,86.39 81.25,86.39 78.13,86.39 76.56,84.96 76.56,82.09 76.56,82.09 76.56,48.11 76.56,48.11 81.25,52.80 84.18,57.09 85.34,61.00 86.52,64.91 87.95,66.15 89.64,64.72 91.34,63.28 92.05,61.46 91.80,59.25 91.54,57.03 90.55,55.21 88.86,53.78 87.17,52.34 83.07,49.93 76.56,46.55 76.56,46.55 76.56,39.13 76.56,39.13 79.95,36.26 83.27,33.27 86.52,30.14 89.77,27.02 92.71,25.06 95.31,24.28 95.31,24.28 87.89,18.81 87.89,18.81 85.29,25.06 81.51,31.05 76.56,36.78 76.56,36.78 76.56,12.17 76.56,12.17 Z M 53.52,76.44 C 50.65,82.81 45.70,88.73 38.67,94.20 38.67,94.20 39.84,95.38 39.84,95.38 50.26,88.34 56.83,81.18 59.56,73.89 62.30,66.60 63.67,58.66 63.67,50.06 63.67,41.47 63.67,29.10 63.67,12.95 63.67,12.95 66.41,10.61 66.41,10.61 66.41,10.61 58.20,5.92 58.20,5.92 58.46,12.70 58.59,19.07 58.59,25.06 58.59,25.06 58.59,49.28 58.59,49.28 51.82,57.09 45.70,62.56 40.23,65.69 40.23,65.69 45.70,70.77 45.70,70.77 46.48,68.95 47.98,66.60 50.19,63.73 52.41,60.87 55.21,57.36 58.59,53.19 58.07,62.30 56.38,70.05 53.52,76.44 Z M 20.70,85.61 C 26.95,87.17 30.34,89.91 30.86,93.81 33.98,92.77 36.13,91.66 37.30,90.48 38.47,89.32 39.19,87.04 39.45,83.66 39.45,83.66 39.45,14.13 39.45,14.13 39.45,14.13 42.58,12.56 42.58,12.56 42.58,12.56 36.72,7.09 36.72,7.09 36.72,7.09 33.20,10.61 33.20,10.61 33.20,10.61 19.92,10.61 19.92,10.61 19.92,10.61 14.06,7.48 14.06,7.48 14.32,10.61 14.45,19.20 14.45,33.27 14.45,47.33 14.32,56.77 14.06,61.59 13.80,66.41 13.08,71.36 11.91,76.44 10.74,81.51 8.20,87.56 4.30,94.59 4.30,94.59 5.47,94.98 5.47,94.98 10.94,87.69 14.52,81.25 16.20,75.66 17.90,70.05 19.01,63.73 19.53,56.70 19.53,56.70 19.53,12.95 19.53,12.95 19.53,12.95 34.38,12.95 34.38,12.95 34.38,12.95 34.38,81.31 34.38,81.31 34.38,83.92 33.46,85.22 31.64,85.22 29.82,85.22 26.17,84.83 20.70,84.05 20.70,84.05 20.70,85.61 20.70,85.61 Z M 20.70,24.67 C 23.57,27.54 25.52,30.53 26.56,33.66 27.60,36.78 28.84,37.82 30.27,36.78 31.70,35.74 32.35,34.25 32.22,32.30 32.09,30.34 31.31,28.91 29.88,28.00 28.45,27.09 25.52,25.71 21.09,23.89 21.09,23.89 20.70,24.67 20.70,24.67 Z M 24.22,66.86 C 25.00,64.52 26.43,60.87 28.52,55.92 30.60,50.98 32.29,46.94 33.59,43.81 33.59,43.81 32.42,43.03 32.42,43.03 30.86,45.90 28.71,49.35 25.97,53.39 23.24,57.42 21.09,60.22 19.53,61.78 19.53,61.78 24.22,66.86 24.22,66.86 Z" /></svg>