<?xml version="1.0" encoding="utf-8"?>
<!-- Generator: Adobe Illustrator 22.0.1, SVG Export Plug-In . SVG Version: 6.00 Build 0)  -->
<svg version="1.1" id="レイヤー_1" xmlns="http://www.w3.org/2000/svg" xmlns:xlink="http://www.w3.org/1999/xlink" x="0px"
	 y="0px" viewBox="0 0 18 18" style="enable-background:new 0 0 18 18;" xml:space="preserve">
<path d="M13.5,5.9l-0.9-0.5l-0.1,0l-0.3,0.1l-0.5,0.3L11,5.9L9.4,6.1l-1,0.1L7,6.4H6.6L5.8,6.1L5.4,6.2l0.9,1.1l0.5-0.1l0.1,0
	l0.6-0.3l0.2-0.1h0.2l0.4,0.1l0.6,0.2l0.3,0.2l-0.4,3.7l-0.2,0l-4.5,0.2H4l-0.1-0.1l-0.2-0.3L3.3,11v0.3l0.9,1l2.7-0.5l8.2-0.3v-0.2
	l-0.3-0.2L14.7,11l-0.2-0.1l-0.3-0.1L14,10.6h-0.2l-0.3,0l-1,0.2L12,10.9h-1.5l-0.9,0l0.8-3.6L9.4,6.9l4-0.6V5.9z M14.7,1.6L14.9,2
	l1,2.8l0.4,1.5l0.2,2.1v1l-0.1,1.1L16,12.1l-0.4,1.7l-0.3,1l-0.2,0.4l-0.4,0.6L14.7,16l0,0.1l0,0.3H15l0.1-0.2l0.8-1.5l0.6-1.8
	l0.4-1.9l0.1-2.1l-0.1-1.8l-0.3-1.8l-0.6-1.6l-0.7-1.5l-0.3-0.6H14.7z M2.8,1.6L2.7,1.7L1.9,3.1L1.3,4.8L0.9,6.9L0.8,9.1l0,0.8
	l0.1,0.8L1,11.9L1.3,13l0.6,1.6l0.7,1.3l0.1,0.2l0.3,0.3h0.5l-0.2-0.3l-0.4-0.7l-0.4-1.2l-0.3-1.1L1.9,12l-0.2-1.1l-0.1-1l0-0.9
	l0.1-1.4l0.2-1.5l0.3-1.3l0.1-0.4L3.1,2l0.1-0.4H2.8z"/>
</svg>
