<?xml version="1.0" encoding="utf-8"?>
<!-- Generator: Adobe Illustrator 22.0.1, SVG Export Plug-In . SVG Version: 6.00 Build 0)  -->
<svg version="1.1" id="レイヤー_1" xmlns="http://www.w3.org/2000/svg" xmlns:xlink="http://www.w3.org/1999/xlink" x="0px"
	 y="0px" viewBox="0 0 18 18" style="enable-background:new 0 0 18 18;" xml:space="preserve">
<path d="M9.7,3.4L9.5,3.2L9.3,3.1L9,3L8.7,2.9l-0.3,0l-0.1,0L8.1,3L7.5,3.4l0.1,0.1l0.4-0.1l0.3,0l0.3,0.2l0.1,0.1l0.3,2.3H6.2
	L6.1,5.8L5.7,5.5L5.4,5.2L5.1,5.2H4.9L4.8,5.2l0.1,0.3l0.3,0.4l0.1,0.1l0.1,0.1l0.1,0.4l0,0.7l0,0.6l0,0.8l0.1,0.4l0.1,0.5l0,0.3v0
	L5.6,10l0.3,0.3h0.4L6.5,10L6.3,6.5l5.8-0.3l0.2,0.2l-0.9,2.2l-1,1.8l-0.6,0.9l-0.7,0.9c-1,1.2-1.8,1.8-2.8,2.3L6,14.6v0.1l0.3,0
	c1.1-0.3,2.2-1.1,3.9-2.9c1.5-1.6,2.4-3.1,3-5.1l0-0.1h0.6l-0.1-0.3L13.6,6l-0.1-0.2l-0.2-0.2l-0.2-0.1l-0.2-0.1l-0.2,0h-0.1
	l-0.8,0.3l-0.3,0.1l-0.4,0l-0.5,0L9.5,5.7L9.7,3.4z M14.7,1.6l0.1,0.3l0,0.1c0.9,2.4,1.4,4.3,1.5,6.6l0,0.1v0.2l0,0.7l-0.1,0.8
	L16,11.9l-0.4,1.7l-0.2,0.7l-0.2,0.6l-0.1,0.3L15,15.4l-0.2,0.3l-0.1,0.1l0,0V16l0,0.2h0.4l0.3-0.5l0.7-1.4l0.6-1.6l0.4-1.8l0.1-2
	l-0.1-1.8l-0.3-1.7l-0.5-1.7l-0.7-1.5l-0.3-0.6H14.7z M2.8,1.6L2.6,1.9L2.5,2.1L1.8,3.5L1.3,5.1L0.9,6.9L0.8,9l0,0.7l0,0.7L1,11.7
	L1.3,13l0.6,1.6l0.7,1.3l0.1,0.2l0.2,0.3h0.5l-0.2-0.3l-0.6-1.2l-0.5-1.5l-0.4-2.2L1.7,8.8l0.1-1.5l0.1-1.5l0.3-1.6l0.3-1l0.6-1.4
	l0.1-0.3H2.8z"/>
</svg>
