<?xml version="1.0" encoding="utf-8"?>
<!-- Generator: Adobe Illustrator 22.0.1, SVG Export Plug-In . SVG Version: 6.00 Build 0)  -->
<svg version="1.1" id="レイヤー_1" xmlns="http://www.w3.org/2000/svg" xmlns:xlink="http://www.w3.org/1999/xlink" x="0px"
	 y="0px" viewBox="0 0 18 18" style="enable-background:new 0 0 18 18;" xml:space="preserve">
<path d="M9.4,13.3L9.4,13.3c-0.1-0.1-0.1-0.1-0.3-0.1C8.7,13,8.5,13,8.1,13c-0.8,0-1.7,0.4-2.2,1.1c-0.5,0.6-0.6,1-0.7,1.7v0.1
	c0,0.3,0.2,0.7,0.4,1c0.3,0.3,0.6,0.5,1.1,0.5h0.1c0.4,0,1.3-0.3,1.9-0.8l0.2-0.1L9,16.4L9.3,16l0.1-0.1l0.1-0.1
	c0.3-0.6,0.4-0.9,0.4-1.7l-0.1-3.5V10l0.1-1.6l3-0.4V7.5L9.8,8V6.8l3-0.4V5.9l-3,0.4V5.2l3-0.4V4.3l-1.6,0.2l-0.6,0.1
	c-0.3,0-0.3,0.1-0.6,0.1h0l-0.1,0V0.6H9.4v4.1L6.2,5.1v0.5l1-0.1l1.1-0.1c0.3,0,0.4,0,0.7-0.1l0.1,0l0.2-0.1v1.2L6.2,6.7v0.5l1-0.1
	L8.4,7c0.3,0,0.4,0,0.7-0.1l0.1,0l0.2-0.1v1.1L9.2,8L9.1,8h0L7.7,8.2L7.2,8.3H7.1c0,0-0.1,0-0.2,0H6.9h0H6.6l-0.3,0v0.4l1.2-0.1
	c1-0.1,1.4-0.1,1.8-0.3h0l0.1,0V13.3z"/>
</svg>
