<?xml version="1.0" encoding="utf-8"?>
<!-- Generator: Adobe Illustrator 22.0.1, SVG Export Plug-In . SVG Version: 6.00 Build 0)  -->
<svg version="1.1" id="レイヤー_1" xmlns="http://www.w3.org/2000/svg" xmlns:xlink="http://www.w3.org/1999/xlink" x="0px"
	 y="0px" viewBox="0 0 18 18" style="enable-background:new 0 0 18 18;" xml:space="preserve">
<path d="M11.5,0.6C12.1,3.9,14,7,16.4,8.5c0.2-0.7,0.3-0.8,0.8-0.8l0.1-0.2c-1.1-0.4-2-1.1-3.4-2.6l2.4-1.2c0.4,0,0.6-0.1,0.6-0.3
	c0-0.1-0.1-0.2-0.2-0.3l-1.1-0.6c-0.6,0.9-0.8,1.1-2,2c-0.3-0.4-0.4-0.5-0.7-1l2-1.3l0.2,0c0.2,0,0.4-0.1,0.4-0.2
	c0-0.1,0-0.1-0.2-0.2l-1-0.7c-0.6,1-0.9,1.4-1.6,2.1c-0.6-1.1-0.7-1.6-1-2.5H11.5z M5.8,8.5c2-1.2,4-3.6,4.9-6.1
	c0.4-0.1,0.6-0.2,0.6-0.5c0-0.1,0-0.2-0.2-0.4L10.4,1L9.8,1.6H6.7v0.5h3C9.5,3,9.3,3.4,8.9,4.2c-0.2-0.7-1-1-2.5-1.1v0.2
	C7.1,3.6,7.6,4,7.8,4.5C8,5.1,8.1,5.2,8.3,5.1h0C7.4,6.6,6.9,7.3,5.7,8.3L5.8,8.5z M2.7,5.6c-0.2,2.3-0.9,4.8-1.9,6.9
	c0,0.1-0.3,0.6-0.3,0.8l0.2,0.1c0.9-1.5,1.5-2.4,2.1-3.9v6.9c0,0.4,0.1,0.7,0.4,0.7c0.3,0,0.5-0.2,0.6-0.8V8.3
	c0.6,0.4,1,0.7,1.3,1.3c0.4,0.8,0.5,0.9,0.8,0.9c0.3,0,0.6-0.3,0.6-0.6s-0.2-0.7-0.6-1C5.4,8.5,5,8.3,3.8,8V5.6h2.7
	c0.2,0,0.4-0.1,0.4-0.2c0-0.1,0-0.2-0.2-0.3l-1-0.8l-1,0.9h-1V1.5C4.2,1.3,4.3,1.2,4.3,1c0-0.2-0.1-0.3-0.4-0.3L2.8,0.5v4.6H0.5v0.5
	H2.7z M16.6,11.4c0.3,0,0.4-0.1,0.4-0.2c0-0.1,0-0.2-0.2-0.3l-1-0.9l-1,0.9h-3.4c0.2-1.4,0.2-1.5,0.2-1.9c0-0.2,0-0.4,0-1h3.1
	c0.2,0,0.4-0.1,0.4-0.2c0-0.1,0-0.1-0.2-0.3l-1.1-0.9l-0.9,0.9H7.6v0.5h2.9c0,1.5-0.1,1.9-0.2,2.8H6v0.5h4.3
	c-0.4,2.7-1.7,4.1-4.9,5.7l0.2,0.2c2.7-0.7,4.8-2.5,5.5-4.7c1.3,1.1,1.6,1.4,2,1.7c0.2,0.2,0.5,0.6,1.1,1.2l0.6,0.7l0.4,0.6
	c0.1,0.1,0.3,0.2,0.5,0.2c0.3,0,0.6-0.3,0.6-0.6c0-0.2-0.1-0.5-0.3-0.8c-0.2-0.3-0.6-0.6-1.5-1.3c-1.5-1.1-1.5-1.1-3.3-2.2
	c0.1-0.4,0.1-0.5,0.2-1H16.6z"/>
</svg>
