<?xml version="1.0" encoding="utf-8"?>
<!-- Generator: Adobe Illustrator 22.0.1, SVG Export Plug-In . SVG Version: 6.00 Build 0)  -->
<svg version="1.1" id="レイヤー_1" xmlns="http://www.w3.org/2000/svg" xmlns:xlink="http://www.w3.org/1999/xlink" x="0px"
	 y="0px" viewBox="0 0 18 18" style="enable-background:new 0 0 18 18;" xml:space="preserve">
<path d="M0.7,17H17c0.2,0,0.4-0.1,0.4-0.3c0-0.1-0.1-0.3-0.3-0.4L16,15.4l-0.9,1.1H0.7V17z M13.7,11.9H4.4V10h9.3V11.9z M13.7,14.2
	H4.4v-1.8h9.3V14.2z M13.5,9.5H4.7L3.4,9v6.5c0,0.2,0.1,0.3,0.3,0.3c0.2,0,0.4-0.2,0.7-0.7v-0.3h9.3v0.4c0,0.3,0.1,0.4,0.3,0.4
	c0.2,0,0.4-0.1,0.7-0.7v-4.3c0.5-0.3,0.7-0.5,0.7-0.6c0-0.1,0-0.2-0.5-0.5L14,8.8L13.5,9.5z M9.7,4.9h5.4c0.2,0,0.4-0.1,0.4-0.3
	c0-0.1-0.1-0.2-0.3-0.4l-1-0.9l-1,1.1H9.7V2h5.6l-0.8,1.2l0.2,0.1l1.6-0.9c0.7,0,1-0.2,1-0.5c0-0.1-0.1-0.3-0.5-0.5l-1-0.8l-0.7,0.8
	H1V2h7.6v4.8C7.6,6.4,6.8,5.7,6,4.3C6.1,4.2,6.1,4.1,6.2,4c0.4-0.1,0.6-0.2,0.6-0.4c0-0.1-0.2-0.4-0.5-0.5L5.4,2.6
	C4.2,5.8,3.3,7,0.5,8.8L0.8,9c2.8-1.4,3.8-2.3,4.9-4.2C7.2,7.6,8.6,8.3,13,8.2h3.2c0.4-0.6,0.5-0.8,1.2-1.1V6.9
	c-1.7,0.3-2.9,0.3-4.5,0.3c-1.3,0-2.5-0.1-3.2-0.2V4.9z"/>
</svg>
