<?xml version="1.0" encoding="utf-8"?>
<!-- Generator: Adobe Illustrator 22.0.1, SVG Export Plug-In . SVG Version: 6.00 Build 0)  -->
<svg version="1.1" id="レイヤー_1" xmlns="http://www.w3.org/2000/svg" xmlns:xlink="http://www.w3.org/1999/xlink" x="0px"
	 y="0px" viewBox="0 0 18 18" style="enable-background:new 0 0 18 18;" xml:space="preserve">
<path d="M13.5,11.2c1.5,1.5,2,2.4,2.6,3.9c0.3,0.9,0.5,1.2,0.8,1.2c0.3,0,0.6-0.4,0.6-0.7c0-0.9-0.7-2.1-2-3.2
	c-0.4-0.3-0.8-0.6-1.8-1.4L13.5,11.2z M7.4,16.6c2.1-1.8,2.9-2.7,4.3-4.8c0.5-0.2,0.6-0.4,0.6-0.6c0-0.1-0.1-0.2-0.6-0.4l-0.9-0.3
	c-0.8,2.2-1.6,3.5-3.7,6L7.4,16.6z M3,5.2V2.1h2.7v3.1H3z M3,9V5.7h2.7V9H3z M3,12.8V9.4h2.7v2.9L3,12.8z M6.7,12.6l2.1-0.8
	l-0.1-0.3l-2,0.5v-10h1.2h0c0.4,0,0.5-0.1,0.5-0.3S8.3,1.6,7.9,1.2L7.2,0.7l-0.8,1H0.6v0.5H2V13l-1.4,0.2l0.3,1
	c0.2,0.5,0.3,0.8,0.5,0.8c0.2,0,0.3-0.2,0.5-0.6L5.7,13v4.1c0,0.1,0.1,0.3,0.3,0.3l0.4-0.2c0.1-0.1,0.2-0.2,0.3-0.5V12.6z M15.8,9
	H9.9V2.8h5.9V9z M15.6,2.4h-5.5L8.8,1.8v8.4c0,0.1,0.1,0.2,0.2,0.2c0.1,0,0.4-0.1,0.5-0.2c0.1-0.1,0.1-0.2,0.3-0.5V9.5h5.9v0.5
	c0,0.1,0.1,0.2,0.2,0.2c0.3,0,0.6-0.2,0.8-0.7V3.1c0.4-0.2,0.5-0.3,0.5-0.6c0-0.1-0.1-0.3-0.3-0.4l-1-0.5L15.6,2.4z"/>
</svg>
