<?xml version="1.0" encoding="utf-8"?>
<!-- Generator: Adobe Illustrator 22.0.1, SVG Export Plug-In . SVG Version: 6.00 Build 0)  -->
<svg version="1.1" id="レイヤー_1" xmlns="http://www.w3.org/2000/svg" xmlns:xlink="http://www.w3.org/1999/xlink" x="0px"
	 y="0px" viewBox="0 0 18 18" style="enable-background:new 0 0 18 18;" xml:space="preserve">
<path d="M14.1,5.1c-0.2,0-0.2,0-0.3,0c-1.3,0-1.3,0-1.8,0.3c-0.7,0.4-1,1-1,1.8c0,0.6,0.1,0.9,0.7,1.5l0.9,0.9
	c0.3,0.3,0.4,0.5,0.4,0.8c0,0.3-0.2,0.6-0.4,0.7c-0.2,0.1-0.4,0.1-0.8,0.1c-0.1,0-0.2,0-0.7,0l0,1.4c0.5,0,0.6,0,0.8,0
	c0.8,0,1.3-0.1,1.7-0.3c0.7-0.4,1.1-1.1,1.1-1.9c0-0.5-0.1-0.8-0.6-1.3l-1.1-1.2c-0.4-0.4-0.4-0.5-0.4-0.6c0-0.3,0.5-0.6,1-0.6
	c0.2,0,0.2,0,0.6,0V5.1z M8.1,5.2v7.4h1.8V5.2H8.1z M3.2,14.7c0.4,0.3,0.4,0.4,0.6,0.5c1.5,1.2,3.4,1.9,5.3,1.9
	c4.6,0,8.3-3.7,8.3-8.2c0-4.6-3.7-8.3-8.3-8.3c-4.6,0-8.3,3.7-8.3,8.2c0,1.3,0.3,2.2,0.8,2.8c0.6,0.6,1.4,1,2.2,1
	c0.8,0,1.5-0.3,2.1-0.8c0.6-0.5,0.8-1.3,0.8-2.5V5.2H5.1v4.4c0,0.6-0.1,0.9-0.4,1.1c-0.4,0.4-0.8,0.5-1.2,0.5c-0.9,0-1.5-1-1.5-2.5
	C2,4.9,5,2,8.9,2c4.1,0,7.2,3,7.2,6.9c0,3.9-3.1,7-7,7c-1.6,0-3.3-0.6-4.4-1.5c-0.1-0.1-0.2-0.1-0.5-0.5L3.2,14.7z"/>
</svg>
