<?xml version="1.0" encoding="utf-8"?>
<!-- Generator: Adobe Illustrator 22.0.1, SVG Export Plug-In . SVG Version: 6.00 Build 0)  -->
<svg version="1.1" id="レイヤー_1" xmlns="http://www.w3.org/2000/svg" xmlns:xlink="http://www.w3.org/1999/xlink" x="0px"
	 y="0px" viewBox="0 0 18 18" style="enable-background:new 0 0 18 18;" xml:space="preserve">
<path d="M2.8,7.4c-0.9,0-1.6,0.7-1.6,1.6s0.7,1.6,1.6,1.6s1.6-0.7,1.6-1.6C4.3,8.1,3.6,7.4,2.8,7.4z M15.2,7.4
	c-0.9,0-1.6,0.7-1.6,1.6s0.7,1.6,1.6,1.6c0.9,0,1.6-0.7,1.6-1.6C16.7,8.1,16,7.4,15.2,7.4z M9.9,7.6C7.5,5.3,7.1,4.8,7.1,3.7
	c0-1,0.8-1.9,1.7-1.9c0.2,0,0.3,0,0.5,0.1C9,2.7,8.9,3,8.9,3.5c0,1,0.8,1.8,1.9,1.8c1,0,1.9-0.9,1.9-2.1c0-1.5-1.6-2.8-3.7-2.8
	c-2.3,0-4.2,1.7-4.2,3.8C4.8,5.1,5,6,5.4,6.8c0.4,0.8,0.5,1,1.3,1.9C6.8,8.8,7.1,9,7.3,9.3L1,13.5l0.7,1l6.5-4.3L8.9,11
	c1.9,2,2.3,2.5,2.3,3.4c0,1-0.9,1.8-2,1.8c-0.4,0-0.7-0.1-1.2-0.4c0.8-0.8,1-1.1,1-1.7c0-1-0.8-1.7-1.8-1.7c-1.1,0-2.2,0.9-2.2,1.9
	c0,1.8,1.8,3.2,3.9,3.2c2.5,0,4.3-1.8,4.3-4.2c0-1.6-0.8-3.1-2.5-4.8l6.2-4l-0.8-1L9.9,7.6z"/>
</svg>
