<?xml version="1.0" encoding="utf-8"?>
<!-- Generator: Adobe Illustrator 22.0.1, SVG Export Plug-In . SVG Version: 6.00 Build 0)  -->
<svg version="1.1" id="レイヤー_1" xmlns="http://www.w3.org/2000/svg" xmlns:xlink="http://www.w3.org/1999/xlink" x="0px"
	 y="0px" viewBox="0 0 18 18" style="enable-background:new 0 0 18 18;" xml:space="preserve">
<path d="M12.5,9v0.5h1.5v2c0,0.2,0.1,0.3,0.4,0.3c0.3,0,0.5-0.1,0.6-0.5V9.5H17c0.2,0,0.4-0.1,0.4-0.3c0-0.1-0.1-0.2-0.3-0.4
	l-0.6-0.6L15.6,9h-0.6V8c0.3-0.2,0.4-0.3,0.4-0.4c0-0.2-0.2-0.3-0.6-0.4L14.1,7v2H12.5z M6.4,9v0.5H8v1.9c0,0.3,0.1,0.4,0.4,0.4
	c0.3,0,0.5-0.2,0.6-0.6V9.5h1.6c0.2,0,0.4-0.1,0.4-0.3c0-0.1-0.1-0.2-0.3-0.4l-0.6-0.5L9.4,9H9.1V8c0.3-0.2,0.4-0.3,0.4-0.4
	c0-0.2-0.2-0.3-0.5-0.4L8,7v2H6.4z M0.5,11.4c0.1-0.1,0.3-0.2,0.5-0.4c1-0.8,1.1-0.8,1.9-1.6v7.5c0,0.2,0.1,0.4,0.4,0.4
	c0.3,0,0.5-0.2,0.7-0.6V9.2c0.5,0.3,1,0.8,1.4,1.3c0.3,0.7,0.4,0.8,0.8,0.8c0.3,0,0.6-0.3,0.6-0.6c0-0.6-0.5-1.1-1.7-1.5L6.4,8
	C6.8,7.9,7,7.7,7,7.5c0-0.1-0.1-0.2-0.4-0.4L5.6,6.8c-0.2,0.9-0.4,1.4-1,2.3L4.1,9c0.2-0.1,0.3-0.3,0.3-0.4c0-0.1-0.1-0.3-0.4-0.4
	L3.8,8.2c0.9-1.2,1.4-2.1,2-3.5c0.5-0.1,0.7-0.2,0.7-0.4c0-0.1-0.1-0.3-0.3-0.5L5.3,3.2L4.7,3.9H3.5V1.6C3.8,1.4,4,1.3,4,1.1
	S3.8,0.8,3.5,0.8l-1-0.1v3.3h-2v0.5h4.3c-1,2.5-2.4,4.7-4.4,6.7L0.5,11.4z M12.2,3.7V1.9h3v1.8H12.2z M12.2,6V4.1h3V6H12.2z
	 M8.2,3.7V1.9h3v1.8H8.2z M8.2,6V4.1h3V6H8.2z M11.2,6.4V12h-5v0.5h5v1.6h-4v0.5h4V17c0,0.2,0.1,0.3,0.3,0.3c0.3,0,0.5-0.1,0.7-0.5
	v-2.2h4.2c0.2,0,0.3-0.1,0.3-0.2c0-0.1-0.1-0.2-0.2-0.3l-0.9-0.8l-0.9,0.9h-2.5v-1.6H17c0.1,0,0.3-0.1,0.3-0.3
	c0-0.1-0.1-0.2-0.3-0.4l-0.8-0.7L15.4,12h-3.2V7.1c0.3-0.1,0.4-0.3,0.4-0.4c0-0.1-0.1-0.2-0.3-0.3h2.9v0.3c0,0.1,0.2,0.3,0.3,0.3
	c0.3,0,0.5-0.2,0.7-0.5V2.2c0.4-0.2,0.5-0.3,0.5-0.5c0-0.1-0.1-0.3-0.4-0.5l-0.9-0.6L15,1.4H8.4L7.1,0.8v6.1c0,0.2,0.2,0.3,0.4,0.3
	C7.8,7.2,8,7,8.2,6.7V6.4H11.2z"/>
</svg>
