<?xml version="1.0" encoding="utf-8"?>
<!-- Generator: Adobe Illustrator 22.0.1, SVG Export Plug-In . SVG Version: 6.00 Build 0)  -->
<svg version="1.1" id="レイヤー_1" xmlns="http://www.w3.org/2000/svg" xmlns:xlink="http://www.w3.org/1999/xlink" x="0px"
	 y="0px" viewBox="0 0 18 18" style="enable-background:new 0 0 18 18;" xml:space="preserve">
<path d="M8.4,4.5h5.1v3.1H8.4V4.5z M8.4,8.1h5.1V11H8.4V8.1z M2.2,8.1h5.1V11H2.2V8.1z M2.2,4.5h5.1v3.1H2.2V4.5z M1.2,12.1l0,0.3
	c0,0.3,0.1,0.5,0.4,0.5c0.2,0,0.4-0.1,0.7-0.4v-1h5.1v4.4c0,0.7,0.6,1.1,1.6,1.1h6.3c1.1,0,1.6-0.2,1.6-0.6c0-0.1-0.1-0.3-0.1-0.3
	c-0.5-0.5-0.5-0.5-0.5-0.9c0-0.4,0.1-0.9,0.2-2.2l-0.2-0.1c-0.4,2-1,3.2-1.8,3.2H8.9c-0.4,0-0.6-0.2-0.6-0.8v-3.8h5.1v0.2
	c0,0.5,0.1,0.6,0.3,0.6c0.2,0,0.4-0.1,0.7-0.5v-7c0.4-0.2,0.6-0.3,0.6-0.5c0-0.1-0.1-0.3-0.3-0.4c-0.7-0.5-0.7-0.5-0.9-0.5
	c-0.2,0-0.3,0.1-0.6,0.6H8.4V1.4C8.7,1.3,8.8,1.1,8.8,1c0-0.3-0.3-0.4-1.3-0.5l-0.2,0V4h-5C1.9,3.7,1.8,3.6,1.2,3.4V12.1z"/>
</svg>
