<?xml version="1.0" encoding="utf-8"?>
<!-- Generator: Adobe Illustrator 22.0.1, SVG Export Plug-In . SVG Version: 6.00 Build 0)  -->
<svg version="1.1" id="レイヤー_1" xmlns="http://www.w3.org/2000/svg" xmlns:xlink="http://www.w3.org/1999/xlink" x="0px"
	 y="0px" viewBox="0 0 18 18" style="enable-background:new 0 0 18 18;" xml:space="preserve">
<path d="M5.1,2.3h5.5v4.9H5.1V2.3z M15.8,2.3l0-0.4l-0.2-0.4L15.2,1l-0.6-0.4l-1.1,1.1h-8L3.9,1v6.1h-3v0.5h8.6L6,11.5l-2.4,2.2
	l-2.9,2.3l0,0.1L1.6,16l2-1.2l3-2.3l4.1-3.9v6.8l-0.5,0.3l-1,0l-1.3-0.2l-0.5,0.3l1.2,0.4L9,16.6l0.2,0.4l0.2,0.3l1.4-0.2l0.9-0.8
	V7.7h5.5V7.2l-0.2-0.3l-0.5-0.5L16,6.1l-1.2,1.1h-3V2.3H15.8z"/>
</svg>
