<?xml version="1.0" encoding="utf-8"?>
<!-- Generator: Adobe Illustrator 22.0.1, SVG Export Plug-In . SVG Version: 6.00 Build 0)  -->
<svg version="1.1" id="レイヤー_1" xmlns="http://www.w3.org/2000/svg" xmlns:xlink="http://www.w3.org/1999/xlink" x="0px"
	 y="0px" viewBox="0 0 18 18" style="enable-background:new 0 0 18 18;" xml:space="preserve">
<path d="M12.4,3.9c0.8,0.6,0.9,0.7,1.2,1.4C13.8,5.8,14,6,14.3,6c0.3,0,0.5-0.3,0.5-0.5c0-0.4-0.4-0.9-1-1.2
	c-0.3-0.2-0.5-0.2-1.3-0.6L12.4,3.9z M14.2,3.1c0.8,0.5,1.1,0.7,1.5,1.3C15.9,4.8,16,5,16.3,5c0.3,0,0.5-0.2,0.5-0.5
	c0-0.5-0.4-0.9-1.3-1.2C15.2,3.1,15,3,14.2,2.8L14.2,3.1z M9.3,13.6l0.8-3.7c0-0.2,0.1-0.3,0.1-0.5c0-0.4-0.3-0.8-1-1.1l4.6-0.4
	c0.3,0,0.5-0.1,0.5-0.3c0-0.2-0.3-0.4-0.6-0.6c-0.3-0.1-0.5-0.2-1.2-0.4l-1.2,0.5C9.6,7.4,6.6,7.7,5.7,7.7c-0.7,0-1.1-0.1-1.8-0.6
	v0.6c0.6,0.7,0.9,0.9,1.5,0.9c0.2,0,0.4,0,0.6,0c0.6-0.1,1-0.1,1.1-0.1l0.7,0c0.7,0.3,1,0.6,1,1c0,0.1,0,0.3-0.1,0.7l-0.3,3.5
	l-1.3,0.1l-1.4,0.1l-1.5,0.1L2.7,14c-0.5,0-0.7-0.1-1.2-0.8l-0.3,0.3c0.2,0.5,0.2,0.7,0.4,0.9c0.3,0.5,0.7,0.8,1.1,0.8
	c0.1,0,0.3,0,0.5-0.1c0.3-0.1,2.4-0.4,2.9-0.4c1-0.1,4.7-0.3,5.8-0.3c1.4,0,2.8,0.1,4.1,0.3c0.2-0.2,0.3-0.3,0.3-0.4
	c0-0.3-0.2-0.5-0.6-0.7c-0.5-0.2-0.9-0.4-1-0.4c0,0-0.4,0.1-0.8,0.2c-0.1,0-0.4,0.1-0.8,0.1L9.3,13.6z"/>
</svg>
