<?xml version="1.0" encoding="utf-8"?>
<!-- Generator: Adobe Illustrator 22.0.1, SVG Export Plug-In . SVG Version: 6.00 Build 0)  -->
<svg version="1.1" id="レイヤー_1" xmlns="http://www.w3.org/2000/svg" xmlns:xlink="http://www.w3.org/1999/xlink" x="0px"
	 y="0px" viewBox="0 0 18 18" style="enable-background:new 0 0 18 18;" xml:space="preserve">
<path d="M4.6,7.2h8.6v1.5H4.6V7.2z M4.6,5.2h8.6v1.5H4.6V5.2z M3.6,4v5.8l0.2,0.1l0.1,0l0.3,0l0.5-0.2V9.2h0.8l-0.8,1.1l-3.7,3.3
	L0.5,14L0.9,14l0.9-0.4l2.1-1.7l-0.1,1.5L4,14.9l0.1,0.2l0.2,0.2l0.4,0.2l6.7,0.1l1.1-0.4v-0.6L12,14.3L12,12.6h-0.1l-0.3,0.9
	l-0.7,1l-0.1,0.1l0,0H5L5,14.5l-0.1-0.3l0-0.5l6-1.3h0.7l-0.2-0.3L11.4,12l-0.1-0.1l-1.1-0.6h-0.1l-0.1,0l-5.1,2.1l-0.1-0.6l0-0.3
	L5,12.1L5.1,12l0.5-0.2v-0.4l-1-0.4L5.2,11h10l-0.1,1.8l-0.5,2.1l-0.7,1.3L11.6,16v0.1l1.8,0.8v0.6l1.1-0.4l0.7-0.6l0.4-1l0.6-3.8
	l0.1-0.1l0.2-0.1l0.3,0l0.4,0l-0.7-1.2l-0.4-0.3l-0.2-0.1l-0.2,0l-0.1,0l-0.1,0.1L15.4,10L15,10.5H5.5l1.2-1.3h6.4l0.1,0.3l0.1,0.1
	l0.1,0.1l0.1,0l0.1,0l0.3-0.1L14,9.6L14,9.4l0.1-0.5V5.8l1-0.2l-0.6-0.9l-0.4-0.4l-0.3-0.1l-0.3-0.1h-0.1l-0.1,0.1l-0.3,0.3
	l-0.2,0.3H4.9L3.6,4z M5.7,0.6v2H0.4v0.5h5.3L5.6,4.1l0.1,0.2l0.1,0.1l0.1,0.1l0.1,0.1l0.1,0l0.2,0l0.1-0.1l0.3-0.2l0-1.2h4.7v1
	l0.1,0.3l0.1,0.1l0.1,0.1l0.1,0l0.1,0l0.1,0L12,4.4l0.1-0.2l0.1-0.3l0.1-0.3l0-0.6h5.2L17,2.2l-0.8-0.7l-0.9,1l-0.1,0.1l-0.2,0.1
	l-2.5-0.1l0-0.3l0-0.4l0.1-0.1l0.1-0.1l0.2-0.1l0.4-0.1l0.1,0V0.9l-1.9-0.3v2H6.7l0-0.2V2.3l0-0.4l0.1-0.1l0.1-0.1L7,1.6l0.4-0.2
	l0.1,0V1L5.7,0.6z"/>
</svg>
