<?xml version="1.0" encoding="utf-8"?>
<!-- Generator: Adobe Illustrator 22.0.1, SVG Export Plug-In . SVG Version: 6.00 Build 0)  -->
<svg version="1.1" id="レイヤー_1" xmlns="http://www.w3.org/2000/svg" xmlns:xlink="http://www.w3.org/1999/xlink" x="0px"
	 y="0px" viewBox="0 0 18 18" style="enable-background:new 0 0 18 18;" xml:space="preserve">
<path d="M6.6,12.3H5.9l-1.3,3.9l0.2,0.2l2-3.1l0.5-0.2v-0.4L6.6,12.3z M10.9,14.6l0.4,0l0.2-0.1l0.1-0.5l-0.1-0.5L11.1,13l-0.4-0.4
	l-0.6-0.3l-0.3,0.2l0.2,0.2L10.9,14.6z M4.2,4.8H3.7L2.6,6.9l-2.3,3.2h0.3l0.5-0.3l1.4-1.3v8.5l0.2,0.2l0.7-0.2V7.8l1-1.8L5,5.8V5.4
	L4.2,4.8z M13.1,5.7l1.8,0l-0.3,3.3l-0.7,2.7l-0.1,0l-0.3-0.8l-1-3.6L13.1,5.7z M13.8,0.9h-0.7l-0.7,3.7L11.3,8l-0.7,1.3L11,9.2
	L11.3,9l0.9-1.4l0.3,2.5l0.8,2.7l-0.9,1.5l-2.7,3.1h0.3l2.1-1.5l1.7-2l1.6,2.2l1.3,1.2l0.9-1l-1.3-1L14.4,13l1-2.8L16,5.6h1.5
	l-0.2-0.6l-0.4-0.6l-0.5-0.4h-0.3l-1,1.1h-1.9L13.2,5L14,1.9l0.6-0.2V1.2L13.8,0.9z M3.6,0.9L3.3,1.1L2.6,2.3L0.3,5.2h0.3l0.6-0.3
	l0.8-0.6l2.2-2.3l0.5-0.2V1.4L3.6,0.9z M8.5,0.7H7.9v3.4H6V2.9l0.6-0.7V1.9l-1-0.4l-0.5,0v3.3l0.3,0.2h0.4L6,4.9V4.6H8L6.8,7
	L6.6,7.3L6.1,7L5.4,6.9L5.2,7.1l0.5,0.4l0.8,1.4L7,9.2h0.2l-0.9,1.3H5v1L5.6,12l0.2-0.4l2.1-0.3v5.9l0.2,0.2l0.7-0.2l0-6l1.6-0.3
	l0.3,0.6l0.4,0.2l0.4,0l0.2-0.4l-0.1-0.5l-0.4-0.5L9.8,9.1L9.4,9.2l0.8,1.1L7,10.6l2.7-2.7l0.9-0.3V7.2c-0.3-0.5-0.4-0.5-1.1-0.8
	l-2,2.5L7.1,7.8l1.6-2.3h0.6V5L8.7,4.7L8.7,4.6l1.8,0v0.3L10.8,5h0.4l0.2-0.2v-2L12,2.3L12,1.9l-1-0.4l-0.5,0v2.5H8.7l0-2.4l0.7-0.2
	V1.1L8.5,0.7z"/>
</svg>
