<?xml version="1.0" encoding="utf-8"?>
<!-- Generator: Adobe Illustrator 22.0.1, SVG Export Plug-In . SVG Version: 6.00 Build 0)  -->
<svg version="1.1" id="レイヤー_1" xmlns="http://www.w3.org/2000/svg" xmlns:xlink="http://www.w3.org/1999/xlink" x="0px"
	 y="0px" viewBox="0 0 18 18" style="enable-background:new 0 0 18 18;" xml:space="preserve">
<path d="M12.6,9h-0.7v2H9.7l0.2-0.4l0.5-0.2V9.9L9.6,9.5H9.1l-1.2,3.7h0.4l1.2-1.8h2.5v2.2H8.5v0.5h3.4v2.4H6.8V17h10.6v-0.3
	l-0.1-0.3l-0.8-0.7l-0.4,0l-0.8,0.8h-2.6v-2.4h3.7l-0.1-0.5l-0.3-0.4L15.7,13l-0.3-0.1l-0.9,0.8h-1.7v-2.2h4v-0.3l-0.2-0.4l-0.4-0.4
	l-0.4-0.3h-0.3L14.8,11h-2l0-0.9l0.7-0.3V9.4L12.6,9z M14.7,6h-0.5l-0.9,2.2v0.1h-2.5l0.1-0.1l0-0.4l-0.1-0.4l-0.3-0.4L10,6.6
	L9.5,6.3H9l1,2H8L6.5,7.5l-0.1,5.3l-0.6,2l-0.8,1.5l0,0.4h0.1l0.5-0.5l1.4-2.4l0.4-1.6V8.8h10V8.5l-0.1-0.3l-0.8-0.7l-0.2-0.1
	l-0.9,0.9h-1.5L14.7,7l0.8-0.2V6.3L14.7,6z M4.6,5.1h-2L1.2,4.4v12.5l0.2,0.3h0.3l0.3-0.1L2,16.8L2,5.5h2.4L2.9,8.7l1.3,1.6l0.3,0.6
	l0.2,1.4L4.6,13l-0.3,0.3l-0.9-0.2l-0.8,0.2v0.1l0.9,0.4l0.2,0.6l1.1-0.2l0.4-0.3l0.3-0.5l0.1-0.7l0-0.6l-0.2-0.7l-0.3-0.7L4.7,9.9
	L3.4,8.7l2.1-2.8l0.6-0.2L5.9,5.1c-0.4-0.4-0.5-0.4-1-0.6L4.6,5.1z M16.8,5.9V5.6l-0.2-0.4l-0.3-0.3l-0.4-0.3l-0.2,0l-0.8,0.8h-2.5
	V5.1l0.6-0.3V4.5l-1-0.4h-0.6v1.3h-4v0.5H16.8z M6.5,0.8H5.8v1.6H0.6v0.5h5.2l0,0.9l0.3,0.1l0.3,0.1l0.3-0.3V2.9h4.8l0,0.9l0.3,0.2
	l0.4,0l0.1-0.4V2.9h5.1l-0.2-0.6l-0.7-0.7h-0.3l-0.8,0.8h-3.1V1.8l0.7-0.3V1.1l-1.1-0.4l-0.4,0v1.6H6.7V1.8l0.8-0.2V1.1L6.5,0.8z"/>
</svg>
