<?xml version="1.0" encoding="utf-8"?>
<!-- Generator: Adobe Illustrator 22.0.1, SVG Export Plug-In . SVG Version: 6.00 Build 0)  -->
<svg version="1.1" id="レイヤー_1" xmlns="http://www.w3.org/2000/svg" xmlns:xlink="http://www.w3.org/1999/xlink" x="0px"
	 y="0px" viewBox="0 0 18 18" style="enable-background:new 0 0 18 18;" xml:space="preserve">
<path d="M5.2,11h7.9l-2.2,2.2L9.8,14l-0.3,0.1l-0.4,0.1l-0.2,0L8.7,14l-0.8-0.5l-1.7-1.4L5.2,11z M7.1,1.4L6,0.6H5.9l-2,1.1L3.5,1.8
	L2.1,1.5V9l0.1,0.1l0.2,0.1l0.1,0l0.1,0l0.1-0.1L2.9,9L3,8.8l0-0.1l0-0.6h5.6v2.4H1.3V11h3.4L5,11.3C6,13,6.8,13.9,8.1,14.9l0.1,0
	l-3,1.3l-4.8,1v0.1l1.9,0.1l4.5-0.9l1.7-0.7l0.7-0.2l0.2,0l0.8,0.4l4.3,1.3h1.3l1.5-1l0.3-0.1v-0.1l-2-0.1l-4.3-0.9l-0.8-0.3
	l4.3-3.5l0.9-0.2l0.1,0l0.1-0.1l0-0.2l0-0.2l0-0.1l-0.2-0.3l-0.4-0.3l-0.3-0.2l-0.4-0.1h-0.1l-0.1,0l-1,0.9L13,10.6l-3.3-0.1V8.1
	h5.3v0.5l0.4,0l0.3-0.1l0.1-0.1l0.1-0.1l0.1-0.1l0-0.1l0-5.6l0.3-0.1l0.3-0.2l0.1-0.2l0-0.2l0-0.2l0-0.2l-0.2-0.3L16,1.1L15.5,1
	L15,1l-0.3,0.7h-4.2v0.5h4.5v2.4h-4.5V5h4.5v2.6H9.7v-6h0.2L10,1.5l0-0.1l0-0.1V1.3L10,1L10,0.9L9.8,0.8L9.6,0.7l-1-0.1v7H3.1V5.2
	h5.1L8,4.7L7.8,4.5L6.6,3.6l-0.9,1L5.5,4.7L5.3,4.8l-2.2,0V2.4l4-0.6V1.4z"/>
</svg>
