<?xml version="1.0" encoding="utf-8"?>
<!-- Generator: Adobe Illustrator 22.0.1, SVG Export Plug-In . SVG Version: 6.00 Build 0)  -->
<svg version="1.1" id="レイヤー_1" xmlns="http://www.w3.org/2000/svg" xmlns:xlink="http://www.w3.org/1999/xlink" x="0px"
	 y="0px" viewBox="0 0 18 18" style="enable-background:new 0 0 18 18;" xml:space="preserve">
<path d="M8,4.9h7.3v2.2H8V4.9z M7.3,3.7l-0.5,0v7l-0.4,2.3l-0.6,1.6l-1.5,2.4l0.1,0.1l1.2-0.8l0.8-1.1l1.1-2.3L8,10.8h3l-0.3,1.1
	l-0.5,1.3l-0.7,1l-1.1,1.3l-1.3,0.9L6,17l0,0.1l1.3-0.2l2-1.2l0.8-0.8l1.4-2.2l0.4-1l1,2.1l0.8,1l1,1l2.2,1.4l0.8-1.1l-1.3-0.5
	L14.1,14l-0.8-1l-1.1-2.1h5v-0.4l-1.1-1.1L15,10.3h-3l0.1-1.5l0.6-0.2V8.2l-1-0.4h-0.7L11,10.3H8V7.6h7.3l0.2,0.6l0.7-0.2l0.2-0.6
	l0-1.9l0.6-0.5V4.4l-0.8-0.7l-0.5-0.1l-0.4,0.7H8.1L7.3,3.7z M17.4,2.4V1.9l-1.1-1.1l-1.1,1.2H5.7v0.5H17.4z M3.7,0.8H3.1V5H0.7v0.5
	h2.4v3.6L0.7,9.6L0.5,9.8l0.3,1.5l0.4,0.2l0.4-0.6l1.5-0.6v5.1l-0.1,0.3L1,15.3l-0.6,0.2L2,16.4l0.3,0.7L3.2,17l0.6-0.3l0.3-0.4V9.9
	l1.5-0.8l0.6-0.6L6.1,8.4L4.1,8.9V5.4h2.4V5L5.8,4.2L5.2,3.9L4.5,5H4.1l0-3.1l0.8-0.2V1.2L3.7,0.8z"/>
</svg>
