<?xml version="1.0" encoding="utf-8"?>
<!-- Generator: Adobe Illustrator 22.0.1, SVG Export Plug-In . SVG Version: 6.00 Build 0)  -->
<svg version="1.1" id="レイヤー_1" xmlns="http://www.w3.org/2000/svg" xmlns:xlink="http://www.w3.org/1999/xlink" x="0px"
	 y="0px" viewBox="0 0 18 18" style="enable-background:new 0 0 18 18;" xml:space="preserve">
<path d="M9.6,11.9H14v1.9l-4.5,0.4V11.9z M9.6,9.5H14v1.8H9.6V9.5z M9.6,7.2H14V9H9.6V7.2z M16.1,5.6l-0.9,1.1H6v0.5h2.5v6.9l-3,0.3
	l0.1,0.8l0.2,0.4L6,15.7l0.2,0.1l0.2,0L7,15.4l6.9-1l0.1,0l0,0l0.1,0.2L14,17.4l0.2,0.1l0.1,0.1l0.1,0l0.2,0l0.1-0.1l0.1-0.1
	l0.1-0.1l0.1-0.3l0-2.7l1.4-0.1l1.1-0.4v-0.1l-2.5,0.1V7.2h2.5l-0.1-0.4l-0.9-1.1l-0.2-0.1L16.1,5.6z M9.4,1.8h5.1v2.4H9.4V1.8z
	 M14.4,0.6l0,0.7L9.6,1.2L8.4,0.8L8.3,5.4l0.1,0.3l0.1,0.1l0.1,0.1l0.2,0l0.3-0.1l0.1-0.1l0.1-0.1l0.1-0.2l0-0.2l0-0.6h5.1v0.5
	l0,0.1l0.1,0.1l0.1,0.1l0.1,0l0.1,0l0.1-0.1l0.2-0.2L15.4,5l0.1-0.5L15.5,2L16,1.8L16,1.6l-0.1-0.3l-0.1-0.1l-0.8-0.5l-0.3,0
	L14.4,0.6z M3,0.4l0,4H0.8l0,0.2l0,0.1l0.1,0.1l0.1,0.1l0.2,0.1l1.6-0.1L2.5,6.6l-1.1,3.6l-1,2l0.3-0.1l0.2-0.1l0.2-0.2l1.9-3V17
	l0,0.1l0.1,0.1l0.2,0.1l0.2,0l0.2,0l0.1-0.1L3.9,17l0.1-0.1L4,16.7l0-8.1l0.1,0.1l1.6,1.9L6,10.7l0.1,0l0.1,0l0.2,0l0.1-0.1l0.1-0.1
	l0.2-0.3l0-0.2l0-0.1L6.6,9.5L6,9L5.2,8.4L4.3,8.2L4,8.1V4.9h3.1L6.7,4.1L6.3,3.7L5.6,3.2L5.3,3.8L4.8,4.2L4.5,4.4l-0.2,0L4,4.4V1.4
	h0.2l0.1-0.1l0.1-0.1l0-0.1l0-0.1V1l0-0.1L4.4,0.7L4.3,0.7L4.1,0.6L3,0.4z"/>
</svg>
