<?xml version="1.0" encoding="utf-8"?>
<!-- Generator: Adobe Illustrator 22.0.1, SVG Export Plug-In . SVG Version: 6.00 Build 0)  -->
<svg version="1.1" id="レイヤー_1" xmlns="http://www.w3.org/2000/svg" xmlns:xlink="http://www.w3.org/1999/xlink" x="0px"
	 y="0px" viewBox="0 0 18 18" style="enable-background:new 0 0 18 18;" xml:space="preserve">
<path d="M10.2,14h2.9l0,0.1l-0.3,0.4l-0.4,0.3L12,14.9L11.6,15L11.2,15l-0.3-0.1l-0.2-0.1L10.2,14z M9.1,10.9h5.8v1.1H9.1V10.9z
	 M9.1,9.3h5.8v1.1H9.1V9.3z M9.1,7.7h5.8v1.1H9.1V7.7z M14.9,12.9l0.4,0l0.3-0.1l0.2-0.3l0.1-0.2l0-4.4l0.3-0.4l0-0.1l0-0.1
	l-0.1-0.2l-0.1-0.1l-0.3-0.1l-0.6,0l-0.3,0.3H9.1L8.1,7v5.9l0.3,0.1h0.2l0.7-0.4l0.1,0l0.3,0L9,13.2l-2.8,1.9l-1.7,0.6v0.1l0.3,0.1
	l0.3,0l3.3-1.2l1-0.6L9.5,14l0.1,0l1.1,1.5l0.1,0.2l-4.9,1.5l-0.7-0.1l-0.4,0.1l-0.3,0l-0.1,0L4,17.4v0.1l0.5,0.2l2.8-0.2l4.3-1.2
	l0.3,0.1l0.4,0.2c1.5,0.8,2.2,1,3.3,1l0.2,0l0.3-0.1l1.3-0.9l0-0.1l-0.2,0.1h-0.1l-4.8-0.8l0,0l0.6-0.5l2.2-0.9L15,13.8l-0.3-0.4
	l-0.2-0.1l-0.2-0.1l-0.3,0l-1,0.3l-2.8,0l0.8-0.2l-0.8-0.7h4.6V12.9z M5.6,1.3L5,2L4.9,2.1L4.4,2.3L0.9,2.2v0.5H3l0.1,3.9L3,6.9L3,7
	L2.9,7L2.7,7.1l-1.8,0v0.5H3v4.7l-2.4,0.6L0.6,13l0.6,1.1l0.1,0.2l0.2,0l0.1,0l0.5-0.5l5.6-2.4l0-0.1L4,12V7.5h2.9L6.9,7.3L6.6,6.9
	L6.3,6.7L5.6,6.3L5.2,6.8L4.9,6.9L4.7,7l-0.3,0H4V2.7h3.1L6.7,2L6.4,1.6L6.1,1.4L5.8,1.3L5.6,1.3z M9,2.2h3.3l-0.1,0.7L12,3.2
	l-0.1,0.1l-0.1,0.1l-0.2,0.1l-2.9,0L8.2,3.3L9,2.2z M8.8,0.2L7.5,2.9L5.6,5.6H6L7.6,4l0,2.3l0.1,0.4L7.8,7L7.9,7l0.1,0l0.1,0
	l0.1-0.1l0.2-0.1l0.1-0.2l0.1-0.3l0-2.3h3.1l-2,2.2L9.3,6.4L9,6.4l0,0.1l0.8-0.1l0.8-0.3l1.3-0.9L12,5.2L12.1,5l1.5,0.9l0.9,0.9
	l0.1,0l0.1,0l0.1-0.1l0.2-0.2l0.1-0.2l0-0.2l0-0.2l-0.1-0.1L15,5.7l-0.1-0.1l-0.3-0.2l-1.6-0.6l-0.5,0l0.3-0.5l0.2-0.2l0.3-0.1
	l0.6-0.1L15.5,4v2.8h0.4l0.3-0.1l0.1-0.1l0.1-0.1l0.1-0.2l0-2.2l0.6-0.3l-0.3-0.5l-0.3-0.3l-0.7-0.4L15.8,3l-0.2,0.3l-0.1,0.1
	L15,3.5l-2.5,0l0-0.1l0.5-0.6l1-0.8l0-0.1l0-0.1l-0.8-0.7l-0.2-0.1l-0.2,0L12.7,1l-0.4,0.7l-2.9,0v0l0.2-0.3l0.1,0l0.1-0.1l0.3,0
	l0.1-0.4L8.8,0.2z"/>
</svg>
