<?xml version="1.0" encoding="utf-8"?>
<!-- Generator: Adobe Illustrator 22.0.1, SVG Export Plug-In . SVG Version: 6.00 Build 0)  -->
<svg version="1.1" id="レイヤー_1" xmlns="http://www.w3.org/2000/svg" xmlns:xlink="http://www.w3.org/1999/xlink" x="0px"
	 y="0px" viewBox="0 0 18 18" style="enable-background:new 0 0 18 18;" xml:space="preserve">
<path d="M4.8,10.5L5,11l0,0.1c0,0.1,0,0.1,0.1,0.2l0.1,0.4c0.1,0.3,0.1,0.5,0.1,0.8V13v0.4c0,0.5,0.2,0.8,0.5,0.8
	c0.4,0,0.7-0.5,0.7-1c0-0.8-0.2-1.4-0.8-2.2l-0.6-0.6H4.8z M13.6,11.2l-0.3,0.6c-0.2,0.4-0.7,1.1-1.2,1.6l-0.3,0.3l-0.4-0.3
	c-0.6-0.5-1-1.1-1.3-1.5l-0.1-0.2c-0.1-0.2-0.1-0.2-0.2-0.4H13.6z M14.7,12c0.2-0.1,0.3-0.1,0.4-0.2l0.3-0.2
	c0.2-0.1,0.3-0.2,0.3-0.3l0-0.1L15.6,11c-0.4-0.4-0.8-0.8-1.1-0.8h0c-0.1,0-0.3,0.2-0.6,0.6H8.3v0.5h0.9l0.2,0.6
	c0.3,0.8,0.8,1.5,1.2,2l0.5,0.4l-0.4,0.4c-0.6,0.6-1.5,1.2-2.7,1.7l-1.4,0.6l0.1,0.2l1.4-0.4c1.4-0.5,1.9-0.7,3-1.4l0.6-0.4l2.6,1.5
	c0.5,0.2,0.6,0.3,0.8,0.3c0.1,0.1,0.3,0.1,0.8,0.3l0.3,0.1c0.3,0,0.4-0.1,0.4-0.3v-0.2c0-0.1,0.1-0.2,0.3-0.4l0.3-0.2
	c0.2-0.1,0.2-0.1,0.4-0.2v-0.1l-0.7-0.1l-0.2,0l-0.1,0c-1.2-0.2-1.5-0.3-3.1-1.1l-0.9-0.4L14.7,12z M2.8,10.5l-1.1-0.3l-0.1,0.6
	c-0.1,1.3-0.5,2.7-1,3.8l-0.3,0.6l0.2,0.2l0.6-0.8c0.3-0.6,0.4-0.6,0.6-1.2l0.9-2l0.1-0.1l0.1-0.1C3,11,3.1,10.9,3.1,10.8L3,10.6
	L2.8,10.5z M13.3,7.1h2v2h-2V7.1z M10.6,7.1h1.8v2h-1.8V7.1z M7.9,7.1h1.8v2H7.9V7.1z M15.1,6.6H8.5L6.9,6.3v4
	c0,0.3,0.2,0.4,0.4,0.4c0.1,0,0.2,0,0.4-0.2l0.2-0.2V9.6h7.3v0.6l0.1,0.2l0.1,0.1c0.1,0.1,0.2,0.1,0.2,0.1c0.3,0,0.6-0.3,0.6-0.7
	V7.8l0.1-0.1l0.1-0.1c0.2-0.1,0.3-0.3,0.3-0.4c0-0.3-0.4-0.6-1-0.9l-0.2-0.1h-0.1h0h0l-0.1,0l-0.2,0.2L15.1,6.6z M13.9,4.2v1.1H8.9
	V4.2H13.9z M13.9,2.5v1.2H8.9V2.5H13.9z M9.4,2L7.8,1.4V6l0,0.1l0.1,0.1c0.1,0.2,0.2,0.3,0.4,0.3c0.3,0,0.5-0.2,0.6-0.6h4.9l0,0.1
	L14,6.1c0.1,0.2,0.2,0.3,0.4,0.3c0.3,0,0.5-0.2,0.6-0.5V2.8l0.2-0.1l0.1-0.1l0.1-0.2l0.1-0.1l0-0.1V2.1c0-0.1-0.1-0.1-0.2-0.2
	C15.1,1.8,15,1.8,15,1.8l-0.1-0.1l-0.4-0.2c-0.1,0-0.1-0.1-0.2-0.1h-0.1c-0.1,0-0.3,0.2-0.5,0.6H9.4z M3.8,0.7L3.3,2.2L3.2,2.6
	L3,2.9L3,3.2c0,0-0.1,0.1-0.1,0.2L2.5,4.1l-1-0.5L1.3,3.7l0.5,0.8C2,4.8,2.1,5.2,2.1,5.6c0.1,0.7,0.1,0.8,0.6,0.9l0.1,0h0l0,0h0.1
	L1.3,8.4H0.4l0.4,1.2c0,0.2,0.1,0.3,0.2,0.3c0.1,0,0.2-0.1,0.4-0.2l0.2-0.2c0.1-0.1,0.1-0.1,0.2-0.3L3.2,9v7.9l0,0.1l0,0l0,0.1
	l0.1,0.1c0.2,0.1,0.3,0.2,0.4,0.2c0.1,0,0.2,0,0.3-0.1L4.1,17l0.1-0.4V8.7L5,8.5c0,1,0.2,1.4,0.7,1.4c0.3,0,0.6-0.3,0.6-0.7
	c0-0.3-0.3-1-0.5-1.4C5.5,7.4,5.3,7.2,5,7.1L4.9,7L4.8,7L4.6,6.9H4.3l0.4,0.5C4.8,7.5,4.9,7.7,5,8l0,0.1L2.2,8.4l2.8-3.1l0.1-0.2
	l0.6-0.5L6,4.6c0.3-0.2,0.5-0.3,0.5-0.5c0-0.1-0.1-0.2-0.2-0.4l-1-0.6l-2,2.7V5.7l0-0.1c0-0.2-0.1-0.3-0.2-0.6L2.9,4.6l1.6-2.3
	l0.2,0l0.1-0.1C5.1,2.1,5.3,2,5.3,1.8l0-0.1L5.1,1.6L3.8,0.7z"/>
</svg>
