<?xml version="1.0" encoding="utf-8"?>
<!-- Generator: Adobe Illustrator 22.0.1, SVG Export Plug-In . SVG Version: 6.00 Build 0)  -->
<svg version="1.1" id="レイヤー_1" xmlns="http://www.w3.org/2000/svg" xmlns:xlink="http://www.w3.org/1999/xlink" x="0px"
	 y="0px" viewBox="0 0 18 18" style="enable-background:new 0 0 18 18;" xml:space="preserve">
<path d="M8.5,6.6h6.1v1.7H8.5V6.6z M8.5,4.7h6.1v1.5H8.5V4.7z M7.4,3.4v6.1l0.2,0.1l0.3,0.1l0.2-0.1l0.3-0.2V9l0-0.1l0.1-0.1l0.1,0
	l0.2,0l0.2,0l-0.8,1.6l-2.3,3L6,13.5l1.3-0.9l-0.1,2.9l0.1,0.3l0,0.1L7.5,16l0.1,0.1l0.3,0l0.1,0l0.3-0.2v-0.6h6.6l-0.2-0.6
	l-0.3-0.4l-0.2-0.1h-0.1l-0.2,0.1l-0.1,0.1l-0.4,0.5H8.3l0-1.9l0-0.2l0-0.1l0.1-0.1l0.1,0l0.1,0l0.3,0l-0.1-0.4L8.8,12l-0.1-0.1
	l-0.5-0.2L8.8,11l0.3-0.1l0.3,0l1.8,0.2l-0.5,1l-1.7,2.2L9,14.3l1.6-1l0.7-1l0.2,0.1l0.3,0.2l1.2,1.8l0.5,0l0.1-0.2l0-0.1l0-0.2
	l-0.1-0.3l-0.1-0.3l-0.2-0.2l-1.8-1l0.1-0.3l0.9,0v-0.5l-0.3,0l-0.7-0.2l-0.1-0.1L11.6,11h4.1l-0.4,3.2c-0.1,0.7-0.2,0.8-0.4,1.5
	l-0.1,0.1l-0.1,0.1l-0.2,0.1l-0.2,0l-2.1-0.2v0.1l1.8,0.8l0.2,0.6l0.6,0l0.3-0.1l0.3-0.2l0.2-0.2l0.2-0.2l0.1-0.3l0.7-4l0.2-0.5
	l0.7-0.7l-1-1.2l-0.1-0.1l-0.1,0l-0.1,0l-0.1,0l-0.1,0.1l-0.2,0.2l-0.2,0.3H9.2L9.6,10l0.3-0.2l0.1,0l0.6,0l0.2-0.3L9.8,8.8h4.8
	l0,0.2l0,0.2l0.1,0.2l0.1,0.1L15,9.6l0.2,0l0.1-0.1l0.1-0.1l0.1-0.1l0.1-0.4l0-3.6L16.4,5V4.7l-1-1.1l-0.1,0l-0.1,0l-0.1,0L15,3.6
	l-0.5,0.6H8.8L7.4,3.4z M2.3,6.5h2.3v3.8H2.3V6.5z M2.3,2.2h2.3V6H2.3V2.2z M1.3,0.8V12L1,14.7l-0.6,1.6l0,0.4h0.1l1-1.3l0.4-1
	L2.2,13l0.1-2.2h2.3l0,4.4l0,0.1l-0.1,0.1l-0.3,0.1l-1.9,0v0.1l1.1,0.4l0.3,0.2l0.4,0.7l0.6,0.1l0.2-0.1l0.5-0.5L5.6,16l0-13.5
	l0.4-0.1l0.2-0.2l0.1-0.1L6.3,1.9L5.6,1.2L5.5,1.1l-0.3,0L5.1,1.2L4.3,1.7L4,1.8L3.5,1.9L3,1.8L2.4,1.5L1.3,0.8z M9.2,0.6l0,1.4H6.6
	l0,0.3l0.1,0.2l0.1,0.1l0.1,0l2.3-0.1v1.3l0.2,0.1l0.1,0l0.2,0l0.2,0l0.3-0.2l0-1.2l2.5-0.1l0.1,0l0,0.1l0,0l0,1.2L13,3.9l0.1,0
	l0.2,0l0.2,0l0.3-0.3l0.1-1.1l0-0.1L14,2.4l0.1-0.1l3.2,0.1L17,1.8l-0.8-0.9l-0.8,0.9l-0.2,0.1L14.9,2h-1.1V1.5l0.7-0.3V0.9
	l-1.8-0.3l0,1.4l-0.1,0.1l-0.1,0.1L10.3,2l0-0.5L11,1.3V0.8L9.2,0.6z"/>
</svg>
