<?xml version="1.0" encoding="utf-8"?>
<!-- Generator: Adobe Illustrator 22.0.1, SVG Export Plug-In . SVG Version: 6.00 Build 0)  -->
<svg version="1.1" id="レイヤー_1" xmlns="http://www.w3.org/2000/svg" xmlns:xlink="http://www.w3.org/1999/xlink" x="0px"
	 y="0px" viewBox="0 0 18 18" style="enable-background:new 0 0 18 18;" xml:space="preserve">
<path d="M2.2,12.2l3.3,0v3.3H2.2V12.2z M1.1,10.9v6.3l0.1,0.1l0.2,0.1l0.1,0l0.2,0l0.1-0.1L2,17.2L2,17.1L2.1,17l0.1-1l0-0.1
	l0.2-0.1l3,0.1v0.7h0.4l0.3-0.1l0.2-0.2l0.2-1.1l0-2.9h0.3l0.1-0.1l0-0.1v-0.3l-0.1-0.2l-0.1-0.2l-0.2-0.2l-0.2-0.1l-0.7,0l-0.2,0.1
	l-0.1,0.2l0,0.3l-2.4,0.1L1.1,10.9z M9.8,12l2.6,0v2H9.8V12z M12.3,9.9v1.6l-1.9,0.1l-0.2,0l-1.5-0.6l0.1,3l0,0l0,0l-0.1,0L7,14v0.5
	h5.4v3.1l0.6,0l0.1-0.1l0.1-0.1l0.1-0.2l0.1-0.3v-2.3h4.1l-0.3-0.7l-0.3-0.3l-0.5-0.4l-0.8,0.8L15.3,14l-0.3,0.1l-0.4,0L13.4,14
	v-1.6l0.1-0.3l0,0l0.1-0.1l0.2-0.1l3.2,0.1l-0.3-0.7L16.2,11l-0.6-0.4l-0.5,0.6l-0.4,0.3l-0.2,0.1l-1.3,0l0-0.3l0.1-0.1l0.6-0.4
	l-0.1-0.6L12.3,9.9z M5.6,8.3L4.9,9.1L4.8,9.2L4.5,9.3L1,9.2v0.5h5.9L6.5,9L6.1,8.5L5.9,8.4L5.8,8.3L5.6,8.3z M9.8,7.2h4.5v2H9.8
	V7.2z M14.7,6l-0.4,0.7L9.9,6.6L8.8,6.1L8.7,9.6l0.1,0.4l0.1,0.1L9,10.3l0.1,0.1l0.2,0l0.2,0l0.1-0.1L9.7,10l0.1-0.3h4.5l0,0.2
	l0.1,0.2l0.1,0.1l0.2,0l0.2-0.1l0.2-0.2l0.1-0.1l0.1-0.1l0.1-1.9l0.3-0.3L15.9,7l-0.1-0.2l-0.1-0.2l-0.6-0.5L14.9,6L14.7,6z
	 M5.6,5.8L4.9,6.7H1.1v0.5h5.7L6.5,6.4L6.1,6L5.9,5.9L5.8,5.8L5.6,5.8z M6.5,3.3L5.8,4.2H0.5v0.5h7.5L7.8,4L7.6,3.9L6.8,3.3l-0.1,0
	L6.5,3.3z M5.8,0.9L5.1,1.7L5,1.8L4.5,1.9L1,1.9v0.5h6L6.6,1.6L6.3,1.2L6.1,1L5.9,1L5.8,0.9z M12,2.9h2.1v2h-2.5L12,2.9z M11.4,0.4
	l-0.4,2H8.2v0.5h2.8l-0.4,2H7.3v0.5h10.2l-0.2-0.5l-0.1-0.2l-0.2-0.2l-0.6-0.3l-0.6,0.7l-0.1,0.1l-0.1,0l-0.3,0l-0.1-1.4l0-0.2
	l0-0.1l0.5-0.4l0.1-0.3l-1.3-0.7l-0.6,0.5l-0.3,0.1l-0.4,0l-1.1-0.1l0.1-0.4l0-0.1L13,1.3L12.9,1l-0.1-0.1l-0.1-0.1l-1.1-0.4
	L11.4,0.4z"/>
</svg>
