<?xml version="1.0" encoding="utf-8"?>
<!-- Generator: Adobe Illustrator 22.0.1, SVG Export Plug-In . SVG Version: 6.00 Build 0)  -->
<svg version="1.1" id="レイヤー_1" xmlns="http://www.w3.org/2000/svg" xmlns:xlink="http://www.w3.org/1999/xlink" x="0px"
	 y="0px" viewBox="0 0 18 18" style="enable-background:new 0 0 18 18;" xml:space="preserve">
<path d="M1.7,12.2h3v3.5h-3V12.2z M4.8,11.2l-0.1,0.3l-0.1,0.1l-0.4,0.1H2.1l-0.9-0.4l-0.3-0.1v6.3l0.4-0.1l0.2-0.1l0.1-0.1l0.1-0.1
	l0.1-0.1l0-0.2l0-0.8h3v0.7h0.4l0.3-0.1l0.2-0.2l0.2-1.2l0-2.9l0.5-0.3l-0.2-0.4L6,11.7l-0.8-0.5L5,11.1L4.8,11.2z M4.7,7.9L4,8.8
	L3.8,8.9L3.4,9L1.2,9v0.5h5L6,9.2L5,8L4.9,7.9L4.7,7.9z M4.7,5.4L4,6.2L3.9,6.3L3.6,6.4L1,6.3v0.5h5L5.6,6.1L5.2,5.6L5,5.5L4.9,5.4
	L4.7,5.4z M10.1,11.3l3.5,0V14h-3.5V11.3z M7.1,5.2v12l0.1,0.1l0.3,0.1l0.2,0l0.1-0.1L8,17.2l0.1-0.3l0-10.4h3.2v2H8.5V9h2.8v1.8
	l-1.1,0l-0.9-0.4v5.4l0.3,0l0.3-0.1l0.2-0.2l0.1-0.1l0-0.1v-0.7h3.5l0,0.5l0.1,0.1l0.1,0.1l0.1,0.1l0.1,0.1l0.1,0l0.1,0l0.1-0.1
	l0.1-0.1l0.1-0.2l0.1-0.5l-0.1-3l0.3,0l0.1-0.1l0.1-0.1l0-0.2L15,10.8l-0.1-0.1l-0.1-0.1l-0.3-0.1l-0.8,0v0.3h-1.4L12.4,9l0-0.1
	l0.1-0.1l0.2-0.1L15.9,9l-0.4-0.7L15.2,8l-0.5-0.4l-0.5,0.6l-0.4,0.3l-0.2,0.1l-0.4,0l-0.8-0.1v-2h3.6v8.9L15.9,16l-2.3,0.1v0.1
	l1.5,0.7l0.1,0.1l0,0.1v0.5l0.8-0.1l0.4-0.2l0.6-0.5l0.1-0.2v-10l0.1,0l0.1,0l0.1-0.1l0-0.1l0-0.4l-0.1-0.2l-0.1-0.2l-0.2-0.2
	l-0.1-0.1l-0.2-0.1l-0.4,0l-0.2,0.1L16,5.5l-0.1,0.1L15.8,6H8.6L7.1,5.2z M9.1,3.1l0.8,1.5l0.3,0.9l0.1,0.1l0.3,0.1l0.2,0L11,5.5
	l0.1-0.1l0.1-0.2l0-0.3l0-0.3l-0.1-0.2L10.9,4l-0.3-0.3L9.8,3.2L9.3,3.1H9.1z M13.7,2.9l-1.5,3h0.4l0.1-0.3l0.5-0.6l2-1.3l-0.1-0.3
	l-0.1-0.1L15,3.3l-1-0.4h-0.1L13.7,2.9z M5.8,2.7L5,3.7L4.8,3.8L4.5,3.9L0.6,3.8v0.5h6.6L7.1,4L6.2,2.9L6,2.7L5.8,2.7z M5,0.5
	L4.4,1.2L4.2,1.3L3.7,1.5l-1,0.1L1,1.4V2h5.3L5.9,1.2L5.5,0.8L5.3,0.6L5.2,0.6L5,0.5z M11.3,0.4v1.9H6.8v0.5h10.5l-0.1-0.3l-0.5-0.7
	l-0.5-0.4l-0.4-0.1L15,2.2l-0.1,0.1l-0.3,0.1h-2.2v-1l0.1,0l0.1,0l0.1-0.1l0.1-0.2V0.9l0-0.1l-0.1-0.1l-0.2-0.1l-0.8-0.1L11.3,0.4z"
	/>
</svg>
