<?xml version="1.0" encoding="utf-8"?>
<!-- Generator: Adobe Illustrator 22.0.1, SVG Export Plug-In . SVG Version: 6.00 Build 0)  -->
<svg version="1.1" id="レイヤー_1" xmlns="http://www.w3.org/2000/svg" xmlns:xlink="http://www.w3.org/1999/xlink" x="0px"
	 y="0px" viewBox="0 0 18 18" style="enable-background:new 0 0 18 18;" xml:space="preserve">
<path d="M2.8,12.3H5v3.3H2.8V12.3z M6,12.5c0.4-0.2,0.5-0.3,0.5-0.4c0-0.3-0.8-0.9-1.2-0.9c-0.1,0-0.3,0.1-0.6,0.6H2.9
	c-0.5-0.3-0.6-0.4-1.2-0.6v5.4c0,0.5,0,0.5,0.1,0.6l0.2,0.1c0.2,0,0.3-0.1,0.7-0.4v-0.8H5v0.3c0,0.4,0,0.4,0,0.5
	C5.1,16.9,5.2,17,5.4,17c0.2,0,0.3-0.1,0.7-0.4V12.5z M4.3,9H1.7v0.5h4C5.9,9.4,6,9.4,6,9.3c0-0.2-0.2-0.4-0.6-0.7
	C5.4,8.4,5.3,8.4,5,8.1L4.3,9z M1.6,6.9h4.2c0.2,0,0.4-0.1,0.4-0.3c0-0.2-0.4-0.6-1-1.2l-0.9,1H1.6V6.9z M4.9,4.1H0.5v0.5h5.9
	c0.3,0,0.4-0.1,0.4-0.2c0-0.2-0.4-0.7-1.1-1.2L4.9,4.1z M8.9,6.3c0.3,0.3,0.4,0.4,0.7,0.9C8.9,7.3,8.8,7.3,8,7.4L8.9,6.3z M9.6,3.2
	c-1.9,3.5-2,3.6-2.4,4.3C6.6,7.6,6.5,7.7,5.9,7.7C6,8,6.1,8.1,6.1,8.1c0.4,0.9,0.4,0.9,0.5,0.9s0.2-0.1,0.4-0.5l2.7-1
	C9.8,7.8,9.8,7.8,9.9,8C10,8.6,10,8.6,10,8.6c0.1,0.1,0.3,0.2,0.4,0.2c0.3,0,0.6-0.4,0.6-0.8c0-0.8-0.6-1.4-1.9-2
	C9.6,5.4,9.9,5,10.6,4.2C10.9,4.2,11,4.1,11,3.9c0-0.2-0.2-0.3-0.8-0.6c-0.1,0-0.1-0.1-0.4-0.2L9.6,3.2z M1.7,2.4H6
	c0.2,0,0.4-0.1,0.4-0.3c0-0.1-0.3-0.4-0.8-0.9c0,0-0.1-0.1-0.4-0.3L4.3,2H1.7V2.4z M12.3,3c0.4,0.5,0.5,0.8,0.7,1.4
	c0.2,0.8,0.4,1.1,0.7,1.1c0.3,0,0.6-0.4,0.6-0.8c0-0.4-0.2-0.7-0.5-1L14,3.3l1-1C15,2.2,15.1,2.1,15.2,2c0.4-0.1,0.5-0.2,0.5-0.3
	c0-0.2-0.2-0.3-0.8-0.7c-0.1-0.1-0.2-0.1-0.4-0.3c-0.3,0.8-0.7,1.6-1.1,2.6C13,3.1,12.9,3,12.5,2.9L12.3,3z M14.9,5.7
	c0.4,0.4,0.5,0.5,0.7,1c-0.7,0.1-0.8,0.1-1.6,0.3C14.3,6.5,14.6,6.2,14.9,5.7z M12.3,9.3V1.9c0.4-0.1,0.5-0.3,0.5-0.5
	c0-0.3-0.5-0.4-1.6-0.5v8.4H8.7C8.2,9,8.1,9,7.5,8.7v2.9c0,2-0.2,3.7-0.8,5.3L7,17c1-1.8,1.4-3.1,1.6-5.2c0.6,0.5,0.9,0.9,1,1.2
	c0.3,1.1,0.3,1.1,0.4,1.2l0.3,0.1c0.3,0,0.7-0.4,0.7-0.9c0-0.9-0.8-1.6-2.4-2.1V9.8h2.7c0.1,1.6,0.4,2.8,1.2,4.1
	c-1.1,1.3-2.1,2.1-4.1,3.3l0.1,0.2c1.8-0.6,2.7-1.2,4.6-2.6c0.7,0.8,1.1,1.2,1.9,1.8c0.6,0.4,1.3,0.7,1.6,0.7c0.3,0,0.4-0.2,0.4-0.4
	l0-0.2c-0.3-0.9-0.4-1.5-0.4-2.2c0-0.3,0-0.5,0.2-1.8l-0.2,0l-0.1,0.3c-0.5,1.9-0.7,2.3-0.9,2.3c-0.1,0-0.3-0.1-0.6-0.3
	c-0.4-0.3-0.6-0.5-1-1.1c0.2-0.3,0.4-0.6,0.7-1c0.4-0.6,0.4-0.6,0.8-1.2c0.4,0,0.5-0.1,0.5-0.3c0-0.2-0.2-0.3-1-0.7
	c-0.1-0.1-0.3-0.1-0.6-0.3c-0.3,1.1-0.6,1.8-1.1,2.7c-0.7-1-0.9-1.9-1-3.2H17c0.2,0,0.3-0.1,0.3-0.2c0-0.3-0.2-0.5-0.9-1.2l-0.1-0.1
	l-0.9,1h-0.2c0.2-0.1,0.3-0.3,0.3-0.5c0-0.4-0.3-0.6-1.4-1l1.7-0.8c0.1,0.1,0.1,0.2,0.2,0.3c0.2,0.4,0.3,0.6,0.4,0.6
	c0.1,0.1,0.2,0.1,0.3,0.1c0.3,0,0.5-0.4,0.5-0.9c0-0.6-0.7-1.3-1.9-1.6l-0.1,0L15,5.5c0.8-1.1,0.9-1.2,1.4-1.8
	c0.4,0,0.6-0.1,0.6-0.3c0-0.2-0.3-0.4-1.3-0.8l-0.2-0.1c-0.8,2-1.4,3.3-2.2,4.6c-0.4,0.1-0.4,0.1-0.8,0.1c0.1,0.2,0.2,0.3,0.2,0.4
	c0.5,1,0.5,1,0.6,1c0.1,0,0.2-0.1,0.3-0.3L13.7,8c0.4,0.4,0.4,0.4,0.8,0.9c0.2,0.2,0.3,0.3,0.4,0.4H12.3z M8.6,0.8
	C8,2.3,7.8,2.6,7.6,3.1c-0.4-0.2-0.4-0.2-1-0.4L6.5,2.8l0.1,0.1c0.5,0.6,0.7,1,0.8,1.4C7.5,5,7.6,5.2,7.9,5.2c0.3,0,0.6-0.3,0.6-0.8
	c0-0.4-0.2-0.7-0.5-1c0.1-0.1,0.5-0.5,1.1-1.1c0,0,0.2-0.2,0.4-0.3c0.4,0,0.6-0.1,0.6-0.3s-0.3-0.4-1.3-1L8.6,0.8z"/>
</svg>
