<?xml version="1.0" encoding="utf-8"?>
<!-- Generator: Adobe Illustrator 22.0.1, SVG Export Plug-In . SVG Version: 6.00 Build 0)  -->
<svg version="1.1" id="レイヤー_1" xmlns="http://www.w3.org/2000/svg" xmlns:xlink="http://www.w3.org/1999/xlink" x="0px"
	 y="0px" viewBox="0 0 18 18" style="enable-background:new 0 0 18 18;" xml:space="preserve">
<path d="M2.8,8.6h3.6l0,1.2l-3.6,0.8V8.6z M2.8,6.1h3.6v2H2.8V6.1z M2.8,3.6h3.6v2H2.8V3.6z M5,0.3H4.5L4.1,3.1H3.2L1.8,2.6v8.1
	l-1.2,0.2v0.4l0.6,1.3h0.1L1.4,12L6,10.5l-0.7,1l-2,2.4l-2.6,2.3l0.1,0.1l0.5-0.1l3-2.1l2.1-2.3h0.1l0,3.9L6.2,16l-0.2,0.1L4.7,16
	l-0.9,0.2v0.1l1.5,0.6l0.3,0.6h0.6l0.6-0.1L7.2,17l0.2-0.4l0-6l1-1.6l0.7-0.2l-0.3,1.8L9,10.9L9.4,11L9.8,11l0.1-0.5h6l-0.3,3.4
	l-0.5,1.5l-0.3,0.4L12,16.1v0.1l1.6,0.5l0.3,0.6l0.5-0.1l0.7-0.2l0.9-0.9l0.3-0.8l0.2-1l0.4-3.5l0.4-0.4v-0.3l-0.8-0.8h-0.4L16,10
	h-5.9l0.4-3.3h4.9v0.5l0.1,0.1l0.4,0.1l0.4-0.2l0.1-0.3V3l0.4-0.5V2.3l-0.3-0.5l-0.5-0.4h-0.4l-0.4,0.6H8.3v0.5h7v3.6h-4.4L9.5,5.4
	L9.2,8.3L8.3,7.6H7.9L7.5,8.7H7.4l0-4.7l0.4-0.4V3.2L7.1,2.6H6.7L6.3,3.1H4.8l0.8-1.6l0.6-0.3V0.9L5,0.3z"/>
</svg>
