<?xml version="1.0" encoding="utf-8"?>
<!-- Generator: Adobe Illustrator 22.0.1, SVG Export Plug-In . SVG Version: 6.00 Build 0)  -->
<svg version="1.1" id="レイヤー_1" xmlns="http://www.w3.org/2000/svg" xmlns:xlink="http://www.w3.org/1999/xlink" x="0px"
	 y="0px" viewBox="0 0 18 18" style="enable-background:new 0 0 18 18;" xml:space="preserve">
<path d="M9.7,11.4h4.8v1.5H9.7V11.4z M3.8,11.4h4.8v1.5H3.8V11.4z M6.8,7.8h4.8v1.3H6.8V7.8z M6.8,7.3V6.6l0.6-0.3V6l-1-0.3H5.8v1.6
	H1v0.5h4.8v2.3L6,10.4l0.6,0L6.8,10V9.6h1.8v1.3H4.4l-1.6-0.8v3.7l0.4,0.3h0.4l0.3-0.3l0-0.5h4.8v1.3H0.6v0.5h8.1v2.1l0.3,0.2h0.4
	l0.3-0.2v-2.1h7.9l0-0.4l-0.2-0.4L17.1,14l-0.4-0.4l-0.4-0.1l-0.9,1.1H9.7v-1.3h4.8v0.5l0.3,0.1h0.4l0.3-0.3l0-2l0.6-0.2
	c-0.3-1-0.4-1.1-1.3-1.4l-0.4,0.7H9.7V9.6l2,0v0.5l0.4,0.1l0.3-0.1l0.3-0.3v-2h4.8V7.4L17.2,7l-0.3-0.4l-0.4-0.3l-0.4,0l-0.8,1.1
	h-2.6V6.6l0.5-0.2l0.1-0.3l-1.1-0.5h-0.5v1.7H6.8z M10.9,2.5l-0.4,0.1l1.4,2l0.4,0l0.4-0.1l0.1-0.4l-0.1-0.4l-0.4-0.4L10.9,2.5z
	 M8,2.1l0-0.4L7.8,1.2L7.5,0.9L7.2,0.7L6.8,0.7L6.1,1.6H0.7v0.5h3.1l0,2.3l-0.1,0L0.4,5v0.1h0.2l0.3,1.1h0.4l0.1-0.4l4-0.9L7.6,4
	V3.9L4.9,4.3V2.1H8z M13.7,0.5l-0.4,0.7h-2.6L9.1,0.7L8.9,3.2L8.6,3.9L8.1,4.5L6.7,5.6v0.1l0.4,0l0.8-0.3l1.3-0.8l0.4-0.5l0.3-0.6
	l0.2-0.9l0-0.9h3.3l0,3.2l0.1,0.2l0.2,0.2l2.4,0.1l0.8-0.2l0.3-0.2l0.1-0.3l-0.3-0.7l-0.3-1.8h-0.1l-0.6,1.8l-0.4,0.3h-0.9l-0.1-0.1
	l-0.2-0.2V2L15,1.9c-0.3-0.9-0.4-1-1-1.4H13.7z"/>
</svg>
