<?xml version="1.0" encoding="utf-8"?>
<!-- Generator: Adobe Illustrator 22.0.1, SVG Export Plug-In . SVG Version: 6.00 Build 0)  -->
<svg version="1.1" id="レイヤー_1" xmlns="http://www.w3.org/2000/svg" xmlns:xlink="http://www.w3.org/1999/xlink" x="0px"
	 y="0px" viewBox="0 0 18 18" style="enable-background:new 0 0 18 18;" xml:space="preserve">
<path d="M5.2,12h4.4v2H5.2V12z M5.3,7.5h7.6v2H5.3V7.5z M4.3,6.4L4.2,10l0.1,0.4l0.1,0.1l0.1,0.1l0.1,0.1l0.1,0l0.2,0L5,10.6
	l0.2-0.2L5.3,10h4.2v1.5H4.1l0.1,2.1l-0.1,0.3L4,14L4,14.1l-0.2,0.1L0.7,14v0.5h8.8v2.7l0.4,0l0.3-0.1l0.2-0.2l0.1-0.1l0.1-0.3
	l0-1.9h6.8l-0.4-0.9l-0.4-0.5L16.3,13l-0.1,0l-0.1,0L15.9,13l-0.2,0.2l-0.6,0.7L14.9,14h-4.4v-2h5.6l-0.3-0.7L15.5,11L15,10.6
	l-0.5,0.5l-0.4,0.5l0,0l-3.5,0l0-1.1l0.1-0.3l0-0.1l1.8-0.2h0.1l0.3,0.1l0.1,0.1l0.1,0.1l0,0.1l0,0.4h0.8l0.1-0.4L14,8l0.4-0.3
	l0.1-0.2l0-0.2l-0.1-0.2L14,6.9l-0.2-0.1l-0.2-0.1h-0.1l-0.1,0L12.8,7H5.5L4.3,6.4z M8,3.4l0.2-0.2l4.3,0v2h-5L8,3.4z M7.6,0.8
	l-0.5,2H2.8v0.5h4.1l-0.5,2H0.7v0.5h16.5L16.8,5l-0.9-0.9L15.2,5L15,5.1l-0.2,0.1l-0.4,0.1l-0.8-0.1V3.6l0.2,0l0.1-0.1l0.1-0.1
	l0-0.1l0-0.3l-0.1-0.2l-0.1-0.2l-0.1-0.1l-0.2-0.1l-0.3-0.1l-0.1,0l-1.3,0.6l-0.3,0L8.3,2.7V2.5L8.4,2l0.1-0.1L9,1.8l0.2-0.1l0-0.4
	L8.8,1L8,0.8H7.6z"/>
</svg>
