<?xml version="1.0" encoding="utf-8"?>
<!-- Generator: Adobe Illustrator 22.0.1, SVG Export Plug-In . SVG Version: 6.00 Build 0)  -->
<svg version="1.1" id="レイヤー_1" xmlns="http://www.w3.org/2000/svg" xmlns:xlink="http://www.w3.org/1999/xlink" x="0px"
	 y="0px" viewBox="0 0 18 18" style="enable-background:new 0 0 18 18;" xml:space="preserve">
<path d="M1.3,12.8l-0.2,0.3l-0.6,2.3v0.7l0.4,0.1l0.3-0.1l0.3-0.3l0.2-0.7l-0.2-1.6L1.3,12.8z M2.5,12.7l-0.2,0.2l0.6,2.5l0.4,0.3
	l0.4-0.1L3.8,15l-0.1-0.4l-0.4-1L3,13.1L2.5,12.7z M4.1,12.3l-0.3,0.1l0.4,0.6l0.4,1.5L5,15l0.4,0l0.2-0.2l0.1-0.6l-0.3-0.6
	l-0.4-0.5l-0.4-0.4L4.1,12.3z M6.4,14l0.5,0.1l0.4-0.2l0.1-0.4l-0.1-0.4L7,12.7l-0.4-0.3l-1-0.5L5.2,12l0.6,0.8L6.4,14z M11.2,1.9
	h3.9l0.1,0.3l-0.5,3.4l-1,3.7l-0.6,1.3h-0.1l-0.9-2l-0.8-3.3L11.2,1.9z M15.6,0.7l-0.4,0.7H9.3v0.5h1.3l0.3,4.2l0.7,3.2l0.9,2.4
	l-0.5,0.9l-1.7,2.3l-2.2,2.1l0,0.1l0.4-0.1l1.7-1.1l1.8-1.6l1-1.4l0.5,1l1.5,2l1.5,1.1l0.8-1.2l-1.2-0.9l-1.4-1.3l-1.1-1.7l1.6-3.9
	l1.1-5.5L16.9,2c-0.3-0.8-0.4-1-1-1.3H15.6z M2.5,8h1.8v2.4H2.5V8z M2.5,4.9h1.8v2.6H2.5V4.9z M2.5,1.9h1.8v2.6H2.5V1.9z M8.8,1.9
	L8.8,1.5L8.6,1L8.3,0.6L7.8,0.4H7.4l-0.8,1H3.1L1.5,0.7v10.9l0.3,0.2l0.3,0l0.3-0.1l0.1-0.3l0-0.4h5.3l0.1,0.1l0,0.6l-0.3,2.3
	l-0.7,1.8l-2.4,0.4V16l1.2,0.4l0.1,0.6h0.7l0.4-0.1l0.9-0.7l0.3-0.5L8.8,14L9,11.3l0.3-0.1l0.3-0.6l-0.2-0.2C9.1,10,9,9.9,8.3,9.6
	l-0.5,0.7H5.4V8h3l0.1-0.4L7.5,6.6L7.1,6.7L6.5,7.5H5.4V4.9h3V4.5L8.1,4L7.6,3.6H7.2L6.5,4.5H5.4V1.9H8.8z"/>
</svg>
