<?xml version="1.0" encoding="utf-8"?>
<!-- Generator: Adobe Illustrator 22.0.1, SVG Export Plug-In . SVG Version: 6.00 Build 0)  -->
<svg version="1.1" id="レイヤー_1" xmlns="http://www.w3.org/2000/svg" xmlns:xlink="http://www.w3.org/1999/xlink" x="0px"
	 y="0px" viewBox="0 0 18 18" style="enable-background:new 0 0 18 18;" xml:space="preserve">
<path d="M6.1,14h6.1l-0.6,0.4l-2.3,1.2l-1-0.4L6.1,14z M13.6,13.1h-0.5l-0.3,0.4H3.5V14h1.7l3.2,2l-2.8,0.7l-4.9,0.8l0.2,0.2
	l4.5-0.3l4.1-0.9l0.9,0.3l3.9,0.6l2.3,0.1l1-1.1h-2l-5-0.4l2.8-1.5l1.2-0.2v-0.4L13.6,13.1z M12.5,11.1h3.6v1.3h-3.6V11.1z
	 M7.2,11.1h4.5v1.3H7.2V11.1z M2.4,11.1h3.9v1.3H2.4V11.1z M2.4,12.9l13.8,0v0.3l0.2,0.3l0.5-0.1l0.2-0.3v-1.5l0.4-0.4v-0.3
	l-0.3-0.5l-0.5-0.3h-0.3L16,10.6H3.1l-1.6-0.4v3l0.3,0.2h0.4l0.1-0.3V12.9z M16.7,3.5h-0.3l-2.2,1.4l-4,1.7v0.1l0.2,0.1l3.5-0.9
	l2.8-1.2l0.8-0.2l0-0.2L16.7,3.5z M16.9,2.7l-0.8-0.8h-0.3l-0.6,0.4L10,4.9V5l0.6,0l2.6-0.8L15.9,3l0.8-0.1L16.9,2.7z M9.6,3.4h0.5
	l2.4-0.7l2.7-1.2l0.9-0.2L16.2,1l-0.6-0.7h-0.2l-2.2,1.3L9.6,3.4L9.6,3.4z M4.9,8.6l8.6,0l0,0.8H4.9V8.6z M4.9,7.5l8.6,0l0,0.6
	l-8.6,0V7.5z M7.6,4.8L7.2,4.9l0.6,0.7L3.2,6.1l0.7-0.7l0.5-0.2V4.8H7.6z M4.2,6.6L8,6l0.4,0.6l0.4,0.4l0.4-0.1l0.2-0.3V6.2L9,5.8
	l-1.4-1h2.1V4.5L9.1,3.8H8.8L8.3,4.3H3.1V3.6h6V3.2L8.6,2.6H8.3L7.9,3.1H3.1V2.5h6V2.1L8.6,1.5H8.3L7.9,2H3.1V1.4h6V1L8.4,0.4H8.1
	L7.7,0.9H3.6L2.2,0.4l0,3.9H0.8v0.5H3L2.4,6.1h-2l0.3,1l0.2,0.2L1.9,7L4,6.6V10l0.3,0.2h0.4l0.2-0.1V9.9h8.6V10l0.3,0.2h0.4l0.2-0.2
	l0-2.1l0.4-0.4V7.1L14,6.5h-0.3L13.3,7L6,7L4.2,6.6z"/>
</svg>
