<?xml version="1.0" encoding="utf-8"?>
<!-- Generator: Adobe Illustrator 22.0.1, SVG Export Plug-In . SVG Version: 6.00 Build 0)  -->
<svg version="1.1" id="レイヤー_1" xmlns="http://www.w3.org/2000/svg" xmlns:xlink="http://www.w3.org/1999/xlink" x="0px"
	 y="0px" viewBox="0 0 18 18" style="enable-background:new 0 0 18 18;" xml:space="preserve">
<path d="M12.6,7.4l-0.7,0.9H3.8v0.5h4.9v3.6H2.9v0.5h5.8v3.5H1v0.5h16.5l-0.7-1l-0.5-0.3l-0.2-0.1l-0.2,0l-0.3,0.1l-0.2,0.1
	l-0.2,0.2l-0.4,0.6H9.8v-3.5H15l-0.1-0.3l-0.1-0.3l-0.6-0.7l-0.3-0.2l-0.4-0.1l-0.8,1l-0.1,0.1l-0.1,0H9.8V8.8h4.4l-0.3-0.6
	l-0.2-0.2L13,7.5l-0.3-0.1H12.6z M9.3,0.7L8.8,1.5H3.2V2h5.4L6.9,3.9L5.4,5.4L0.5,8.9V9l0.7,0l4.2-2.6l3.7-3.2l0.4-0.5l0.2-0.1
	L11.3,5l0.8,0.9l1,0.8L16,8.4l0.1-0.3L16.3,8l0.1-0.1l0.2-0.1l0.2,0l0.3,0.1l0-0.1l-4-2l-2.5-2.3l-0.6-1L10.9,2l-0.3-0.5l-0.4-0.4
	L9.6,0.8l-0.1,0H9.3z"/>
</svg>
