<?xml version="1.0" encoding="utf-8"?>
<!-- Generator: Adobe Illustrator 22.0.1, SVG Export Plug-In . SVG Version: 6.00 Build 0)  -->
<svg version="1.1" id="レイヤー_1" xmlns="http://www.w3.org/2000/svg" xmlns:xlink="http://www.w3.org/1999/xlink" x="0px"
	 y="0px" viewBox="0 0 18 18" style="enable-background:new 0 0 18 18;" xml:space="preserve">
<path d="M9,16h4.6l0.2-0.2v-0.2v-0.2l0.1-0.5v-0.2l0.1-0.3l0.1-0.2l0.2-0.2v-0.4h-0.6l0,0.1l-0.2,0.3l-0.4,0.5l-0.4,0.2h-2.4l0-0.1
	l1.2-1.5l0.3-0.4l0.3-0.3l0.4-0.4l0.1-0.1l0.5-0.4l0.3-0.4l0.3-0.4l0.2-0.5l0.1-0.3V9.7l0-0.3l0-0.1l0-0.1l-0.3-0.6l-0.4-0.4
	l-0.7-0.5l-0.4-0.1l-0.3-0.1h-0.6l-0.9,0.3h-0.1l-0.1,0l-0.1,0.2L9.7,8.3L9.5,8.5L9.3,8.8L9.2,9.2l0,0.2l0,0.4l0.4,0.4l0.1,0.2
	l0.1,0H10l0.2-0.1l0.3-0.1l0.1-0.2l0.2-0.3V9.6L10.3,9V8.8l0.4-0.5L11,8.1L11.2,8h0.4l0.5,0.2h0.1l0.3,0.4l0.1,0.3l0.1,0.2l0,0.1
	l0,0.2v0.6l-0.2,0.8L12,11.6L11.7,12l-1.8,2.1l-0.2,0.4L9.4,15l-0.2,0.3L9,15.5V16z M3.8,16.2h0.3l0.4-0.5l0.3-0.6l0.6-1.1l0.2-0.3
	l0.3-0.5L7.5,10l0.1-0.3l4.1-7.3l0.2-0.2V1.8h-0.3L11.3,2L9.7,4.9L9.6,5.3L7.5,9L7.4,9.3l-3.5,6.3l-0.1,0.2V16.2z"/>
</svg>
