<?xml version="1.0" encoding="utf-8"?>
<!-- Generator: Adobe Illustrator 22.0.1, SVG Export Plug-In . SVG Version: 6.00 Build 0)  -->
<svg version="1.1" id="レイヤー_1" xmlns="http://www.w3.org/2000/svg" xmlns:xlink="http://www.w3.org/1999/xlink" x="0px"
	 y="0px" viewBox="0 0 18 18" style="enable-background:new 0 0 18 18;" xml:space="preserve">
<path d="M9.1,13.5c-1.3-0.4-1.8-1.6-1.8-4.6c0-2.9,0.4-4,1.8-4.5V13.5z M9.9,14.5c1.4-0.1,2.3-0.7,2.9-2.2L12.3,12
	c-0.8,1.2-1.2,1.5-2.5,1.6V4.2h0.3c0.5,0,0.9,0.1,1.2,0.4c-0.6,0.3-0.9,0.6-0.9,1.3c0,0.7,0.4,1.2,1.2,1.2c0.8,0,1.3-0.5,1.3-1.3
	c0-0.8-0.5-1.5-1.4-1.9c-0.5-0.2-1-0.3-1.7-0.3V1.9H9.1v1.6C6.6,3.9,5.1,5.9,5.1,9c0,2.2,0.9,4,2.4,4.9c0.5,0.3,1,0.4,1.6,0.5v1.7
	h0.7V14.5z"/>
</svg>
