<?xml version="1.0" encoding="utf-8"?>
<!-- Generator: Adobe Illustrator 22.0.1, SVG Export Plug-In . SVG Version: 6.00 Build 0)  -->
<svg version="1.1" id="レイヤー_1" xmlns="http://www.w3.org/2000/svg" xmlns:xlink="http://www.w3.org/1999/xlink" x="0px"
	 y="0px" viewBox="0 0 18 18" style="enable-background:new 0 0 18 18;" xml:space="preserve">
<path d="M10.4,6.9H7.9l1.2-4.2L10.4,6.9z M6.5,11.2l2.1,1.5l-3.4,2.5L6.5,11.2z M6.8,7.6L6.1,10L2.7,7.6H6.8z M12.2,10.1l-0.9-2.4
	h4.1L12.2,10.1z M9.8,12.7l2.1-1.5l1.3,3.9L9.8,12.7z M11.6,10.5l-2.5,1.8l-2.5-1.8l1-2.9h3L11.6,10.5z M0.5,6.9l5.4,3.8l-2,6.1
	l5.3-3.7l5.3,3.7l-2-6.1l5-3.8H11l-2-6.2L7,6.9H0.5z"/>
</svg>
