<?xml version="1.0" encoding="utf-8"?>
<!-- Generator: Adobe Illustrator 22.0.1, SVG Export Plug-In . SVG Version: 6.00 Build 0)  -->
<svg version="1.1" id="レイヤー_1" xmlns="http://www.w3.org/2000/svg" xmlns:xlink="http://www.w3.org/1999/xlink" x="0px"
	 y="0px" viewBox="0 0 9 18" style="enable-background:new 0 0 9 18;" xml:space="preserve">
<polygon points="4.4,0.7 4,1.2 4.3,4.2 4.2,4.2 1.8,2.5 1.3,2.3 1,2.7 1,3.3 3.8,4.7 3.8,4.9 3.7,5 2.6,5.4 1.5,6 1.2,6.1 0.9,6.4 
	0.9,6.8 1.1,7.1 1.4,7 1.7,7 4.2,5.3 4.2,5.2 4,8.4 4.6,8.9 5,8.4 4.7,5.3 4.8,5.3 6,6.2 7.3,7 7.5,7.1 7.9,7.1 8.1,6.8 8.1,6.2 
	7.6,6 5.6,5 5.4,5 5.3,4.9 5.2,4.8 5.2,4.7 8.1,3.3 8.1,2.7 7.8,2.3 7.4,2.5 5,4.2 4.8,4.2 5,1.2 4.8,0.7 "/>
</svg>
