<?xml version="1.0" encoding="utf-8"?>
<!-- Generator: Adobe Illustrator 22.0.1, SVG Export Plug-In . SVG Version: 6.00 Build 0)  -->
<svg version="1.1" id="レイヤー_1" xmlns="http://www.w3.org/2000/svg" xmlns:xlink="http://www.w3.org/1999/xlink" x="0px"
	 y="0px" viewBox="0 0 18 18" style="enable-background:new 0 0 18 18;" xml:space="preserve">
<path d="M2.9,8.7v0.2l0.5,1l0.4,1l0.3,0.1h0.3l0.1-0.1l0.1-0.1l0.1-0.3v-0.2v-0.2L4.5,9.5L4.2,9.2L3.8,9L2.9,8.7z M13.9,5.6L13,6.7
	H7.5v0.5h2.9l-0.1,2.9H6.3v0.5h3.9c-0.6,3.6-2.1,5.6-5.1,6.7v0.2c3.5-0.6,5.2-2.6,6-6.8c1.4,3.4,2.1,4.2,4.5,6.1
	c0.4-0.5,0.8-0.6,1.8-0.6V16c-2.8-1-5.1-3.2-5.8-5.4h5.8l-0.2-0.3l-0.5-0.7l-0.5-0.4L15.9,9L15,10.1h-3.8l0.2-2.9h3.5
	c0.4,0,0.5,0,0.5-0.3c0-0.1-0.1-0.2-0.1-0.3L13.9,5.6z M2.9,4.8l0.3,0.5l0.5,1.2l0.1,0.1L4,6.7h0.3l0.2-0.1l0.1-0.1l0.1-0.1l0-0.1
	V5.9L4.5,5.5L4.2,5.2L4.1,5.1L2.9,4.8L2.9,4.8z M5.2,0.7L4.8,1.4H3.3L1.7,0.7v9.6c0,2.7-0.3,4.3-1.2,6.6h0.4c1.2-2,1.8-4.1,1.8-6.8
	V1.8H5v13.6l-0.3,0.2l-2-0.1l-0.3,0.1L2.6,16h0.2l0.3,0.1l0.3,0.1l0.2,0.2l0.1,0.2l0.1,0.4L4.8,17l0.2-0.1l0.5-0.4L6,15.9v-0.2V7.1
	C7.3,6,8,5,9.6,2.3C10,2.2,10.2,2,10.2,1.8c0-0.1-0.1-0.2-0.2-0.3L8.6,1.1C7.8,3.9,7.3,5,6,6.6V2h0.3l0.1-0.1l0.1-0.1V1.7V1.5
	L6.3,1.3L6.3,1.1L6.1,1L5.8,0.8L5.5,0.7H5.2z M12.8,0.5l-0.2,0.9h-2.3v0.4h2.4c1,2.7,1.4,3.1,3.3,4.1c0.4-0.3,0.6-0.4,1.5-0.4V5.3
	c-2.6-1.1-3.1-1.4-4.1-2.9V2.3V2.1V1.9V1.8h0.1l0.2-0.2h0.2h0.3l-0.1-0.3L14,1.1l-0.2-0.3l-0.4-0.2l-0.2-0.1H12.8z"/>
</svg>
