<?xml version="1.0" encoding="utf-8"?>
<!-- Generator: Adobe Illustrator 22.0.1, SVG Export Plug-In . SVG Version: 6.00 Build 0)  -->
<svg version="1.1" id="レイヤー_1" xmlns="http://www.w3.org/2000/svg" xmlns:xlink="http://www.w3.org/1999/xlink" x="0px"
	 y="0px" viewBox="0 0 18 18" style="enable-background:new 0 0 18 18;" xml:space="preserve">
<path d="M1.4,5.2c0,1.3-0.1,1.8-0.5,2.4C0.7,8,0.6,8.2,0.6,8.4c0,0.3,0.2,0.6,0.5,0.6C1.7,8.9,2,8.4,2,7.5c0-0.8-0.1-1.2-0.3-2.3
	H1.4z M3.6,1.7C4,1.6,4.1,1.4,4.1,1.2c0-0.2-0.2-0.3-0.5-0.4l-1-0.2v8.9c0,3.5-0.5,5.5-2,7.5l0.2,0.3c1.6-1.6,2.3-3,2.6-5.3
	c0.7,0.7,1,1.1,1.4,2.1c0.1,0.4,0.3,0.5,0.5,0.5C5.8,14.6,6,14.4,6,14c0-0.4-0.2-0.8-0.7-1.3c-0.4-0.4-0.6-0.5-1.7-1.2
	c0.1-1.3,0.1-1.5,0.1-1.9v-3l2-1.7c0.4,0,0.6-0.1,0.6-0.4c0-0.1-0.1-0.3-0.3-0.4L5.2,3.7c-0.6,1-1,1.6-1.6,2.4V1.7z M15.6,6.1v8.3
	c0,0.3-0.1,0.4-0.5,0.4h-1.4v0.3c1.2,0.2,1.5,0.3,1.5,1.1c1.2-0.3,1.5-0.6,1.5-1.7v-8c0.4-0.1,0.6-0.3,0.6-0.5
	c0-0.2-0.1-0.4-0.3-0.5l-0.9-0.7l-0.6,0.8h-1.9L12.4,5v11.9c0,0.1,0.2,0.3,0.3,0.3c0.2,0,0.4-0.1,0.7-0.6V6.1H15.6z M8,2.3l0.4-0.6
	C8.8,1.6,9,1.5,9,1.3C9,1.2,8.8,1.1,8.7,1l-1-0.4C7.1,2,6.8,2.7,5.8,4L6,4.2c0.8-0.5,1-0.7,1.6-1.4h1.1c0.4,0.4,0.5,0.7,0.6,1
	c0.1,0.8,0.2,0.9,0.6,0.9c0.3,0,0.5-0.3,0.5-0.6c0-0.4-0.3-0.8-1.1-1.4h1.9c0.3,0,0.5-0.1,0.5-0.3c0-0.1-0.1-0.2-0.3-0.4l-0.7-0.7
	L10,2.3H8z M13.2,2.3l0.4-0.5c0.4,0,0.6-0.1,0.6-0.4c0-0.2-0.1-0.3-0.5-0.4l-0.8-0.3c-0.6,1.6-0.8,2-1.9,3.5l0.2,0.2
	c0.8-0.6,1.1-0.9,1.7-1.5h1.2c0.4,0.4,0.6,0.8,0.8,1.4c0.1,0.3,0.2,0.4,0.4,0.4c0.3,0,0.5-0.3,0.5-0.6c0-0.5-0.3-0.8-1-1.3h2.1
	c0.3,0,0.4-0.1,0.4-0.3c0-0.1-0.1-0.4-0.3-0.5l-0.7-0.6l-0.8,0.9H13.2z M7.3,8.1h2.9v1.5H7.3V8.1z M7.3,6.1h2.9v1.5H7.3V6.1z
	 M8.3,5.6L8.7,5C9,4.8,9.2,4.7,9.2,4.5c0-0.1,0-0.2-0.4-0.3L8,4C8,4.7,7.9,5,7.8,5.6H7.4L6.2,5v11.9c0,0.2,0.1,0.4,0.3,0.4
	c0.3,0,0.5-0.2,0.7-0.7v-2h3.6c0.3,0,0.5-0.1,0.5-0.3c0-0.1-0.1-0.2-0.3-0.4l-0.8-0.7l-0.8,0.9H7.3v-1.7h3.8c0.2,0,0.4-0.1,0.4-0.3
	c0-0.1-0.1-0.3-0.3-0.4l-0.8-0.6l-0.7,0.8H7.3v-1.9h2.9v0.3c0,0.2,0.2,0.3,0.4,0.3c0.3,0,0.4-0.1,0.6-0.5V6.5
	c0.3-0.1,0.5-0.3,0.5-0.5c0-0.1-0.1-0.3-0.4-0.5l-0.8-0.6L10,5.6H8.3z"/>
</svg>
