<?xml version="1.0" encoding="utf-8"?>
<!-- Generator: Adobe Illustrator 22.0.1, SVG Export Plug-In . SVG Version: 6.00 Build 0)  -->
<svg version="1.1" id="レイヤー_1" xmlns="http://www.w3.org/2000/svg" xmlns:xlink="http://www.w3.org/1999/xlink" x="0px"
	 y="0px" viewBox="0 0 18 18" style="enable-background:new 0 0 18 18;" xml:space="preserve">
<path d="M8.7,4.8c1.3,0.6,2,1.1,2.7,1.8c0.5,0.6,0.6,0.7,0.9,0.7c0.3,0,0.6-0.3,0.6-0.6c0-0.5-0.6-1.1-1.4-1.4
	c-0.8-0.3-1.1-0.4-2.8-0.8V4.8z M7.6,2.3h6.6v12.4c0,0.7-0.1,0.8-1,0.8h-1.6v0.3c1.5,0.2,1.9,0.4,2,1.3c1.4-0.4,1.7-0.8,1.7-2V2.8
	C15.8,2.5,16,2.3,16,2.1c0-0.2-0.2-0.4-0.5-0.6l-0.9-0.6L14,1.8H7.8L6.5,0.9v7.6c0,4.7-0.9,6.5-4.5,8.2L2.1,17
	c1.5-0.5,2.3-0.9,3.3-1.6C7,14.1,7.6,12.6,7.6,9V2.3z M8.7,8.7c1.4,0.7,2.1,1.2,2.7,2c0.4,0.6,0.6,0.7,0.8,0.7
	c0.3,0,0.6-0.3,0.6-0.7c0-0.6-0.6-1.2-1.7-1.6c-0.7-0.3-1.1-0.4-2.5-0.7V8.7z"/>
</svg>
