<?xml version="1.0" encoding="utf-8"?>
<!-- Generator: Adobe Illustrator 22.0.1, SVG Export Plug-In . SVG Version: 6.00 Build 0)  -->
<svg version="1.1" id="レイヤー_1" xmlns="http://www.w3.org/2000/svg" xmlns:xlink="http://www.w3.org/1999/xlink" x="0px"
	 y="0px" viewBox="0 0 18 18" style="enable-background:new 0 0 18 18;" xml:space="preserve">
<path d="M2.3,8.2l0.6,0.3L3,8.7l0.8,1.7L4,10.5l0.2,0.1l0.2,0.1h0.1h0.2l0.1-0.1l0.2-0.3L5,10L4.9,9.6L4.7,9.3L4.4,8.9L4,8.5
	L3.5,8.3L2.4,8.1L2.3,8.2z M2.4,3.9l0.6,0.4l0.2,0.3l0.6,1.4L3.8,6L4,6.2h0.1h0.2l0.1-0.1L4.6,6l0.1-0.1l0.1-0.2V5.6L4.6,5.3
	L4.5,4.9L4.2,4.4L3.8,4L3.4,3.8L3,3.8H2.4V3.9z M10.6,7.6h4.2c-0.5,2-0.8,2.8-1.8,4.9c-1.1-1.5-1.5-2.3-2.4-4.6L10.6,7.6z M8.5,0.7
	v16c0,0.3,0.1,0.4,0.2,0.4c0.3,0,0.5-0.3,0.8-0.8V7.6h0.6c0.7,2.9,1.2,4.1,2.3,5.9c-0.9,1.4-1.5,2.1-3.2,3.6l0.1,0.2
	c1.5-0.9,2.4-1.7,3.6-3.2c0.3,0.3,0.5,0.6,0.6,0.6c0.3,0.3,0.6,0.7,1,1.1c0.1,0.2,0.5,0.5,1.1,1c0.3-0.4,0.4-0.4,1.7-0.6v-0.1
	c-2-0.9-2.7-1.5-3.9-2.8c0.9-1.6,1.3-2.3,2.4-4.9c0.5-0.2,0.7-0.3,0.7-0.5s-0.2-0.5-0.4-0.6l-0.8-0.6l-0.8,0.6H9.6V1.7h5.3v2.7
	c0,0.7-0.1,0.8-0.6,0.8h-1.3v0.2c0.9,0.1,1.2,0.3,1.4,1h0.6l0.4-0.1L15.6,6l0.2-0.3V2.3L16,2.2c0.2-0.2,0.3-0.2,0.3-0.2
	c0.2-0.1,0.2-0.2,0.2-0.3c0-0.2-0.2-0.3-0.4-0.5l-1.1-0.6l-0.4,0.7H10L8.5,0.7z M5.6,0.4L5.2,1.2H2.5L1.1,0.6v10.1
	c0,2-0.3,3.9-0.8,6.2h0.2C1.5,15,2,13.2,2.1,10.8V1.7h3.5v13.7l-0.3,0.2l-0.1,0.1l-0.4,0.1H3v0.1c0.9,0.3,1.2,0.5,1.6,1.2h0.4
	L5.8,17l0.5-0.3l0.2-0.2V2.1l0.2,0L7,1.9l0.1-0.2l0.1-0.2V1.2L7.1,1.2L6.9,1L5.6,0.4z"/>
</svg>
