<?xml version="1.0" encoding="utf-8"?>
<!-- Generator: Adobe Illustrator 22.0.1, SVG Export Plug-In . SVG Version: 6.00 Build 0)  -->
<svg version="1.1" id="レイヤー_1" xmlns="http://www.w3.org/2000/svg" xmlns:xlink="http://www.w3.org/1999/xlink" x="0px"
	 y="0px" viewBox="0 0 18 18" style="enable-background:new 0 0 18 18;" xml:space="preserve">
<path d="M1.8,0.8v4.4c0,2.4-0.4,4.7-0.9,5.6c-0.2,0.3-0.3,0.5-0.3,0.6l0.2,0.2c1.5-1.6,2.1-3.5,2.1-6.7V1.8c0.3-0.1,0.5-0.2,0.5-0.4
	C3.3,1.2,3.1,1,2.7,1L1.8,0.8z M5.3,11.6c-0.5,1-1.1,1.5-2,1.7c-0.8,0.2-0.8,0.2-1,0.3c-0.1,0.1-0.2,0.2-0.2,0.4
	c0,0.3,0.3,0.5,0.6,0.5c0.7,0,1.5-0.4,2-1c0.4-0.5,0.5-0.7,0.8-1.8L5.3,11.6z M9.2,11.5c0.4-0.3,0.5-0.4,0.5-0.6
	c0-0.2-0.2-0.3-0.5-0.4l-1.1-0.2c-0.4,4.2-2,5.6-7.3,6.5v0.3c5.1-0.4,7.4-1.8,8.2-5c1.6,3.3,3.2,4.3,7.4,5c0.2-0.6,0.3-0.7,0.9-0.9
	l0-0.3c-2.7-0.1-4.8-0.7-6-1.9l3.4-1.8c0.6-0.1,0.8-0.2,0.8-0.4c0-0.1-0.1-0.2-0.3-0.3l-0.9-0.5c-1,1-1.6,1.5-2.4,2.1
	c-0.6,0.4-0.6,0.4-0.9,0.6C10.4,13.5,9.9,12.8,9.2,11.5L9.2,11.5z M15.3,5.3h-2.9V2h2.9V5.3z M15.3,5.8v0.5c0,0.3,0.1,0.5,0.3,0.5
	c0.4,0,0.6-0.2,0.7-0.8V2.4c0.4-0.2,0.6-0.3,0.6-0.5c0-0.1-0.1-0.2-0.3-0.4l-1-0.7l-0.4,0.7h-2.6l-1.1-0.8v8.1c0,1.5,0.5,1.8,3,1.8
	c2.1,0,2.9-0.2,2.9-0.8c0-0.1-0.1-0.3-0.1-0.3c-0.5-0.4-0.6-0.5-0.6-0.8V8.6L16.6,7h-0.2l-0.5,1.6c-0.2,0.8-0.5,0.9-1.7,0.9
	c-1.6,0-1.8-0.1-1.8-0.9V5.8H15.3z M9.6,6.8V9H5.1V6.8H9.6z M5.1,3.8V2h2.7L7.7,3.8H5.1z M8.7,6.4H5.1v-2h3.7L8.7,6.4z M9.7,6.3
	l0.1-1.6c0.4-0.1,0.5-0.3,0.5-0.4c0-0.1-0.1-0.3-0.4-0.4L9.1,3.3L8.7,3.8h0l0.1-1.5C9.2,2.2,9.3,2,9.3,1.8c0-0.1,0-0.2-0.4-0.4
	L8.2,0.9L7.7,1.5H5.2L4.1,0.9v9.9c0,0.3,0.1,0.5,0.4,0.5c0.3,0,0.5-0.2,0.6-0.9V9.5h4.5v0.3c0,0.2,0.1,0.4,0.3,0.4
	c0.3,0,0.4-0.1,0.7-0.6V7.2C11,7,11.2,6.9,11.2,6.7c0-0.1-0.1-0.3-0.4-0.4l-0.8-0.5L9.7,6.3z"/>
</svg>
