<?xml version="1.0" encoding="utf-8"?>
<!-- Generator: Adobe Illustrator 22.0.1, SVG Export Plug-In . SVG Version: 6.00 Build 0)  -->
<svg version="1.1" id="レイヤー_1" xmlns="http://www.w3.org/2000/svg" xmlns:xlink="http://www.w3.org/1999/xlink" x="0px"
	 y="0px" viewBox="0 0 18 18" style="enable-background:new 0 0 18 18;" xml:space="preserve">
<path d="M12.8,6.3V5h2.1v1.3H12.8z M12.8,8.1V6.8h2.1v1.3H12.8z M12.8,13.5v-1.3h2.6v1.3H12.8z M9.3,13.5v-1.3h2.4v1.3H9.3z
	 M11.8,10.4v1.3H9.3v-1.3H11.8z M15.4,10.4v1.3h-2.6v-1.3H15.4z M7.9,2.9h3.9v1.7H8.6V5h3.2v1.3H7.9V2.9z M8.3,2.4L6.8,1.6v6.5
	c-0.1,4.5-0.4,6-1.6,8.6l0.2,0.2c1.7-2.4,2.3-4.6,2.4-8.4V6.8h3.9v1.3H8.6v0.5h3.2v1.3H9.5L8.3,9.3v7.6c0,0.2,0.2,0.3,0.4,0.3
	c0.3,0,0.4-0.2,0.6-0.6V14h2.4v2.9c0,0.2,0.1,0.4,0.3,0.4c0.3,0,0.4-0.2,0.7-0.6V14h2.6v1.2c0,0.6,0,0.6-0.6,0.7h-1.4v0.3
	c1.1,0.2,1.4,0.4,1.4,1.1c1.1-0.2,1.6-0.5,1.6-1.3v-5c0.4-0.2,0.6-0.4,0.6-0.6c0-0.1-0.1-0.3-0.2-0.4l-0.9-0.7l-0.5,0.6h-2.5V8.6
	h2.1v0.2c0,0.2,0.2,0.3,0.4,0.3c0.3,0,0.4-0.1,0.6-0.6V6.8h1c0.2,0,0.4-0.1,0.4-0.3c0-0.1-0.1-0.3-0.2-0.4l-0.6-0.6L16,6.3h-0.1V5.4
	c0.5-0.2,0.7-0.3,0.7-0.5c0-0.1-0.2-0.4-0.3-0.5l-1-0.6l-0.5,0.8h-2V3.6c0.3-0.2,0.4-0.3,0.4-0.4S13.1,3,12.9,2.9h4.1
	c0.3,0,0.5-0.1,0.5-0.3c0-0.1-0.1-0.3-0.3-0.4l-0.9-0.9l-0.9,1.1h-2.8V1.8c0.5-0.2,0.7-0.4,0.7-0.6c0-0.2-0.2-0.4-0.5-0.4l-1.2-0.3
	v1.8H8.3z M4.5,6.1v3.8h-2V6.1H4.5z M4.5,5.6h-2V1.8h2V5.6z M4.5,10.4v4.9c0,0.5-0.1,0.6-0.7,0.6H2.5v0.3c1.1,0.2,1.4,0.4,1.4,1.1
	c1.2-0.3,1.5-0.7,1.5-1.7V2.2C5.9,2,6,1.9,6,1.7c0-0.1-0.2-0.3-0.5-0.6L4.8,0.6L4.3,1.3H2.5L1.5,0.7v9.4c0,3.7-0.2,4.9-0.9,6.9
	l0.2,0.2c1.3-2.2,1.5-3.1,1.7-6.8H4.5z"/>
</svg>
