<?xml version="1.0" encoding="utf-8"?>
<!-- Generator: Adobe Illustrator 22.0.1, SVG Export Plug-In . SVG Version: 6.00 Build 0)  -->
<svg version="1.1" id="レイヤー_1" xmlns="http://www.w3.org/2000/svg" xmlns:xlink="http://www.w3.org/1999/xlink" x="0px"
	 y="0px" viewBox="0 0 18 18" style="enable-background:new 0 0 18 18;" xml:space="preserve">
<text transform="matrix(1 0 0 1 297.6377 420.9449)" style="font-family:'KozGoPr6N-Regular-83pv-RKSJ-H'; font-size:12px;">EE7B</text>
<path d="M11.4,12.8v0.5l0.8,0.5l0.3,0.3l0.4,1.5l0.4-0.1l0.1-0.1l0.2-0.2l0.1-0.3v-0.4l-0.1-0.2l-0.1-0.2l-0.3-0.4l-0.6-0.4
	L11.4,12.8z M10,9.2h4.4v2.4H9.5L10,9.2z M4.6,9.2h4.2l-0.4,2.4H4.6V9.2z M8,6l3.1,0.1l-0.2,0.5l-0.3,0.4l-0.2,0.2l-0.3,0.2l-0.1,0
	L8.8,7.3L8.5,7.5l1,0.7l0.3,0.6H5.2L8,6z M7.3,4.6L7,5.2l-2,2.6L4.4,8.3l-0.1,0L3.7,8.2L3.6,8.9L3.5,8.9l-1.2,1l-1.1,0.5l-0.3,0.1
	v0.6l2.7-1.3l-0.1,2.7l0.1,0.3l0.1,0.1L3.8,13l0.1,0.1l0.1,0l0.2,0L4.3,13l0.2-0.2l0.1-0.1l0-0.2l0-0.3h3.7l-1.4,2.1L6,15l-1,0.6
	l-2.7,1.3l-0.8,0.2l-0.2,0v0.1h0.3c1.9,0,3.3-0.5,5-1.6l1.3-1.1L8.3,14l0.9-1.8l0,0l-0.1,1.3l0.1,3l0.1,0.2l0.1,0.1L9.6,17l0.3,0.1
	l6.2,0l0.5-0.2l0.4-0.2l0.1-0.1l0-0.2l-0.4-0.8l0-0.1l0.1-2.6h-0.1l-0.5,1.7l-0.4,0.9l-0.2,0.2L15.2,16l-0.5,0.2l-4.1,0.1l-0.1,0
	l0,0L10.4,16l0-0.1l-0.1-0.7l0.1-3.2h4.1l0,0.2l0,0.5l0.1,0.1l0.1,0.1l0.1,0.1l0.1,0l0.1,0l0.3-0.2l0.1-0.2l0.1-0.4l0-2.6l0.5-0.4
	l-0.1-0.4l-0.1-0.1l-0.4-0.3l-0.5-0.2l-0.2,0L14,8.7l-0.3,0.1l-2.9,0l0-0.1l1.1-2l0.6-0.6L12.6,6l0-0.2l-0.2-0.4l-0.3-0.3L12,5.1
	h-0.1l-1.3,0.5L8.7,5.5l0.1-0.4L8,4.7L7.3,4.6z M6,0.9v1.8H0.8v0.5H6v1.7l0.4,0l0.2-0.1l0.2-0.1L7,4.3l0-0.2v-1h3.6v1.5l0.6-0.1
	l0.1-0.1l0.1-0.1l0.2-0.2l0-0.1V3.1h5.6L17.2,3L17,2.5l-0.2-0.3l-0.5-0.4l-0.2-0.1l-0.2,0l-0.1,0l-1,0.8l-0.2,0.1l-2.9-0.1l0-0.5
	l0.7-0.6l-0.2-0.4l-1-0.4l-0.6,0v1.8H7l0-0.3l0-0.2l0,0l0.7-0.4L7.6,1.3L7.4,1.1L7.1,0.9L6.5,0.8L6,0.9z"/>
</svg>
