<svg xmlns="http://www.w3.org/2000/svg" viewBox="0 0 100 100"><defs><style>.a{fill:#231815;}</style></defs><path id="一" class="a" fill="none" stroke="black" stroke-width="1" d="M 85.28,43.00 C 85.28,43.00 14.58,43.00 14.58,43.00 12.19,43.31 12.53,53.26 14.58,53.00 14.58,53.00 85.28,53.00 85.28,53.00 88.26,52.83 87.68,42.86 85.28,43.00 Z M 12.67,10.00 C 24.56,10.00 72.59,10.00 86.32,10.00 88.66,10.00 90.00,11.03 90.00,12.87 90.00,25.77 89.96,78.03 89.96,88.09 89.96,89.17 89.42,90.00 88.35,90.00 78.42,90.00 26.45,90.00 13.12,90.00 11.13,90.00 10.00,88.73 10.00,86.52 10.00,73.10 10.00,24.95 10.00,12.80 10.00,11.01 10.96,10.00 12.67,10.00 Z M 94.00,88.20 C 94.00,71.02 94.00,20.91 94.00,10.82 94.00,7.77 89.63,6.00 88.79,6.00 72.35,6.00 22.10,6.00 11.67,6.00 11.06,6.00 9.46,6.07 8.09,7.00 6.99,7.75 6.00,9.19 6.00,10.45 6.00,24.64 6.00,68.91 6.00,86.59 6.00,91.20 8.54,94.00 12.77,94.00 29.57,94.00 72.96,94.00 88.42,94.00 91.93,94.00 94.00,91.84 94.00,88.20 Z" /></svg>