<svg xmlns="http://www.w3.org/2000/svg" viewBox="0 0 100 100"><defs><style>.a{fill:#231815;}</style></defs><path id="хнг" class="a" fill="none" stroke="black" stroke-width="1" d="M 86.22,65.89 C 86.22,64.00 85.28,62.00 85.28,62.00 85.28,62.00 55.44,62.00 55.44,62.00 55.44,62.00 55.44,61.77 55.44,61.77 63.66,59.33 70.25,56.47 75.20,53.19 75.54,52.96 75.82,50.90 75.30,49.43 74.93,48.39 73.75,47.78 73.75,47.78 77.01,48.90 80.52,49.97 84.27,51.00 87.54,51.47 91.09,43.55 89.03,43.25 79.24,41.50 71.15,39.09 64.77,36.00 64.77,36.00 84.89,36.00 84.89,36.00 86.53,36.28 86.79,28.32 84.89,28.00 84.89,28.00 54.34,28.00 54.34,28.00 54.34,28.00 54.34,23.88 54.34,23.88 64.73,23.19 72.21,22.23 76.80,21.00 78.57,20.00 75.06,12.59 72.58,14.00 61.43,16.40 44.09,17.73 20.55,18.00 19.14,17.61 18.42,24.31 22.00,25.00 29.81,24.90 37.36,24.69 44.66,24.38 44.66,24.38 44.66,28.00 44.66,28.00 44.66,28.00 15.28,28.00 15.28,28.00 13.83,27.84 13.41,35.79 15.28,36.00 15.28,36.00 34.30,36.00 34.30,36.00 27.37,39.62 19.73,42.28 11.38,44.00 9.98,44.30 11.74,51.63 14.66,51.00 18.06,50.15 21.29,49.24 24.34,48.28 23.11,48.38 24.03,53.02 24.34,53.00 24.34,53.00 60.23,53.00 60.23,53.00 57.24,54.32 54.02,55.32 50.55,56.00 50.55,56.00 47.64,56.00 46.00,56.00 45.35,56.00 44.89,56.46 44.89,57.12 44.89,58.86 44.89,62.00 44.89,62.00 44.89,62.00 13.52,62.00 13.52,62.00 13.52,62.00 12.60,63.97 12.60,66.02 12.60,67.97 13.52,70.00 13.52,70.00 13.52,70.00 44.89,70.00 44.89,70.00 44.89,70.00 44.89,74.03 44.89,74.03 44.89,75.34 44.14,76.00 42.66,76.00 42.66,76.00 33.59,76.00 33.59,76.00 33.59,76.00 32.39,78.29 32.80,80.49 33.23,82.79 35.28,85.00 35.28,85.00 35.28,85.00 46.17,85.00 46.17,85.00 48.80,85.00 51.01,84.33 52.78,82.98 54.55,81.65 55.44,79.96 55.44,77.91 55.44,77.91 55.44,70.00 55.44,70.00 55.44,70.00 85.28,70.00 85.28,70.00 85.28,70.00 86.22,67.99 86.22,65.89 Z M 45.05,38.92 C 45.05,38.92 45.05,45.00 45.05,45.00 45.55,46.34 54.40,45.89 54.06,45.00 54.06,45.00 54.06,38.61 54.06,38.61 58.52,41.54 63.38,44.00 68.64,46.00 68.64,46.00 30.91,46.00 30.91,46.00 36.03,44.05 40.74,41.70 45.05,38.92 Z M 12.67,10.00 C 24.56,10.00 72.59,10.00 86.32,10.00 88.66,10.00 90.00,11.03 90.00,12.87 90.00,25.77 89.96,78.03 89.96,88.09 89.96,89.17 89.42,90.00 88.35,90.00 78.42,90.00 26.45,90.00 13.12,90.00 11.13,90.00 10.00,88.73 10.00,86.52 10.00,73.10 10.00,24.95 10.00,12.80 10.00,11.01 10.96,10.00 12.67,10.00 Z M 94.00,88.20 C 94.00,71.02 94.00,20.91 94.00,10.82 94.00,7.77 89.63,6.00 88.79,6.00 72.35,6.00 22.10,6.00 11.67,6.00 11.06,6.00 9.46,6.07 8.09,7.00 6.99,7.75 6.00,9.19 6.00,10.45 6.00,24.64 6.00,68.91 6.00,86.59 6.00,91.20 8.54,94.00 12.77,94.00 29.57,94.00 72.96,94.00 88.42,94.00 91.93,94.00 94.00,91.84 94.00,88.20 Z" /></svg>