<svg xmlns="http://www.w3.org/2000/svg" viewBox="0 0 150 150"><defs><style>.a{fill:#231815;}</style></defs><path id="⇨" class="a" fill="none" stroke="black" stroke-width="1" d="M 84.55,21.75 C 84.55,21.75 84.55,48.00 84.55,48.00 84.55,48.00 6.11,48.00 6.11,48.00 6.11,48.00 6.11,105.00 6.11,105.00 6.11,105.00 84.55,105.00 84.55,105.00 84.55,105.00 84.55,131.25 84.55,131.25 84.55,131.25 147.83,76.42 147.83,76.42 147.83,76.42 84.55,21.75 84.55,21.75 Z M 132.08,78.70 C 132.08,78.70 96.05,110.02 96.05,110.02 95.65,110.36 95.13,110.53 94.50,110.53 93.38,110.53 92.83,110.04 92.83,109.05 92.83,109.05 92.83,98.59 92.83,98.59 92.83,96.87 91.95,96.00 90.19,96.00 90.19,96.00 17.59,96.00 17.59,96.00 15.88,96.00 15.03,95.09 15.03,93.28 15.03,93.28 15.03,59.56 15.03,59.56 15.03,57.86 15.88,57.00 17.59,57.00 17.59,57.00 90.19,57.00 90.19,57.00 91.95,57.00 92.83,56.13 92.83,54.38 92.83,54.38 92.83,44.27 92.83,44.27 92.83,43.37 93.38,42.92 94.50,42.92 95.13,42.92 95.65,43.09 96.05,43.44 96.05,43.44 132.08,75.13 132.08,75.13 132.66,75.66 132.95,76.24 132.95,76.88 132.95,77.61 132.66,78.21 132.08,78.70 Z" /></svg>